<?xml version="1.0" encoding="UTF-8" standalone="no"?>
<!-- Created with Inkscape (http://www.inkscape.org/) -->

<svg
   xmlns:dc="http://purl.org/dc/elements/1.1/"
   xmlns:cc="http://creativecommons.org/ns#"
   xmlns:rdf="http://www.w3.org/1999/02/22-rdf-syntax-ns#"
   xmlns:svg="http://www.w3.org/2000/svg"
   xmlns="http://www.w3.org/2000/svg"
   xmlns:sodipodi="http://sodipodi.sourceforge.net/DTD/sodipodi-0.dtd"
   xmlns:inkscape="http://www.inkscape.org/namespaces/inkscape"
   width="20.000061mm"
   height="30mm"
   viewBox="0 0 20.000062 30"
   version="1.1"
   id="svg8"
   inkscape:version="0.92.4 5da689c313, 2019-01-14"
   sodipodi:docname="acheronHorizontal.svg">
  <defs
     id="defs2" />
  <sodipodi:namedview
     id="base"
     pagecolor="#ffffff"
     bordercolor="#666666"
     borderopacity="1.0"
     inkscape:pageopacity="0.0"
     inkscape:pageshadow="2"
     inkscape:zoom="3.959798"
     inkscape:cx="16.508224"
     inkscape:cy="36.622675"
     inkscape:document-units="mm"
     inkscape:current-layer="g838"
     showgrid="false"
     showguides="false"
     inkscape:window-width="1920"
     inkscape:window-height="1052"
     inkscape:window-x="0"
     inkscape:window-y="200"
     inkscape:window-maximized="1"
     fit-margin-top="0"
     fit-margin-left="0"
     fit-margin-right="0"
     fit-margin-bottom="0" />
  <metadata
     id="metadata5">
    <rdf:RDF>
      <cc:Work
         rdf:about="">
        <dc:format>image/svg+xml</dc:format>
        <dc:type
           rdf:resource="http://purl.org/dc/dcmitype/StillImage" />
        <dc:title></dc:title>
      </cc:Work>
    </rdf:RDF>
  </metadata>
  <g
     inkscape:label="Layer 1"
     inkscape:groupmode="layer"
     id="layer1"
     transform="translate(117.55568,-120.86104)">
    <flowRoot
       xml:space="preserve"
       id="flowRoot815"
       style="font-style:normal;font-variant:normal;font-weight:normal;font-stretch:normal;font-size:40px;line-height:1.25;font-family:optima;-inkscape-font-specification:optima;letter-spacing:0px;word-spacing:0px;fill:#000000;fill-opacity:1;stroke:none"
       transform="scale(0.26458333)"><flowRegion
         id="flowRegion817"
         style="font-style:normal;font-variant:normal;font-weight:normal;font-stretch:normal;font-family:optima;-inkscape-font-specification:optima"><rect
           id="rect819"
           width="697.14288"
           height="371.42856"
           x="-634.28571"
           y="339.66254"
           style="font-style:normal;font-variant:normal;font-weight:normal;font-stretch:normal;font-family:optima;-inkscape-font-specification:optima" /></flowRegion><flowPara
         id="flowPara821"
         style="font-style:normal;font-variant:normal;font-weight:normal;font-stretch:normal;font-family:optima;-inkscape-font-specification:optima" /></flowRoot>    <text
       xml:space="preserve"
       style="font-style:normal;font-variant:normal;font-weight:normal;font-stretch:normal;font-size:10.58333302px;line-height:1.25;font-family:optima;-inkscape-font-specification:optima;letter-spacing:0px;word-spacing:0px;fill:#000000;fill-opacity:1;stroke:none;stroke-width:0.26458332"
       x="-118.49554"
       y="103.2872"
       id="text825"><tspan
         sodipodi:role="line"
         x="-118.49554"
         y="112.46621"
         style="font-style:normal;font-variant:normal;font-weight:normal;font-stretch:normal;font-family:optima;-inkscape-font-specification:optima;stroke-width:0.26458332"
         id="tspan841" /></text>
    <flowRoot
       xml:space="preserve"
       id="flowRoot843"
       style="font-style:normal;font-weight:normal;font-size:40px;line-height:1.25;font-family:sans-serif;letter-spacing:0px;word-spacing:0px;fill:#000000;fill-opacity:1;stroke:none"><flowRegion
         id="flowRegion845"><rect
           id="rect847"
           width="296.42856"
           height="292.14285"
           x="-550.71429"
           y="472.51968" /></flowRegion><flowPara
         id="flowPara849" /></flowRoot>    <g
       transform="matrix(0.26458333,0,0,0.26458333,-727.61969,-953.207)"
       id="g984">
      <g
         id="g838"
         transform="matrix(0.30292696,0,0,0.30292696,1596.8669,2913.6599)"
         inkscape:export-xdpi="5000"
         inkscape:export-ydpi="5000">
        <flowRoot
           xml:space="preserve"
           id="flowRoot980"
           style="font-style:normal;font-variant:normal;font-weight:normal;font-stretch:normal;font-size:40px;line-height:1.25;font-family:'Noto Sans Old Italic';-inkscape-font-specification:'Noto Sans Old Italic, ';letter-spacing:0px;word-spacing:0px;fill:#000000;fill-opacity:1;stroke:none"
           transform="matrix(0,1.3998836,-1.3998836,0,3207.6652,5062.3554)"
           inkscape:export-xdpi="10000"
           inkscape:export-ydpi="10000"><flowRegion
             id="flowRegion976"
             style="font-style:normal;font-variant:normal;font-weight:normal;font-stretch:normal;font-family:'Noto Sans Old Italic';-inkscape-font-specification:'Noto Sans Old Italic, '"><rect
               id="rect974"
               width="852.85718"
               height="180.71428"
               x="-914.28571"
               y="433.23398"
               style="font-style:normal;font-variant:normal;font-weight:normal;font-stretch:normal;font-family:'Noto Sans Old Italic';-inkscape-font-specification:'Noto Sans Old Italic, '" /></flowRegion><flowPara
             style="font-style:normal;font-variant:normal;font-weight:normal;font-stretch:normal;font-family:Pirulen;-inkscape-font-specification:Pirulen"
             id="flowPara978">acheron</flowPara></flowRoot>        <path
           sodipodi:nodetypes="cccccsscccccccssccccccscscscsc"
           inkscape:connector-curvature="0"
           id="path831"
           d="m 2459.5936,4029.0103 c -1.5969,-6.7716 -11.6085,-50.9616 -3.4299,-56.6238 0,0 30.377,-9.937 61.7774,-31.1362 l 0.193,32.8407 -49.4106,32.0959 c 4.6494,31.5887 -3.1872,140.1705 -3.0822,140.096 62.5286,-44.5007 69.5123,-94.2446 69.4803,-94.3404 -7.8661,-23.6333 -13.1754,-55.7658 6.2927,-64.8354 0.059,-7.5672 -1.1726,-9.1583 -5.78,-14.7206 11.5937,-85.1839 -15.1786,-137.785 -80.9839,-165.0771 -12.0228,-8.302 -13.8798,-14.3664 -13.8798,-14.3664 0,0 -1.8572,6.0644 -13.88,14.3664 -65.8053,27.2921 -92.5774,79.8932 -80.9839,165.0771 -4.6073,5.5623 -5.8379,7.1534 -5.78,14.7206 19.4681,9.0696 14.1588,41.2021 6.2927,64.8354 -0.032,0.094 6.9517,49.8397 69.4803,94.3404 0.105,0.075 -7.7316,-108.5073 -3.0822,-140.096 l -23.4101,-15.1729 -9.8571,38.6187 0.6341,-44.3675 -16.7775,-11.1742 0.193,-32.8407 c 8.3955,5.6679 14.5248,9.2613 22.2128,13.3444 0.9247,0.4911 11.0788,-36.3396 11.0788,-36.3396 0,0 -3.6976,40.26 -3.0889,40.5693 18.8016,9.5643 31.5754,13.5621 31.5754,13.5621 8.1786,5.6622 -1.833,49.8522 -3.4299,56.6238 -0.1395,0.5877 18.8232,20.2551 18.8232,20.2551 0,0 18.9615,-19.6674 18.8231,-20.2551 z"
           style="fill:#000000;fill-opacity:1;stroke:none;stroke-width:0.92183179;stroke-linecap:butt;stroke-linejoin:miter;stroke-miterlimit:4;stroke-dasharray:none;stroke-opacity:1"
           inkscape:export-xdpi="10000"
           inkscape:export-ydpi="10000" />
      </g>
    </g>
  </g>
</svg>
