  0
SECTION
  2
HEADER
  9
$ACADVER
  1
AC1014
  9
$HANDSEED
  5
FFFF
  9
$MEASUREMENT
 70
     1
  0
ENDSEC
  0
SECTION
  2
TABLES
  0
TABLE
  2
VPORT
  5
8
330
0
100
AcDbSymbolTable
 70
     4
  0
VPORT
  5
2E
330
8
100
AcDbSymbolTableRecord
100
AcDbViewportTableRecord
  2
*ACTIVE
 70
     0
 10
0.0
 20
0.0
 11
1.0
 21
1.0
 12
210.0
 22
148.5
 13
0.0
 23
0.0
 14
10.0
 24
10.0
 15
10.0
 25
10.0
 16
0.0
 26
0.0
 36
1.0
 17
0.0
 27
0.0
 37
0.0
 40
341.0
 41
1.24
 42
50.0
 43
0.0
 44
0.0
 50
0.0
 51
0.0
 71
     0
 72
   100
 73
     1
 74
     3
 75
     0
 76
     0
 77
     0
 78
     0
  0
ENDTAB
  0
TABLE
  2
LTYPE
  5
5
330
0
100
AcDbSymbolTable
 70
     1
  0
LTYPE
  5
14
330
5
100
AcDbSymbolTableRecord
100
AcDbLinetypeTableRecord
  2
BYBLOCK
 70
     0
  3

 72
    65
 73
     0
 40
0.0
  0
LTYPE
  5
15
330
5
100
AcDbSymbolTableRecord
100
AcDbLinetypeTableRecord
  2
BYLAYER
 70
     0
  3

 72
    65
 73
     0
 40
0.0
  0
LTYPE
  5
16
330
5
100
AcDbSymbolTableRecord
100
AcDbLinetypeTableRecord
  2
CONTINUOUS
 70
     0
  3
Solid line
 72
    65
 73
     0
 40
0.0
  0
ENDTAB
  0
TABLE
  2
LAYER
  5
2
100
AcDbSymbolTable
 70
2
  0
LAYER
  5
50
100
AcDbSymbolTableRecord
100
AcDbLayerTableRecord
  2
0
 70
0
  6
CONTINUOUS
  0
LAYER
  5
51
100
AcDbSymbolTableRecord
100
AcDbLayerTableRecord
  2
MX_Socket_Datasheet
 70
0
  6
CONTINUOUS
  0
ENDTAB
  0
TABLE
  2
STYLE
  5
3
330
0
100
AcDbSymbolTable
 70
     1
  0
STYLE
  5
11
330
3
100
AcDbSymbolTableRecord
100
AcDbTextStyleTableRecord
  2
STANDARD
 70
     0
 40
0.0
 41
1.0
 50
0.0
 71
     0
 42
2.5
  3
txt
  4

  0
ENDTAB
  0
TABLE
  2
VIEW
  5
6
330
0
100
AcDbSymbolTable
 70
     0
  0
ENDTAB
  0
TABLE
  2
UCS
  5
7
330
0
100
AcDbSymbolTable
 70
     0
  0
ENDTAB
  0
TABLE
  2
APPID
  5
9
330
0
100
AcDbSymbolTable
 70
     2
  0
APPID
  5
12
330
9
100
AcDbSymbolTableRecord
100
AcDbRegAppTableRecord
  2
ACAD
 70
     0
  0
ENDTAB
  0
TABLE
  2
DIMSTYLE
  5
A
330
0
100
AcDbSymbolTable
 70
     1
  0
DIMSTYLE
105
27
330
A
100
AcDbSymbolTableRecord
100
AcDbDimStyleTableRecord
  2
ISO-25
 70
     0
  3

  4

  5

  6

  7

 40
1.0
 41
2.5
 42
0.625
 43
3.75
 44
1.25
 45
0.0
 46
0.0
 47
0.0
 48
0.0
140
2.5
141
2.5
142
0.0
143
0.03937007874016
144
1.0
145
0.0
146
1.0
147
0.625
 71
     0
 72
     0
 73
     0
 74
     0
 75
     0
 76
     0
 77
     1
 78
     8
170
     0
171
     3
172
     1
173
     0
174
     0
175
     0
176
     0
177
     0
178
     0
270
     2
271
     2
272
     2
273
     2
274
     3
340
11
275
     0
280
     0
281
     0
282
     0
283
     0
284
     8
285
     0
286
     0
287
     3
288
     0
  0
ENDTAB
  0
TABLE
  2
BLOCK_RECORD
  5
1
330
0
100
AcDbSymbolTable
 70
     1
  0
BLOCK_RECORD
  5
1F
330
1
100
AcDbSymbolTableRecord
100
AcDbBlockTableRecord
  2
*MODEL_SPACE
  0
BLOCK_RECORD
  5
1B
330
1
100
AcDbSymbolTableRecord
100
AcDbBlockTableRecord
  2
*PAPER_SPACE
  0
ENDTAB
  0
ENDSEC
  0
SECTION
  2
BLOCKS
  0
BLOCK
  5
20
330
1F
100
AcDbEntity
  8
0
100
AcDbBlockBegin
  2
*MODEL_SPACE
 70
     0
 10
0.0
 20
0.0
 30
0.0
  3
*MODEL_SPACE
  1

  0
ENDBLK
  5
21
330
1F
100
AcDbEntity
  8
0
100
AcDbBlockEnd
  0
BLOCK
  5
1C
330
1B
100
AcDbEntity
 67
     1
  8
0
100
AcDbBlockBegin
  2
*PAPER_SPACE
  1

  0
ENDBLK
  5
1D
330
1B
100
AcDbEntity
 67
     1
  8
0
100
AcDbBlockEnd
  0
ENDSEC
  0
SECTION
  2
ENTITIES
  0
LINE
  5
100
100
AcDbEntity
  8
MX_Socket_Datasheet
 62
7
100
AcDbLine
 10
10.889573
 20
0.473771
 30
0.0
 11
10.889573
 21
0.473771
 31
0.0
  0
LINE
  5
101
100
AcDbEntity
  8
MX_Socket_Datasheet
 62
7
100
AcDbLine
 10
0.050712
 20
2.996055
 30
0.0
 11
0.050712
 21
2.996055
 31
0.0
  0
LINE
  5
102
100
AcDbEntity
  8
MX_Socket_Datasheet
 62
7
100
AcDbLine
 10
8.676178
 20
5.855714
 30
0.0
 11
0.050712
 21
5.855714
 31
0.0
  0
LINE
  5
103
100
AcDbEntity
  8
MX_Socket_Datasheet
 62
7
100
AcDbLine
 10
10.889573
 20
0.050713
 30
0.0
 11
10.889432
 21
3.658473
 31
0.0
  0
LINE
  5
104
100
AcDbEntity
  8
MX_Socket_Datasheet
 62
7
100
AcDbLine
 10
0.543388
 20
1.941087
 30
0.0
 11
5.148834
 21
1.941087
 31
0.0
  0
LINE
  5
105
100
AcDbEntity
  8
MX_Socket_Datasheet
 62
7
100
AcDbLine
 10
7.713959
 20
0.050713
 30
0.0
 11
10.889573
 21
0.050713
 31
0.0
  0
LINE
  5
106
100
AcDbEntity
  8
MX_Socket_Datasheet
 62
7
100
AcDbLine
 10
0.050712
 20
5.855714
 30
0.0
 11
0.050712
 21
2.433762
 31
0.0
  0
LINE
  5
107
100
AcDbEntity
  8
MX_Socket_Datasheet
 62
7
100
AcDbLine
 10
2.706878
 20
4.238453
 30
0.0
 11
1.914314
 21
4.238453
 31
0.0
  0
LINE
  5
108
100
AcDbEntity
  8
MX_Socket_Datasheet
 62
7
100
AcDbLine
 10
2.310596
 20
4.640091
 30
0.0
 11
2.310596
 21
3.842171
 31
0.0
  0
LINE
  5
109
100
AcDbEntity
  8
MX_Socket_Datasheet
 62
7
100
AcDbLine
 10
9.020620
 20
1.716170
 30
0.0
 11
8.228055
 21
1.716170
 31
0.0
  0
LINE
  5
10a
100
AcDbEntity
  8
MX_Socket_Datasheet
 62
7
100
AcDbLine
 10
8.624337
 20
2.117807
 30
0.0
 11
8.624337
 21
1.319888
 31
0.0
  0
SPLINE
  5
10b
100
AcDbEntity
  8
MX_Socket_Datasheet
 62
7
100
AcDbSpline
 70
8
 71
3
 72
8
 73
4
 74
0
 40
0
 40
0
 40
0
 40
0
 40
1
 40
1
 40
1
 40
1
 10
0.534416
 20
1.941172
 30
0.0
 10
0.406128
 20
1.941171
 30
0.0
 10
0.283094
 20
1.992133
 30
0.0
 10
0.192380
 20
2.082847
 30
0.0
  0
SPLINE
  5
10c
100
AcDbEntity
  8
MX_Socket_Datasheet
 62
7
100
AcDbSpline
 70
8
 71
3
 72
8
 73
4
 74
0
 40
0
 40
0
 40
0
 40
0
 40
1
 40
1
 40
1
 40
1
 10
0.192380
 20
2.082847
 30
0.0
 10
0.101667
 20
2.173560
 30
0.0
 10
0.050705
 20
2.296594
 30
0.0
 10
0.050705
 20
2.424883
 30
0.0
  0
SPLINE
  5
10d
100
AcDbEntity
  8
MX_Socket_Datasheet
 62
7
100
AcDbSpline
 70
8
 71
3
 72
8
 73
4
 74
0
 40
0
 40
0
 40
0
 40
0
 40
1
 40
1
 40
1
 40
1
 10
8.667383
 20
5.855703
 30
0.0
 10
9.256744
 20
5.855703
 30
0.0
 10
9.821965
 20
5.621581
 30
0.0
 10
10.238706
 20
5.204840
 30
0.0
  0
SPLINE
  5
10e
100
AcDbEntity
  8
MX_Socket_Datasheet
 62
7
100
AcDbSpline
 70
8
 71
3
 72
8
 73
4
 74
0
 40
0
 40
0
 40
0
 40
0
 40
1
 40
1
 40
1
 40
1
 10
10.238706
 20
5.204840
 30
0.0
 10
10.655447
 20
4.788099
 30
0.0
 10
10.889569
 20
4.222877
 30
0.0
 10
10.889569
 20
3.633517
 30
0.0
  0
SPLINE
  5
10f
100
AcDbEntity
  8
MX_Socket_Datasheet
 62
7
100
AcDbSpline
 70
8
 71
3
 72
8
 73
4
 74
0
 40
0
 40
0
 40
0
 40
0
 40
1
 40
1
 40
1
 40
1
 10
5.148834
 20
1.941101
 30
0.0
 10
6.245359
 20
1.941101
 30
0.0
 10
7.014263
 20
1.150124
 30
0.0
 10
7.242704
 20
0.398810
 30
0.0
  0
SPLINE
  5
110
100
AcDbEntity
  8
MX_Socket_Datasheet
 62
7
100
AcDbSpline
 70
8
 71
3
 72
8
 73
4
 74
0
 40
0
 40
0
 40
0
 40
0
 40
1
 40
1
 40
1
 40
1
 10
7.242704
 20
0.398810
 30
0.0
 10
7.289148
 20
0.246053
 30
0.0
 10
7.470267
 20
0.050713
 30
0.0
 10
7.713959
 20
0.050713
 30
0.0
  0
ENDSEC
  0
SECTION
  2
OBJECTS
  0
DICTIONARY
  5
C
330
0
100
AcDbDictionary
  3
ACAD_GROUP
350
D
  3
ACAD_MLINESTYLE
350
17
  0
DICTIONARY
  5
D
330
C
100
AcDbDictionary
  0
DICTIONARY
  5
1A
330
C
100
AcDbDictionary
  0
DICTIONARY
  5
17
330
C
100
AcDbDictionary
  3
STANDARD
350
18
  0
DICTIONARY
  5
19
330
C
100
AcDbDictionary
  0
ENDSEC
  0
EOF
