G04 #@! TF.GenerationSoftware,KiCad,Pcbnew,(5.0.2)-1*
G04 #@! TF.CreationDate,2019-03-19T21:51:34-07:00*
G04 #@! TF.ProjectId,Unified-Daughterboard,556e6966-6965-4642-9d44-617567687465,rev?*
G04 #@! TF.SameCoordinates,Original*
G04 #@! TF.FileFunction,Soldermask,Top*
G04 #@! TF.FilePolarity,Negative*
%FSLAX46Y46*%
G04 Gerber Fmt 4.6, Leading zero omitted, Abs format (unit mm)*
G04 Created by KiCad (PCBNEW (5.0.2)-1) date 3/19/2019 9:51:34 PM*
%MOMM*%
%LPD*%
G01*
G04 APERTURE LIST*
%ADD10C,0.100000*%
G04 APERTURE END LIST*
D10*
G36*
X36851000Y-46301000D02*
X35549000Y-46301000D01*
X35549000Y-44399000D01*
X36851000Y-44399000D01*
X36851000Y-46301000D01*
X36851000Y-46301000D01*
G37*
G36*
X32525331Y-42768211D02*
X32853092Y-42903974D01*
X33148073Y-43101074D01*
X33398926Y-43351927D01*
X33596026Y-43646908D01*
X33731789Y-43974669D01*
X33801000Y-44322616D01*
X33801000Y-44677384D01*
X33731789Y-45025331D01*
X33596026Y-45353092D01*
X33398926Y-45648073D01*
X33148073Y-45898926D01*
X32853092Y-46096026D01*
X32525331Y-46231789D01*
X32177384Y-46301000D01*
X31822616Y-46301000D01*
X31474669Y-46231789D01*
X31146908Y-46096026D01*
X30851927Y-45898926D01*
X30601074Y-45648073D01*
X30403974Y-45353092D01*
X30268211Y-45025331D01*
X30199000Y-44677384D01*
X30199000Y-44322616D01*
X30268211Y-43974669D01*
X30403974Y-43646908D01*
X30601074Y-43351927D01*
X30851927Y-43101074D01*
X31146908Y-42903974D01*
X31474669Y-42768211D01*
X31822616Y-42699000D01*
X32177384Y-42699000D01*
X32525331Y-42768211D01*
X32525331Y-42768211D01*
G37*
G36*
X46525331Y-42768211D02*
X46853092Y-42903974D01*
X47148073Y-43101074D01*
X47398926Y-43351927D01*
X47596026Y-43646908D01*
X47731789Y-43974669D01*
X47801000Y-44322616D01*
X47801000Y-44677384D01*
X47731789Y-45025331D01*
X47596026Y-45353092D01*
X47398926Y-45648073D01*
X47148073Y-45898926D01*
X46853092Y-46096026D01*
X46525331Y-46231789D01*
X46177384Y-46301000D01*
X45822616Y-46301000D01*
X45474669Y-46231789D01*
X45146908Y-46096026D01*
X44851927Y-45898926D01*
X44601074Y-45648073D01*
X44403974Y-45353092D01*
X44268211Y-45025331D01*
X44199000Y-44677384D01*
X44199000Y-44322616D01*
X44268211Y-43974669D01*
X44403974Y-43646908D01*
X44601074Y-43351927D01*
X44851927Y-43101074D01*
X45146908Y-42903974D01*
X45474669Y-42768211D01*
X45822616Y-42699000D01*
X46177384Y-42699000D01*
X46525331Y-42768211D01*
X46525331Y-42768211D01*
G37*
G36*
X42451000Y-46301000D02*
X41149000Y-46301000D01*
X41149000Y-44399000D01*
X42451000Y-44399000D01*
X42451000Y-46301000D01*
X42451000Y-46301000D01*
G37*
G36*
X40851000Y-42301000D02*
X40149000Y-42301000D01*
X40149000Y-40649000D01*
X40851000Y-40649000D01*
X40851000Y-42301000D01*
X40851000Y-42301000D01*
G37*
G36*
X37851000Y-42301000D02*
X37149000Y-42301000D01*
X37149000Y-40649000D01*
X37851000Y-40649000D01*
X37851000Y-42301000D01*
X37851000Y-42301000D01*
G37*
G36*
X38851000Y-42301000D02*
X38149000Y-42301000D01*
X38149000Y-40649000D01*
X38851000Y-40649000D01*
X38851000Y-42301000D01*
X38851000Y-42301000D01*
G37*
G36*
X39851000Y-42301000D02*
X39149000Y-42301000D01*
X39149000Y-40649000D01*
X39851000Y-40649000D01*
X39851000Y-42301000D01*
X39851000Y-42301000D01*
G37*
G36*
X45001000Y-41051000D02*
X43999000Y-41051000D01*
X43999000Y-40449000D01*
X45001000Y-40449000D01*
X45001000Y-41051000D01*
X45001000Y-41051000D01*
G37*
G36*
X34001000Y-41051000D02*
X32999000Y-41051000D01*
X32999000Y-40449000D01*
X34001000Y-40449000D01*
X34001000Y-41051000D01*
X34001000Y-41051000D01*
G37*
G36*
X45001000Y-39551000D02*
X43999000Y-39551000D01*
X43999000Y-38949000D01*
X45001000Y-38949000D01*
X45001000Y-39551000D01*
X45001000Y-39551000D01*
G37*
G36*
X34001000Y-39551000D02*
X32999000Y-39551000D01*
X32999000Y-38949000D01*
X34001000Y-38949000D01*
X34001000Y-39551000D01*
X34001000Y-39551000D01*
G37*
G36*
X43428015Y-35686973D02*
X43531879Y-35718479D01*
X43627600Y-35769644D01*
X43711501Y-35838499D01*
X43780356Y-35922400D01*
X43831521Y-36018121D01*
X43863027Y-36121985D01*
X43871000Y-36202933D01*
X43871000Y-37357067D01*
X43863027Y-37438015D01*
X43831521Y-37541879D01*
X43780356Y-37637600D01*
X43711501Y-37721501D01*
X43627600Y-37790356D01*
X43531878Y-37841521D01*
X43428014Y-37873027D01*
X43320000Y-37883666D01*
X43211985Y-37873027D01*
X43108121Y-37841521D01*
X43012400Y-37790356D01*
X42928499Y-37721501D01*
X42859644Y-37637600D01*
X42811234Y-37547031D01*
X42797626Y-37526666D01*
X42780299Y-37509339D01*
X42759924Y-37495726D01*
X42737285Y-37486348D01*
X42713252Y-37481568D01*
X42688747Y-37481568D01*
X42664714Y-37486349D01*
X42642075Y-37495726D01*
X42621700Y-37509340D01*
X42604373Y-37526667D01*
X42590760Y-37547042D01*
X42581382Y-37569681D01*
X42576000Y-37605966D01*
X42576000Y-38471000D01*
X35424000Y-38471000D01*
X35424000Y-37605966D01*
X35421598Y-37581581D01*
X35414485Y-37558132D01*
X35402934Y-37536521D01*
X35387388Y-37517579D01*
X35368446Y-37502033D01*
X35346835Y-37490482D01*
X35323386Y-37483369D01*
X35299000Y-37480967D01*
X35274614Y-37483369D01*
X35251165Y-37490482D01*
X35229554Y-37502033D01*
X35210612Y-37517579D01*
X35188765Y-37547036D01*
X35140356Y-37637600D01*
X35071501Y-37721501D01*
X34987600Y-37790356D01*
X34891878Y-37841521D01*
X34788014Y-37873027D01*
X34680000Y-37883666D01*
X34571985Y-37873027D01*
X34468121Y-37841521D01*
X34372400Y-37790356D01*
X34288499Y-37721501D01*
X34219644Y-37637600D01*
X34168479Y-37541878D01*
X34136973Y-37438014D01*
X34129000Y-37357066D01*
X34129001Y-36202933D01*
X34136974Y-36121985D01*
X34168480Y-36018121D01*
X34219645Y-35922400D01*
X34288500Y-35838499D01*
X34372401Y-35769644D01*
X34468122Y-35718479D01*
X34571986Y-35686973D01*
X34680000Y-35676334D01*
X34788015Y-35686973D01*
X34891879Y-35718479D01*
X34987600Y-35769644D01*
X35071501Y-35838499D01*
X35140356Y-35922400D01*
X35191521Y-36018121D01*
X35223027Y-36121985D01*
X35231000Y-36202933D01*
X35231000Y-36794000D01*
X35233402Y-36818386D01*
X35240515Y-36841835D01*
X35252066Y-36863446D01*
X35267612Y-36882388D01*
X35286554Y-36897934D01*
X35308165Y-36909485D01*
X35331614Y-36916598D01*
X35356000Y-36919000D01*
X42644000Y-36919000D01*
X42668386Y-36916598D01*
X42691835Y-36909485D01*
X42713446Y-36897934D01*
X42732388Y-36882388D01*
X42747934Y-36863446D01*
X42759485Y-36841835D01*
X42766598Y-36818386D01*
X42769000Y-36794000D01*
X42769001Y-36202939D01*
X42769001Y-36202933D01*
X42776974Y-36121985D01*
X42808480Y-36018121D01*
X42859645Y-35922400D01*
X42928500Y-35838499D01*
X43012401Y-35769644D01*
X43108122Y-35718479D01*
X43211986Y-35686973D01*
X43320000Y-35676334D01*
X43428015Y-35686973D01*
X43428015Y-35686973D01*
G37*
G36*
X41999672Y-35888449D02*
X41999674Y-35888450D01*
X41999675Y-35888450D01*
X42068103Y-35916793D01*
X42129409Y-35957757D01*
X42129689Y-35957944D01*
X42182056Y-36010311D01*
X42182058Y-36010314D01*
X42223207Y-36071897D01*
X42251550Y-36140325D01*
X42266000Y-36212967D01*
X42266000Y-36287033D01*
X42251550Y-36359675D01*
X42223207Y-36428103D01*
X42182243Y-36489409D01*
X42182056Y-36489689D01*
X42129689Y-36542056D01*
X42129686Y-36542058D01*
X42068103Y-36583207D01*
X41999675Y-36611550D01*
X41999674Y-36611550D01*
X41999672Y-36611551D01*
X41927034Y-36626000D01*
X41852966Y-36626000D01*
X41780328Y-36611551D01*
X41780326Y-36611550D01*
X41780325Y-36611550D01*
X41711897Y-36583207D01*
X41650314Y-36542058D01*
X41650311Y-36542056D01*
X41597944Y-36489689D01*
X41597757Y-36489409D01*
X41556793Y-36428103D01*
X41528450Y-36359675D01*
X41514000Y-36287033D01*
X41514000Y-36212967D01*
X41528450Y-36140325D01*
X41556793Y-36071897D01*
X41597942Y-36010314D01*
X41597944Y-36010311D01*
X41650311Y-35957944D01*
X41650591Y-35957757D01*
X41711897Y-35916793D01*
X41780325Y-35888450D01*
X41780326Y-35888450D01*
X41780328Y-35888449D01*
X41852966Y-35874000D01*
X41927034Y-35874000D01*
X41999672Y-35888449D01*
X41999672Y-35888449D01*
G37*
G36*
X36219672Y-35888449D02*
X36219674Y-35888450D01*
X36219675Y-35888450D01*
X36288103Y-35916793D01*
X36349409Y-35957757D01*
X36349689Y-35957944D01*
X36402056Y-36010311D01*
X36402058Y-36010314D01*
X36443207Y-36071897D01*
X36471550Y-36140325D01*
X36486000Y-36212967D01*
X36486000Y-36287033D01*
X36471550Y-36359675D01*
X36443207Y-36428103D01*
X36402243Y-36489409D01*
X36402056Y-36489689D01*
X36349689Y-36542056D01*
X36349686Y-36542058D01*
X36288103Y-36583207D01*
X36219675Y-36611550D01*
X36219674Y-36611550D01*
X36219672Y-36611551D01*
X36147034Y-36626000D01*
X36072966Y-36626000D01*
X36000328Y-36611551D01*
X36000326Y-36611550D01*
X36000325Y-36611550D01*
X35931897Y-36583207D01*
X35870314Y-36542058D01*
X35870311Y-36542056D01*
X35817944Y-36489689D01*
X35817757Y-36489409D01*
X35776793Y-36428103D01*
X35748450Y-36359675D01*
X35734000Y-36287033D01*
X35734000Y-36212967D01*
X35748450Y-36140325D01*
X35776793Y-36071897D01*
X35817942Y-36010314D01*
X35817944Y-36010311D01*
X35870311Y-35957944D01*
X35870591Y-35957757D01*
X35931897Y-35916793D01*
X36000325Y-35888450D01*
X36000326Y-35888450D01*
X36000328Y-35888449D01*
X36072966Y-35874000D01*
X36147034Y-35874000D01*
X36219672Y-35888449D01*
X36219672Y-35888449D01*
G37*
G36*
X46525331Y-30268211D02*
X46853092Y-30403974D01*
X47148073Y-30601074D01*
X47398926Y-30851927D01*
X47596026Y-31146908D01*
X47731789Y-31474669D01*
X47801000Y-31822616D01*
X47801000Y-32177384D01*
X47731789Y-32525331D01*
X47596026Y-32853092D01*
X47398926Y-33148073D01*
X47148073Y-33398926D01*
X46853092Y-33596026D01*
X46525331Y-33731789D01*
X46177384Y-33801000D01*
X45822616Y-33801000D01*
X45474669Y-33731789D01*
X45146908Y-33596026D01*
X44851927Y-33398926D01*
X44601074Y-33148073D01*
X44403974Y-32853092D01*
X44268211Y-32525331D01*
X44199000Y-32177384D01*
X44199000Y-31822616D01*
X44268211Y-31474669D01*
X44403974Y-31146908D01*
X44601074Y-30851927D01*
X44851927Y-30601074D01*
X45146908Y-30403974D01*
X45474669Y-30268211D01*
X45822616Y-30199000D01*
X46177384Y-30199000D01*
X46525331Y-30268211D01*
X46525331Y-30268211D01*
G37*
G36*
X32525331Y-30268211D02*
X32853092Y-30403974D01*
X33148073Y-30601074D01*
X33398926Y-30851927D01*
X33596026Y-31146908D01*
X33731789Y-31474669D01*
X33801000Y-31822616D01*
X33801000Y-32177384D01*
X33731789Y-32525331D01*
X33596026Y-32853092D01*
X33398926Y-33148073D01*
X33148073Y-33398926D01*
X32853092Y-33596026D01*
X32525331Y-33731789D01*
X32177384Y-33801000D01*
X31822616Y-33801000D01*
X31474669Y-33731789D01*
X31146908Y-33596026D01*
X30851927Y-33398926D01*
X30601074Y-33148073D01*
X30403974Y-32853092D01*
X30268211Y-32525331D01*
X30199000Y-32177384D01*
X30199000Y-31822616D01*
X30268211Y-31474669D01*
X30403974Y-31146908D01*
X30601074Y-30851927D01*
X30851927Y-30601074D01*
X31146908Y-30403974D01*
X31474669Y-30268211D01*
X31822616Y-30199000D01*
X32177384Y-30199000D01*
X32525331Y-30268211D01*
X32525331Y-30268211D01*
G37*
G36*
X43428015Y-31756973D02*
X43531879Y-31788479D01*
X43627600Y-31839644D01*
X43711501Y-31908499D01*
X43780356Y-31992400D01*
X43831521Y-32088121D01*
X43863027Y-32191985D01*
X43871000Y-32272933D01*
X43871000Y-32927067D01*
X43863027Y-33008015D01*
X43831521Y-33111879D01*
X43780356Y-33207600D01*
X43711501Y-33291501D01*
X43627600Y-33360356D01*
X43531878Y-33411521D01*
X43428014Y-33443027D01*
X43320000Y-33453666D01*
X43211985Y-33443027D01*
X43108121Y-33411521D01*
X43012400Y-33360356D01*
X42928499Y-33291501D01*
X42859644Y-33207600D01*
X42808479Y-33111878D01*
X42776973Y-33008014D01*
X42769000Y-32927066D01*
X42769000Y-32272933D01*
X42776973Y-32191985D01*
X42808480Y-32088121D01*
X42859645Y-31992400D01*
X42928500Y-31908499D01*
X43012401Y-31839644D01*
X43108122Y-31788479D01*
X43211986Y-31756973D01*
X43320000Y-31746334D01*
X43428015Y-31756973D01*
X43428015Y-31756973D01*
G37*
G36*
X34788015Y-31756973D02*
X34891879Y-31788479D01*
X34987600Y-31839644D01*
X35071501Y-31908499D01*
X35140356Y-31992400D01*
X35191521Y-32088121D01*
X35223027Y-32191985D01*
X35231000Y-32272933D01*
X35231000Y-32927067D01*
X35223027Y-33008015D01*
X35191521Y-33111879D01*
X35140356Y-33207600D01*
X35071501Y-33291501D01*
X34987600Y-33360356D01*
X34891878Y-33411521D01*
X34788014Y-33443027D01*
X34680000Y-33453666D01*
X34571985Y-33443027D01*
X34468121Y-33411521D01*
X34372400Y-33360356D01*
X34288499Y-33291501D01*
X34219644Y-33207600D01*
X34168479Y-33111878D01*
X34136973Y-33008014D01*
X34129000Y-32927066D01*
X34129000Y-32272933D01*
X34136973Y-32191985D01*
X34168480Y-32088121D01*
X34219645Y-31992400D01*
X34288500Y-31908499D01*
X34372401Y-31839644D01*
X34468122Y-31788479D01*
X34571986Y-31756973D01*
X34680000Y-31746334D01*
X34788015Y-31756973D01*
X34788015Y-31756973D01*
G37*
M02*
