G04 #@! TF.GenerationSoftware,KiCad,Pcbnew,(5.0.2)-1*
G04 #@! TF.CreationDate,2019-03-19T21:51:34-07:00*
G04 #@! TF.ProjectId,Unified-Daughterboard,556e6966-6965-4642-9d44-617567687465,rev?*
G04 #@! TF.SameCoordinates,Original*
G04 #@! TF.FileFunction,Legend,Top*
G04 #@! TF.FilePolarity,Positive*
%FSLAX46Y46*%
G04 Gerber Fmt 4.6, Leading zero omitted, Abs format (unit mm)*
G04 Created by KiCad (PCBNEW (5.0.2)-1) date 3/19/2019 9:51:34 PM*
%MOMM*%
%LPD*%
G01*
G04 APERTURE LIST*
%ADD10C,0.150000*%
%ADD11C,0.200000*%
%ADD12C,0.120000*%
%ADD13C,3.602000*%
%ADD14R,0.702000X1.652000*%
%ADD15R,1.302000X1.902000*%
%ADD16R,1.002000X0.602000*%
%ADD17O,1.102000X1.702000*%
%ADD18O,1.102000X2.202000*%
%ADD19C,0.752000*%
%ADD20R,0.402000X1.552000*%
%ADD21R,0.702000X1.552000*%
G04 APERTURE END LIST*
D10*
X46452380Y-42361904D02*
X47261904Y-42361904D01*
X47357142Y-42314285D01*
X47404761Y-42266666D01*
X47452380Y-42171428D01*
X47452380Y-41980952D01*
X47404761Y-41885714D01*
X47357142Y-41838095D01*
X47261904Y-41790476D01*
X46452380Y-41790476D01*
X47452380Y-41314285D02*
X46452380Y-41314285D01*
X47452380Y-40742857D01*
X46452380Y-40742857D01*
X47452380Y-40266666D02*
X46452380Y-40266666D01*
X46928571Y-39457142D02*
X46928571Y-39790476D01*
X47452380Y-39790476D02*
X46452380Y-39790476D01*
X46452380Y-39314285D01*
X47452380Y-38933333D02*
X46452380Y-38933333D01*
X46928571Y-38457142D02*
X46928571Y-38123809D01*
X47452380Y-37980952D02*
X47452380Y-38457142D01*
X46452380Y-38457142D01*
X46452380Y-37980952D01*
X47452380Y-37552380D02*
X46452380Y-37552380D01*
X46452380Y-37314285D01*
X46500000Y-37171428D01*
X46595238Y-37076190D01*
X46690476Y-37028571D01*
X46880952Y-36980952D01*
X47023809Y-36980952D01*
X47214285Y-37028571D01*
X47309523Y-37076190D01*
X47404761Y-37171428D01*
X47452380Y-37314285D01*
X47452380Y-37552380D01*
X47071428Y-36552380D02*
X47071428Y-35790476D01*
X47357142Y-34742857D02*
X47404761Y-34790476D01*
X47452380Y-34933333D01*
X47452380Y-35028571D01*
X47404761Y-35171428D01*
X47309523Y-35266666D01*
X47214285Y-35314285D01*
X47023809Y-35361904D01*
X46880952Y-35361904D01*
X46690476Y-35314285D01*
X46595238Y-35266666D01*
X46500000Y-35171428D01*
X46452380Y-35028571D01*
X46452380Y-34933333D01*
X46500000Y-34790476D01*
X46547619Y-34742857D01*
X47452380Y-33790476D02*
X47452380Y-34361904D01*
X47452380Y-34076190D02*
X46452380Y-34076190D01*
X46595238Y-34171428D01*
X46690476Y-34266666D01*
X46738095Y-34361904D01*
D11*
X43500000Y-33500000D02*
X43500000Y-35500000D01*
X43500000Y-30000000D02*
X43500000Y-31500000D01*
X34500000Y-33500000D02*
X34500000Y-35500000D01*
X34500000Y-30000000D02*
X34500000Y-31500000D01*
D10*
G04 #@! TO.C,J2*
X41000000Y-41850000D02*
X42000000Y-41850000D01*
X42000000Y-41850000D02*
X42000000Y-44250000D01*
X41000000Y-46050000D02*
X37000000Y-46050000D01*
X36000000Y-44250000D02*
X36000000Y-41850000D01*
X36000000Y-41850000D02*
X37000000Y-41850000D01*
D12*
G04 #@! TO.C,R1*
X34180000Y-39500000D02*
X34180000Y-40500000D01*
X32820000Y-40500000D02*
X32820000Y-39500000D01*
G04 #@! TO.C,R2*
X43820000Y-40500000D02*
X43820000Y-39500000D01*
X45180000Y-39500000D02*
X45180000Y-40500000D01*
G04 #@! TO.C,J2*
D10*
X42505380Y-43833333D02*
X43219666Y-43833333D01*
X43362523Y-43880952D01*
X43457761Y-43976190D01*
X43505380Y-44119047D01*
X43505380Y-44214285D01*
X42600619Y-43404761D02*
X42553000Y-43357142D01*
X42505380Y-43261904D01*
X42505380Y-43023809D01*
X42553000Y-42928571D01*
X42600619Y-42880952D01*
X42695857Y-42833333D01*
X42791095Y-42833333D01*
X42933952Y-42880952D01*
X43505380Y-43452380D01*
X43505380Y-42833333D01*
G04 #@! TO.C,R1*
X35402380Y-40166666D02*
X34926190Y-40500000D01*
X35402380Y-40738095D02*
X34402380Y-40738095D01*
X34402380Y-40357142D01*
X34450000Y-40261904D01*
X34497619Y-40214285D01*
X34592857Y-40166666D01*
X34735714Y-40166666D01*
X34830952Y-40214285D01*
X34878571Y-40261904D01*
X34926190Y-40357142D01*
X34926190Y-40738095D01*
X35402380Y-39214285D02*
X35402380Y-39785714D01*
X35402380Y-39500000D02*
X34402380Y-39500000D01*
X34545238Y-39595238D01*
X34640476Y-39690476D01*
X34688095Y-39785714D01*
G04 #@! TO.C,R2*
X43505380Y-40166666D02*
X43029190Y-40500000D01*
X43505380Y-40738095D02*
X42505380Y-40738095D01*
X42505380Y-40357142D01*
X42553000Y-40261904D01*
X42600619Y-40214285D01*
X42695857Y-40166666D01*
X42838714Y-40166666D01*
X42933952Y-40214285D01*
X42981571Y-40261904D01*
X43029190Y-40357142D01*
X43029190Y-40738095D01*
X42600619Y-39785714D02*
X42553000Y-39738095D01*
X42505380Y-39642857D01*
X42505380Y-39404761D01*
X42553000Y-39309523D01*
X42600619Y-39261904D01*
X42695857Y-39214285D01*
X42791095Y-39214285D01*
X42933952Y-39261904D01*
X43505380Y-39833333D01*
X43505380Y-39214285D01*
G04 #@! TO.C,J1*
X33052380Y-34833333D02*
X33766666Y-34833333D01*
X33909523Y-34880952D01*
X34004761Y-34976190D01*
X34052380Y-35119047D01*
X34052380Y-35214285D01*
X34052380Y-33833333D02*
X34052380Y-34404761D01*
X34052380Y-34119047D02*
X33052380Y-34119047D01*
X33195238Y-34214285D01*
X33290476Y-34309523D01*
X33338095Y-34404761D01*
G04 #@! TD*
%LPC*%
D13*
G04 #@! TO.C,MH1*
X32000000Y-32000000D03*
G04 #@! TD*
G04 #@! TO.C,MH2*
X46000000Y-32000000D03*
G04 #@! TD*
G04 #@! TO.C,MH3*
X32000000Y-44500000D03*
G04 #@! TD*
G04 #@! TO.C,MH4*
X46000000Y-44500000D03*
G04 #@! TD*
D14*
G04 #@! TO.C,J2*
X39500000Y-41475000D03*
X40500000Y-41475000D03*
X38500000Y-41475000D03*
X37500000Y-41475000D03*
D15*
X36200000Y-45350000D03*
X41800000Y-45350000D03*
G04 #@! TD*
D16*
G04 #@! TO.C,R1*
X33500000Y-40750000D03*
X33500000Y-39250000D03*
G04 #@! TD*
G04 #@! TO.C,R2*
X44500000Y-39250000D03*
X44500000Y-40750000D03*
G04 #@! TD*
D17*
G04 #@! TO.C,J1*
X34680000Y-32600000D03*
X43320000Y-32600000D03*
D18*
X34680000Y-36780000D03*
X43320000Y-36780000D03*
D19*
X41890000Y-36250000D03*
X36110000Y-36250000D03*
D20*
X39250000Y-37695000D03*
X38750000Y-37695000D03*
X38250000Y-37695000D03*
X39750000Y-37695000D03*
X37750000Y-37695000D03*
X40250000Y-37695000D03*
X37250000Y-37695000D03*
X40750000Y-37695000D03*
D21*
X41450000Y-37695000D03*
X36550000Y-37695000D03*
X42225000Y-37695000D03*
X35775000Y-37695000D03*
G04 #@! TD*
M02*
