G04 #@! TF.GenerationSoftware,KiCad,Pcbnew,5.1.5*
G04 #@! TF.CreationDate,2020-01-08T02:03:50-03:00*
G04 #@! TF.ProjectId,Unified-Daughterboard,556e6966-6965-4642-9d44-617567687465,rev?*
G04 #@! TF.SameCoordinates,Original*
G04 #@! TF.FileFunction,Legend,Top*
G04 #@! TF.FilePolarity,Positive*
%FSLAX46Y46*%
G04 Gerber Fmt 4.6, Leading zero omitted, Abs format (unit mm)*
G04 Created by KiCad (PCBNEW 5.1.5) date 2020-01-08 02:03:50*
%MOMM*%
%LPD*%
G04 APERTURE LIST*
%ADD10C,0.200000*%
%ADD11C,0.120000*%
%ADD12C,0.150000*%
%ADD13C,0.127000*%
%ADD14C,0.100000*%
%ADD15C,3.602000*%
%ADD16R,0.702000X1.652000*%
%ADD17R,1.302000X1.902000*%
%ADD18R,0.602000X1.002000*%
%ADD19O,1.102000X1.702000*%
%ADD20O,1.102000X2.202000*%
%ADD21C,0.752000*%
%ADD22R,0.402000X1.552000*%
%ADD23R,0.702000X1.552000*%
G04 APERTURE END LIST*
D10*
X79504500Y-60043000D02*
X79504500Y-62043000D01*
X79504500Y-56543000D02*
X79504500Y-58043000D01*
X70504500Y-60043000D02*
X70504500Y-62043000D01*
X70504500Y-56543000D02*
X70504500Y-58043000D01*
D11*
X67987721Y-66526000D02*
X68313279Y-66526000D01*
X67987721Y-65506000D02*
X68313279Y-65506000D01*
X82029279Y-64236000D02*
X81703721Y-64236000D01*
X82029279Y-65256000D02*
X81703721Y-65256000D01*
X69635500Y-63503000D02*
X67350500Y-63503000D01*
X69635500Y-64973000D02*
X69635500Y-63503000D01*
X67350500Y-64973000D02*
X69635500Y-64973000D01*
X67987721Y-68304000D02*
X68313279Y-68304000D01*
X67987721Y-67284000D02*
X68313279Y-67284000D01*
X82029279Y-62585000D02*
X81703721Y-62585000D01*
X82029279Y-63605000D02*
X81703721Y-63605000D01*
D12*
X77004500Y-68393000D02*
X78004500Y-68393000D01*
X78004500Y-68393000D02*
X78004500Y-70793000D01*
X77004500Y-72593000D02*
X73004500Y-72593000D01*
X72004500Y-70793000D02*
X72004500Y-68393000D01*
X72004500Y-68393000D02*
X73004500Y-68393000D01*
D11*
X76921500Y-65336000D02*
X77921500Y-65336000D01*
X77921500Y-66696000D02*
X76921500Y-66696000D01*
X71968500Y-65336000D02*
X72968500Y-65336000D01*
X72968500Y-66696000D02*
X71968500Y-66696000D01*
D13*
X70596761Y-66121833D02*
X70294380Y-66333500D01*
X70596761Y-66484690D02*
X69961761Y-66484690D01*
X69961761Y-66242785D01*
X69992000Y-66182309D01*
X70022238Y-66152071D01*
X70082714Y-66121833D01*
X70173428Y-66121833D01*
X70233904Y-66152071D01*
X70264142Y-66182309D01*
X70294380Y-66242785D01*
X70294380Y-66484690D01*
X70173428Y-65577547D02*
X70596761Y-65577547D01*
X69931523Y-65728738D02*
X70385095Y-65879928D01*
X70385095Y-65486833D01*
X81760666Y-66303261D02*
X81549000Y-66000880D01*
X81397809Y-66303261D02*
X81397809Y-65668261D01*
X81639714Y-65668261D01*
X81700190Y-65698500D01*
X81730428Y-65728738D01*
X81760666Y-65789214D01*
X81760666Y-65879928D01*
X81730428Y-65940404D01*
X81700190Y-65970642D01*
X81639714Y-66000880D01*
X81397809Y-66000880D01*
X81972333Y-65668261D02*
X82365428Y-65668261D01*
X82153761Y-65910166D01*
X82244476Y-65910166D01*
X82304952Y-65940404D01*
X82335190Y-65970642D01*
X82365428Y-66031119D01*
X82365428Y-66182309D01*
X82335190Y-66242785D01*
X82304952Y-66273023D01*
X82244476Y-66303261D01*
X82063047Y-66303261D01*
X82002571Y-66273023D01*
X81972333Y-66242785D01*
X67681809Y-63128261D02*
X67681809Y-62493261D01*
X67833000Y-62493261D01*
X67923714Y-62523500D01*
X67984190Y-62583976D01*
X68014428Y-62644452D01*
X68044666Y-62765404D01*
X68044666Y-62856119D01*
X68014428Y-62977071D01*
X67984190Y-63037547D01*
X67923714Y-63098023D01*
X67833000Y-63128261D01*
X67681809Y-63128261D01*
X68649428Y-63128261D02*
X68286571Y-63128261D01*
X68468000Y-63128261D02*
X68468000Y-62493261D01*
X68407523Y-62583976D01*
X68347047Y-62644452D01*
X68286571Y-62674690D01*
X70536285Y-68026833D02*
X70566523Y-68057071D01*
X70596761Y-68147785D01*
X70596761Y-68208261D01*
X70566523Y-68298976D01*
X70506047Y-68359452D01*
X70445571Y-68389690D01*
X70324619Y-68419928D01*
X70233904Y-68419928D01*
X70112952Y-68389690D01*
X70052476Y-68359452D01*
X69992000Y-68298976D01*
X69961761Y-68208261D01*
X69961761Y-68147785D01*
X69992000Y-68057071D01*
X70022238Y-68026833D01*
X70022238Y-67784928D02*
X69992000Y-67754690D01*
X69961761Y-67694214D01*
X69961761Y-67543023D01*
X69992000Y-67482547D01*
X70022238Y-67452309D01*
X70082714Y-67422071D01*
X70143190Y-67422071D01*
X70233904Y-67452309D01*
X70596761Y-67815166D01*
X70596761Y-67422071D01*
X81760666Y-61924785D02*
X81730428Y-61955023D01*
X81639714Y-61985261D01*
X81579238Y-61985261D01*
X81488523Y-61955023D01*
X81428047Y-61894547D01*
X81397809Y-61834071D01*
X81367571Y-61713119D01*
X81367571Y-61622404D01*
X81397809Y-61501452D01*
X81428047Y-61440976D01*
X81488523Y-61380500D01*
X81579238Y-61350261D01*
X81639714Y-61350261D01*
X81730428Y-61380500D01*
X81760666Y-61410738D01*
X82365428Y-61985261D02*
X82002571Y-61985261D01*
X82184000Y-61985261D02*
X82184000Y-61350261D01*
X82123523Y-61440976D01*
X82063047Y-61501452D01*
X82002571Y-61531690D01*
D12*
X74675166Y-71056380D02*
X74675166Y-71770666D01*
X74627547Y-71913523D01*
X74532309Y-72008761D01*
X74389452Y-72056380D01*
X74294214Y-72056380D01*
X75103738Y-71151619D02*
X75151357Y-71104000D01*
X75246595Y-71056380D01*
X75484690Y-71056380D01*
X75579928Y-71104000D01*
X75627547Y-71151619D01*
X75675166Y-71246857D01*
X75675166Y-71342095D01*
X75627547Y-71484952D01*
X75056119Y-72056380D01*
X75675166Y-72056380D01*
D13*
X79347666Y-66303261D02*
X79136000Y-66000880D01*
X78984809Y-66303261D02*
X78984809Y-65668261D01*
X79226714Y-65668261D01*
X79287190Y-65698500D01*
X79317428Y-65728738D01*
X79347666Y-65789214D01*
X79347666Y-65879928D01*
X79317428Y-65940404D01*
X79287190Y-65970642D01*
X79226714Y-66000880D01*
X78984809Y-66000880D01*
X79952428Y-66303261D02*
X79589571Y-66303261D01*
X79771000Y-66303261D02*
X79771000Y-65668261D01*
X79710523Y-65758976D01*
X79650047Y-65819452D01*
X79589571Y-65849690D01*
X71981666Y-67700261D02*
X71770000Y-67397880D01*
X71618809Y-67700261D02*
X71618809Y-67065261D01*
X71860714Y-67065261D01*
X71921190Y-67095500D01*
X71951428Y-67125738D01*
X71981666Y-67186214D01*
X71981666Y-67276928D01*
X71951428Y-67337404D01*
X71921190Y-67367642D01*
X71860714Y-67397880D01*
X71618809Y-67397880D01*
X72223571Y-67125738D02*
X72253809Y-67095500D01*
X72314285Y-67065261D01*
X72465476Y-67065261D01*
X72525952Y-67095500D01*
X72556190Y-67125738D01*
X72586428Y-67186214D01*
X72586428Y-67246690D01*
X72556190Y-67337404D01*
X72193333Y-67700261D01*
X72586428Y-67700261D01*
D12*
X74675166Y-58610380D02*
X74675166Y-59324666D01*
X74627547Y-59467523D01*
X74532309Y-59562761D01*
X74389452Y-59610380D01*
X74294214Y-59610380D01*
X75675166Y-59610380D02*
X75103738Y-59610380D01*
X75389452Y-59610380D02*
X75389452Y-58610380D01*
X75294214Y-58753238D01*
X75198976Y-58848476D01*
X75103738Y-58896095D01*
%LPC*%
D14*
G36*
X69206191Y-65491176D02*
G01*
X69229901Y-65494693D01*
X69253152Y-65500517D01*
X69275720Y-65508592D01*
X69297389Y-65518841D01*
X69317948Y-65531164D01*
X69337201Y-65545442D01*
X69354961Y-65561539D01*
X69371058Y-65579299D01*
X69385336Y-65598552D01*
X69397659Y-65619111D01*
X69407908Y-65640780D01*
X69415983Y-65663348D01*
X69421807Y-65686599D01*
X69425324Y-65710309D01*
X69426500Y-65734250D01*
X69426500Y-66297750D01*
X69425324Y-66321691D01*
X69421807Y-66345401D01*
X69415983Y-66368652D01*
X69407908Y-66391220D01*
X69397659Y-66412889D01*
X69385336Y-66433448D01*
X69371058Y-66452701D01*
X69354961Y-66470461D01*
X69337201Y-66486558D01*
X69317948Y-66500836D01*
X69297389Y-66513159D01*
X69275720Y-66523408D01*
X69253152Y-66531483D01*
X69229901Y-66537307D01*
X69206191Y-66540824D01*
X69182250Y-66542000D01*
X68693750Y-66542000D01*
X68669809Y-66540824D01*
X68646099Y-66537307D01*
X68622848Y-66531483D01*
X68600280Y-66523408D01*
X68578611Y-66513159D01*
X68558052Y-66500836D01*
X68538799Y-66486558D01*
X68521039Y-66470461D01*
X68504942Y-66452701D01*
X68490664Y-66433448D01*
X68478341Y-66412889D01*
X68468092Y-66391220D01*
X68460017Y-66368652D01*
X68454193Y-66345401D01*
X68450676Y-66321691D01*
X68449500Y-66297750D01*
X68449500Y-65734250D01*
X68450676Y-65710309D01*
X68454193Y-65686599D01*
X68460017Y-65663348D01*
X68468092Y-65640780D01*
X68478341Y-65619111D01*
X68490664Y-65598552D01*
X68504942Y-65579299D01*
X68521039Y-65561539D01*
X68538799Y-65545442D01*
X68558052Y-65531164D01*
X68578611Y-65518841D01*
X68600280Y-65508592D01*
X68622848Y-65500517D01*
X68646099Y-65494693D01*
X68669809Y-65491176D01*
X68693750Y-65490000D01*
X69182250Y-65490000D01*
X69206191Y-65491176D01*
G37*
G36*
X67631191Y-65491176D02*
G01*
X67654901Y-65494693D01*
X67678152Y-65500517D01*
X67700720Y-65508592D01*
X67722389Y-65518841D01*
X67742948Y-65531164D01*
X67762201Y-65545442D01*
X67779961Y-65561539D01*
X67796058Y-65579299D01*
X67810336Y-65598552D01*
X67822659Y-65619111D01*
X67832908Y-65640780D01*
X67840983Y-65663348D01*
X67846807Y-65686599D01*
X67850324Y-65710309D01*
X67851500Y-65734250D01*
X67851500Y-66297750D01*
X67850324Y-66321691D01*
X67846807Y-66345401D01*
X67840983Y-66368652D01*
X67832908Y-66391220D01*
X67822659Y-66412889D01*
X67810336Y-66433448D01*
X67796058Y-66452701D01*
X67779961Y-66470461D01*
X67762201Y-66486558D01*
X67742948Y-66500836D01*
X67722389Y-66513159D01*
X67700720Y-66523408D01*
X67678152Y-66531483D01*
X67654901Y-66537307D01*
X67631191Y-66540824D01*
X67607250Y-66542000D01*
X67118750Y-66542000D01*
X67094809Y-66540824D01*
X67071099Y-66537307D01*
X67047848Y-66531483D01*
X67025280Y-66523408D01*
X67003611Y-66513159D01*
X66983052Y-66500836D01*
X66963799Y-66486558D01*
X66946039Y-66470461D01*
X66929942Y-66452701D01*
X66915664Y-66433448D01*
X66903341Y-66412889D01*
X66893092Y-66391220D01*
X66885017Y-66368652D01*
X66879193Y-66345401D01*
X66875676Y-66321691D01*
X66874500Y-66297750D01*
X66874500Y-65734250D01*
X66875676Y-65710309D01*
X66879193Y-65686599D01*
X66885017Y-65663348D01*
X66893092Y-65640780D01*
X66903341Y-65619111D01*
X66915664Y-65598552D01*
X66929942Y-65579299D01*
X66946039Y-65561539D01*
X66963799Y-65545442D01*
X66983052Y-65531164D01*
X67003611Y-65518841D01*
X67025280Y-65508592D01*
X67047848Y-65500517D01*
X67071099Y-65494693D01*
X67094809Y-65491176D01*
X67118750Y-65490000D01*
X67607250Y-65490000D01*
X67631191Y-65491176D01*
G37*
G36*
X81347191Y-64221176D02*
G01*
X81370901Y-64224693D01*
X81394152Y-64230517D01*
X81416720Y-64238592D01*
X81438389Y-64248841D01*
X81458948Y-64261164D01*
X81478201Y-64275442D01*
X81495961Y-64291539D01*
X81512058Y-64309299D01*
X81526336Y-64328552D01*
X81538659Y-64349111D01*
X81548908Y-64370780D01*
X81556983Y-64393348D01*
X81562807Y-64416599D01*
X81566324Y-64440309D01*
X81567500Y-64464250D01*
X81567500Y-65027750D01*
X81566324Y-65051691D01*
X81562807Y-65075401D01*
X81556983Y-65098652D01*
X81548908Y-65121220D01*
X81538659Y-65142889D01*
X81526336Y-65163448D01*
X81512058Y-65182701D01*
X81495961Y-65200461D01*
X81478201Y-65216558D01*
X81458948Y-65230836D01*
X81438389Y-65243159D01*
X81416720Y-65253408D01*
X81394152Y-65261483D01*
X81370901Y-65267307D01*
X81347191Y-65270824D01*
X81323250Y-65272000D01*
X80834750Y-65272000D01*
X80810809Y-65270824D01*
X80787099Y-65267307D01*
X80763848Y-65261483D01*
X80741280Y-65253408D01*
X80719611Y-65243159D01*
X80699052Y-65230836D01*
X80679799Y-65216558D01*
X80662039Y-65200461D01*
X80645942Y-65182701D01*
X80631664Y-65163448D01*
X80619341Y-65142889D01*
X80609092Y-65121220D01*
X80601017Y-65098652D01*
X80595193Y-65075401D01*
X80591676Y-65051691D01*
X80590500Y-65027750D01*
X80590500Y-64464250D01*
X80591676Y-64440309D01*
X80595193Y-64416599D01*
X80601017Y-64393348D01*
X80609092Y-64370780D01*
X80619341Y-64349111D01*
X80631664Y-64328552D01*
X80645942Y-64309299D01*
X80662039Y-64291539D01*
X80679799Y-64275442D01*
X80699052Y-64261164D01*
X80719611Y-64248841D01*
X80741280Y-64238592D01*
X80763848Y-64230517D01*
X80787099Y-64224693D01*
X80810809Y-64221176D01*
X80834750Y-64220000D01*
X81323250Y-64220000D01*
X81347191Y-64221176D01*
G37*
G36*
X82922191Y-64221176D02*
G01*
X82945901Y-64224693D01*
X82969152Y-64230517D01*
X82991720Y-64238592D01*
X83013389Y-64248841D01*
X83033948Y-64261164D01*
X83053201Y-64275442D01*
X83070961Y-64291539D01*
X83087058Y-64309299D01*
X83101336Y-64328552D01*
X83113659Y-64349111D01*
X83123908Y-64370780D01*
X83131983Y-64393348D01*
X83137807Y-64416599D01*
X83141324Y-64440309D01*
X83142500Y-64464250D01*
X83142500Y-65027750D01*
X83141324Y-65051691D01*
X83137807Y-65075401D01*
X83131983Y-65098652D01*
X83123908Y-65121220D01*
X83113659Y-65142889D01*
X83101336Y-65163448D01*
X83087058Y-65182701D01*
X83070961Y-65200461D01*
X83053201Y-65216558D01*
X83033948Y-65230836D01*
X83013389Y-65243159D01*
X82991720Y-65253408D01*
X82969152Y-65261483D01*
X82945901Y-65267307D01*
X82922191Y-65270824D01*
X82898250Y-65272000D01*
X82409750Y-65272000D01*
X82385809Y-65270824D01*
X82362099Y-65267307D01*
X82338848Y-65261483D01*
X82316280Y-65253408D01*
X82294611Y-65243159D01*
X82274052Y-65230836D01*
X82254799Y-65216558D01*
X82237039Y-65200461D01*
X82220942Y-65182701D01*
X82206664Y-65163448D01*
X82194341Y-65142889D01*
X82184092Y-65121220D01*
X82176017Y-65098652D01*
X82170193Y-65075401D01*
X82166676Y-65051691D01*
X82165500Y-65027750D01*
X82165500Y-64464250D01*
X82166676Y-64440309D01*
X82170193Y-64416599D01*
X82176017Y-64393348D01*
X82184092Y-64370780D01*
X82194341Y-64349111D01*
X82206664Y-64328552D01*
X82220942Y-64309299D01*
X82237039Y-64291539D01*
X82254799Y-64275442D01*
X82274052Y-64261164D01*
X82294611Y-64248841D01*
X82316280Y-64238592D01*
X82338848Y-64230517D01*
X82362099Y-64224693D01*
X82385809Y-64221176D01*
X82409750Y-64220000D01*
X82898250Y-64220000D01*
X82922191Y-64221176D01*
G37*
G36*
X67631191Y-63713176D02*
G01*
X67654901Y-63716693D01*
X67678152Y-63722517D01*
X67700720Y-63730592D01*
X67722389Y-63740841D01*
X67742948Y-63753164D01*
X67762201Y-63767442D01*
X67779961Y-63783539D01*
X67796058Y-63801299D01*
X67810336Y-63820552D01*
X67822659Y-63841111D01*
X67832908Y-63862780D01*
X67840983Y-63885348D01*
X67846807Y-63908599D01*
X67850324Y-63932309D01*
X67851500Y-63956250D01*
X67851500Y-64519750D01*
X67850324Y-64543691D01*
X67846807Y-64567401D01*
X67840983Y-64590652D01*
X67832908Y-64613220D01*
X67822659Y-64634889D01*
X67810336Y-64655448D01*
X67796058Y-64674701D01*
X67779961Y-64692461D01*
X67762201Y-64708558D01*
X67742948Y-64722836D01*
X67722389Y-64735159D01*
X67700720Y-64745408D01*
X67678152Y-64753483D01*
X67654901Y-64759307D01*
X67631191Y-64762824D01*
X67607250Y-64764000D01*
X67118750Y-64764000D01*
X67094809Y-64762824D01*
X67071099Y-64759307D01*
X67047848Y-64753483D01*
X67025280Y-64745408D01*
X67003611Y-64735159D01*
X66983052Y-64722836D01*
X66963799Y-64708558D01*
X66946039Y-64692461D01*
X66929942Y-64674701D01*
X66915664Y-64655448D01*
X66903341Y-64634889D01*
X66893092Y-64613220D01*
X66885017Y-64590652D01*
X66879193Y-64567401D01*
X66875676Y-64543691D01*
X66874500Y-64519750D01*
X66874500Y-63956250D01*
X66875676Y-63932309D01*
X66879193Y-63908599D01*
X66885017Y-63885348D01*
X66893092Y-63862780D01*
X66903341Y-63841111D01*
X66915664Y-63820552D01*
X66929942Y-63801299D01*
X66946039Y-63783539D01*
X66963799Y-63767442D01*
X66983052Y-63753164D01*
X67003611Y-63740841D01*
X67025280Y-63730592D01*
X67047848Y-63722517D01*
X67071099Y-63716693D01*
X67094809Y-63713176D01*
X67118750Y-63712000D01*
X67607250Y-63712000D01*
X67631191Y-63713176D01*
G37*
G36*
X69206191Y-63713176D02*
G01*
X69229901Y-63716693D01*
X69253152Y-63722517D01*
X69275720Y-63730592D01*
X69297389Y-63740841D01*
X69317948Y-63753164D01*
X69337201Y-63767442D01*
X69354961Y-63783539D01*
X69371058Y-63801299D01*
X69385336Y-63820552D01*
X69397659Y-63841111D01*
X69407908Y-63862780D01*
X69415983Y-63885348D01*
X69421807Y-63908599D01*
X69425324Y-63932309D01*
X69426500Y-63956250D01*
X69426500Y-64519750D01*
X69425324Y-64543691D01*
X69421807Y-64567401D01*
X69415983Y-64590652D01*
X69407908Y-64613220D01*
X69397659Y-64634889D01*
X69385336Y-64655448D01*
X69371058Y-64674701D01*
X69354961Y-64692461D01*
X69337201Y-64708558D01*
X69317948Y-64722836D01*
X69297389Y-64735159D01*
X69275720Y-64745408D01*
X69253152Y-64753483D01*
X69229901Y-64759307D01*
X69206191Y-64762824D01*
X69182250Y-64764000D01*
X68693750Y-64764000D01*
X68669809Y-64762824D01*
X68646099Y-64759307D01*
X68622848Y-64753483D01*
X68600280Y-64745408D01*
X68578611Y-64735159D01*
X68558052Y-64722836D01*
X68538799Y-64708558D01*
X68521039Y-64692461D01*
X68504942Y-64674701D01*
X68490664Y-64655448D01*
X68478341Y-64634889D01*
X68468092Y-64613220D01*
X68460017Y-64590652D01*
X68454193Y-64567401D01*
X68450676Y-64543691D01*
X68449500Y-64519750D01*
X68449500Y-63956250D01*
X68450676Y-63932309D01*
X68454193Y-63908599D01*
X68460017Y-63885348D01*
X68468092Y-63862780D01*
X68478341Y-63841111D01*
X68490664Y-63820552D01*
X68504942Y-63801299D01*
X68521039Y-63783539D01*
X68538799Y-63767442D01*
X68558052Y-63753164D01*
X68578611Y-63740841D01*
X68600280Y-63730592D01*
X68622848Y-63722517D01*
X68646099Y-63716693D01*
X68669809Y-63713176D01*
X68693750Y-63712000D01*
X69182250Y-63712000D01*
X69206191Y-63713176D01*
G37*
G36*
X69206191Y-67269176D02*
G01*
X69229901Y-67272693D01*
X69253152Y-67278517D01*
X69275720Y-67286592D01*
X69297389Y-67296841D01*
X69317948Y-67309164D01*
X69337201Y-67323442D01*
X69354961Y-67339539D01*
X69371058Y-67357299D01*
X69385336Y-67376552D01*
X69397659Y-67397111D01*
X69407908Y-67418780D01*
X69415983Y-67441348D01*
X69421807Y-67464599D01*
X69425324Y-67488309D01*
X69426500Y-67512250D01*
X69426500Y-68075750D01*
X69425324Y-68099691D01*
X69421807Y-68123401D01*
X69415983Y-68146652D01*
X69407908Y-68169220D01*
X69397659Y-68190889D01*
X69385336Y-68211448D01*
X69371058Y-68230701D01*
X69354961Y-68248461D01*
X69337201Y-68264558D01*
X69317948Y-68278836D01*
X69297389Y-68291159D01*
X69275720Y-68301408D01*
X69253152Y-68309483D01*
X69229901Y-68315307D01*
X69206191Y-68318824D01*
X69182250Y-68320000D01*
X68693750Y-68320000D01*
X68669809Y-68318824D01*
X68646099Y-68315307D01*
X68622848Y-68309483D01*
X68600280Y-68301408D01*
X68578611Y-68291159D01*
X68558052Y-68278836D01*
X68538799Y-68264558D01*
X68521039Y-68248461D01*
X68504942Y-68230701D01*
X68490664Y-68211448D01*
X68478341Y-68190889D01*
X68468092Y-68169220D01*
X68460017Y-68146652D01*
X68454193Y-68123401D01*
X68450676Y-68099691D01*
X68449500Y-68075750D01*
X68449500Y-67512250D01*
X68450676Y-67488309D01*
X68454193Y-67464599D01*
X68460017Y-67441348D01*
X68468092Y-67418780D01*
X68478341Y-67397111D01*
X68490664Y-67376552D01*
X68504942Y-67357299D01*
X68521039Y-67339539D01*
X68538799Y-67323442D01*
X68558052Y-67309164D01*
X68578611Y-67296841D01*
X68600280Y-67286592D01*
X68622848Y-67278517D01*
X68646099Y-67272693D01*
X68669809Y-67269176D01*
X68693750Y-67268000D01*
X69182250Y-67268000D01*
X69206191Y-67269176D01*
G37*
G36*
X67631191Y-67269176D02*
G01*
X67654901Y-67272693D01*
X67678152Y-67278517D01*
X67700720Y-67286592D01*
X67722389Y-67296841D01*
X67742948Y-67309164D01*
X67762201Y-67323442D01*
X67779961Y-67339539D01*
X67796058Y-67357299D01*
X67810336Y-67376552D01*
X67822659Y-67397111D01*
X67832908Y-67418780D01*
X67840983Y-67441348D01*
X67846807Y-67464599D01*
X67850324Y-67488309D01*
X67851500Y-67512250D01*
X67851500Y-68075750D01*
X67850324Y-68099691D01*
X67846807Y-68123401D01*
X67840983Y-68146652D01*
X67832908Y-68169220D01*
X67822659Y-68190889D01*
X67810336Y-68211448D01*
X67796058Y-68230701D01*
X67779961Y-68248461D01*
X67762201Y-68264558D01*
X67742948Y-68278836D01*
X67722389Y-68291159D01*
X67700720Y-68301408D01*
X67678152Y-68309483D01*
X67654901Y-68315307D01*
X67631191Y-68318824D01*
X67607250Y-68320000D01*
X67118750Y-68320000D01*
X67094809Y-68318824D01*
X67071099Y-68315307D01*
X67047848Y-68309483D01*
X67025280Y-68301408D01*
X67003611Y-68291159D01*
X66983052Y-68278836D01*
X66963799Y-68264558D01*
X66946039Y-68248461D01*
X66929942Y-68230701D01*
X66915664Y-68211448D01*
X66903341Y-68190889D01*
X66893092Y-68169220D01*
X66885017Y-68146652D01*
X66879193Y-68123401D01*
X66875676Y-68099691D01*
X66874500Y-68075750D01*
X66874500Y-67512250D01*
X66875676Y-67488309D01*
X66879193Y-67464599D01*
X66885017Y-67441348D01*
X66893092Y-67418780D01*
X66903341Y-67397111D01*
X66915664Y-67376552D01*
X66929942Y-67357299D01*
X66946039Y-67339539D01*
X66963799Y-67323442D01*
X66983052Y-67309164D01*
X67003611Y-67296841D01*
X67025280Y-67286592D01*
X67047848Y-67278517D01*
X67071099Y-67272693D01*
X67094809Y-67269176D01*
X67118750Y-67268000D01*
X67607250Y-67268000D01*
X67631191Y-67269176D01*
G37*
G36*
X81347191Y-62570176D02*
G01*
X81370901Y-62573693D01*
X81394152Y-62579517D01*
X81416720Y-62587592D01*
X81438389Y-62597841D01*
X81458948Y-62610164D01*
X81478201Y-62624442D01*
X81495961Y-62640539D01*
X81512058Y-62658299D01*
X81526336Y-62677552D01*
X81538659Y-62698111D01*
X81548908Y-62719780D01*
X81556983Y-62742348D01*
X81562807Y-62765599D01*
X81566324Y-62789309D01*
X81567500Y-62813250D01*
X81567500Y-63376750D01*
X81566324Y-63400691D01*
X81562807Y-63424401D01*
X81556983Y-63447652D01*
X81548908Y-63470220D01*
X81538659Y-63491889D01*
X81526336Y-63512448D01*
X81512058Y-63531701D01*
X81495961Y-63549461D01*
X81478201Y-63565558D01*
X81458948Y-63579836D01*
X81438389Y-63592159D01*
X81416720Y-63602408D01*
X81394152Y-63610483D01*
X81370901Y-63616307D01*
X81347191Y-63619824D01*
X81323250Y-63621000D01*
X80834750Y-63621000D01*
X80810809Y-63619824D01*
X80787099Y-63616307D01*
X80763848Y-63610483D01*
X80741280Y-63602408D01*
X80719611Y-63592159D01*
X80699052Y-63579836D01*
X80679799Y-63565558D01*
X80662039Y-63549461D01*
X80645942Y-63531701D01*
X80631664Y-63512448D01*
X80619341Y-63491889D01*
X80609092Y-63470220D01*
X80601017Y-63447652D01*
X80595193Y-63424401D01*
X80591676Y-63400691D01*
X80590500Y-63376750D01*
X80590500Y-62813250D01*
X80591676Y-62789309D01*
X80595193Y-62765599D01*
X80601017Y-62742348D01*
X80609092Y-62719780D01*
X80619341Y-62698111D01*
X80631664Y-62677552D01*
X80645942Y-62658299D01*
X80662039Y-62640539D01*
X80679799Y-62624442D01*
X80699052Y-62610164D01*
X80719611Y-62597841D01*
X80741280Y-62587592D01*
X80763848Y-62579517D01*
X80787099Y-62573693D01*
X80810809Y-62570176D01*
X80834750Y-62569000D01*
X81323250Y-62569000D01*
X81347191Y-62570176D01*
G37*
G36*
X82922191Y-62570176D02*
G01*
X82945901Y-62573693D01*
X82969152Y-62579517D01*
X82991720Y-62587592D01*
X83013389Y-62597841D01*
X83033948Y-62610164D01*
X83053201Y-62624442D01*
X83070961Y-62640539D01*
X83087058Y-62658299D01*
X83101336Y-62677552D01*
X83113659Y-62698111D01*
X83123908Y-62719780D01*
X83131983Y-62742348D01*
X83137807Y-62765599D01*
X83141324Y-62789309D01*
X83142500Y-62813250D01*
X83142500Y-63376750D01*
X83141324Y-63400691D01*
X83137807Y-63424401D01*
X83131983Y-63447652D01*
X83123908Y-63470220D01*
X83113659Y-63491889D01*
X83101336Y-63512448D01*
X83087058Y-63531701D01*
X83070961Y-63549461D01*
X83053201Y-63565558D01*
X83033948Y-63579836D01*
X83013389Y-63592159D01*
X82991720Y-63602408D01*
X82969152Y-63610483D01*
X82945901Y-63616307D01*
X82922191Y-63619824D01*
X82898250Y-63621000D01*
X82409750Y-63621000D01*
X82385809Y-63619824D01*
X82362099Y-63616307D01*
X82338848Y-63610483D01*
X82316280Y-63602408D01*
X82294611Y-63592159D01*
X82274052Y-63579836D01*
X82254799Y-63565558D01*
X82237039Y-63549461D01*
X82220942Y-63531701D01*
X82206664Y-63512448D01*
X82194341Y-63491889D01*
X82184092Y-63470220D01*
X82176017Y-63447652D01*
X82170193Y-63424401D01*
X82166676Y-63400691D01*
X82165500Y-63376750D01*
X82165500Y-62813250D01*
X82166676Y-62789309D01*
X82170193Y-62765599D01*
X82176017Y-62742348D01*
X82184092Y-62719780D01*
X82194341Y-62698111D01*
X82206664Y-62677552D01*
X82220942Y-62658299D01*
X82237039Y-62640539D01*
X82254799Y-62624442D01*
X82274052Y-62610164D01*
X82294611Y-62597841D01*
X82316280Y-62587592D01*
X82338848Y-62579517D01*
X82362099Y-62573693D01*
X82385809Y-62570176D01*
X82409750Y-62569000D01*
X82898250Y-62569000D01*
X82922191Y-62570176D01*
G37*
D15*
X68004500Y-58543000D03*
X82004500Y-58543000D03*
X68004500Y-71043000D03*
X82004500Y-71043000D03*
D16*
X75504500Y-68018000D03*
X76504500Y-68018000D03*
X74504500Y-68018000D03*
X73504500Y-68018000D03*
D17*
X72204500Y-71893000D03*
X77804500Y-71893000D03*
D18*
X78171500Y-66016000D03*
X76671500Y-66016000D03*
X73218500Y-66016000D03*
X71718500Y-66016000D03*
D19*
X70684500Y-59143000D03*
X79324500Y-59143000D03*
D20*
X70684500Y-63323000D03*
X79324500Y-63323000D03*
D21*
X77894500Y-62793000D03*
X72114500Y-62793000D03*
D22*
X75254500Y-64238000D03*
X74754500Y-64238000D03*
X74254500Y-64238000D03*
X75754500Y-64238000D03*
X73754500Y-64238000D03*
X76254500Y-64238000D03*
X73254500Y-64238000D03*
X76754500Y-64238000D03*
D23*
X77454500Y-64238000D03*
X72554500Y-64238000D03*
X78229500Y-64238000D03*
X71779500Y-64238000D03*
M02*
