G04 #@! TF.GenerationSoftware,KiCad,Pcbnew,5.1.5*
G04 #@! TF.CreationDate,2020-01-08T02:03:50-03:00*
G04 #@! TF.ProjectId,Unified-Daughterboard,556e6966-6965-4642-9d44-617567687465,rev?*
G04 #@! TF.SameCoordinates,Original*
G04 #@! TF.FileFunction,Soldermask,Bot*
G04 #@! TF.FilePolarity,Negative*
%FSLAX46Y46*%
G04 Gerber Fmt 4.6, Leading zero omitted, Abs format (unit mm)*
G04 Created by KiCad (PCBNEW 5.1.5) date 2020-01-08 02:03:50*
%MOMM*%
%LPD*%
G04 APERTURE LIST*
%ADD10C,0.100000*%
G04 APERTURE END LIST*
D10*
G36*
X78004172Y-62431449D02*
G01*
X78004174Y-62431450D01*
X78004175Y-62431450D01*
X78072603Y-62459793D01*
X78134186Y-62500942D01*
X78186558Y-62553314D01*
X78227707Y-62614897D01*
X78256050Y-62683325D01*
X78270500Y-62755967D01*
X78270500Y-62830033D01*
X78256050Y-62902675D01*
X78227707Y-62971103D01*
X78186558Y-63032686D01*
X78134186Y-63085058D01*
X78072603Y-63126207D01*
X78004175Y-63154550D01*
X78004174Y-63154550D01*
X78004172Y-63154551D01*
X77931534Y-63169000D01*
X77857466Y-63169000D01*
X77784828Y-63154551D01*
X77784826Y-63154550D01*
X77784825Y-63154550D01*
X77716397Y-63126207D01*
X77654814Y-63085058D01*
X77602442Y-63032686D01*
X77561293Y-62971103D01*
X77532950Y-62902675D01*
X77518500Y-62830033D01*
X77518500Y-62755967D01*
X77532950Y-62683325D01*
X77561293Y-62614897D01*
X77602442Y-62553314D01*
X77654814Y-62500942D01*
X77716397Y-62459793D01*
X77784825Y-62431450D01*
X77784826Y-62431450D01*
X77784828Y-62431449D01*
X77857466Y-62417000D01*
X77931534Y-62417000D01*
X78004172Y-62431449D01*
G37*
G36*
X72224172Y-62431449D02*
G01*
X72224174Y-62431450D01*
X72224175Y-62431450D01*
X72292603Y-62459793D01*
X72354186Y-62500942D01*
X72406558Y-62553314D01*
X72447707Y-62614897D01*
X72476050Y-62683325D01*
X72490500Y-62755967D01*
X72490500Y-62830033D01*
X72476050Y-62902675D01*
X72447707Y-62971103D01*
X72406558Y-63032686D01*
X72354186Y-63085058D01*
X72292603Y-63126207D01*
X72224175Y-63154550D01*
X72224174Y-63154550D01*
X72224172Y-63154551D01*
X72151534Y-63169000D01*
X72077466Y-63169000D01*
X72004828Y-63154551D01*
X72004826Y-63154550D01*
X72004825Y-63154550D01*
X71936397Y-63126207D01*
X71874814Y-63085058D01*
X71822442Y-63032686D01*
X71781293Y-62971103D01*
X71752950Y-62902675D01*
X71738500Y-62830033D01*
X71738500Y-62755967D01*
X71752950Y-62683325D01*
X71781293Y-62614897D01*
X71822442Y-62553314D01*
X71874814Y-62500942D01*
X71936397Y-62459793D01*
X72004825Y-62431450D01*
X72004826Y-62431450D01*
X72004828Y-62431449D01*
X72077466Y-62417000D01*
X72151534Y-62417000D01*
X72224172Y-62431449D01*
G37*
G36*
X68529831Y-56811211D02*
G01*
X68857592Y-56946974D01*
X69152570Y-57144072D01*
X69403428Y-57394930D01*
X69600526Y-57689908D01*
X69736289Y-58017669D01*
X69805500Y-58365616D01*
X69805500Y-58720384D01*
X69736289Y-59068331D01*
X69600526Y-59396092D01*
X69403428Y-59691070D01*
X69152570Y-59941928D01*
X68857592Y-60139026D01*
X68529831Y-60274789D01*
X68181884Y-60344000D01*
X67827116Y-60344000D01*
X67479169Y-60274789D01*
X67151408Y-60139026D01*
X66856430Y-59941928D01*
X66605572Y-59691070D01*
X66408474Y-59396092D01*
X66272711Y-59068331D01*
X66203500Y-58720384D01*
X66203500Y-58365616D01*
X66272711Y-58017669D01*
X66408474Y-57689908D01*
X66605572Y-57394930D01*
X66856430Y-57144072D01*
X67151408Y-56946974D01*
X67479169Y-56811211D01*
X67827116Y-56742000D01*
X68181884Y-56742000D01*
X68529831Y-56811211D01*
G37*
M02*
