G04 #@! TF.GenerationSoftware,KiCad,Pcbnew,5.1.5*
G04 #@! TF.CreationDate,2020-01-08T02:03:50-03:00*
G04 #@! TF.ProjectId,Unified-Daughterboard,556e6966-6965-4642-9d44-617567687465,rev?*
G04 #@! TF.SameCoordinates,Original*
G04 #@! TF.FileFunction,Paste,Top*
G04 #@! TF.FilePolarity,Positive*
%FSLAX46Y46*%
G04 Gerber Fmt 4.6, Leading zero omitted, Abs format (unit mm)*
G04 Created by KiCad (PCBNEW 5.1.5) date 2020-01-08 02:03:50*
%MOMM*%
%LPD*%
G04 APERTURE LIST*
%ADD10C,0.100000*%
%ADD11R,0.600000X1.550000*%
%ADD12R,1.200000X1.800000*%
%ADD13R,0.500000X0.900000*%
%ADD14R,0.300000X1.450000*%
%ADD15R,0.600000X1.450000*%
G04 APERTURE END LIST*
D10*
G36*
X69178191Y-65542053D02*
G01*
X69199426Y-65545203D01*
X69220250Y-65550419D01*
X69240462Y-65557651D01*
X69259868Y-65566830D01*
X69278281Y-65577866D01*
X69295524Y-65590654D01*
X69311430Y-65605070D01*
X69325846Y-65620976D01*
X69338634Y-65638219D01*
X69349670Y-65656632D01*
X69358849Y-65676038D01*
X69366081Y-65696250D01*
X69371297Y-65717074D01*
X69374447Y-65738309D01*
X69375500Y-65759750D01*
X69375500Y-66272250D01*
X69374447Y-66293691D01*
X69371297Y-66314926D01*
X69366081Y-66335750D01*
X69358849Y-66355962D01*
X69349670Y-66375368D01*
X69338634Y-66393781D01*
X69325846Y-66411024D01*
X69311430Y-66426930D01*
X69295524Y-66441346D01*
X69278281Y-66454134D01*
X69259868Y-66465170D01*
X69240462Y-66474349D01*
X69220250Y-66481581D01*
X69199426Y-66486797D01*
X69178191Y-66489947D01*
X69156750Y-66491000D01*
X68719250Y-66491000D01*
X68697809Y-66489947D01*
X68676574Y-66486797D01*
X68655750Y-66481581D01*
X68635538Y-66474349D01*
X68616132Y-66465170D01*
X68597719Y-66454134D01*
X68580476Y-66441346D01*
X68564570Y-66426930D01*
X68550154Y-66411024D01*
X68537366Y-66393781D01*
X68526330Y-66375368D01*
X68517151Y-66355962D01*
X68509919Y-66335750D01*
X68504703Y-66314926D01*
X68501553Y-66293691D01*
X68500500Y-66272250D01*
X68500500Y-65759750D01*
X68501553Y-65738309D01*
X68504703Y-65717074D01*
X68509919Y-65696250D01*
X68517151Y-65676038D01*
X68526330Y-65656632D01*
X68537366Y-65638219D01*
X68550154Y-65620976D01*
X68564570Y-65605070D01*
X68580476Y-65590654D01*
X68597719Y-65577866D01*
X68616132Y-65566830D01*
X68635538Y-65557651D01*
X68655750Y-65550419D01*
X68676574Y-65545203D01*
X68697809Y-65542053D01*
X68719250Y-65541000D01*
X69156750Y-65541000D01*
X69178191Y-65542053D01*
G37*
G36*
X67603191Y-65542053D02*
G01*
X67624426Y-65545203D01*
X67645250Y-65550419D01*
X67665462Y-65557651D01*
X67684868Y-65566830D01*
X67703281Y-65577866D01*
X67720524Y-65590654D01*
X67736430Y-65605070D01*
X67750846Y-65620976D01*
X67763634Y-65638219D01*
X67774670Y-65656632D01*
X67783849Y-65676038D01*
X67791081Y-65696250D01*
X67796297Y-65717074D01*
X67799447Y-65738309D01*
X67800500Y-65759750D01*
X67800500Y-66272250D01*
X67799447Y-66293691D01*
X67796297Y-66314926D01*
X67791081Y-66335750D01*
X67783849Y-66355962D01*
X67774670Y-66375368D01*
X67763634Y-66393781D01*
X67750846Y-66411024D01*
X67736430Y-66426930D01*
X67720524Y-66441346D01*
X67703281Y-66454134D01*
X67684868Y-66465170D01*
X67665462Y-66474349D01*
X67645250Y-66481581D01*
X67624426Y-66486797D01*
X67603191Y-66489947D01*
X67581750Y-66491000D01*
X67144250Y-66491000D01*
X67122809Y-66489947D01*
X67101574Y-66486797D01*
X67080750Y-66481581D01*
X67060538Y-66474349D01*
X67041132Y-66465170D01*
X67022719Y-66454134D01*
X67005476Y-66441346D01*
X66989570Y-66426930D01*
X66975154Y-66411024D01*
X66962366Y-66393781D01*
X66951330Y-66375368D01*
X66942151Y-66355962D01*
X66934919Y-66335750D01*
X66929703Y-66314926D01*
X66926553Y-66293691D01*
X66925500Y-66272250D01*
X66925500Y-65759750D01*
X66926553Y-65738309D01*
X66929703Y-65717074D01*
X66934919Y-65696250D01*
X66942151Y-65676038D01*
X66951330Y-65656632D01*
X66962366Y-65638219D01*
X66975154Y-65620976D01*
X66989570Y-65605070D01*
X67005476Y-65590654D01*
X67022719Y-65577866D01*
X67041132Y-65566830D01*
X67060538Y-65557651D01*
X67080750Y-65550419D01*
X67101574Y-65545203D01*
X67122809Y-65542053D01*
X67144250Y-65541000D01*
X67581750Y-65541000D01*
X67603191Y-65542053D01*
G37*
G36*
X81319191Y-64272053D02*
G01*
X81340426Y-64275203D01*
X81361250Y-64280419D01*
X81381462Y-64287651D01*
X81400868Y-64296830D01*
X81419281Y-64307866D01*
X81436524Y-64320654D01*
X81452430Y-64335070D01*
X81466846Y-64350976D01*
X81479634Y-64368219D01*
X81490670Y-64386632D01*
X81499849Y-64406038D01*
X81507081Y-64426250D01*
X81512297Y-64447074D01*
X81515447Y-64468309D01*
X81516500Y-64489750D01*
X81516500Y-65002250D01*
X81515447Y-65023691D01*
X81512297Y-65044926D01*
X81507081Y-65065750D01*
X81499849Y-65085962D01*
X81490670Y-65105368D01*
X81479634Y-65123781D01*
X81466846Y-65141024D01*
X81452430Y-65156930D01*
X81436524Y-65171346D01*
X81419281Y-65184134D01*
X81400868Y-65195170D01*
X81381462Y-65204349D01*
X81361250Y-65211581D01*
X81340426Y-65216797D01*
X81319191Y-65219947D01*
X81297750Y-65221000D01*
X80860250Y-65221000D01*
X80838809Y-65219947D01*
X80817574Y-65216797D01*
X80796750Y-65211581D01*
X80776538Y-65204349D01*
X80757132Y-65195170D01*
X80738719Y-65184134D01*
X80721476Y-65171346D01*
X80705570Y-65156930D01*
X80691154Y-65141024D01*
X80678366Y-65123781D01*
X80667330Y-65105368D01*
X80658151Y-65085962D01*
X80650919Y-65065750D01*
X80645703Y-65044926D01*
X80642553Y-65023691D01*
X80641500Y-65002250D01*
X80641500Y-64489750D01*
X80642553Y-64468309D01*
X80645703Y-64447074D01*
X80650919Y-64426250D01*
X80658151Y-64406038D01*
X80667330Y-64386632D01*
X80678366Y-64368219D01*
X80691154Y-64350976D01*
X80705570Y-64335070D01*
X80721476Y-64320654D01*
X80738719Y-64307866D01*
X80757132Y-64296830D01*
X80776538Y-64287651D01*
X80796750Y-64280419D01*
X80817574Y-64275203D01*
X80838809Y-64272053D01*
X80860250Y-64271000D01*
X81297750Y-64271000D01*
X81319191Y-64272053D01*
G37*
G36*
X82894191Y-64272053D02*
G01*
X82915426Y-64275203D01*
X82936250Y-64280419D01*
X82956462Y-64287651D01*
X82975868Y-64296830D01*
X82994281Y-64307866D01*
X83011524Y-64320654D01*
X83027430Y-64335070D01*
X83041846Y-64350976D01*
X83054634Y-64368219D01*
X83065670Y-64386632D01*
X83074849Y-64406038D01*
X83082081Y-64426250D01*
X83087297Y-64447074D01*
X83090447Y-64468309D01*
X83091500Y-64489750D01*
X83091500Y-65002250D01*
X83090447Y-65023691D01*
X83087297Y-65044926D01*
X83082081Y-65065750D01*
X83074849Y-65085962D01*
X83065670Y-65105368D01*
X83054634Y-65123781D01*
X83041846Y-65141024D01*
X83027430Y-65156930D01*
X83011524Y-65171346D01*
X82994281Y-65184134D01*
X82975868Y-65195170D01*
X82956462Y-65204349D01*
X82936250Y-65211581D01*
X82915426Y-65216797D01*
X82894191Y-65219947D01*
X82872750Y-65221000D01*
X82435250Y-65221000D01*
X82413809Y-65219947D01*
X82392574Y-65216797D01*
X82371750Y-65211581D01*
X82351538Y-65204349D01*
X82332132Y-65195170D01*
X82313719Y-65184134D01*
X82296476Y-65171346D01*
X82280570Y-65156930D01*
X82266154Y-65141024D01*
X82253366Y-65123781D01*
X82242330Y-65105368D01*
X82233151Y-65085962D01*
X82225919Y-65065750D01*
X82220703Y-65044926D01*
X82217553Y-65023691D01*
X82216500Y-65002250D01*
X82216500Y-64489750D01*
X82217553Y-64468309D01*
X82220703Y-64447074D01*
X82225919Y-64426250D01*
X82233151Y-64406038D01*
X82242330Y-64386632D01*
X82253366Y-64368219D01*
X82266154Y-64350976D01*
X82280570Y-64335070D01*
X82296476Y-64320654D01*
X82313719Y-64307866D01*
X82332132Y-64296830D01*
X82351538Y-64287651D01*
X82371750Y-64280419D01*
X82392574Y-64275203D01*
X82413809Y-64272053D01*
X82435250Y-64271000D01*
X82872750Y-64271000D01*
X82894191Y-64272053D01*
G37*
G36*
X67603191Y-63764053D02*
G01*
X67624426Y-63767203D01*
X67645250Y-63772419D01*
X67665462Y-63779651D01*
X67684868Y-63788830D01*
X67703281Y-63799866D01*
X67720524Y-63812654D01*
X67736430Y-63827070D01*
X67750846Y-63842976D01*
X67763634Y-63860219D01*
X67774670Y-63878632D01*
X67783849Y-63898038D01*
X67791081Y-63918250D01*
X67796297Y-63939074D01*
X67799447Y-63960309D01*
X67800500Y-63981750D01*
X67800500Y-64494250D01*
X67799447Y-64515691D01*
X67796297Y-64536926D01*
X67791081Y-64557750D01*
X67783849Y-64577962D01*
X67774670Y-64597368D01*
X67763634Y-64615781D01*
X67750846Y-64633024D01*
X67736430Y-64648930D01*
X67720524Y-64663346D01*
X67703281Y-64676134D01*
X67684868Y-64687170D01*
X67665462Y-64696349D01*
X67645250Y-64703581D01*
X67624426Y-64708797D01*
X67603191Y-64711947D01*
X67581750Y-64713000D01*
X67144250Y-64713000D01*
X67122809Y-64711947D01*
X67101574Y-64708797D01*
X67080750Y-64703581D01*
X67060538Y-64696349D01*
X67041132Y-64687170D01*
X67022719Y-64676134D01*
X67005476Y-64663346D01*
X66989570Y-64648930D01*
X66975154Y-64633024D01*
X66962366Y-64615781D01*
X66951330Y-64597368D01*
X66942151Y-64577962D01*
X66934919Y-64557750D01*
X66929703Y-64536926D01*
X66926553Y-64515691D01*
X66925500Y-64494250D01*
X66925500Y-63981750D01*
X66926553Y-63960309D01*
X66929703Y-63939074D01*
X66934919Y-63918250D01*
X66942151Y-63898038D01*
X66951330Y-63878632D01*
X66962366Y-63860219D01*
X66975154Y-63842976D01*
X66989570Y-63827070D01*
X67005476Y-63812654D01*
X67022719Y-63799866D01*
X67041132Y-63788830D01*
X67060538Y-63779651D01*
X67080750Y-63772419D01*
X67101574Y-63767203D01*
X67122809Y-63764053D01*
X67144250Y-63763000D01*
X67581750Y-63763000D01*
X67603191Y-63764053D01*
G37*
G36*
X69178191Y-63764053D02*
G01*
X69199426Y-63767203D01*
X69220250Y-63772419D01*
X69240462Y-63779651D01*
X69259868Y-63788830D01*
X69278281Y-63799866D01*
X69295524Y-63812654D01*
X69311430Y-63827070D01*
X69325846Y-63842976D01*
X69338634Y-63860219D01*
X69349670Y-63878632D01*
X69358849Y-63898038D01*
X69366081Y-63918250D01*
X69371297Y-63939074D01*
X69374447Y-63960309D01*
X69375500Y-63981750D01*
X69375500Y-64494250D01*
X69374447Y-64515691D01*
X69371297Y-64536926D01*
X69366081Y-64557750D01*
X69358849Y-64577962D01*
X69349670Y-64597368D01*
X69338634Y-64615781D01*
X69325846Y-64633024D01*
X69311430Y-64648930D01*
X69295524Y-64663346D01*
X69278281Y-64676134D01*
X69259868Y-64687170D01*
X69240462Y-64696349D01*
X69220250Y-64703581D01*
X69199426Y-64708797D01*
X69178191Y-64711947D01*
X69156750Y-64713000D01*
X68719250Y-64713000D01*
X68697809Y-64711947D01*
X68676574Y-64708797D01*
X68655750Y-64703581D01*
X68635538Y-64696349D01*
X68616132Y-64687170D01*
X68597719Y-64676134D01*
X68580476Y-64663346D01*
X68564570Y-64648930D01*
X68550154Y-64633024D01*
X68537366Y-64615781D01*
X68526330Y-64597368D01*
X68517151Y-64577962D01*
X68509919Y-64557750D01*
X68504703Y-64536926D01*
X68501553Y-64515691D01*
X68500500Y-64494250D01*
X68500500Y-63981750D01*
X68501553Y-63960309D01*
X68504703Y-63939074D01*
X68509919Y-63918250D01*
X68517151Y-63898038D01*
X68526330Y-63878632D01*
X68537366Y-63860219D01*
X68550154Y-63842976D01*
X68564570Y-63827070D01*
X68580476Y-63812654D01*
X68597719Y-63799866D01*
X68616132Y-63788830D01*
X68635538Y-63779651D01*
X68655750Y-63772419D01*
X68676574Y-63767203D01*
X68697809Y-63764053D01*
X68719250Y-63763000D01*
X69156750Y-63763000D01*
X69178191Y-63764053D01*
G37*
G36*
X69178191Y-67320053D02*
G01*
X69199426Y-67323203D01*
X69220250Y-67328419D01*
X69240462Y-67335651D01*
X69259868Y-67344830D01*
X69278281Y-67355866D01*
X69295524Y-67368654D01*
X69311430Y-67383070D01*
X69325846Y-67398976D01*
X69338634Y-67416219D01*
X69349670Y-67434632D01*
X69358849Y-67454038D01*
X69366081Y-67474250D01*
X69371297Y-67495074D01*
X69374447Y-67516309D01*
X69375500Y-67537750D01*
X69375500Y-68050250D01*
X69374447Y-68071691D01*
X69371297Y-68092926D01*
X69366081Y-68113750D01*
X69358849Y-68133962D01*
X69349670Y-68153368D01*
X69338634Y-68171781D01*
X69325846Y-68189024D01*
X69311430Y-68204930D01*
X69295524Y-68219346D01*
X69278281Y-68232134D01*
X69259868Y-68243170D01*
X69240462Y-68252349D01*
X69220250Y-68259581D01*
X69199426Y-68264797D01*
X69178191Y-68267947D01*
X69156750Y-68269000D01*
X68719250Y-68269000D01*
X68697809Y-68267947D01*
X68676574Y-68264797D01*
X68655750Y-68259581D01*
X68635538Y-68252349D01*
X68616132Y-68243170D01*
X68597719Y-68232134D01*
X68580476Y-68219346D01*
X68564570Y-68204930D01*
X68550154Y-68189024D01*
X68537366Y-68171781D01*
X68526330Y-68153368D01*
X68517151Y-68133962D01*
X68509919Y-68113750D01*
X68504703Y-68092926D01*
X68501553Y-68071691D01*
X68500500Y-68050250D01*
X68500500Y-67537750D01*
X68501553Y-67516309D01*
X68504703Y-67495074D01*
X68509919Y-67474250D01*
X68517151Y-67454038D01*
X68526330Y-67434632D01*
X68537366Y-67416219D01*
X68550154Y-67398976D01*
X68564570Y-67383070D01*
X68580476Y-67368654D01*
X68597719Y-67355866D01*
X68616132Y-67344830D01*
X68635538Y-67335651D01*
X68655750Y-67328419D01*
X68676574Y-67323203D01*
X68697809Y-67320053D01*
X68719250Y-67319000D01*
X69156750Y-67319000D01*
X69178191Y-67320053D01*
G37*
G36*
X67603191Y-67320053D02*
G01*
X67624426Y-67323203D01*
X67645250Y-67328419D01*
X67665462Y-67335651D01*
X67684868Y-67344830D01*
X67703281Y-67355866D01*
X67720524Y-67368654D01*
X67736430Y-67383070D01*
X67750846Y-67398976D01*
X67763634Y-67416219D01*
X67774670Y-67434632D01*
X67783849Y-67454038D01*
X67791081Y-67474250D01*
X67796297Y-67495074D01*
X67799447Y-67516309D01*
X67800500Y-67537750D01*
X67800500Y-68050250D01*
X67799447Y-68071691D01*
X67796297Y-68092926D01*
X67791081Y-68113750D01*
X67783849Y-68133962D01*
X67774670Y-68153368D01*
X67763634Y-68171781D01*
X67750846Y-68189024D01*
X67736430Y-68204930D01*
X67720524Y-68219346D01*
X67703281Y-68232134D01*
X67684868Y-68243170D01*
X67665462Y-68252349D01*
X67645250Y-68259581D01*
X67624426Y-68264797D01*
X67603191Y-68267947D01*
X67581750Y-68269000D01*
X67144250Y-68269000D01*
X67122809Y-68267947D01*
X67101574Y-68264797D01*
X67080750Y-68259581D01*
X67060538Y-68252349D01*
X67041132Y-68243170D01*
X67022719Y-68232134D01*
X67005476Y-68219346D01*
X66989570Y-68204930D01*
X66975154Y-68189024D01*
X66962366Y-68171781D01*
X66951330Y-68153368D01*
X66942151Y-68133962D01*
X66934919Y-68113750D01*
X66929703Y-68092926D01*
X66926553Y-68071691D01*
X66925500Y-68050250D01*
X66925500Y-67537750D01*
X66926553Y-67516309D01*
X66929703Y-67495074D01*
X66934919Y-67474250D01*
X66942151Y-67454038D01*
X66951330Y-67434632D01*
X66962366Y-67416219D01*
X66975154Y-67398976D01*
X66989570Y-67383070D01*
X67005476Y-67368654D01*
X67022719Y-67355866D01*
X67041132Y-67344830D01*
X67060538Y-67335651D01*
X67080750Y-67328419D01*
X67101574Y-67323203D01*
X67122809Y-67320053D01*
X67144250Y-67319000D01*
X67581750Y-67319000D01*
X67603191Y-67320053D01*
G37*
G36*
X81319191Y-62621053D02*
G01*
X81340426Y-62624203D01*
X81361250Y-62629419D01*
X81381462Y-62636651D01*
X81400868Y-62645830D01*
X81419281Y-62656866D01*
X81436524Y-62669654D01*
X81452430Y-62684070D01*
X81466846Y-62699976D01*
X81479634Y-62717219D01*
X81490670Y-62735632D01*
X81499849Y-62755038D01*
X81507081Y-62775250D01*
X81512297Y-62796074D01*
X81515447Y-62817309D01*
X81516500Y-62838750D01*
X81516500Y-63351250D01*
X81515447Y-63372691D01*
X81512297Y-63393926D01*
X81507081Y-63414750D01*
X81499849Y-63434962D01*
X81490670Y-63454368D01*
X81479634Y-63472781D01*
X81466846Y-63490024D01*
X81452430Y-63505930D01*
X81436524Y-63520346D01*
X81419281Y-63533134D01*
X81400868Y-63544170D01*
X81381462Y-63553349D01*
X81361250Y-63560581D01*
X81340426Y-63565797D01*
X81319191Y-63568947D01*
X81297750Y-63570000D01*
X80860250Y-63570000D01*
X80838809Y-63568947D01*
X80817574Y-63565797D01*
X80796750Y-63560581D01*
X80776538Y-63553349D01*
X80757132Y-63544170D01*
X80738719Y-63533134D01*
X80721476Y-63520346D01*
X80705570Y-63505930D01*
X80691154Y-63490024D01*
X80678366Y-63472781D01*
X80667330Y-63454368D01*
X80658151Y-63434962D01*
X80650919Y-63414750D01*
X80645703Y-63393926D01*
X80642553Y-63372691D01*
X80641500Y-63351250D01*
X80641500Y-62838750D01*
X80642553Y-62817309D01*
X80645703Y-62796074D01*
X80650919Y-62775250D01*
X80658151Y-62755038D01*
X80667330Y-62735632D01*
X80678366Y-62717219D01*
X80691154Y-62699976D01*
X80705570Y-62684070D01*
X80721476Y-62669654D01*
X80738719Y-62656866D01*
X80757132Y-62645830D01*
X80776538Y-62636651D01*
X80796750Y-62629419D01*
X80817574Y-62624203D01*
X80838809Y-62621053D01*
X80860250Y-62620000D01*
X81297750Y-62620000D01*
X81319191Y-62621053D01*
G37*
G36*
X82894191Y-62621053D02*
G01*
X82915426Y-62624203D01*
X82936250Y-62629419D01*
X82956462Y-62636651D01*
X82975868Y-62645830D01*
X82994281Y-62656866D01*
X83011524Y-62669654D01*
X83027430Y-62684070D01*
X83041846Y-62699976D01*
X83054634Y-62717219D01*
X83065670Y-62735632D01*
X83074849Y-62755038D01*
X83082081Y-62775250D01*
X83087297Y-62796074D01*
X83090447Y-62817309D01*
X83091500Y-62838750D01*
X83091500Y-63351250D01*
X83090447Y-63372691D01*
X83087297Y-63393926D01*
X83082081Y-63414750D01*
X83074849Y-63434962D01*
X83065670Y-63454368D01*
X83054634Y-63472781D01*
X83041846Y-63490024D01*
X83027430Y-63505930D01*
X83011524Y-63520346D01*
X82994281Y-63533134D01*
X82975868Y-63544170D01*
X82956462Y-63553349D01*
X82936250Y-63560581D01*
X82915426Y-63565797D01*
X82894191Y-63568947D01*
X82872750Y-63570000D01*
X82435250Y-63570000D01*
X82413809Y-63568947D01*
X82392574Y-63565797D01*
X82371750Y-63560581D01*
X82351538Y-63553349D01*
X82332132Y-63544170D01*
X82313719Y-63533134D01*
X82296476Y-63520346D01*
X82280570Y-63505930D01*
X82266154Y-63490024D01*
X82253366Y-63472781D01*
X82242330Y-63454368D01*
X82233151Y-63434962D01*
X82225919Y-63414750D01*
X82220703Y-63393926D01*
X82217553Y-63372691D01*
X82216500Y-63351250D01*
X82216500Y-62838750D01*
X82217553Y-62817309D01*
X82220703Y-62796074D01*
X82225919Y-62775250D01*
X82233151Y-62755038D01*
X82242330Y-62735632D01*
X82253366Y-62717219D01*
X82266154Y-62699976D01*
X82280570Y-62684070D01*
X82296476Y-62669654D01*
X82313719Y-62656866D01*
X82332132Y-62645830D01*
X82351538Y-62636651D01*
X82371750Y-62629419D01*
X82392574Y-62624203D01*
X82413809Y-62621053D01*
X82435250Y-62620000D01*
X82872750Y-62620000D01*
X82894191Y-62621053D01*
G37*
D11*
X75504500Y-68018000D03*
X76504500Y-68018000D03*
X74504500Y-68018000D03*
X73504500Y-68018000D03*
D12*
X72204500Y-71893000D03*
X77804500Y-71893000D03*
D13*
X78171500Y-66016000D03*
X76671500Y-66016000D03*
X73218500Y-66016000D03*
X71718500Y-66016000D03*
D14*
X75254500Y-64238000D03*
X74754500Y-64238000D03*
X74254500Y-64238000D03*
X75754500Y-64238000D03*
X73754500Y-64238000D03*
X76254500Y-64238000D03*
X73254500Y-64238000D03*
X76754500Y-64238000D03*
D15*
X77454500Y-64238000D03*
X72554500Y-64238000D03*
X78229500Y-64238000D03*
X71779500Y-64238000D03*
M02*
