G04 #@! TF.GenerationSoftware,KiCad,Pcbnew,(5.1.4)-1*
G04 #@! TF.CreationDate,2022-05-10T00:39:04+09:00*
G04 #@! TF.ProjectId,Unified-Daughterboard,556e6966-6965-4642-9d44-617567687465,C3*
G04 #@! TF.SameCoordinates,Original*
G04 #@! TF.FileFunction,Other,Fab,Top*
%FSLAX46Y46*%
G04 Gerber Fmt 4.6, Leading zero omitted, Abs format (unit mm)*
G04 Created by KiCad (PCBNEW (5.1.4)-1) date 2022-05-10 00:39:04*
%MOMM*%
%LPD*%
G04 APERTURE LIST*
%ADD10C,0.100000*%
%ADD11C,0.120000*%
%ADD12C,0.050000*%
%ADD13C,0.063500*%
%ADD14C,0.050800*%
%ADD15C,0.127000*%
%ADD16C,0.075000*%
%ADD17C,0.125000*%
G04 APERTURE END LIST*
D10*
X73752500Y-66593000D02*
X74002500Y-66843000D01*
X76252500Y-66843000D02*
X76252500Y-65843000D01*
X74002500Y-66843000D02*
X76252500Y-66843000D01*
X73752500Y-65843000D02*
X73752500Y-66593000D01*
X73752500Y-65843000D02*
X76252500Y-65843000D01*
X71425000Y-70701000D02*
X74625000Y-70701000D01*
X71425000Y-72301000D02*
X71425000Y-70701000D01*
X74625000Y-72301000D02*
X71425000Y-72301000D01*
X74625000Y-70701000D02*
X74625000Y-72301000D01*
X81202500Y-61743000D02*
X82802500Y-61743000D01*
X82802500Y-61743000D02*
X82802500Y-62543000D01*
X82802500Y-62543000D02*
X81202500Y-62543000D01*
X81202500Y-62543000D02*
X81202500Y-61743000D01*
X67090500Y-64807000D02*
X67090500Y-61607000D01*
X68690500Y-64807000D02*
X67090500Y-64807000D01*
X68690500Y-61607000D02*
X68690500Y-64807000D01*
X67090500Y-61607000D02*
X68690500Y-61607000D01*
X68909500Y-66890000D02*
X68409500Y-66890000D01*
X68909500Y-66490000D02*
X69509500Y-66890000D01*
X68909500Y-67290000D02*
X68909500Y-66490000D01*
X69509500Y-66890000D02*
X68909500Y-67290000D01*
X69509500Y-66890000D02*
X69509500Y-66340000D01*
X69509500Y-66890000D02*
X69509500Y-67440000D01*
X69909500Y-66890000D02*
X69509500Y-66890000D01*
X70559500Y-65990000D02*
X70559500Y-67790000D01*
X67759500Y-65990000D02*
X70559500Y-65990000D01*
X67759500Y-67790000D02*
X67759500Y-65990000D01*
X70559500Y-67790000D02*
X67759500Y-67790000D01*
D11*
X80002500Y-63443000D02*
X80002500Y-58043000D01*
X80002500Y-58043000D02*
X70002500Y-58043000D01*
X70002500Y-58043000D02*
X70002500Y-63443000D01*
X70002500Y-63443000D02*
X80002500Y-63443000D01*
D12*
X80002500Y-59343000D02*
X75902500Y-63443000D01*
X80002500Y-60343000D02*
X76902500Y-63443000D01*
X79302500Y-58043000D02*
X76902500Y-60343000D01*
X80002500Y-61343000D02*
X77902500Y-63443000D01*
X80002500Y-62343000D02*
X78902500Y-63443000D01*
X75902500Y-61443000D02*
X73902500Y-63443000D01*
X76902500Y-61443000D02*
X74902500Y-63443000D01*
X80002500Y-58343000D02*
X77902500Y-60343000D01*
X78302500Y-58043000D02*
X75902500Y-60343000D01*
X74902500Y-61443000D02*
X72902500Y-63443000D01*
X73902500Y-61443000D02*
X71902500Y-63443000D01*
X77302500Y-58043000D02*
X74902500Y-60343000D01*
X76302500Y-58043000D02*
X73902500Y-60343000D01*
X72902500Y-61443000D02*
X70902500Y-63443000D01*
X71902500Y-61443000D02*
X70002500Y-63343000D01*
X75302500Y-58043000D02*
X72902500Y-60343000D01*
X74302500Y-58043000D02*
X70002500Y-62343000D01*
X73302500Y-58043000D02*
X70002500Y-61343000D01*
X72302500Y-58043000D02*
X70002500Y-60343000D01*
X71302500Y-58043000D02*
X70002500Y-59343000D01*
D10*
X81202500Y-64243000D02*
X81202500Y-63443000D01*
X82802500Y-64243000D02*
X81202500Y-64243000D01*
X82802500Y-63443000D02*
X82802500Y-64243000D01*
X81202500Y-63443000D02*
X82802500Y-63443000D01*
D13*
X73327309Y-65401504D02*
X73472452Y-65401504D01*
X73399880Y-65655504D02*
X73399880Y-65401504D01*
X73557119Y-65655504D02*
X73557119Y-65401504D01*
X73653880Y-65401504D01*
X73678071Y-65413600D01*
X73690166Y-65425695D01*
X73702261Y-65449885D01*
X73702261Y-65486171D01*
X73690166Y-65510361D01*
X73678071Y-65522457D01*
X73653880Y-65534552D01*
X73557119Y-65534552D01*
X73811119Y-65655504D02*
X73811119Y-65401504D01*
X73871595Y-65401504D01*
X73907880Y-65413600D01*
X73932071Y-65437790D01*
X73944166Y-65461980D01*
X73956261Y-65510361D01*
X73956261Y-65546647D01*
X73944166Y-65595028D01*
X73932071Y-65619219D01*
X73907880Y-65643409D01*
X73871595Y-65655504D01*
X73811119Y-65655504D01*
X74173976Y-65486171D02*
X74173976Y-65655504D01*
X74113500Y-65389409D02*
X74053023Y-65570838D01*
X74210261Y-65570838D01*
X74307023Y-65522457D02*
X74391690Y-65522457D01*
X74427976Y-65655504D02*
X74307023Y-65655504D01*
X74307023Y-65401504D01*
X74427976Y-65401504D01*
X74585214Y-65401504D02*
X74609404Y-65401504D01*
X74633595Y-65413600D01*
X74645690Y-65425695D01*
X74657785Y-65449885D01*
X74669880Y-65498266D01*
X74669880Y-65558742D01*
X74657785Y-65607123D01*
X74645690Y-65631314D01*
X74633595Y-65643409D01*
X74609404Y-65655504D01*
X74585214Y-65655504D01*
X74561023Y-65643409D01*
X74548928Y-65631314D01*
X74536833Y-65607123D01*
X74524738Y-65558742D01*
X74524738Y-65498266D01*
X74536833Y-65449885D01*
X74548928Y-65425695D01*
X74561023Y-65413600D01*
X74585214Y-65401504D01*
X74899690Y-65401504D02*
X74778738Y-65401504D01*
X74766642Y-65522457D01*
X74778738Y-65510361D01*
X74802928Y-65498266D01*
X74863404Y-65498266D01*
X74887595Y-65510361D01*
X74899690Y-65522457D01*
X74911785Y-65546647D01*
X74911785Y-65607123D01*
X74899690Y-65631314D01*
X74887595Y-65643409D01*
X74863404Y-65655504D01*
X74802928Y-65655504D01*
X74778738Y-65643409D01*
X74766642Y-65631314D01*
X75020642Y-65401504D02*
X75020642Y-65607123D01*
X75032738Y-65631314D01*
X75044833Y-65643409D01*
X75069023Y-65655504D01*
X75117404Y-65655504D01*
X75141595Y-65643409D01*
X75153690Y-65631314D01*
X75165785Y-65607123D01*
X75165785Y-65401504D01*
X75335119Y-65401504D02*
X75359309Y-65401504D01*
X75383500Y-65413600D01*
X75395595Y-65425695D01*
X75407690Y-65449885D01*
X75419785Y-65498266D01*
X75419785Y-65558742D01*
X75407690Y-65607123D01*
X75395595Y-65631314D01*
X75383500Y-65643409D01*
X75359309Y-65655504D01*
X75335119Y-65655504D01*
X75310928Y-65643409D01*
X75298833Y-65631314D01*
X75286738Y-65607123D01*
X75274642Y-65558742D01*
X75274642Y-65498266D01*
X75286738Y-65449885D01*
X75298833Y-65425695D01*
X75310928Y-65413600D01*
X75335119Y-65401504D01*
X75637500Y-65401504D02*
X75589119Y-65401504D01*
X75564928Y-65413600D01*
X75552833Y-65425695D01*
X75528642Y-65461980D01*
X75516547Y-65510361D01*
X75516547Y-65607123D01*
X75528642Y-65631314D01*
X75540738Y-65643409D01*
X75564928Y-65655504D01*
X75613309Y-65655504D01*
X75637500Y-65643409D01*
X75649595Y-65631314D01*
X75661690Y-65607123D01*
X75661690Y-65546647D01*
X75649595Y-65522457D01*
X75637500Y-65510361D01*
X75613309Y-65498266D01*
X75564928Y-65498266D01*
X75540738Y-65510361D01*
X75528642Y-65522457D01*
X75516547Y-65546647D01*
X75770547Y-65655504D02*
X75770547Y-65401504D01*
X75831023Y-65401504D01*
X75867309Y-65413600D01*
X75891500Y-65437790D01*
X75903595Y-65461980D01*
X75915690Y-65510361D01*
X75915690Y-65546647D01*
X75903595Y-65595028D01*
X75891500Y-65619219D01*
X75867309Y-65643409D01*
X75831023Y-65655504D01*
X75770547Y-65655504D01*
X76193880Y-65679695D02*
X76169690Y-65667600D01*
X76145500Y-65643409D01*
X76109214Y-65607123D01*
X76085023Y-65595028D01*
X76060833Y-65595028D01*
X76072928Y-65655504D02*
X76048738Y-65643409D01*
X76024547Y-65619219D01*
X76012452Y-65570838D01*
X76012452Y-65486171D01*
X76024547Y-65437790D01*
X76048738Y-65413600D01*
X76072928Y-65401504D01*
X76121309Y-65401504D01*
X76145500Y-65413600D01*
X76169690Y-65437790D01*
X76181785Y-65486171D01*
X76181785Y-65570838D01*
X76169690Y-65619219D01*
X76145500Y-65643409D01*
X76121309Y-65655504D01*
X76072928Y-65655504D01*
X76278547Y-65582933D02*
X76399500Y-65582933D01*
X76254357Y-65655504D02*
X76339023Y-65401504D01*
X76423690Y-65655504D01*
X76653500Y-65655504D02*
X76568833Y-65534552D01*
X76508357Y-65655504D02*
X76508357Y-65401504D01*
X76605119Y-65401504D01*
X76629309Y-65413600D01*
X76641404Y-65425695D01*
X76653500Y-65449885D01*
X76653500Y-65486171D01*
X76641404Y-65510361D01*
X76629309Y-65522457D01*
X76605119Y-65534552D01*
X76508357Y-65534552D01*
D10*
X72134642Y-66565619D02*
X72213214Y-66591809D01*
X72344166Y-66591809D01*
X72396547Y-66565619D01*
X72422738Y-66539428D01*
X72448928Y-66487047D01*
X72448928Y-66434666D01*
X72422738Y-66382285D01*
X72396547Y-66356095D01*
X72344166Y-66329904D01*
X72239404Y-66303714D01*
X72187023Y-66277523D01*
X72160833Y-66251333D01*
X72134642Y-66198952D01*
X72134642Y-66146571D01*
X72160833Y-66094190D01*
X72187023Y-66068000D01*
X72239404Y-66041809D01*
X72370357Y-66041809D01*
X72448928Y-66068000D01*
X72291785Y-65963238D02*
X72291785Y-66670380D01*
X72841785Y-66801333D02*
X72815595Y-66801333D01*
X72763214Y-66775142D01*
X72737023Y-66722761D01*
X72737023Y-66460857D01*
X72710833Y-66408476D01*
X72658452Y-66382285D01*
X72710833Y-66356095D01*
X72737023Y-66303714D01*
X72737023Y-66041809D01*
X72763214Y-65989428D01*
X72815595Y-65963238D01*
X72841785Y-65963238D01*
X73365595Y-66591809D02*
X73182261Y-66329904D01*
X73051309Y-66591809D02*
X73051309Y-66041809D01*
X73260833Y-66041809D01*
X73313214Y-66068000D01*
X73339404Y-66094190D01*
X73365595Y-66146571D01*
X73365595Y-66225142D01*
X73339404Y-66277523D01*
X73313214Y-66303714D01*
X73260833Y-66329904D01*
X73051309Y-66329904D01*
X73601309Y-66303714D02*
X73784642Y-66303714D01*
X73863214Y-66591809D02*
X73601309Y-66591809D01*
X73601309Y-66041809D01*
X73863214Y-66041809D01*
X74282261Y-66303714D02*
X74098928Y-66303714D01*
X74098928Y-66591809D02*
X74098928Y-66041809D01*
X74360833Y-66041809D01*
X74570357Y-66303714D02*
X74753690Y-66303714D01*
X74832261Y-66591809D02*
X74570357Y-66591809D01*
X74570357Y-66041809D01*
X74832261Y-66041809D01*
X75382261Y-66591809D02*
X75198928Y-66329904D01*
X75067976Y-66591809D02*
X75067976Y-66041809D01*
X75277500Y-66041809D01*
X75329880Y-66068000D01*
X75356071Y-66094190D01*
X75382261Y-66146571D01*
X75382261Y-66225142D01*
X75356071Y-66277523D01*
X75329880Y-66303714D01*
X75277500Y-66329904D01*
X75067976Y-66329904D01*
X75617976Y-66303714D02*
X75801309Y-66303714D01*
X75879880Y-66591809D02*
X75617976Y-66591809D01*
X75617976Y-66041809D01*
X75879880Y-66041809D01*
X76115595Y-66591809D02*
X76115595Y-66041809D01*
X76429880Y-66591809D01*
X76429880Y-66041809D01*
X77006071Y-66539428D02*
X76979880Y-66565619D01*
X76901309Y-66591809D01*
X76848928Y-66591809D01*
X76770357Y-66565619D01*
X76717976Y-66513238D01*
X76691785Y-66460857D01*
X76665595Y-66356095D01*
X76665595Y-66277523D01*
X76691785Y-66172761D01*
X76717976Y-66120380D01*
X76770357Y-66068000D01*
X76848928Y-66041809D01*
X76901309Y-66041809D01*
X76979880Y-66068000D01*
X77006071Y-66094190D01*
X77241785Y-66303714D02*
X77425119Y-66303714D01*
X77503690Y-66591809D02*
X77241785Y-66591809D01*
X77241785Y-66041809D01*
X77503690Y-66041809D01*
X77687023Y-66801333D02*
X77713214Y-66801333D01*
X77765595Y-66775142D01*
X77791785Y-66722761D01*
X77791785Y-66460857D01*
X77817976Y-66408476D01*
X77870357Y-66382285D01*
X77817976Y-66356095D01*
X77791785Y-66303714D01*
X77791785Y-66041809D01*
X77765595Y-65989428D01*
X77713214Y-65963238D01*
X77687023Y-65963238D01*
D14*
X70796571Y-69952809D02*
X70699809Y-69952809D01*
X70651428Y-69977000D01*
X70627238Y-70001190D01*
X70578857Y-70073761D01*
X70554666Y-70170523D01*
X70554666Y-70364047D01*
X70578857Y-70412428D01*
X70603047Y-70436619D01*
X70651428Y-70460809D01*
X70748190Y-70460809D01*
X70796571Y-70436619D01*
X70820761Y-70412428D01*
X70844952Y-70364047D01*
X70844952Y-70243095D01*
X70820761Y-70194714D01*
X70796571Y-70170523D01*
X70748190Y-70146333D01*
X70651428Y-70146333D01*
X70603047Y-70170523D01*
X70578857Y-70194714D01*
X70554666Y-70243095D01*
X71159428Y-69952809D02*
X71207809Y-69952809D01*
X71256190Y-69977000D01*
X71280380Y-70001190D01*
X71304571Y-70049571D01*
X71328761Y-70146333D01*
X71328761Y-70267285D01*
X71304571Y-70364047D01*
X71280380Y-70412428D01*
X71256190Y-70436619D01*
X71207809Y-70460809D01*
X71159428Y-70460809D01*
X71111047Y-70436619D01*
X71086857Y-70412428D01*
X71062666Y-70364047D01*
X71038476Y-70267285D01*
X71038476Y-70146333D01*
X71062666Y-70049571D01*
X71086857Y-70001190D01*
X71111047Y-69977000D01*
X71159428Y-69952809D01*
X71836761Y-70460809D02*
X71667428Y-70218904D01*
X71546476Y-70460809D02*
X71546476Y-69952809D01*
X71740000Y-69952809D01*
X71788380Y-69977000D01*
X71812571Y-70001190D01*
X71836761Y-70049571D01*
X71836761Y-70122142D01*
X71812571Y-70170523D01*
X71788380Y-70194714D01*
X71740000Y-70218904D01*
X71546476Y-70218904D01*
X72368952Y-70218904D02*
X72344761Y-70194714D01*
X72296380Y-70170523D01*
X72248000Y-70170523D01*
X72199619Y-70194714D01*
X72175428Y-70218904D01*
X72151238Y-70267285D01*
X72151238Y-70315666D01*
X72175428Y-70364047D01*
X72199619Y-70388238D01*
X72248000Y-70412428D01*
X72296380Y-70412428D01*
X72344761Y-70388238D01*
X72368952Y-70364047D01*
X72368952Y-70170523D02*
X72368952Y-70364047D01*
X72393142Y-70388238D01*
X72417333Y-70388238D01*
X72465714Y-70364047D01*
X72489904Y-70315666D01*
X72489904Y-70194714D01*
X72441523Y-70122142D01*
X72368952Y-70073761D01*
X72272190Y-70049571D01*
X72175428Y-70073761D01*
X72102857Y-70122142D01*
X72054476Y-70194714D01*
X72030285Y-70291476D01*
X72054476Y-70388238D01*
X72102857Y-70460809D01*
X72175428Y-70509190D01*
X72272190Y-70533380D01*
X72368952Y-70509190D01*
X72441523Y-70460809D01*
X72973714Y-70460809D02*
X72683428Y-70460809D01*
X72828571Y-70460809D02*
X72828571Y-69952809D01*
X72780190Y-70025380D01*
X72731809Y-70073761D01*
X72683428Y-70097952D01*
X73288190Y-69952809D02*
X73336571Y-69952809D01*
X73384952Y-69977000D01*
X73409142Y-70001190D01*
X73433333Y-70049571D01*
X73457523Y-70146333D01*
X73457523Y-70267285D01*
X73433333Y-70364047D01*
X73409142Y-70412428D01*
X73384952Y-70436619D01*
X73336571Y-70460809D01*
X73288190Y-70460809D01*
X73239809Y-70436619D01*
X73215619Y-70412428D01*
X73191428Y-70364047D01*
X73167238Y-70267285D01*
X73167238Y-70146333D01*
X73191428Y-70049571D01*
X73215619Y-70001190D01*
X73239809Y-69977000D01*
X73288190Y-69952809D01*
X73772000Y-69952809D02*
X73820380Y-69952809D01*
X73868761Y-69977000D01*
X73892952Y-70001190D01*
X73917142Y-70049571D01*
X73941333Y-70146333D01*
X73941333Y-70267285D01*
X73917142Y-70364047D01*
X73892952Y-70412428D01*
X73868761Y-70436619D01*
X73820380Y-70460809D01*
X73772000Y-70460809D01*
X73723619Y-70436619D01*
X73699428Y-70412428D01*
X73675238Y-70364047D01*
X73651047Y-70267285D01*
X73651047Y-70146333D01*
X73675238Y-70049571D01*
X73699428Y-70001190D01*
X73723619Y-69977000D01*
X73772000Y-69952809D01*
X74159047Y-70460809D02*
X74159047Y-69952809D01*
X74328380Y-70315666D01*
X74497714Y-69952809D01*
X74497714Y-70460809D01*
X74739619Y-70460809D02*
X74739619Y-69952809D01*
X74739619Y-70194714D02*
X75029904Y-70194714D01*
X75029904Y-70460809D02*
X75029904Y-69952809D01*
X75223428Y-70122142D02*
X75489523Y-70122142D01*
X75223428Y-70460809D01*
X75489523Y-70460809D01*
D11*
X68853571Y-71824809D02*
X68967857Y-71862904D01*
X69158333Y-71862904D01*
X69234523Y-71824809D01*
X69272619Y-71786714D01*
X69310714Y-71710523D01*
X69310714Y-71634333D01*
X69272619Y-71558142D01*
X69234523Y-71520047D01*
X69158333Y-71481952D01*
X69005952Y-71443857D01*
X68929761Y-71405761D01*
X68891666Y-71367666D01*
X68853571Y-71291476D01*
X68853571Y-71215285D01*
X68891666Y-71139095D01*
X68929761Y-71101000D01*
X69005952Y-71062904D01*
X69196428Y-71062904D01*
X69310714Y-71101000D01*
X69082142Y-70948619D02*
X69082142Y-71977190D01*
X69882142Y-72167666D02*
X69844047Y-72167666D01*
X69767857Y-72129571D01*
X69729761Y-72053380D01*
X69729761Y-71672428D01*
X69691666Y-71596238D01*
X69615476Y-71558142D01*
X69691666Y-71520047D01*
X69729761Y-71443857D01*
X69729761Y-71062904D01*
X69767857Y-70986714D01*
X69844047Y-70948619D01*
X69882142Y-70948619D01*
X70644047Y-71862904D02*
X70377380Y-71481952D01*
X70186904Y-71862904D02*
X70186904Y-71062904D01*
X70491666Y-71062904D01*
X70567857Y-71101000D01*
X70605952Y-71139095D01*
X70644047Y-71215285D01*
X70644047Y-71329571D01*
X70605952Y-71405761D01*
X70567857Y-71443857D01*
X70491666Y-71481952D01*
X70186904Y-71481952D01*
X70986904Y-71443857D02*
X71253571Y-71443857D01*
X71367857Y-71862904D02*
X70986904Y-71862904D01*
X70986904Y-71062904D01*
X71367857Y-71062904D01*
X71977380Y-71443857D02*
X71710714Y-71443857D01*
X71710714Y-71862904D02*
X71710714Y-71062904D01*
X72091666Y-71062904D01*
X72396428Y-71443857D02*
X72663095Y-71443857D01*
X72777380Y-71862904D02*
X72396428Y-71862904D01*
X72396428Y-71062904D01*
X72777380Y-71062904D01*
X73577380Y-71862904D02*
X73310714Y-71481952D01*
X73120238Y-71862904D02*
X73120238Y-71062904D01*
X73425000Y-71062904D01*
X73501190Y-71101000D01*
X73539285Y-71139095D01*
X73577380Y-71215285D01*
X73577380Y-71329571D01*
X73539285Y-71405761D01*
X73501190Y-71443857D01*
X73425000Y-71481952D01*
X73120238Y-71481952D01*
X73920238Y-71443857D02*
X74186904Y-71443857D01*
X74301190Y-71862904D02*
X73920238Y-71862904D01*
X73920238Y-71062904D01*
X74301190Y-71062904D01*
X74644047Y-71862904D02*
X74644047Y-71062904D01*
X75101190Y-71862904D01*
X75101190Y-71062904D01*
X75939285Y-71786714D02*
X75901190Y-71824809D01*
X75786904Y-71862904D01*
X75710714Y-71862904D01*
X75596428Y-71824809D01*
X75520238Y-71748619D01*
X75482142Y-71672428D01*
X75444047Y-71520047D01*
X75444047Y-71405761D01*
X75482142Y-71253380D01*
X75520238Y-71177190D01*
X75596428Y-71101000D01*
X75710714Y-71062904D01*
X75786904Y-71062904D01*
X75901190Y-71101000D01*
X75939285Y-71139095D01*
X76282142Y-71443857D02*
X76548809Y-71443857D01*
X76663095Y-71862904D02*
X76282142Y-71862904D01*
X76282142Y-71062904D01*
X76663095Y-71062904D01*
X76929761Y-72167666D02*
X76967857Y-72167666D01*
X77044047Y-72129571D01*
X77082142Y-72053380D01*
X77082142Y-71672428D01*
X77120238Y-71596238D01*
X77196428Y-71558142D01*
X77120238Y-71520047D01*
X77082142Y-71443857D01*
X77082142Y-71062904D01*
X77044047Y-70986714D01*
X76967857Y-70948619D01*
X76929761Y-70948619D01*
D15*
X84058690Y-61568476D02*
X84058690Y-61326571D01*
X83816785Y-61302380D01*
X83840976Y-61326571D01*
X83865166Y-61374952D01*
X83865166Y-61495904D01*
X83840976Y-61544285D01*
X83816785Y-61568476D01*
X83768404Y-61592666D01*
X83647452Y-61592666D01*
X83599071Y-61568476D01*
X83574880Y-61544285D01*
X83550690Y-61495904D01*
X83550690Y-61374952D01*
X83574880Y-61326571D01*
X83599071Y-61302380D01*
X83599071Y-61810380D02*
X83574880Y-61834571D01*
X83550690Y-61810380D01*
X83574880Y-61786190D01*
X83599071Y-61810380D01*
X83550690Y-61810380D01*
X83550690Y-62318380D02*
X83550690Y-62028095D01*
X83550690Y-62173238D02*
X84058690Y-62173238D01*
X83986119Y-62124857D01*
X83937738Y-62076476D01*
X83913547Y-62028095D01*
X83550690Y-62536095D02*
X84058690Y-62536095D01*
X83744214Y-62584476D02*
X83550690Y-62729619D01*
X83889357Y-62729619D02*
X83695833Y-62536095D01*
D16*
X79916785Y-62304904D02*
X79973928Y-62323952D01*
X80069166Y-62323952D01*
X80107261Y-62304904D01*
X80126309Y-62285857D01*
X80145357Y-62247761D01*
X80145357Y-62209666D01*
X80126309Y-62171571D01*
X80107261Y-62152523D01*
X80069166Y-62133476D01*
X79992976Y-62114428D01*
X79954880Y-62095380D01*
X79935833Y-62076333D01*
X79916785Y-62038238D01*
X79916785Y-62000142D01*
X79935833Y-61962047D01*
X79954880Y-61943000D01*
X79992976Y-61923952D01*
X80088214Y-61923952D01*
X80145357Y-61943000D01*
X80031071Y-61866809D02*
X80031071Y-62381095D01*
X80431071Y-62476333D02*
X80412023Y-62476333D01*
X80373928Y-62457285D01*
X80354880Y-62419190D01*
X80354880Y-62228714D01*
X80335833Y-62190619D01*
X80297738Y-62171571D01*
X80335833Y-62152523D01*
X80354880Y-62114428D01*
X80354880Y-61923952D01*
X80373928Y-61885857D01*
X80412023Y-61866809D01*
X80431071Y-61866809D01*
X80812023Y-62323952D02*
X80678690Y-62133476D01*
X80583452Y-62323952D02*
X80583452Y-61923952D01*
X80735833Y-61923952D01*
X80773928Y-61943000D01*
X80792976Y-61962047D01*
X80812023Y-62000142D01*
X80812023Y-62057285D01*
X80792976Y-62095380D01*
X80773928Y-62114428D01*
X80735833Y-62133476D01*
X80583452Y-62133476D01*
X80983452Y-62114428D02*
X81116785Y-62114428D01*
X81173928Y-62323952D02*
X80983452Y-62323952D01*
X80983452Y-61923952D01*
X81173928Y-61923952D01*
X81478690Y-62114428D02*
X81345357Y-62114428D01*
X81345357Y-62323952D02*
X81345357Y-61923952D01*
X81535833Y-61923952D01*
X81688214Y-62114428D02*
X81821547Y-62114428D01*
X81878690Y-62323952D02*
X81688214Y-62323952D01*
X81688214Y-61923952D01*
X81878690Y-61923952D01*
X82278690Y-62323952D02*
X82145357Y-62133476D01*
X82050119Y-62323952D02*
X82050119Y-61923952D01*
X82202500Y-61923952D01*
X82240595Y-61943000D01*
X82259642Y-61962047D01*
X82278690Y-62000142D01*
X82278690Y-62057285D01*
X82259642Y-62095380D01*
X82240595Y-62114428D01*
X82202500Y-62133476D01*
X82050119Y-62133476D01*
X82450119Y-62114428D02*
X82583452Y-62114428D01*
X82640595Y-62323952D02*
X82450119Y-62323952D01*
X82450119Y-61923952D01*
X82640595Y-61923952D01*
X82812023Y-62323952D02*
X82812023Y-61923952D01*
X83040595Y-62323952D01*
X83040595Y-61923952D01*
X83459642Y-62285857D02*
X83440595Y-62304904D01*
X83383452Y-62323952D01*
X83345357Y-62323952D01*
X83288214Y-62304904D01*
X83250119Y-62266809D01*
X83231071Y-62228714D01*
X83212023Y-62152523D01*
X83212023Y-62095380D01*
X83231071Y-62019190D01*
X83250119Y-61981095D01*
X83288214Y-61943000D01*
X83345357Y-61923952D01*
X83383452Y-61923952D01*
X83440595Y-61943000D01*
X83459642Y-61962047D01*
X83631071Y-62114428D02*
X83764404Y-62114428D01*
X83821547Y-62323952D02*
X83631071Y-62323952D01*
X83631071Y-61923952D01*
X83821547Y-61923952D01*
X83954880Y-62476333D02*
X83973928Y-62476333D01*
X84012023Y-62457285D01*
X84031071Y-62419190D01*
X84031071Y-62228714D01*
X84050119Y-62190619D01*
X84088214Y-62171571D01*
X84050119Y-62152523D01*
X84031071Y-62114428D01*
X84031071Y-61923952D01*
X84012023Y-61885857D01*
X83973928Y-61866809D01*
X83954880Y-61866809D01*
D13*
X66789833Y-64649476D02*
X66789833Y-64528523D01*
X66862404Y-64673666D02*
X66608404Y-64589000D01*
X66862404Y-64504333D01*
X66850309Y-64431761D02*
X66862404Y-64395476D01*
X66862404Y-64335000D01*
X66850309Y-64310809D01*
X66838214Y-64298714D01*
X66814023Y-64286619D01*
X66789833Y-64286619D01*
X66765642Y-64298714D01*
X66753547Y-64310809D01*
X66741452Y-64335000D01*
X66729357Y-64383380D01*
X66717261Y-64407571D01*
X66705166Y-64419666D01*
X66680976Y-64431761D01*
X66656785Y-64431761D01*
X66632595Y-64419666D01*
X66620500Y-64407571D01*
X66608404Y-64383380D01*
X66608404Y-64322904D01*
X66620500Y-64286619D01*
X66862404Y-64177761D02*
X66608404Y-64177761D01*
X66789833Y-64093095D01*
X66608404Y-64008428D01*
X66862404Y-64008428D01*
X66862404Y-63887476D02*
X66608404Y-63887476D01*
X66608404Y-63827000D01*
X66620500Y-63790714D01*
X66644690Y-63766523D01*
X66668880Y-63754428D01*
X66717261Y-63742333D01*
X66753547Y-63742333D01*
X66801928Y-63754428D01*
X66826119Y-63766523D01*
X66850309Y-63790714D01*
X66862404Y-63827000D01*
X66862404Y-63887476D01*
X66862404Y-63500428D02*
X66862404Y-63645571D01*
X66862404Y-63573000D02*
X66608404Y-63573000D01*
X66644690Y-63597190D01*
X66668880Y-63621380D01*
X66680976Y-63645571D01*
X66632595Y-63403666D02*
X66620500Y-63391571D01*
X66608404Y-63367380D01*
X66608404Y-63306904D01*
X66620500Y-63282714D01*
X66632595Y-63270619D01*
X66656785Y-63258523D01*
X66680976Y-63258523D01*
X66717261Y-63270619D01*
X66862404Y-63415761D01*
X66862404Y-63258523D01*
X66608404Y-63101285D02*
X66608404Y-63077095D01*
X66620500Y-63052904D01*
X66632595Y-63040809D01*
X66656785Y-63028714D01*
X66705166Y-63016619D01*
X66765642Y-63016619D01*
X66814023Y-63028714D01*
X66838214Y-63040809D01*
X66850309Y-63052904D01*
X66862404Y-63077095D01*
X66862404Y-63101285D01*
X66850309Y-63125476D01*
X66838214Y-63137571D01*
X66814023Y-63149666D01*
X66765642Y-63161761D01*
X66705166Y-63161761D01*
X66656785Y-63149666D01*
X66632595Y-63137571D01*
X66620500Y-63125476D01*
X66608404Y-63101285D01*
X66608404Y-62798904D02*
X66608404Y-62847285D01*
X66620500Y-62871476D01*
X66632595Y-62883571D01*
X66668880Y-62907761D01*
X66717261Y-62919857D01*
X66814023Y-62919857D01*
X66838214Y-62907761D01*
X66850309Y-62895666D01*
X66862404Y-62871476D01*
X66862404Y-62823095D01*
X66850309Y-62798904D01*
X66838214Y-62786809D01*
X66814023Y-62774714D01*
X66753547Y-62774714D01*
X66729357Y-62786809D01*
X66717261Y-62798904D01*
X66705166Y-62823095D01*
X66705166Y-62871476D01*
X66717261Y-62895666D01*
X66729357Y-62907761D01*
X66753547Y-62919857D01*
X66765642Y-62665857D02*
X66765642Y-62472333D01*
X66862404Y-62218333D02*
X66862404Y-62363476D01*
X66862404Y-62290904D02*
X66608404Y-62290904D01*
X66644690Y-62315095D01*
X66668880Y-62339285D01*
X66680976Y-62363476D01*
X66608404Y-61988523D02*
X66608404Y-62109476D01*
X66729357Y-62121571D01*
X66717261Y-62109476D01*
X66705166Y-62085285D01*
X66705166Y-62024809D01*
X66717261Y-62000619D01*
X66729357Y-61988523D01*
X66753547Y-61976428D01*
X66814023Y-61976428D01*
X66838214Y-61988523D01*
X66850309Y-62000619D01*
X66862404Y-62024809D01*
X66862404Y-62085285D01*
X66850309Y-62109476D01*
X66838214Y-62121571D01*
X66608404Y-61819190D02*
X66608404Y-61795000D01*
X66620500Y-61770809D01*
X66632595Y-61758714D01*
X66656785Y-61746619D01*
X66705166Y-61734523D01*
X66765642Y-61734523D01*
X66814023Y-61746619D01*
X66838214Y-61758714D01*
X66850309Y-61770809D01*
X66862404Y-61795000D01*
X66862404Y-61819190D01*
X66850309Y-61843380D01*
X66838214Y-61855476D01*
X66814023Y-61867571D01*
X66765642Y-61879666D01*
X66705166Y-61879666D01*
X66656785Y-61867571D01*
X66632595Y-61855476D01*
X66620500Y-61843380D01*
X66608404Y-61819190D01*
D11*
X68214309Y-67378428D02*
X68252404Y-67264142D01*
X68252404Y-67073666D01*
X68214309Y-66997476D01*
X68176214Y-66959380D01*
X68100023Y-66921285D01*
X68023833Y-66921285D01*
X67947642Y-66959380D01*
X67909547Y-66997476D01*
X67871452Y-67073666D01*
X67833357Y-67226047D01*
X67795261Y-67302238D01*
X67757166Y-67340333D01*
X67680976Y-67378428D01*
X67604785Y-67378428D01*
X67528595Y-67340333D01*
X67490500Y-67302238D01*
X67452404Y-67226047D01*
X67452404Y-67035571D01*
X67490500Y-66921285D01*
X67338119Y-67149857D02*
X68366690Y-67149857D01*
X68557166Y-66349857D02*
X68557166Y-66387952D01*
X68519071Y-66464142D01*
X68442880Y-66502238D01*
X68061928Y-66502238D01*
X67985738Y-66540333D01*
X67947642Y-66616523D01*
X67909547Y-66540333D01*
X67833357Y-66502238D01*
X67452404Y-66502238D01*
X67376214Y-66464142D01*
X67338119Y-66387952D01*
X67338119Y-66349857D01*
X68252404Y-65587952D02*
X67871452Y-65854619D01*
X68252404Y-66045095D02*
X67452404Y-66045095D01*
X67452404Y-65740333D01*
X67490500Y-65664142D01*
X67528595Y-65626047D01*
X67604785Y-65587952D01*
X67719071Y-65587952D01*
X67795261Y-65626047D01*
X67833357Y-65664142D01*
X67871452Y-65740333D01*
X67871452Y-66045095D01*
X67833357Y-65245095D02*
X67833357Y-64978428D01*
X68252404Y-64864142D02*
X68252404Y-65245095D01*
X67452404Y-65245095D01*
X67452404Y-64864142D01*
X67833357Y-64254619D02*
X67833357Y-64521285D01*
X68252404Y-64521285D02*
X67452404Y-64521285D01*
X67452404Y-64140333D01*
X67833357Y-63835571D02*
X67833357Y-63568904D01*
X68252404Y-63454619D02*
X68252404Y-63835571D01*
X67452404Y-63835571D01*
X67452404Y-63454619D01*
X68252404Y-62654619D02*
X67871452Y-62921285D01*
X68252404Y-63111761D02*
X67452404Y-63111761D01*
X67452404Y-62807000D01*
X67490500Y-62730809D01*
X67528595Y-62692714D01*
X67604785Y-62654619D01*
X67719071Y-62654619D01*
X67795261Y-62692714D01*
X67833357Y-62730809D01*
X67871452Y-62807000D01*
X67871452Y-63111761D01*
X67833357Y-62311761D02*
X67833357Y-62045095D01*
X68252404Y-61930809D02*
X68252404Y-62311761D01*
X67452404Y-62311761D01*
X67452404Y-61930809D01*
X68252404Y-61587952D02*
X67452404Y-61587952D01*
X68252404Y-61130809D01*
X67452404Y-61130809D01*
X68176214Y-60292714D02*
X68214309Y-60330809D01*
X68252404Y-60445095D01*
X68252404Y-60521285D01*
X68214309Y-60635571D01*
X68138119Y-60711761D01*
X68061928Y-60749857D01*
X67909547Y-60787952D01*
X67795261Y-60787952D01*
X67642880Y-60749857D01*
X67566690Y-60711761D01*
X67490500Y-60635571D01*
X67452404Y-60521285D01*
X67452404Y-60445095D01*
X67490500Y-60330809D01*
X67528595Y-60292714D01*
X67833357Y-59949857D02*
X67833357Y-59683190D01*
X68252404Y-59568904D02*
X68252404Y-59949857D01*
X67452404Y-59949857D01*
X67452404Y-59568904D01*
X68557166Y-59302238D02*
X68557166Y-59264142D01*
X68519071Y-59187952D01*
X68442880Y-59149857D01*
X68061928Y-59149857D01*
X67985738Y-59111761D01*
X67947642Y-59035571D01*
X67909547Y-59111761D01*
X67833357Y-59149857D01*
X67452404Y-59149857D01*
X67376214Y-59187952D01*
X67338119Y-59264142D01*
X67338119Y-59302238D01*
D17*
X67457119Y-68601380D02*
X67528547Y-68625190D01*
X67647595Y-68625190D01*
X67695214Y-68601380D01*
X67719023Y-68577571D01*
X67742833Y-68529952D01*
X67742833Y-68482333D01*
X67719023Y-68434714D01*
X67695214Y-68410904D01*
X67647595Y-68387095D01*
X67552357Y-68363285D01*
X67504738Y-68339476D01*
X67480928Y-68315666D01*
X67457119Y-68268047D01*
X67457119Y-68220428D01*
X67480928Y-68172809D01*
X67504738Y-68149000D01*
X67552357Y-68125190D01*
X67671404Y-68125190D01*
X67742833Y-68149000D01*
X67957119Y-68625190D02*
X67957119Y-68125190D01*
X68123785Y-68482333D01*
X68290452Y-68125190D01*
X68290452Y-68625190D01*
X68695214Y-68363285D02*
X68528547Y-68363285D01*
X68528547Y-68625190D02*
X68528547Y-68125190D01*
X68766642Y-68125190D01*
X68980928Y-68625190D02*
X69076166Y-68625190D01*
X69123785Y-68601380D01*
X69147595Y-68577571D01*
X69195214Y-68506142D01*
X69219023Y-68410904D01*
X69219023Y-68220428D01*
X69195214Y-68172809D01*
X69171404Y-68149000D01*
X69123785Y-68125190D01*
X69028547Y-68125190D01*
X68980928Y-68149000D01*
X68957119Y-68172809D01*
X68933309Y-68220428D01*
X68933309Y-68339476D01*
X68957119Y-68387095D01*
X68980928Y-68410904D01*
X69028547Y-68434714D01*
X69123785Y-68434714D01*
X69171404Y-68410904D01*
X69195214Y-68387095D01*
X69219023Y-68339476D01*
X69433309Y-68577571D02*
X69457119Y-68601380D01*
X69433309Y-68625190D01*
X69409500Y-68601380D01*
X69433309Y-68577571D01*
X69433309Y-68625190D01*
X69766642Y-68125190D02*
X69814261Y-68125190D01*
X69861880Y-68149000D01*
X69885690Y-68172809D01*
X69909500Y-68220428D01*
X69933309Y-68315666D01*
X69933309Y-68434714D01*
X69909500Y-68529952D01*
X69885690Y-68577571D01*
X69861880Y-68601380D01*
X69814261Y-68625190D01*
X69766642Y-68625190D01*
X69719023Y-68601380D01*
X69695214Y-68577571D01*
X69671404Y-68529952D01*
X69647595Y-68434714D01*
X69647595Y-68315666D01*
X69671404Y-68220428D01*
X69695214Y-68172809D01*
X69719023Y-68149000D01*
X69766642Y-68125190D01*
X70433309Y-68577571D02*
X70409500Y-68601380D01*
X70338071Y-68625190D01*
X70290452Y-68625190D01*
X70219023Y-68601380D01*
X70171404Y-68553761D01*
X70147595Y-68506142D01*
X70123785Y-68410904D01*
X70123785Y-68339476D01*
X70147595Y-68244238D01*
X70171404Y-68196619D01*
X70219023Y-68149000D01*
X70290452Y-68125190D01*
X70338071Y-68125190D01*
X70409500Y-68149000D01*
X70433309Y-68172809D01*
X70623785Y-68482333D02*
X70861880Y-68482333D01*
X70576166Y-68625190D02*
X70742833Y-68125190D01*
X70909500Y-68625190D01*
X66552357Y-68489380D02*
X66623785Y-68513190D01*
X66742833Y-68513190D01*
X66790452Y-68489380D01*
X66814261Y-68465571D01*
X66838071Y-68417952D01*
X66838071Y-68370333D01*
X66814261Y-68322714D01*
X66790452Y-68298904D01*
X66742833Y-68275095D01*
X66647595Y-68251285D01*
X66599976Y-68227476D01*
X66576166Y-68203666D01*
X66552357Y-68156047D01*
X66552357Y-68108428D01*
X66576166Y-68060809D01*
X66599976Y-68037000D01*
X66647595Y-68013190D01*
X66766642Y-68013190D01*
X66838071Y-68037000D01*
X66695214Y-67941761D02*
X66695214Y-68584619D01*
X67195214Y-68703666D02*
X67171404Y-68703666D01*
X67123785Y-68679857D01*
X67099976Y-68632238D01*
X67099976Y-68394142D01*
X67076166Y-68346523D01*
X67028547Y-68322714D01*
X67076166Y-68298904D01*
X67099976Y-68251285D01*
X67099976Y-68013190D01*
X67123785Y-67965571D01*
X67171404Y-67941761D01*
X67195214Y-67941761D01*
X67671404Y-68513190D02*
X67504738Y-68275095D01*
X67385690Y-68513190D02*
X67385690Y-68013190D01*
X67576166Y-68013190D01*
X67623785Y-68037000D01*
X67647595Y-68060809D01*
X67671404Y-68108428D01*
X67671404Y-68179857D01*
X67647595Y-68227476D01*
X67623785Y-68251285D01*
X67576166Y-68275095D01*
X67385690Y-68275095D01*
X67885690Y-68251285D02*
X68052357Y-68251285D01*
X68123785Y-68513190D02*
X67885690Y-68513190D01*
X67885690Y-68013190D01*
X68123785Y-68013190D01*
X68504738Y-68251285D02*
X68338071Y-68251285D01*
X68338071Y-68513190D02*
X68338071Y-68013190D01*
X68576166Y-68013190D01*
X68766642Y-68251285D02*
X68933309Y-68251285D01*
X69004738Y-68513190D02*
X68766642Y-68513190D01*
X68766642Y-68013190D01*
X69004738Y-68013190D01*
X69504738Y-68513190D02*
X69338071Y-68275095D01*
X69219023Y-68513190D02*
X69219023Y-68013190D01*
X69409500Y-68013190D01*
X69457119Y-68037000D01*
X69480928Y-68060809D01*
X69504738Y-68108428D01*
X69504738Y-68179857D01*
X69480928Y-68227476D01*
X69457119Y-68251285D01*
X69409500Y-68275095D01*
X69219023Y-68275095D01*
X69719023Y-68251285D02*
X69885690Y-68251285D01*
X69957119Y-68513190D02*
X69719023Y-68513190D01*
X69719023Y-68013190D01*
X69957119Y-68013190D01*
X70171404Y-68513190D02*
X70171404Y-68013190D01*
X70457119Y-68513190D01*
X70457119Y-68013190D01*
X70980928Y-68465571D02*
X70957119Y-68489380D01*
X70885690Y-68513190D01*
X70838071Y-68513190D01*
X70766642Y-68489380D01*
X70719023Y-68441761D01*
X70695214Y-68394142D01*
X70671404Y-68298904D01*
X70671404Y-68227476D01*
X70695214Y-68132238D01*
X70719023Y-68084619D01*
X70766642Y-68037000D01*
X70838071Y-68013190D01*
X70885690Y-68013190D01*
X70957119Y-68037000D01*
X70980928Y-68060809D01*
X71195214Y-68251285D02*
X71361880Y-68251285D01*
X71433309Y-68513190D02*
X71195214Y-68513190D01*
X71195214Y-68013190D01*
X71433309Y-68013190D01*
X71599976Y-68703666D02*
X71623785Y-68703666D01*
X71671404Y-68679857D01*
X71695214Y-68632238D01*
X71695214Y-68394142D01*
X71719023Y-68346523D01*
X71766642Y-68322714D01*
X71719023Y-68298904D01*
X71695214Y-68251285D01*
X71695214Y-68013190D01*
X71671404Y-67965571D01*
X71623785Y-67941761D01*
X71599976Y-67941761D01*
X71035833Y-57219190D02*
X71321547Y-57219190D01*
X71178690Y-57719190D02*
X71178690Y-57219190D01*
X71583452Y-57481095D02*
X71583452Y-57719190D01*
X71416785Y-57219190D02*
X71583452Y-57481095D01*
X71750119Y-57219190D01*
X71916785Y-57719190D02*
X71916785Y-57219190D01*
X72107261Y-57219190D01*
X72154880Y-57243000D01*
X72178690Y-57266809D01*
X72202500Y-57314428D01*
X72202500Y-57385857D01*
X72178690Y-57433476D01*
X72154880Y-57457285D01*
X72107261Y-57481095D01*
X71916785Y-57481095D01*
X72416785Y-57457285D02*
X72583452Y-57457285D01*
X72654880Y-57719190D02*
X72416785Y-57719190D01*
X72416785Y-57219190D01*
X72654880Y-57219190D01*
X72869166Y-57528714D02*
X73250119Y-57528714D01*
X73773928Y-57671571D02*
X73750119Y-57695380D01*
X73678690Y-57719190D01*
X73631071Y-57719190D01*
X73559642Y-57695380D01*
X73512023Y-57647761D01*
X73488214Y-57600142D01*
X73464404Y-57504904D01*
X73464404Y-57433476D01*
X73488214Y-57338238D01*
X73512023Y-57290619D01*
X73559642Y-57243000D01*
X73631071Y-57219190D01*
X73678690Y-57219190D01*
X73750119Y-57243000D01*
X73773928Y-57266809D01*
X73988214Y-57528714D02*
X74369166Y-57528714D01*
X74559642Y-57219190D02*
X74869166Y-57219190D01*
X74702500Y-57409666D01*
X74773928Y-57409666D01*
X74821547Y-57433476D01*
X74845357Y-57457285D01*
X74869166Y-57504904D01*
X74869166Y-57623952D01*
X74845357Y-57671571D01*
X74821547Y-57695380D01*
X74773928Y-57719190D01*
X74631071Y-57719190D01*
X74583452Y-57695380D01*
X74559642Y-57671571D01*
X75345357Y-57719190D02*
X75059642Y-57719190D01*
X75202500Y-57719190D02*
X75202500Y-57219190D01*
X75154880Y-57290619D01*
X75107261Y-57338238D01*
X75059642Y-57362047D01*
X75559642Y-57528714D02*
X75940595Y-57528714D01*
X76178690Y-57719190D02*
X76178690Y-57219190D01*
X76345357Y-57576333D01*
X76512023Y-57219190D01*
X76512023Y-57719190D01*
X77012023Y-57719190D02*
X76726309Y-57719190D01*
X76869166Y-57719190D02*
X76869166Y-57219190D01*
X76821547Y-57290619D01*
X76773928Y-57338238D01*
X76726309Y-57362047D01*
X77202500Y-57266809D02*
X77226309Y-57243000D01*
X77273928Y-57219190D01*
X77392976Y-57219190D01*
X77440595Y-57243000D01*
X77464404Y-57266809D01*
X77488214Y-57314428D01*
X77488214Y-57362047D01*
X77464404Y-57433476D01*
X77178690Y-57719190D01*
X77488214Y-57719190D01*
X77583452Y-57766809D02*
X77964404Y-57766809D01*
X78345357Y-57719190D02*
X78059642Y-57719190D01*
X78202500Y-57719190D02*
X78202500Y-57219190D01*
X78154880Y-57290619D01*
X78107261Y-57338238D01*
X78059642Y-57362047D01*
X78512023Y-57219190D02*
X78821547Y-57219190D01*
X78654880Y-57409666D01*
X78726309Y-57409666D01*
X78773928Y-57433476D01*
X78797738Y-57457285D01*
X78821547Y-57504904D01*
X78821547Y-57623952D01*
X78797738Y-57671571D01*
X78773928Y-57695380D01*
X78726309Y-57719190D01*
X78583452Y-57719190D01*
X78535833Y-57695380D01*
X78512023Y-57671571D01*
X72276309Y-61069190D02*
X72276309Y-60569190D01*
X72562023Y-61069190D02*
X72347738Y-60783476D01*
X72562023Y-60569190D02*
X72276309Y-60854904D01*
X72776309Y-60807285D02*
X72942976Y-60807285D01*
X73014404Y-61069190D02*
X72776309Y-61069190D01*
X72776309Y-60569190D01*
X73014404Y-60569190D01*
X73228690Y-60807285D02*
X73395357Y-60807285D01*
X73466785Y-61069190D02*
X73228690Y-61069190D01*
X73228690Y-60569190D01*
X73466785Y-60569190D01*
X73681071Y-61069190D02*
X73681071Y-60569190D01*
X73871547Y-60569190D01*
X73919166Y-60593000D01*
X73942976Y-60616809D01*
X73966785Y-60664428D01*
X73966785Y-60735857D01*
X73942976Y-60783476D01*
X73919166Y-60807285D01*
X73871547Y-60831095D01*
X73681071Y-60831095D01*
X74276309Y-60569190D02*
X74371547Y-60569190D01*
X74419166Y-60593000D01*
X74466785Y-60640619D01*
X74490595Y-60735857D01*
X74490595Y-60902523D01*
X74466785Y-60997761D01*
X74419166Y-61045380D01*
X74371547Y-61069190D01*
X74276309Y-61069190D01*
X74228690Y-61045380D01*
X74181071Y-60997761D01*
X74157261Y-60902523D01*
X74157261Y-60735857D01*
X74181071Y-60640619D01*
X74228690Y-60593000D01*
X74276309Y-60569190D01*
X74704880Y-60569190D02*
X74704880Y-60973952D01*
X74728690Y-61021571D01*
X74752500Y-61045380D01*
X74800119Y-61069190D01*
X74895357Y-61069190D01*
X74942976Y-61045380D01*
X74966785Y-61021571D01*
X74990595Y-60973952D01*
X74990595Y-60569190D01*
X75157261Y-60569190D02*
X75442976Y-60569190D01*
X75300119Y-61069190D02*
X75300119Y-60569190D01*
X75942976Y-60569190D02*
X76276309Y-60569190D01*
X75942976Y-61069190D01*
X76276309Y-61069190D01*
X76562023Y-60569190D02*
X76657261Y-60569190D01*
X76704880Y-60593000D01*
X76752500Y-60640619D01*
X76776309Y-60735857D01*
X76776309Y-60902523D01*
X76752500Y-60997761D01*
X76704880Y-61045380D01*
X76657261Y-61069190D01*
X76562023Y-61069190D01*
X76514404Y-61045380D01*
X76466785Y-60997761D01*
X76442976Y-60902523D01*
X76442976Y-60735857D01*
X76466785Y-60640619D01*
X76514404Y-60593000D01*
X76562023Y-60569190D01*
X76990595Y-61069190D02*
X76990595Y-60569190D01*
X77276309Y-61069190D01*
X77276309Y-60569190D01*
X77514404Y-60807285D02*
X77681071Y-60807285D01*
X77752500Y-61069190D02*
X77514404Y-61069190D01*
X77514404Y-60569190D01*
X77752500Y-60569190D01*
D13*
X80477309Y-71762047D02*
X80489404Y-71725761D01*
X80489404Y-71665285D01*
X80477309Y-71641095D01*
X80465214Y-71629000D01*
X80441023Y-71616904D01*
X80416833Y-71616904D01*
X80392642Y-71629000D01*
X80380547Y-71641095D01*
X80368452Y-71665285D01*
X80356357Y-71713666D01*
X80344261Y-71737857D01*
X80332166Y-71749952D01*
X80307976Y-71762047D01*
X80283785Y-71762047D01*
X80259595Y-71749952D01*
X80247500Y-71737857D01*
X80235404Y-71713666D01*
X80235404Y-71653190D01*
X80247500Y-71616904D01*
X80489404Y-71508047D02*
X80235404Y-71508047D01*
X80416833Y-71423380D01*
X80235404Y-71338714D01*
X80489404Y-71338714D01*
X80235404Y-71169380D02*
X80235404Y-71145190D01*
X80247500Y-71121000D01*
X80259595Y-71108904D01*
X80283785Y-71096809D01*
X80332166Y-71084714D01*
X80392642Y-71084714D01*
X80441023Y-71096809D01*
X80465214Y-71108904D01*
X80477309Y-71121000D01*
X80489404Y-71145190D01*
X80489404Y-71169380D01*
X80477309Y-71193571D01*
X80465214Y-71205666D01*
X80441023Y-71217761D01*
X80392642Y-71229857D01*
X80332166Y-71229857D01*
X80283785Y-71217761D01*
X80259595Y-71205666D01*
X80247500Y-71193571D01*
X80235404Y-71169380D01*
X80320071Y-70867000D02*
X80489404Y-70867000D01*
X80223309Y-70927476D02*
X80404738Y-70987952D01*
X80404738Y-70830714D01*
X80356357Y-70649285D02*
X80368452Y-70613000D01*
X80380547Y-70600904D01*
X80404738Y-70588809D01*
X80441023Y-70588809D01*
X80465214Y-70600904D01*
X80477309Y-70613000D01*
X80489404Y-70637190D01*
X80489404Y-70733952D01*
X80235404Y-70733952D01*
X80235404Y-70649285D01*
X80247500Y-70625095D01*
X80259595Y-70613000D01*
X80283785Y-70600904D01*
X80307976Y-70600904D01*
X80332166Y-70613000D01*
X80344261Y-70625095D01*
X80356357Y-70649285D01*
X80356357Y-70733952D01*
X80392642Y-70479952D02*
X80392642Y-70286428D01*
X80477309Y-70177571D02*
X80489404Y-70141285D01*
X80489404Y-70080809D01*
X80477309Y-70056619D01*
X80465214Y-70044523D01*
X80441023Y-70032428D01*
X80416833Y-70032428D01*
X80392642Y-70044523D01*
X80380547Y-70056619D01*
X80368452Y-70080809D01*
X80356357Y-70129190D01*
X80344261Y-70153380D01*
X80332166Y-70165476D01*
X80307976Y-70177571D01*
X80283785Y-70177571D01*
X80259595Y-70165476D01*
X80247500Y-70153380D01*
X80235404Y-70129190D01*
X80235404Y-70068714D01*
X80247500Y-70032428D01*
X80489404Y-69778428D02*
X80368452Y-69863095D01*
X80489404Y-69923571D02*
X80235404Y-69923571D01*
X80235404Y-69826809D01*
X80247500Y-69802619D01*
X80259595Y-69790523D01*
X80283785Y-69778428D01*
X80320071Y-69778428D01*
X80344261Y-69790523D01*
X80356357Y-69802619D01*
X80368452Y-69826809D01*
X80368452Y-69923571D01*
X80477309Y-69681666D02*
X80489404Y-69645380D01*
X80489404Y-69584904D01*
X80477309Y-69560714D01*
X80465214Y-69548619D01*
X80441023Y-69536523D01*
X80416833Y-69536523D01*
X80392642Y-69548619D01*
X80380547Y-69560714D01*
X80368452Y-69584904D01*
X80356357Y-69633285D01*
X80344261Y-69657476D01*
X80332166Y-69669571D01*
X80307976Y-69681666D01*
X80283785Y-69681666D01*
X80259595Y-69669571D01*
X80247500Y-69657476D01*
X80235404Y-69633285D01*
X80235404Y-69572809D01*
X80247500Y-69536523D01*
X80477309Y-69439761D02*
X80489404Y-69403476D01*
X80489404Y-69343000D01*
X80477309Y-69318809D01*
X80465214Y-69306714D01*
X80441023Y-69294619D01*
X80416833Y-69294619D01*
X80392642Y-69306714D01*
X80380547Y-69318809D01*
X80368452Y-69343000D01*
X80356357Y-69391380D01*
X80344261Y-69415571D01*
X80332166Y-69427666D01*
X80307976Y-69439761D01*
X80283785Y-69439761D01*
X80259595Y-69427666D01*
X80247500Y-69415571D01*
X80235404Y-69391380D01*
X80235404Y-69330904D01*
X80247500Y-69294619D01*
X80392642Y-69185761D02*
X80392642Y-68992238D01*
X80235404Y-68907571D02*
X80235404Y-68762428D01*
X80489404Y-68835000D02*
X80235404Y-68835000D01*
X80356357Y-68593095D02*
X80368452Y-68556809D01*
X80380547Y-68544714D01*
X80404738Y-68532619D01*
X80441023Y-68532619D01*
X80465214Y-68544714D01*
X80477309Y-68556809D01*
X80489404Y-68581000D01*
X80489404Y-68677761D01*
X80235404Y-68677761D01*
X80235404Y-68593095D01*
X80247500Y-68568904D01*
X80259595Y-68556809D01*
X80283785Y-68544714D01*
X80307976Y-68544714D01*
X80332166Y-68556809D01*
X80344261Y-68568904D01*
X80356357Y-68593095D01*
X80356357Y-68677761D01*
X80586166Y-68351190D02*
X80574071Y-68363285D01*
X80537785Y-68387476D01*
X80513595Y-68399571D01*
X80477309Y-68411666D01*
X80416833Y-68423761D01*
X80368452Y-68423761D01*
X80307976Y-68411666D01*
X80271690Y-68399571D01*
X80247500Y-68387476D01*
X80211214Y-68363285D01*
X80199119Y-68351190D01*
X80489404Y-68133476D02*
X80489404Y-68254428D01*
X80235404Y-68254428D01*
X80356357Y-67964142D02*
X80356357Y-68048809D01*
X80489404Y-68048809D02*
X80235404Y-68048809D01*
X80235404Y-67927857D01*
X80586166Y-67855285D02*
X80574071Y-67843190D01*
X80537785Y-67819000D01*
X80513595Y-67806904D01*
X80477309Y-67794809D01*
X80416833Y-67782714D01*
X80368452Y-67782714D01*
X80307976Y-67794809D01*
X80271690Y-67806904D01*
X80247500Y-67819000D01*
X80211214Y-67843190D01*
X80199119Y-67855285D01*
X80586166Y-67589190D02*
X80574071Y-67601285D01*
X80537785Y-67625476D01*
X80513595Y-67637571D01*
X80477309Y-67649666D01*
X80416833Y-67661761D01*
X80368452Y-67661761D01*
X80307976Y-67649666D01*
X80271690Y-67637571D01*
X80247500Y-67625476D01*
X80211214Y-67601285D01*
X80199119Y-67589190D01*
X80477309Y-67504523D02*
X80489404Y-67468238D01*
X80489404Y-67407761D01*
X80477309Y-67383571D01*
X80465214Y-67371476D01*
X80441023Y-67359380D01*
X80416833Y-67359380D01*
X80392642Y-67371476D01*
X80380547Y-67383571D01*
X80368452Y-67407761D01*
X80356357Y-67456142D01*
X80344261Y-67480333D01*
X80332166Y-67492428D01*
X80307976Y-67504523D01*
X80283785Y-67504523D01*
X80259595Y-67492428D01*
X80247500Y-67480333D01*
X80235404Y-67456142D01*
X80235404Y-67395666D01*
X80247500Y-67359380D01*
X80489404Y-67250523D02*
X80235404Y-67250523D01*
X80489404Y-67105380D01*
X80235404Y-67105380D01*
X80586166Y-67008619D02*
X80574071Y-66996523D01*
X80537785Y-66972333D01*
X80513595Y-66960238D01*
X80477309Y-66948142D01*
X80416833Y-66936047D01*
X80368452Y-66936047D01*
X80307976Y-66948142D01*
X80271690Y-66960238D01*
X80247500Y-66972333D01*
X80211214Y-66996523D01*
X80199119Y-67008619D01*
D15*
X81554976Y-62675809D02*
X81313071Y-62675809D01*
X81288880Y-62917714D01*
X81313071Y-62893523D01*
X81361452Y-62869333D01*
X81482404Y-62869333D01*
X81530785Y-62893523D01*
X81554976Y-62917714D01*
X81579166Y-62966095D01*
X81579166Y-63087047D01*
X81554976Y-63135428D01*
X81530785Y-63159619D01*
X81482404Y-63183809D01*
X81361452Y-63183809D01*
X81313071Y-63159619D01*
X81288880Y-63135428D01*
X81796880Y-63135428D02*
X81821071Y-63159619D01*
X81796880Y-63183809D01*
X81772690Y-63159619D01*
X81796880Y-63135428D01*
X81796880Y-63183809D01*
X82304880Y-63183809D02*
X82014595Y-63183809D01*
X82159738Y-63183809D02*
X82159738Y-62675809D01*
X82111357Y-62748380D01*
X82062976Y-62796761D01*
X82014595Y-62820952D01*
X82522595Y-63183809D02*
X82522595Y-62675809D01*
X82570976Y-62990285D02*
X82716119Y-63183809D01*
X82716119Y-62845142D02*
X82522595Y-63038666D01*
D16*
X79916785Y-64004904D02*
X79973928Y-64023952D01*
X80069166Y-64023952D01*
X80107261Y-64004904D01*
X80126309Y-63985857D01*
X80145357Y-63947761D01*
X80145357Y-63909666D01*
X80126309Y-63871571D01*
X80107261Y-63852523D01*
X80069166Y-63833476D01*
X79992976Y-63814428D01*
X79954880Y-63795380D01*
X79935833Y-63776333D01*
X79916785Y-63738238D01*
X79916785Y-63700142D01*
X79935833Y-63662047D01*
X79954880Y-63643000D01*
X79992976Y-63623952D01*
X80088214Y-63623952D01*
X80145357Y-63643000D01*
X80031071Y-63566809D02*
X80031071Y-64081095D01*
X80431071Y-64176333D02*
X80412023Y-64176333D01*
X80373928Y-64157285D01*
X80354880Y-64119190D01*
X80354880Y-63928714D01*
X80335833Y-63890619D01*
X80297738Y-63871571D01*
X80335833Y-63852523D01*
X80354880Y-63814428D01*
X80354880Y-63623952D01*
X80373928Y-63585857D01*
X80412023Y-63566809D01*
X80431071Y-63566809D01*
X80812023Y-64023952D02*
X80678690Y-63833476D01*
X80583452Y-64023952D02*
X80583452Y-63623952D01*
X80735833Y-63623952D01*
X80773928Y-63643000D01*
X80792976Y-63662047D01*
X80812023Y-63700142D01*
X80812023Y-63757285D01*
X80792976Y-63795380D01*
X80773928Y-63814428D01*
X80735833Y-63833476D01*
X80583452Y-63833476D01*
X80983452Y-63814428D02*
X81116785Y-63814428D01*
X81173928Y-64023952D02*
X80983452Y-64023952D01*
X80983452Y-63623952D01*
X81173928Y-63623952D01*
X81478690Y-63814428D02*
X81345357Y-63814428D01*
X81345357Y-64023952D02*
X81345357Y-63623952D01*
X81535833Y-63623952D01*
X81688214Y-63814428D02*
X81821547Y-63814428D01*
X81878690Y-64023952D02*
X81688214Y-64023952D01*
X81688214Y-63623952D01*
X81878690Y-63623952D01*
X82278690Y-64023952D02*
X82145357Y-63833476D01*
X82050119Y-64023952D02*
X82050119Y-63623952D01*
X82202500Y-63623952D01*
X82240595Y-63643000D01*
X82259642Y-63662047D01*
X82278690Y-63700142D01*
X82278690Y-63757285D01*
X82259642Y-63795380D01*
X82240595Y-63814428D01*
X82202500Y-63833476D01*
X82050119Y-63833476D01*
X82450119Y-63814428D02*
X82583452Y-63814428D01*
X82640595Y-64023952D02*
X82450119Y-64023952D01*
X82450119Y-63623952D01*
X82640595Y-63623952D01*
X82812023Y-64023952D02*
X82812023Y-63623952D01*
X83040595Y-64023952D01*
X83040595Y-63623952D01*
X83459642Y-63985857D02*
X83440595Y-64004904D01*
X83383452Y-64023952D01*
X83345357Y-64023952D01*
X83288214Y-64004904D01*
X83250119Y-63966809D01*
X83231071Y-63928714D01*
X83212023Y-63852523D01*
X83212023Y-63795380D01*
X83231071Y-63719190D01*
X83250119Y-63681095D01*
X83288214Y-63643000D01*
X83345357Y-63623952D01*
X83383452Y-63623952D01*
X83440595Y-63643000D01*
X83459642Y-63662047D01*
X83631071Y-63814428D02*
X83764404Y-63814428D01*
X83821547Y-64023952D02*
X83631071Y-64023952D01*
X83631071Y-63623952D01*
X83821547Y-63623952D01*
X83954880Y-64176333D02*
X83973928Y-64176333D01*
X84012023Y-64157285D01*
X84031071Y-64119190D01*
X84031071Y-63928714D01*
X84050119Y-63890619D01*
X84088214Y-63871571D01*
X84050119Y-63852523D01*
X84031071Y-63814428D01*
X84031071Y-63623952D01*
X84012023Y-63585857D01*
X83973928Y-63566809D01*
X83954880Y-63566809D01*
M02*
