G04 #@! TF.GenerationSoftware,KiCad,Pcbnew,(5.1.4)-1*
G04 #@! TF.CreationDate,2022-05-10T00:39:04+09:00*
G04 #@! TF.ProjectId,Unified-Daughterboard,556e6966-6965-4642-9d44-617567687465,C3*
G04 #@! TF.SameCoordinates,Original*
G04 #@! TF.FileFunction,Copper,L2,Bot*
G04 #@! TF.FilePolarity,Positive*
%FSLAX46Y46*%
G04 Gerber Fmt 4.6, Leading zero omitted, Abs format (unit mm)*
G04 Created by KiCad (PCBNEW (5.1.4)-1) date 2022-05-10 00:39:04*
%MOMM*%
%LPD*%
G04 APERTURE LIST*
%ADD10O,1.100000X2.200000*%
%ADD11O,1.300000X1.900000*%
%ADD12C,3.500001*%
%ADD13C,0.800000*%
%ADD14C,0.508000*%
%ADD15C,0.254000*%
%ADD16C,0.152400*%
G04 APERTURE END LIST*
D10*
X70702500Y-63343000D03*
D11*
X70702500Y-59143000D03*
X79302500Y-59143000D03*
D10*
X79302500Y-63343000D03*
D12*
X82004500Y-58543000D03*
D13*
X71628000Y-69596000D03*
X75002500Y-67891000D03*
X75000000Y-62500000D03*
X72009000Y-66929000D03*
X76454000Y-68707000D03*
X73723500Y-68897500D03*
X76835000Y-67437000D03*
X77279500Y-69913500D03*
X72771000Y-65659000D03*
X77470000Y-65659000D03*
D14*
X71628000Y-69596000D02*
X71628000Y-66929000D01*
X79302500Y-63343000D02*
X79302500Y-59143000D01*
X74040500Y-66929000D02*
X75002500Y-67891000D01*
X79302500Y-59143000D02*
X79287000Y-59143000D01*
X79287000Y-59143000D02*
X75930000Y-62500000D01*
X75930000Y-62500000D02*
X75000000Y-62500000D01*
X71628000Y-64268500D02*
X70702500Y-63343000D01*
X71628000Y-66929000D02*
X71628000Y-64268500D01*
X71628000Y-66929000D02*
X72009000Y-66929000D01*
X72009000Y-66929000D02*
X74040500Y-66929000D01*
D15*
X73914000Y-68707000D02*
X73723500Y-68897500D01*
X76454000Y-68707000D02*
X73914000Y-68707000D01*
X77279500Y-67881500D02*
X76835000Y-67437000D01*
X77279500Y-69913500D02*
X77279500Y-67881500D01*
D14*
X77470000Y-65659000D02*
X72771000Y-65659000D01*
D16*
G36*
X82333717Y-56880336D02*
G01*
X82650391Y-56975945D01*
X82942466Y-57131244D01*
X83198814Y-57340317D01*
X83409674Y-57595202D01*
X83567004Y-57886178D01*
X83664825Y-58202186D01*
X83700901Y-58545421D01*
X83698902Y-72528131D01*
X83693732Y-72580863D01*
X83682735Y-72617287D01*
X83664873Y-72650880D01*
X83640825Y-72680365D01*
X83611511Y-72704616D01*
X83578045Y-72722711D01*
X83541697Y-72733963D01*
X83489965Y-72739400D01*
X68019348Y-72739400D01*
X67675281Y-72705664D01*
X67358607Y-72610054D01*
X67066531Y-72454753D01*
X66810186Y-72245683D01*
X66599326Y-71990798D01*
X66441994Y-71699818D01*
X66344175Y-71383815D01*
X66308100Y-71040584D01*
X66308100Y-70912144D01*
X66673900Y-70912144D01*
X66673900Y-71173856D01*
X66724957Y-71430538D01*
X66825110Y-71672328D01*
X66970509Y-71889933D01*
X67155567Y-72074991D01*
X67373172Y-72220390D01*
X67614962Y-72320543D01*
X67871644Y-72371600D01*
X68133356Y-72371600D01*
X68390038Y-72320543D01*
X68631828Y-72220390D01*
X68849433Y-72074991D01*
X69034491Y-71889933D01*
X69179890Y-71672328D01*
X69280043Y-71430538D01*
X69331100Y-71173856D01*
X69331100Y-70912144D01*
X69280043Y-70655462D01*
X69179890Y-70413672D01*
X69034491Y-70196067D01*
X68849433Y-70011009D01*
X68631828Y-69865610D01*
X68390038Y-69765457D01*
X68133356Y-69714400D01*
X67871644Y-69714400D01*
X67614962Y-69765457D01*
X67373172Y-69865610D01*
X67155567Y-70011009D01*
X66970509Y-70196067D01*
X66825110Y-70413672D01*
X66724957Y-70655462D01*
X66673900Y-70912144D01*
X66308100Y-70912144D01*
X66308100Y-68835588D01*
X73094900Y-68835588D01*
X73094900Y-68959412D01*
X73119056Y-69080856D01*
X73166441Y-69195254D01*
X73235234Y-69298209D01*
X73322791Y-69385766D01*
X73425746Y-69454559D01*
X73540144Y-69501944D01*
X73661588Y-69526100D01*
X73785412Y-69526100D01*
X73906856Y-69501944D01*
X74021254Y-69454559D01*
X74124209Y-69385766D01*
X74211766Y-69298209D01*
X74280559Y-69195254D01*
X74327944Y-69080856D01*
X74331575Y-69062600D01*
X75935593Y-69062600D01*
X75965734Y-69107709D01*
X76053291Y-69195266D01*
X76156246Y-69264059D01*
X76270644Y-69311444D01*
X76392088Y-69335600D01*
X76515912Y-69335600D01*
X76637356Y-69311444D01*
X76751754Y-69264059D01*
X76854709Y-69195266D01*
X76923900Y-69126075D01*
X76923900Y-69395093D01*
X76878791Y-69425234D01*
X76791234Y-69512791D01*
X76722441Y-69615746D01*
X76675056Y-69730144D01*
X76650900Y-69851588D01*
X76650900Y-69975412D01*
X76675056Y-70096856D01*
X76722441Y-70211254D01*
X76791234Y-70314209D01*
X76878791Y-70401766D01*
X76981746Y-70470559D01*
X77096144Y-70517944D01*
X77217588Y-70542100D01*
X77341412Y-70542100D01*
X77462856Y-70517944D01*
X77577254Y-70470559D01*
X77680209Y-70401766D01*
X77767766Y-70314209D01*
X77836559Y-70211254D01*
X77883944Y-70096856D01*
X77908100Y-69975412D01*
X77908100Y-69851588D01*
X77883944Y-69730144D01*
X77836559Y-69615746D01*
X77767766Y-69512791D01*
X77680209Y-69425234D01*
X77635100Y-69395093D01*
X77635100Y-67898955D01*
X77636819Y-67881500D01*
X77635100Y-67864044D01*
X77635100Y-67864037D01*
X77629954Y-67811790D01*
X77609621Y-67744760D01*
X77576601Y-67682984D01*
X77532163Y-67628837D01*
X77518599Y-67617706D01*
X77453016Y-67552122D01*
X77463600Y-67498912D01*
X77463600Y-67375088D01*
X77439444Y-67253644D01*
X77392059Y-67139246D01*
X77323266Y-67036291D01*
X77235709Y-66948734D01*
X77132754Y-66879941D01*
X77018356Y-66832556D01*
X76896912Y-66808400D01*
X76773088Y-66808400D01*
X76651644Y-66832556D01*
X76537246Y-66879941D01*
X76434291Y-66948734D01*
X76346734Y-67036291D01*
X76277941Y-67139246D01*
X76230556Y-67253644D01*
X76206400Y-67375088D01*
X76206400Y-67498912D01*
X76230556Y-67620356D01*
X76277941Y-67734754D01*
X76346734Y-67837709D01*
X76434291Y-67925266D01*
X76537246Y-67994059D01*
X76651644Y-68041444D01*
X76773088Y-68065600D01*
X76896912Y-68065600D01*
X76923901Y-68060232D01*
X76923901Y-68287926D01*
X76854709Y-68218734D01*
X76751754Y-68149941D01*
X76637356Y-68102556D01*
X76515912Y-68078400D01*
X76392088Y-68078400D01*
X76270644Y-68102556D01*
X76156246Y-68149941D01*
X76053291Y-68218734D01*
X75965734Y-68306291D01*
X75935593Y-68351400D01*
X74037655Y-68351400D01*
X74021254Y-68340441D01*
X73906856Y-68293056D01*
X73785412Y-68268900D01*
X73661588Y-68268900D01*
X73540144Y-68293056D01*
X73425746Y-68340441D01*
X73322791Y-68409234D01*
X73235234Y-68496791D01*
X73166441Y-68599746D01*
X73119056Y-68714144D01*
X73094900Y-68835588D01*
X66308100Y-68835588D01*
X66308100Y-65597088D01*
X72142400Y-65597088D01*
X72142400Y-65720912D01*
X72166556Y-65842356D01*
X72213941Y-65956754D01*
X72282734Y-66059709D01*
X72370291Y-66147266D01*
X72473246Y-66216059D01*
X72587644Y-66263444D01*
X72709088Y-66287600D01*
X72832912Y-66287600D01*
X72954356Y-66263444D01*
X73068754Y-66216059D01*
X73171709Y-66147266D01*
X73177375Y-66141600D01*
X77063625Y-66141600D01*
X77069291Y-66147266D01*
X77172246Y-66216059D01*
X77286644Y-66263444D01*
X77408088Y-66287600D01*
X77531912Y-66287600D01*
X77653356Y-66263444D01*
X77767754Y-66216059D01*
X77870709Y-66147266D01*
X77958266Y-66059709D01*
X78027059Y-65956754D01*
X78074444Y-65842356D01*
X78098600Y-65720912D01*
X78098600Y-65597088D01*
X78074444Y-65475644D01*
X78027059Y-65361246D01*
X77958266Y-65258291D01*
X77870709Y-65170734D01*
X77767754Y-65101941D01*
X77653356Y-65054556D01*
X77531912Y-65030400D01*
X77408088Y-65030400D01*
X77286644Y-65054556D01*
X77172246Y-65101941D01*
X77069291Y-65170734D01*
X77063625Y-65176400D01*
X73177375Y-65176400D01*
X73171709Y-65170734D01*
X73068754Y-65101941D01*
X72954356Y-65054556D01*
X72832912Y-65030400D01*
X72709088Y-65030400D01*
X72587644Y-65054556D01*
X72473246Y-65101941D01*
X72370291Y-65170734D01*
X72282734Y-65258291D01*
X72213941Y-65361246D01*
X72166556Y-65475644D01*
X72142400Y-65597088D01*
X66308100Y-65597088D01*
X66308100Y-62737475D01*
X71558900Y-62737475D01*
X71558900Y-62846525D01*
X71580174Y-62953479D01*
X71621906Y-63054228D01*
X71682491Y-63144900D01*
X71759600Y-63222009D01*
X71850272Y-63282594D01*
X71951021Y-63324326D01*
X72057975Y-63345600D01*
X72167025Y-63345600D01*
X72273979Y-63324326D01*
X72374728Y-63282594D01*
X72465400Y-63222009D01*
X72542509Y-63144900D01*
X72603094Y-63054228D01*
X72644826Y-62953479D01*
X72666100Y-62846525D01*
X72666100Y-62737475D01*
X77338900Y-62737475D01*
X77338900Y-62846525D01*
X77360174Y-62953479D01*
X77401906Y-63054228D01*
X77462491Y-63144900D01*
X77539600Y-63222009D01*
X77630272Y-63282594D01*
X77731021Y-63324326D01*
X77837975Y-63345600D01*
X77947025Y-63345600D01*
X78053979Y-63324326D01*
X78154728Y-63282594D01*
X78245400Y-63222009D01*
X78322509Y-63144900D01*
X78383094Y-63054228D01*
X78424826Y-62953479D01*
X78446100Y-62846525D01*
X78446100Y-62737475D01*
X78424826Y-62630521D01*
X78383094Y-62529772D01*
X78322509Y-62439100D01*
X78245400Y-62361991D01*
X78154728Y-62301406D01*
X78053979Y-62259674D01*
X77947025Y-62238400D01*
X77837975Y-62238400D01*
X77731021Y-62259674D01*
X77630272Y-62301406D01*
X77539600Y-62361991D01*
X77462491Y-62439100D01*
X77401906Y-62529772D01*
X77360174Y-62630521D01*
X77338900Y-62737475D01*
X72666100Y-62737475D01*
X72644826Y-62630521D01*
X72603094Y-62529772D01*
X72542509Y-62439100D01*
X72465400Y-62361991D01*
X72374728Y-62301406D01*
X72273979Y-62259674D01*
X72167025Y-62238400D01*
X72057975Y-62238400D01*
X71951021Y-62259674D01*
X71850272Y-62301406D01*
X71759600Y-62361991D01*
X71682491Y-62439100D01*
X71621906Y-62529772D01*
X71580174Y-62630521D01*
X71558900Y-62737475D01*
X66308100Y-62737475D01*
X66308100Y-58557848D01*
X66322386Y-58412144D01*
X66675900Y-58412144D01*
X66675900Y-58673856D01*
X66726957Y-58930538D01*
X66827110Y-59172328D01*
X66972509Y-59389933D01*
X67157567Y-59574991D01*
X67375172Y-59720390D01*
X67616962Y-59820543D01*
X67873644Y-59871600D01*
X68135356Y-59871600D01*
X68392038Y-59820543D01*
X68633828Y-59720390D01*
X68851433Y-59574991D01*
X69036491Y-59389933D01*
X69181890Y-59172328D01*
X69282043Y-58930538D01*
X69333100Y-58673856D01*
X69333100Y-58412144D01*
X69282043Y-58155462D01*
X69181890Y-57913672D01*
X69036491Y-57696067D01*
X68851433Y-57511009D01*
X68633828Y-57365610D01*
X68392038Y-57265457D01*
X68135356Y-57214400D01*
X67873644Y-57214400D01*
X67616962Y-57265457D01*
X67375172Y-57365610D01*
X67157567Y-57511009D01*
X66972509Y-57696067D01*
X66827110Y-57913672D01*
X66726957Y-58155462D01*
X66675900Y-58412144D01*
X66322386Y-58412144D01*
X66341836Y-58213783D01*
X66437445Y-57897109D01*
X66592744Y-57605034D01*
X66801817Y-57348686D01*
X67056702Y-57137826D01*
X67347678Y-56980496D01*
X67663686Y-56882675D01*
X68006916Y-56846600D01*
X81989652Y-56846600D01*
X82333717Y-56880336D01*
X82333717Y-56880336D01*
G37*
X82333717Y-56880336D02*
X82650391Y-56975945D01*
X82942466Y-57131244D01*
X83198814Y-57340317D01*
X83409674Y-57595202D01*
X83567004Y-57886178D01*
X83664825Y-58202186D01*
X83700901Y-58545421D01*
X83698902Y-72528131D01*
X83693732Y-72580863D01*
X83682735Y-72617287D01*
X83664873Y-72650880D01*
X83640825Y-72680365D01*
X83611511Y-72704616D01*
X83578045Y-72722711D01*
X83541697Y-72733963D01*
X83489965Y-72739400D01*
X68019348Y-72739400D01*
X67675281Y-72705664D01*
X67358607Y-72610054D01*
X67066531Y-72454753D01*
X66810186Y-72245683D01*
X66599326Y-71990798D01*
X66441994Y-71699818D01*
X66344175Y-71383815D01*
X66308100Y-71040584D01*
X66308100Y-70912144D01*
X66673900Y-70912144D01*
X66673900Y-71173856D01*
X66724957Y-71430538D01*
X66825110Y-71672328D01*
X66970509Y-71889933D01*
X67155567Y-72074991D01*
X67373172Y-72220390D01*
X67614962Y-72320543D01*
X67871644Y-72371600D01*
X68133356Y-72371600D01*
X68390038Y-72320543D01*
X68631828Y-72220390D01*
X68849433Y-72074991D01*
X69034491Y-71889933D01*
X69179890Y-71672328D01*
X69280043Y-71430538D01*
X69331100Y-71173856D01*
X69331100Y-70912144D01*
X69280043Y-70655462D01*
X69179890Y-70413672D01*
X69034491Y-70196067D01*
X68849433Y-70011009D01*
X68631828Y-69865610D01*
X68390038Y-69765457D01*
X68133356Y-69714400D01*
X67871644Y-69714400D01*
X67614962Y-69765457D01*
X67373172Y-69865610D01*
X67155567Y-70011009D01*
X66970509Y-70196067D01*
X66825110Y-70413672D01*
X66724957Y-70655462D01*
X66673900Y-70912144D01*
X66308100Y-70912144D01*
X66308100Y-68835588D01*
X73094900Y-68835588D01*
X73094900Y-68959412D01*
X73119056Y-69080856D01*
X73166441Y-69195254D01*
X73235234Y-69298209D01*
X73322791Y-69385766D01*
X73425746Y-69454559D01*
X73540144Y-69501944D01*
X73661588Y-69526100D01*
X73785412Y-69526100D01*
X73906856Y-69501944D01*
X74021254Y-69454559D01*
X74124209Y-69385766D01*
X74211766Y-69298209D01*
X74280559Y-69195254D01*
X74327944Y-69080856D01*
X74331575Y-69062600D01*
X75935593Y-69062600D01*
X75965734Y-69107709D01*
X76053291Y-69195266D01*
X76156246Y-69264059D01*
X76270644Y-69311444D01*
X76392088Y-69335600D01*
X76515912Y-69335600D01*
X76637356Y-69311444D01*
X76751754Y-69264059D01*
X76854709Y-69195266D01*
X76923900Y-69126075D01*
X76923900Y-69395093D01*
X76878791Y-69425234D01*
X76791234Y-69512791D01*
X76722441Y-69615746D01*
X76675056Y-69730144D01*
X76650900Y-69851588D01*
X76650900Y-69975412D01*
X76675056Y-70096856D01*
X76722441Y-70211254D01*
X76791234Y-70314209D01*
X76878791Y-70401766D01*
X76981746Y-70470559D01*
X77096144Y-70517944D01*
X77217588Y-70542100D01*
X77341412Y-70542100D01*
X77462856Y-70517944D01*
X77577254Y-70470559D01*
X77680209Y-70401766D01*
X77767766Y-70314209D01*
X77836559Y-70211254D01*
X77883944Y-70096856D01*
X77908100Y-69975412D01*
X77908100Y-69851588D01*
X77883944Y-69730144D01*
X77836559Y-69615746D01*
X77767766Y-69512791D01*
X77680209Y-69425234D01*
X77635100Y-69395093D01*
X77635100Y-67898955D01*
X77636819Y-67881500D01*
X77635100Y-67864044D01*
X77635100Y-67864037D01*
X77629954Y-67811790D01*
X77609621Y-67744760D01*
X77576601Y-67682984D01*
X77532163Y-67628837D01*
X77518599Y-67617706D01*
X77453016Y-67552122D01*
X77463600Y-67498912D01*
X77463600Y-67375088D01*
X77439444Y-67253644D01*
X77392059Y-67139246D01*
X77323266Y-67036291D01*
X77235709Y-66948734D01*
X77132754Y-66879941D01*
X77018356Y-66832556D01*
X76896912Y-66808400D01*
X76773088Y-66808400D01*
X76651644Y-66832556D01*
X76537246Y-66879941D01*
X76434291Y-66948734D01*
X76346734Y-67036291D01*
X76277941Y-67139246D01*
X76230556Y-67253644D01*
X76206400Y-67375088D01*
X76206400Y-67498912D01*
X76230556Y-67620356D01*
X76277941Y-67734754D01*
X76346734Y-67837709D01*
X76434291Y-67925266D01*
X76537246Y-67994059D01*
X76651644Y-68041444D01*
X76773088Y-68065600D01*
X76896912Y-68065600D01*
X76923901Y-68060232D01*
X76923901Y-68287926D01*
X76854709Y-68218734D01*
X76751754Y-68149941D01*
X76637356Y-68102556D01*
X76515912Y-68078400D01*
X76392088Y-68078400D01*
X76270644Y-68102556D01*
X76156246Y-68149941D01*
X76053291Y-68218734D01*
X75965734Y-68306291D01*
X75935593Y-68351400D01*
X74037655Y-68351400D01*
X74021254Y-68340441D01*
X73906856Y-68293056D01*
X73785412Y-68268900D01*
X73661588Y-68268900D01*
X73540144Y-68293056D01*
X73425746Y-68340441D01*
X73322791Y-68409234D01*
X73235234Y-68496791D01*
X73166441Y-68599746D01*
X73119056Y-68714144D01*
X73094900Y-68835588D01*
X66308100Y-68835588D01*
X66308100Y-65597088D01*
X72142400Y-65597088D01*
X72142400Y-65720912D01*
X72166556Y-65842356D01*
X72213941Y-65956754D01*
X72282734Y-66059709D01*
X72370291Y-66147266D01*
X72473246Y-66216059D01*
X72587644Y-66263444D01*
X72709088Y-66287600D01*
X72832912Y-66287600D01*
X72954356Y-66263444D01*
X73068754Y-66216059D01*
X73171709Y-66147266D01*
X73177375Y-66141600D01*
X77063625Y-66141600D01*
X77069291Y-66147266D01*
X77172246Y-66216059D01*
X77286644Y-66263444D01*
X77408088Y-66287600D01*
X77531912Y-66287600D01*
X77653356Y-66263444D01*
X77767754Y-66216059D01*
X77870709Y-66147266D01*
X77958266Y-66059709D01*
X78027059Y-65956754D01*
X78074444Y-65842356D01*
X78098600Y-65720912D01*
X78098600Y-65597088D01*
X78074444Y-65475644D01*
X78027059Y-65361246D01*
X77958266Y-65258291D01*
X77870709Y-65170734D01*
X77767754Y-65101941D01*
X77653356Y-65054556D01*
X77531912Y-65030400D01*
X77408088Y-65030400D01*
X77286644Y-65054556D01*
X77172246Y-65101941D01*
X77069291Y-65170734D01*
X77063625Y-65176400D01*
X73177375Y-65176400D01*
X73171709Y-65170734D01*
X73068754Y-65101941D01*
X72954356Y-65054556D01*
X72832912Y-65030400D01*
X72709088Y-65030400D01*
X72587644Y-65054556D01*
X72473246Y-65101941D01*
X72370291Y-65170734D01*
X72282734Y-65258291D01*
X72213941Y-65361246D01*
X72166556Y-65475644D01*
X72142400Y-65597088D01*
X66308100Y-65597088D01*
X66308100Y-62737475D01*
X71558900Y-62737475D01*
X71558900Y-62846525D01*
X71580174Y-62953479D01*
X71621906Y-63054228D01*
X71682491Y-63144900D01*
X71759600Y-63222009D01*
X71850272Y-63282594D01*
X71951021Y-63324326D01*
X72057975Y-63345600D01*
X72167025Y-63345600D01*
X72273979Y-63324326D01*
X72374728Y-63282594D01*
X72465400Y-63222009D01*
X72542509Y-63144900D01*
X72603094Y-63054228D01*
X72644826Y-62953479D01*
X72666100Y-62846525D01*
X72666100Y-62737475D01*
X77338900Y-62737475D01*
X77338900Y-62846525D01*
X77360174Y-62953479D01*
X77401906Y-63054228D01*
X77462491Y-63144900D01*
X77539600Y-63222009D01*
X77630272Y-63282594D01*
X77731021Y-63324326D01*
X77837975Y-63345600D01*
X77947025Y-63345600D01*
X78053979Y-63324326D01*
X78154728Y-63282594D01*
X78245400Y-63222009D01*
X78322509Y-63144900D01*
X78383094Y-63054228D01*
X78424826Y-62953479D01*
X78446100Y-62846525D01*
X78446100Y-62737475D01*
X78424826Y-62630521D01*
X78383094Y-62529772D01*
X78322509Y-62439100D01*
X78245400Y-62361991D01*
X78154728Y-62301406D01*
X78053979Y-62259674D01*
X77947025Y-62238400D01*
X77837975Y-62238400D01*
X77731021Y-62259674D01*
X77630272Y-62301406D01*
X77539600Y-62361991D01*
X77462491Y-62439100D01*
X77401906Y-62529772D01*
X77360174Y-62630521D01*
X77338900Y-62737475D01*
X72666100Y-62737475D01*
X72644826Y-62630521D01*
X72603094Y-62529772D01*
X72542509Y-62439100D01*
X72465400Y-62361991D01*
X72374728Y-62301406D01*
X72273979Y-62259674D01*
X72167025Y-62238400D01*
X72057975Y-62238400D01*
X71951021Y-62259674D01*
X71850272Y-62301406D01*
X71759600Y-62361991D01*
X71682491Y-62439100D01*
X71621906Y-62529772D01*
X71580174Y-62630521D01*
X71558900Y-62737475D01*
X66308100Y-62737475D01*
X66308100Y-58557848D01*
X66322386Y-58412144D01*
X66675900Y-58412144D01*
X66675900Y-58673856D01*
X66726957Y-58930538D01*
X66827110Y-59172328D01*
X66972509Y-59389933D01*
X67157567Y-59574991D01*
X67375172Y-59720390D01*
X67616962Y-59820543D01*
X67873644Y-59871600D01*
X68135356Y-59871600D01*
X68392038Y-59820543D01*
X68633828Y-59720390D01*
X68851433Y-59574991D01*
X69036491Y-59389933D01*
X69181890Y-59172328D01*
X69282043Y-58930538D01*
X69333100Y-58673856D01*
X69333100Y-58412144D01*
X69282043Y-58155462D01*
X69181890Y-57913672D01*
X69036491Y-57696067D01*
X68851433Y-57511009D01*
X68633828Y-57365610D01*
X68392038Y-57265457D01*
X68135356Y-57214400D01*
X67873644Y-57214400D01*
X67616962Y-57265457D01*
X67375172Y-57365610D01*
X67157567Y-57511009D01*
X66972509Y-57696067D01*
X66827110Y-57913672D01*
X66726957Y-58155462D01*
X66675900Y-58412144D01*
X66322386Y-58412144D01*
X66341836Y-58213783D01*
X66437445Y-57897109D01*
X66592744Y-57605034D01*
X66801817Y-57348686D01*
X67056702Y-57137826D01*
X67347678Y-56980496D01*
X67663686Y-56882675D01*
X68006916Y-56846600D01*
X81989652Y-56846600D01*
X82333717Y-56880336D01*
M02*
