G04 #@! TF.GenerationSoftware,KiCad,Pcbnew,(5.1.4)-1*
G04 #@! TF.CreationDate,2022-05-10T00:39:04+09:00*
G04 #@! TF.ProjectId,Unified-Daughterboard,556e6966-6965-4642-9d44-617567687465,C3*
G04 #@! TF.SameCoordinates,Original*
G04 #@! TF.FileFunction,Copper,L1,Top*
G04 #@! TF.FilePolarity,Positive*
%FSLAX46Y46*%
G04 Gerber Fmt 4.6, Leading zero omitted, Abs format (unit mm)*
G04 Created by KiCad (PCBNEW (5.1.4)-1) date 2022-05-10 00:39:04*
%MOMM*%
%LPD*%
G04 APERTURE LIST*
%ADD10C,0.100000*%
%ADD11C,0.250000*%
%ADD12R,0.250000X0.550000*%
%ADD13R,0.300000X0.550000*%
%ADD14C,1.250000*%
%ADD15R,0.500000X0.900000*%
%ADD16C,1.000000*%
%ADD17O,1.100000X2.200000*%
%ADD18O,1.300000X1.900000*%
%ADD19C,0.600000*%
%ADD20C,0.300000*%
%ADD21C,3.000000*%
%ADD22C,3.500001*%
%ADD23R,1.550000X0.600000*%
%ADD24R,1.800000X1.200000*%
%ADD25C,0.800000*%
%ADD26C,0.508000*%
%ADD27C,0.254000*%
%ADD28C,0.152400*%
G04 APERTURE END LIST*
D10*
G36*
X74014753Y-66453602D02*
G01*
X74026887Y-66455402D01*
X74038787Y-66458382D01*
X74050336Y-66462515D01*
X74061426Y-66467760D01*
X74071947Y-66474066D01*
X74081800Y-66481374D01*
X74090889Y-66489612D01*
X74099127Y-66498701D01*
X74106435Y-66508554D01*
X74112741Y-66519075D01*
X74117986Y-66530165D01*
X74122119Y-66541714D01*
X74125099Y-66553614D01*
X74126899Y-66565748D01*
X74127501Y-66578000D01*
X74127501Y-66878000D01*
X74126899Y-66890252D01*
X74125099Y-66902386D01*
X74122119Y-66914286D01*
X74117986Y-66925835D01*
X74112741Y-66936925D01*
X74106435Y-66947446D01*
X74099127Y-66957299D01*
X74090889Y-66966388D01*
X74081800Y-66974626D01*
X74071947Y-66981934D01*
X74061426Y-66988240D01*
X74050336Y-66993485D01*
X74038787Y-66997618D01*
X74026887Y-67000598D01*
X74014753Y-67002398D01*
X74002501Y-67003000D01*
X74002499Y-67003000D01*
X73990247Y-67002398D01*
X73978113Y-67000598D01*
X73966213Y-66997618D01*
X73954664Y-66993485D01*
X73943574Y-66988240D01*
X73933053Y-66981934D01*
X73923200Y-66974626D01*
X73914111Y-66966388D01*
X73905873Y-66957299D01*
X73898565Y-66947446D01*
X73892259Y-66936925D01*
X73887014Y-66925835D01*
X73882881Y-66914286D01*
X73879901Y-66902386D01*
X73878101Y-66890252D01*
X73877499Y-66878000D01*
X73877499Y-66578000D01*
X73878101Y-66565748D01*
X73879901Y-66553614D01*
X73882881Y-66541714D01*
X73887014Y-66530165D01*
X73892259Y-66519075D01*
X73898565Y-66508554D01*
X73905873Y-66498701D01*
X73914111Y-66489612D01*
X73923200Y-66481374D01*
X73933053Y-66474066D01*
X73943574Y-66467760D01*
X73954664Y-66462515D01*
X73966213Y-66458382D01*
X73978113Y-66455402D01*
X73990247Y-66453602D01*
X74002499Y-66453000D01*
X74002501Y-66453000D01*
X74014753Y-66453602D01*
X74014753Y-66453602D01*
G37*
D11*
X74002500Y-66728000D03*
D12*
X74502500Y-66728000D03*
D13*
X75002500Y-66728000D03*
D12*
X75502500Y-66728000D03*
X76002500Y-66728000D03*
X74502500Y-65958000D03*
X76002500Y-65958000D03*
X75502500Y-65958000D03*
X74002500Y-65958000D03*
D13*
X75002500Y-65958000D03*
D10*
G36*
X72024504Y-70627204D02*
G01*
X72048773Y-70630804D01*
X72072571Y-70636765D01*
X72095671Y-70645030D01*
X72117849Y-70655520D01*
X72138893Y-70668133D01*
X72158598Y-70682747D01*
X72176777Y-70699223D01*
X72193253Y-70717402D01*
X72207867Y-70737107D01*
X72220480Y-70758151D01*
X72230970Y-70780329D01*
X72239235Y-70803429D01*
X72245196Y-70827227D01*
X72248796Y-70851496D01*
X72250000Y-70876000D01*
X72250000Y-72126000D01*
X72248796Y-72150504D01*
X72245196Y-72174773D01*
X72239235Y-72198571D01*
X72230970Y-72221671D01*
X72220480Y-72243849D01*
X72207867Y-72264893D01*
X72193253Y-72284598D01*
X72176777Y-72302777D01*
X72158598Y-72319253D01*
X72138893Y-72333867D01*
X72117849Y-72346480D01*
X72095671Y-72356970D01*
X72072571Y-72365235D01*
X72048773Y-72371196D01*
X72024504Y-72374796D01*
X72000000Y-72376000D01*
X71250000Y-72376000D01*
X71225496Y-72374796D01*
X71201227Y-72371196D01*
X71177429Y-72365235D01*
X71154329Y-72356970D01*
X71132151Y-72346480D01*
X71111107Y-72333867D01*
X71091402Y-72319253D01*
X71073223Y-72302777D01*
X71056747Y-72284598D01*
X71042133Y-72264893D01*
X71029520Y-72243849D01*
X71019030Y-72221671D01*
X71010765Y-72198571D01*
X71004804Y-72174773D01*
X71001204Y-72150504D01*
X71000000Y-72126000D01*
X71000000Y-70876000D01*
X71001204Y-70851496D01*
X71004804Y-70827227D01*
X71010765Y-70803429D01*
X71019030Y-70780329D01*
X71029520Y-70758151D01*
X71042133Y-70737107D01*
X71056747Y-70717402D01*
X71073223Y-70699223D01*
X71091402Y-70682747D01*
X71111107Y-70668133D01*
X71132151Y-70655520D01*
X71154329Y-70645030D01*
X71177429Y-70636765D01*
X71201227Y-70630804D01*
X71225496Y-70627204D01*
X71250000Y-70626000D01*
X72000000Y-70626000D01*
X72024504Y-70627204D01*
X72024504Y-70627204D01*
G37*
D14*
X71625000Y-71501000D03*
D10*
G36*
X74824504Y-70627204D02*
G01*
X74848773Y-70630804D01*
X74872571Y-70636765D01*
X74895671Y-70645030D01*
X74917849Y-70655520D01*
X74938893Y-70668133D01*
X74958598Y-70682747D01*
X74976777Y-70699223D01*
X74993253Y-70717402D01*
X75007867Y-70737107D01*
X75020480Y-70758151D01*
X75030970Y-70780329D01*
X75039235Y-70803429D01*
X75045196Y-70827227D01*
X75048796Y-70851496D01*
X75050000Y-70876000D01*
X75050000Y-72126000D01*
X75048796Y-72150504D01*
X75045196Y-72174773D01*
X75039235Y-72198571D01*
X75030970Y-72221671D01*
X75020480Y-72243849D01*
X75007867Y-72264893D01*
X74993253Y-72284598D01*
X74976777Y-72302777D01*
X74958598Y-72319253D01*
X74938893Y-72333867D01*
X74917849Y-72346480D01*
X74895671Y-72356970D01*
X74872571Y-72365235D01*
X74848773Y-72371196D01*
X74824504Y-72374796D01*
X74800000Y-72376000D01*
X74050000Y-72376000D01*
X74025496Y-72374796D01*
X74001227Y-72371196D01*
X73977429Y-72365235D01*
X73954329Y-72356970D01*
X73932151Y-72346480D01*
X73911107Y-72333867D01*
X73891402Y-72319253D01*
X73873223Y-72302777D01*
X73856747Y-72284598D01*
X73842133Y-72264893D01*
X73829520Y-72243849D01*
X73819030Y-72221671D01*
X73810765Y-72198571D01*
X73804804Y-72174773D01*
X73801204Y-72150504D01*
X73800000Y-72126000D01*
X73800000Y-70876000D01*
X73801204Y-70851496D01*
X73804804Y-70827227D01*
X73810765Y-70803429D01*
X73819030Y-70780329D01*
X73829520Y-70758151D01*
X73842133Y-70737107D01*
X73856747Y-70717402D01*
X73873223Y-70699223D01*
X73891402Y-70682747D01*
X73911107Y-70668133D01*
X73932151Y-70655520D01*
X73954329Y-70645030D01*
X73977429Y-70636765D01*
X74001227Y-70630804D01*
X74025496Y-70627204D01*
X74050000Y-70626000D01*
X74800000Y-70626000D01*
X74824504Y-70627204D01*
X74824504Y-70627204D01*
G37*
D14*
X74425000Y-71501000D03*
D15*
X81252500Y-62143000D03*
X82752500Y-62143000D03*
D10*
G36*
X68540004Y-63983204D02*
G01*
X68564273Y-63986804D01*
X68588071Y-63992765D01*
X68611171Y-64001030D01*
X68633349Y-64011520D01*
X68654393Y-64024133D01*
X68674098Y-64038747D01*
X68692277Y-64055223D01*
X68708753Y-64073402D01*
X68723367Y-64093107D01*
X68735980Y-64114151D01*
X68746470Y-64136329D01*
X68754735Y-64159429D01*
X68760696Y-64183227D01*
X68764296Y-64207496D01*
X68765500Y-64232000D01*
X68765500Y-64982000D01*
X68764296Y-65006504D01*
X68760696Y-65030773D01*
X68754735Y-65054571D01*
X68746470Y-65077671D01*
X68735980Y-65099849D01*
X68723367Y-65120893D01*
X68708753Y-65140598D01*
X68692277Y-65158777D01*
X68674098Y-65175253D01*
X68654393Y-65189867D01*
X68633349Y-65202480D01*
X68611171Y-65212970D01*
X68588071Y-65221235D01*
X68564273Y-65227196D01*
X68540004Y-65230796D01*
X68515500Y-65232000D01*
X67265500Y-65232000D01*
X67240996Y-65230796D01*
X67216727Y-65227196D01*
X67192929Y-65221235D01*
X67169829Y-65212970D01*
X67147651Y-65202480D01*
X67126607Y-65189867D01*
X67106902Y-65175253D01*
X67088723Y-65158777D01*
X67072247Y-65140598D01*
X67057633Y-65120893D01*
X67045020Y-65099849D01*
X67034530Y-65077671D01*
X67026265Y-65054571D01*
X67020304Y-65030773D01*
X67016704Y-65006504D01*
X67015500Y-64982000D01*
X67015500Y-64232000D01*
X67016704Y-64207496D01*
X67020304Y-64183227D01*
X67026265Y-64159429D01*
X67034530Y-64136329D01*
X67045020Y-64114151D01*
X67057633Y-64093107D01*
X67072247Y-64073402D01*
X67088723Y-64055223D01*
X67106902Y-64038747D01*
X67126607Y-64024133D01*
X67147651Y-64011520D01*
X67169829Y-64001030D01*
X67192929Y-63992765D01*
X67216727Y-63986804D01*
X67240996Y-63983204D01*
X67265500Y-63982000D01*
X68515500Y-63982000D01*
X68540004Y-63983204D01*
X68540004Y-63983204D01*
G37*
D14*
X67890500Y-64607000D03*
D10*
G36*
X68540004Y-61183204D02*
G01*
X68564273Y-61186804D01*
X68588071Y-61192765D01*
X68611171Y-61201030D01*
X68633349Y-61211520D01*
X68654393Y-61224133D01*
X68674098Y-61238747D01*
X68692277Y-61255223D01*
X68708753Y-61273402D01*
X68723367Y-61293107D01*
X68735980Y-61314151D01*
X68746470Y-61336329D01*
X68754735Y-61359429D01*
X68760696Y-61383227D01*
X68764296Y-61407496D01*
X68765500Y-61432000D01*
X68765500Y-62182000D01*
X68764296Y-62206504D01*
X68760696Y-62230773D01*
X68754735Y-62254571D01*
X68746470Y-62277671D01*
X68735980Y-62299849D01*
X68723367Y-62320893D01*
X68708753Y-62340598D01*
X68692277Y-62358777D01*
X68674098Y-62375253D01*
X68654393Y-62389867D01*
X68633349Y-62402480D01*
X68611171Y-62412970D01*
X68588071Y-62421235D01*
X68564273Y-62427196D01*
X68540004Y-62430796D01*
X68515500Y-62432000D01*
X67265500Y-62432000D01*
X67240996Y-62430796D01*
X67216727Y-62427196D01*
X67192929Y-62421235D01*
X67169829Y-62412970D01*
X67147651Y-62402480D01*
X67126607Y-62389867D01*
X67106902Y-62375253D01*
X67088723Y-62358777D01*
X67072247Y-62340598D01*
X67057633Y-62320893D01*
X67045020Y-62299849D01*
X67034530Y-62277671D01*
X67026265Y-62254571D01*
X67020304Y-62230773D01*
X67016704Y-62206504D01*
X67015500Y-62182000D01*
X67015500Y-61432000D01*
X67016704Y-61407496D01*
X67020304Y-61383227D01*
X67026265Y-61359429D01*
X67034530Y-61336329D01*
X67045020Y-61314151D01*
X67057633Y-61293107D01*
X67072247Y-61273402D01*
X67088723Y-61255223D01*
X67106902Y-61238747D01*
X67126607Y-61224133D01*
X67147651Y-61211520D01*
X67169829Y-61201030D01*
X67192929Y-61192765D01*
X67216727Y-61186804D01*
X67240996Y-61183204D01*
X67265500Y-61182000D01*
X68515500Y-61182000D01*
X68540004Y-61183204D01*
X68540004Y-61183204D01*
G37*
D14*
X67890500Y-61807000D03*
D10*
G36*
X71084004Y-66291204D02*
G01*
X71108273Y-66294804D01*
X71132071Y-66300765D01*
X71155171Y-66309030D01*
X71177349Y-66319520D01*
X71198393Y-66332133D01*
X71218098Y-66346747D01*
X71236277Y-66363223D01*
X71252753Y-66381402D01*
X71267367Y-66401107D01*
X71279980Y-66422151D01*
X71290470Y-66444329D01*
X71298735Y-66467429D01*
X71304696Y-66491227D01*
X71308296Y-66515496D01*
X71309500Y-66540000D01*
X71309500Y-67240000D01*
X71308296Y-67264504D01*
X71304696Y-67288773D01*
X71298735Y-67312571D01*
X71290470Y-67335671D01*
X71279980Y-67357849D01*
X71267367Y-67378893D01*
X71252753Y-67398598D01*
X71236277Y-67416777D01*
X71218098Y-67433253D01*
X71198393Y-67447867D01*
X71177349Y-67460480D01*
X71155171Y-67470970D01*
X71132071Y-67479235D01*
X71108273Y-67485196D01*
X71084004Y-67488796D01*
X71059500Y-67490000D01*
X70559500Y-67490000D01*
X70534996Y-67488796D01*
X70510727Y-67485196D01*
X70486929Y-67479235D01*
X70463829Y-67470970D01*
X70441651Y-67460480D01*
X70420607Y-67447867D01*
X70400902Y-67433253D01*
X70382723Y-67416777D01*
X70366247Y-67398598D01*
X70351633Y-67378893D01*
X70339020Y-67357849D01*
X70328530Y-67335671D01*
X70320265Y-67312571D01*
X70314304Y-67288773D01*
X70310704Y-67264504D01*
X70309500Y-67240000D01*
X70309500Y-66540000D01*
X70310704Y-66515496D01*
X70314304Y-66491227D01*
X70320265Y-66467429D01*
X70328530Y-66444329D01*
X70339020Y-66422151D01*
X70351633Y-66401107D01*
X70366247Y-66381402D01*
X70382723Y-66363223D01*
X70400902Y-66346747D01*
X70420607Y-66332133D01*
X70441651Y-66319520D01*
X70463829Y-66309030D01*
X70486929Y-66300765D01*
X70510727Y-66294804D01*
X70534996Y-66291204D01*
X70559500Y-66290000D01*
X71059500Y-66290000D01*
X71084004Y-66291204D01*
X71084004Y-66291204D01*
G37*
D16*
X70809500Y-66890000D03*
D10*
G36*
X67784004Y-66291204D02*
G01*
X67808273Y-66294804D01*
X67832071Y-66300765D01*
X67855171Y-66309030D01*
X67877349Y-66319520D01*
X67898393Y-66332133D01*
X67918098Y-66346747D01*
X67936277Y-66363223D01*
X67952753Y-66381402D01*
X67967367Y-66401107D01*
X67979980Y-66422151D01*
X67990470Y-66444329D01*
X67998735Y-66467429D01*
X68004696Y-66491227D01*
X68008296Y-66515496D01*
X68009500Y-66540000D01*
X68009500Y-67240000D01*
X68008296Y-67264504D01*
X68004696Y-67288773D01*
X67998735Y-67312571D01*
X67990470Y-67335671D01*
X67979980Y-67357849D01*
X67967367Y-67378893D01*
X67952753Y-67398598D01*
X67936277Y-67416777D01*
X67918098Y-67433253D01*
X67898393Y-67447867D01*
X67877349Y-67460480D01*
X67855171Y-67470970D01*
X67832071Y-67479235D01*
X67808273Y-67485196D01*
X67784004Y-67488796D01*
X67759500Y-67490000D01*
X67259500Y-67490000D01*
X67234996Y-67488796D01*
X67210727Y-67485196D01*
X67186929Y-67479235D01*
X67163829Y-67470970D01*
X67141651Y-67460480D01*
X67120607Y-67447867D01*
X67100902Y-67433253D01*
X67082723Y-67416777D01*
X67066247Y-67398598D01*
X67051633Y-67378893D01*
X67039020Y-67357849D01*
X67028530Y-67335671D01*
X67020265Y-67312571D01*
X67014304Y-67288773D01*
X67010704Y-67264504D01*
X67009500Y-67240000D01*
X67009500Y-66540000D01*
X67010704Y-66515496D01*
X67014304Y-66491227D01*
X67020265Y-66467429D01*
X67028530Y-66444329D01*
X67039020Y-66422151D01*
X67051633Y-66401107D01*
X67066247Y-66381402D01*
X67082723Y-66363223D01*
X67100902Y-66346747D01*
X67120607Y-66332133D01*
X67141651Y-66319520D01*
X67163829Y-66309030D01*
X67186929Y-66300765D01*
X67210727Y-66294804D01*
X67234996Y-66291204D01*
X67259500Y-66290000D01*
X67759500Y-66290000D01*
X67784004Y-66291204D01*
X67784004Y-66291204D01*
G37*
D16*
X67509500Y-66890000D03*
D17*
X70702500Y-63343000D03*
D18*
X70702500Y-59143000D03*
X79302500Y-59143000D03*
D10*
G36*
X78417203Y-63393722D02*
G01*
X78431764Y-63395882D01*
X78446043Y-63399459D01*
X78459903Y-63404418D01*
X78473210Y-63410712D01*
X78485836Y-63418280D01*
X78497659Y-63427048D01*
X78508566Y-63436934D01*
X78518452Y-63447841D01*
X78527220Y-63459664D01*
X78534788Y-63472290D01*
X78541082Y-63485597D01*
X78546041Y-63499457D01*
X78549618Y-63513736D01*
X78551778Y-63528297D01*
X78552500Y-63543000D01*
X78552500Y-64693000D01*
X78551778Y-64707703D01*
X78549618Y-64722264D01*
X78546041Y-64736543D01*
X78541082Y-64750403D01*
X78534788Y-64763710D01*
X78527220Y-64776336D01*
X78518452Y-64788159D01*
X78508566Y-64799066D01*
X78497659Y-64808952D01*
X78485836Y-64817720D01*
X78473210Y-64825288D01*
X78459903Y-64831582D01*
X78446043Y-64836541D01*
X78431764Y-64840118D01*
X78417203Y-64842278D01*
X78402500Y-64843000D01*
X78102500Y-64843000D01*
X78087797Y-64842278D01*
X78073236Y-64840118D01*
X78058957Y-64836541D01*
X78045097Y-64831582D01*
X78031790Y-64825288D01*
X78019164Y-64817720D01*
X78007341Y-64808952D01*
X77996434Y-64799066D01*
X77986548Y-64788159D01*
X77977780Y-64776336D01*
X77970212Y-64763710D01*
X77963918Y-64750403D01*
X77958959Y-64736543D01*
X77955382Y-64722264D01*
X77953222Y-64707703D01*
X77952500Y-64693000D01*
X77952500Y-63543000D01*
X77953222Y-63528297D01*
X77955382Y-63513736D01*
X77958959Y-63499457D01*
X77963918Y-63485597D01*
X77970212Y-63472290D01*
X77977780Y-63459664D01*
X77986548Y-63447841D01*
X77996434Y-63436934D01*
X78007341Y-63427048D01*
X78019164Y-63418280D01*
X78031790Y-63410712D01*
X78045097Y-63404418D01*
X78058957Y-63399459D01*
X78073236Y-63395882D01*
X78087797Y-63393722D01*
X78102500Y-63393000D01*
X78402500Y-63393000D01*
X78417203Y-63393722D01*
X78417203Y-63393722D01*
G37*
D19*
X78252500Y-64118000D03*
D10*
G36*
X76834851Y-63393361D02*
G01*
X76842132Y-63394441D01*
X76849271Y-63396229D01*
X76856201Y-63398709D01*
X76862855Y-63401856D01*
X76869168Y-63405640D01*
X76875079Y-63410024D01*
X76880533Y-63414967D01*
X76885476Y-63420421D01*
X76889860Y-63426332D01*
X76893644Y-63432645D01*
X76896791Y-63439299D01*
X76899271Y-63446229D01*
X76901059Y-63453368D01*
X76902139Y-63460649D01*
X76902500Y-63468000D01*
X76902500Y-64768000D01*
X76902139Y-64775351D01*
X76901059Y-64782632D01*
X76899271Y-64789771D01*
X76896791Y-64796701D01*
X76893644Y-64803355D01*
X76889860Y-64809668D01*
X76885476Y-64815579D01*
X76880533Y-64821033D01*
X76875079Y-64825976D01*
X76869168Y-64830360D01*
X76862855Y-64834144D01*
X76856201Y-64837291D01*
X76849271Y-64839771D01*
X76842132Y-64841559D01*
X76834851Y-64842639D01*
X76827500Y-64843000D01*
X76677500Y-64843000D01*
X76670149Y-64842639D01*
X76662868Y-64841559D01*
X76655729Y-64839771D01*
X76648799Y-64837291D01*
X76642145Y-64834144D01*
X76635832Y-64830360D01*
X76629921Y-64825976D01*
X76624467Y-64821033D01*
X76619524Y-64815579D01*
X76615140Y-64809668D01*
X76611356Y-64803355D01*
X76608209Y-64796701D01*
X76605729Y-64789771D01*
X76603941Y-64782632D01*
X76602861Y-64775351D01*
X76602500Y-64768000D01*
X76602500Y-63468000D01*
X76602861Y-63460649D01*
X76603941Y-63453368D01*
X76605729Y-63446229D01*
X76608209Y-63439299D01*
X76611356Y-63432645D01*
X76615140Y-63426332D01*
X76619524Y-63420421D01*
X76624467Y-63414967D01*
X76629921Y-63410024D01*
X76635832Y-63405640D01*
X76642145Y-63401856D01*
X76648799Y-63398709D01*
X76655729Y-63396229D01*
X76662868Y-63394441D01*
X76670149Y-63393361D01*
X76677500Y-63393000D01*
X76827500Y-63393000D01*
X76834851Y-63393361D01*
X76834851Y-63393361D01*
G37*
D20*
X76752500Y-64118000D03*
D10*
G36*
X76334851Y-63393361D02*
G01*
X76342132Y-63394441D01*
X76349271Y-63396229D01*
X76356201Y-63398709D01*
X76362855Y-63401856D01*
X76369168Y-63405640D01*
X76375079Y-63410024D01*
X76380533Y-63414967D01*
X76385476Y-63420421D01*
X76389860Y-63426332D01*
X76393644Y-63432645D01*
X76396791Y-63439299D01*
X76399271Y-63446229D01*
X76401059Y-63453368D01*
X76402139Y-63460649D01*
X76402500Y-63468000D01*
X76402500Y-64768000D01*
X76402139Y-64775351D01*
X76401059Y-64782632D01*
X76399271Y-64789771D01*
X76396791Y-64796701D01*
X76393644Y-64803355D01*
X76389860Y-64809668D01*
X76385476Y-64815579D01*
X76380533Y-64821033D01*
X76375079Y-64825976D01*
X76369168Y-64830360D01*
X76362855Y-64834144D01*
X76356201Y-64837291D01*
X76349271Y-64839771D01*
X76342132Y-64841559D01*
X76334851Y-64842639D01*
X76327500Y-64843000D01*
X76177500Y-64843000D01*
X76170149Y-64842639D01*
X76162868Y-64841559D01*
X76155729Y-64839771D01*
X76148799Y-64837291D01*
X76142145Y-64834144D01*
X76135832Y-64830360D01*
X76129921Y-64825976D01*
X76124467Y-64821033D01*
X76119524Y-64815579D01*
X76115140Y-64809668D01*
X76111356Y-64803355D01*
X76108209Y-64796701D01*
X76105729Y-64789771D01*
X76103941Y-64782632D01*
X76102861Y-64775351D01*
X76102500Y-64768000D01*
X76102500Y-63468000D01*
X76102861Y-63460649D01*
X76103941Y-63453368D01*
X76105729Y-63446229D01*
X76108209Y-63439299D01*
X76111356Y-63432645D01*
X76115140Y-63426332D01*
X76119524Y-63420421D01*
X76124467Y-63414967D01*
X76129921Y-63410024D01*
X76135832Y-63405640D01*
X76142145Y-63401856D01*
X76148799Y-63398709D01*
X76155729Y-63396229D01*
X76162868Y-63394441D01*
X76170149Y-63393361D01*
X76177500Y-63393000D01*
X76327500Y-63393000D01*
X76334851Y-63393361D01*
X76334851Y-63393361D01*
G37*
D20*
X76252500Y-64118000D03*
D10*
G36*
X75834851Y-63393361D02*
G01*
X75842132Y-63394441D01*
X75849271Y-63396229D01*
X75856201Y-63398709D01*
X75862855Y-63401856D01*
X75869168Y-63405640D01*
X75875079Y-63410024D01*
X75880533Y-63414967D01*
X75885476Y-63420421D01*
X75889860Y-63426332D01*
X75893644Y-63432645D01*
X75896791Y-63439299D01*
X75899271Y-63446229D01*
X75901059Y-63453368D01*
X75902139Y-63460649D01*
X75902500Y-63468000D01*
X75902500Y-64768000D01*
X75902139Y-64775351D01*
X75901059Y-64782632D01*
X75899271Y-64789771D01*
X75896791Y-64796701D01*
X75893644Y-64803355D01*
X75889860Y-64809668D01*
X75885476Y-64815579D01*
X75880533Y-64821033D01*
X75875079Y-64825976D01*
X75869168Y-64830360D01*
X75862855Y-64834144D01*
X75856201Y-64837291D01*
X75849271Y-64839771D01*
X75842132Y-64841559D01*
X75834851Y-64842639D01*
X75827500Y-64843000D01*
X75677500Y-64843000D01*
X75670149Y-64842639D01*
X75662868Y-64841559D01*
X75655729Y-64839771D01*
X75648799Y-64837291D01*
X75642145Y-64834144D01*
X75635832Y-64830360D01*
X75629921Y-64825976D01*
X75624467Y-64821033D01*
X75619524Y-64815579D01*
X75615140Y-64809668D01*
X75611356Y-64803355D01*
X75608209Y-64796701D01*
X75605729Y-64789771D01*
X75603941Y-64782632D01*
X75602861Y-64775351D01*
X75602500Y-64768000D01*
X75602500Y-63468000D01*
X75602861Y-63460649D01*
X75603941Y-63453368D01*
X75605729Y-63446229D01*
X75608209Y-63439299D01*
X75611356Y-63432645D01*
X75615140Y-63426332D01*
X75619524Y-63420421D01*
X75624467Y-63414967D01*
X75629921Y-63410024D01*
X75635832Y-63405640D01*
X75642145Y-63401856D01*
X75648799Y-63398709D01*
X75655729Y-63396229D01*
X75662868Y-63394441D01*
X75670149Y-63393361D01*
X75677500Y-63393000D01*
X75827500Y-63393000D01*
X75834851Y-63393361D01*
X75834851Y-63393361D01*
G37*
D20*
X75752500Y-64118000D03*
D10*
G36*
X75338851Y-63393361D02*
G01*
X75346132Y-63394441D01*
X75353271Y-63396229D01*
X75360201Y-63398709D01*
X75366855Y-63401856D01*
X75373168Y-63405640D01*
X75379079Y-63410024D01*
X75384533Y-63414967D01*
X75389476Y-63420421D01*
X75393860Y-63426332D01*
X75397644Y-63432645D01*
X75400791Y-63439299D01*
X75403271Y-63446229D01*
X75405059Y-63453368D01*
X75406139Y-63460649D01*
X75406500Y-63468000D01*
X75406500Y-64768000D01*
X75406139Y-64775351D01*
X75405059Y-64782632D01*
X75403271Y-64789771D01*
X75400791Y-64796701D01*
X75397644Y-64803355D01*
X75393860Y-64809668D01*
X75389476Y-64815579D01*
X75384533Y-64821033D01*
X75379079Y-64825976D01*
X75373168Y-64830360D01*
X75366855Y-64834144D01*
X75360201Y-64837291D01*
X75353271Y-64839771D01*
X75346132Y-64841559D01*
X75338851Y-64842639D01*
X75331500Y-64843000D01*
X75181500Y-64843000D01*
X75174149Y-64842639D01*
X75166868Y-64841559D01*
X75159729Y-64839771D01*
X75152799Y-64837291D01*
X75146145Y-64834144D01*
X75139832Y-64830360D01*
X75133921Y-64825976D01*
X75128467Y-64821033D01*
X75123524Y-64815579D01*
X75119140Y-64809668D01*
X75115356Y-64803355D01*
X75112209Y-64796701D01*
X75109729Y-64789771D01*
X75107941Y-64782632D01*
X75106861Y-64775351D01*
X75106500Y-64768000D01*
X75106500Y-63468000D01*
X75106861Y-63460649D01*
X75107941Y-63453368D01*
X75109729Y-63446229D01*
X75112209Y-63439299D01*
X75115356Y-63432645D01*
X75119140Y-63426332D01*
X75123524Y-63420421D01*
X75128467Y-63414967D01*
X75133921Y-63410024D01*
X75139832Y-63405640D01*
X75146145Y-63401856D01*
X75152799Y-63398709D01*
X75159729Y-63396229D01*
X75166868Y-63394441D01*
X75174149Y-63393361D01*
X75181500Y-63393000D01*
X75331500Y-63393000D01*
X75338851Y-63393361D01*
X75338851Y-63393361D01*
G37*
D20*
X75256500Y-64118000D03*
D10*
G36*
X73334851Y-63393361D02*
G01*
X73342132Y-63394441D01*
X73349271Y-63396229D01*
X73356201Y-63398709D01*
X73362855Y-63401856D01*
X73369168Y-63405640D01*
X73375079Y-63410024D01*
X73380533Y-63414967D01*
X73385476Y-63420421D01*
X73389860Y-63426332D01*
X73393644Y-63432645D01*
X73396791Y-63439299D01*
X73399271Y-63446229D01*
X73401059Y-63453368D01*
X73402139Y-63460649D01*
X73402500Y-63468000D01*
X73402500Y-64768000D01*
X73402139Y-64775351D01*
X73401059Y-64782632D01*
X73399271Y-64789771D01*
X73396791Y-64796701D01*
X73393644Y-64803355D01*
X73389860Y-64809668D01*
X73385476Y-64815579D01*
X73380533Y-64821033D01*
X73375079Y-64825976D01*
X73369168Y-64830360D01*
X73362855Y-64834144D01*
X73356201Y-64837291D01*
X73349271Y-64839771D01*
X73342132Y-64841559D01*
X73334851Y-64842639D01*
X73327500Y-64843000D01*
X73177500Y-64843000D01*
X73170149Y-64842639D01*
X73162868Y-64841559D01*
X73155729Y-64839771D01*
X73148799Y-64837291D01*
X73142145Y-64834144D01*
X73135832Y-64830360D01*
X73129921Y-64825976D01*
X73124467Y-64821033D01*
X73119524Y-64815579D01*
X73115140Y-64809668D01*
X73111356Y-64803355D01*
X73108209Y-64796701D01*
X73105729Y-64789771D01*
X73103941Y-64782632D01*
X73102861Y-64775351D01*
X73102500Y-64768000D01*
X73102500Y-63468000D01*
X73102861Y-63460649D01*
X73103941Y-63453368D01*
X73105729Y-63446229D01*
X73108209Y-63439299D01*
X73111356Y-63432645D01*
X73115140Y-63426332D01*
X73119524Y-63420421D01*
X73124467Y-63414967D01*
X73129921Y-63410024D01*
X73135832Y-63405640D01*
X73142145Y-63401856D01*
X73148799Y-63398709D01*
X73155729Y-63396229D01*
X73162868Y-63394441D01*
X73170149Y-63393361D01*
X73177500Y-63393000D01*
X73327500Y-63393000D01*
X73334851Y-63393361D01*
X73334851Y-63393361D01*
G37*
D20*
X73252500Y-64118000D03*
D10*
G36*
X73834851Y-63393361D02*
G01*
X73842132Y-63394441D01*
X73849271Y-63396229D01*
X73856201Y-63398709D01*
X73862855Y-63401856D01*
X73869168Y-63405640D01*
X73875079Y-63410024D01*
X73880533Y-63414967D01*
X73885476Y-63420421D01*
X73889860Y-63426332D01*
X73893644Y-63432645D01*
X73896791Y-63439299D01*
X73899271Y-63446229D01*
X73901059Y-63453368D01*
X73902139Y-63460649D01*
X73902500Y-63468000D01*
X73902500Y-64768000D01*
X73902139Y-64775351D01*
X73901059Y-64782632D01*
X73899271Y-64789771D01*
X73896791Y-64796701D01*
X73893644Y-64803355D01*
X73889860Y-64809668D01*
X73885476Y-64815579D01*
X73880533Y-64821033D01*
X73875079Y-64825976D01*
X73869168Y-64830360D01*
X73862855Y-64834144D01*
X73856201Y-64837291D01*
X73849271Y-64839771D01*
X73842132Y-64841559D01*
X73834851Y-64842639D01*
X73827500Y-64843000D01*
X73677500Y-64843000D01*
X73670149Y-64842639D01*
X73662868Y-64841559D01*
X73655729Y-64839771D01*
X73648799Y-64837291D01*
X73642145Y-64834144D01*
X73635832Y-64830360D01*
X73629921Y-64825976D01*
X73624467Y-64821033D01*
X73619524Y-64815579D01*
X73615140Y-64809668D01*
X73611356Y-64803355D01*
X73608209Y-64796701D01*
X73605729Y-64789771D01*
X73603941Y-64782632D01*
X73602861Y-64775351D01*
X73602500Y-64768000D01*
X73602500Y-63468000D01*
X73602861Y-63460649D01*
X73603941Y-63453368D01*
X73605729Y-63446229D01*
X73608209Y-63439299D01*
X73611356Y-63432645D01*
X73615140Y-63426332D01*
X73619524Y-63420421D01*
X73624467Y-63414967D01*
X73629921Y-63410024D01*
X73635832Y-63405640D01*
X73642145Y-63401856D01*
X73648799Y-63398709D01*
X73655729Y-63396229D01*
X73662868Y-63394441D01*
X73670149Y-63393361D01*
X73677500Y-63393000D01*
X73827500Y-63393000D01*
X73834851Y-63393361D01*
X73834851Y-63393361D01*
G37*
D20*
X73752500Y-64118000D03*
D10*
G36*
X74334851Y-63393361D02*
G01*
X74342132Y-63394441D01*
X74349271Y-63396229D01*
X74356201Y-63398709D01*
X74362855Y-63401856D01*
X74369168Y-63405640D01*
X74375079Y-63410024D01*
X74380533Y-63414967D01*
X74385476Y-63420421D01*
X74389860Y-63426332D01*
X74393644Y-63432645D01*
X74396791Y-63439299D01*
X74399271Y-63446229D01*
X74401059Y-63453368D01*
X74402139Y-63460649D01*
X74402500Y-63468000D01*
X74402500Y-64768000D01*
X74402139Y-64775351D01*
X74401059Y-64782632D01*
X74399271Y-64789771D01*
X74396791Y-64796701D01*
X74393644Y-64803355D01*
X74389860Y-64809668D01*
X74385476Y-64815579D01*
X74380533Y-64821033D01*
X74375079Y-64825976D01*
X74369168Y-64830360D01*
X74362855Y-64834144D01*
X74356201Y-64837291D01*
X74349271Y-64839771D01*
X74342132Y-64841559D01*
X74334851Y-64842639D01*
X74327500Y-64843000D01*
X74177500Y-64843000D01*
X74170149Y-64842639D01*
X74162868Y-64841559D01*
X74155729Y-64839771D01*
X74148799Y-64837291D01*
X74142145Y-64834144D01*
X74135832Y-64830360D01*
X74129921Y-64825976D01*
X74124467Y-64821033D01*
X74119524Y-64815579D01*
X74115140Y-64809668D01*
X74111356Y-64803355D01*
X74108209Y-64796701D01*
X74105729Y-64789771D01*
X74103941Y-64782632D01*
X74102861Y-64775351D01*
X74102500Y-64768000D01*
X74102500Y-63468000D01*
X74102861Y-63460649D01*
X74103941Y-63453368D01*
X74105729Y-63446229D01*
X74108209Y-63439299D01*
X74111356Y-63432645D01*
X74115140Y-63426332D01*
X74119524Y-63420421D01*
X74124467Y-63414967D01*
X74129921Y-63410024D01*
X74135832Y-63405640D01*
X74142145Y-63401856D01*
X74148799Y-63398709D01*
X74155729Y-63396229D01*
X74162868Y-63394441D01*
X74170149Y-63393361D01*
X74177500Y-63393000D01*
X74327500Y-63393000D01*
X74334851Y-63393361D01*
X74334851Y-63393361D01*
G37*
D20*
X74252500Y-64118000D03*
D10*
G36*
X74834851Y-63393361D02*
G01*
X74842132Y-63394441D01*
X74849271Y-63396229D01*
X74856201Y-63398709D01*
X74862855Y-63401856D01*
X74869168Y-63405640D01*
X74875079Y-63410024D01*
X74880533Y-63414967D01*
X74885476Y-63420421D01*
X74889860Y-63426332D01*
X74893644Y-63432645D01*
X74896791Y-63439299D01*
X74899271Y-63446229D01*
X74901059Y-63453368D01*
X74902139Y-63460649D01*
X74902500Y-63468000D01*
X74902500Y-64768000D01*
X74902139Y-64775351D01*
X74901059Y-64782632D01*
X74899271Y-64789771D01*
X74896791Y-64796701D01*
X74893644Y-64803355D01*
X74889860Y-64809668D01*
X74885476Y-64815579D01*
X74880533Y-64821033D01*
X74875079Y-64825976D01*
X74869168Y-64830360D01*
X74862855Y-64834144D01*
X74856201Y-64837291D01*
X74849271Y-64839771D01*
X74842132Y-64841559D01*
X74834851Y-64842639D01*
X74827500Y-64843000D01*
X74677500Y-64843000D01*
X74670149Y-64842639D01*
X74662868Y-64841559D01*
X74655729Y-64839771D01*
X74648799Y-64837291D01*
X74642145Y-64834144D01*
X74635832Y-64830360D01*
X74629921Y-64825976D01*
X74624467Y-64821033D01*
X74619524Y-64815579D01*
X74615140Y-64809668D01*
X74611356Y-64803355D01*
X74608209Y-64796701D01*
X74605729Y-64789771D01*
X74603941Y-64782632D01*
X74602861Y-64775351D01*
X74602500Y-64768000D01*
X74602500Y-63468000D01*
X74602861Y-63460649D01*
X74603941Y-63453368D01*
X74605729Y-63446229D01*
X74608209Y-63439299D01*
X74611356Y-63432645D01*
X74615140Y-63426332D01*
X74619524Y-63420421D01*
X74624467Y-63414967D01*
X74629921Y-63410024D01*
X74635832Y-63405640D01*
X74642145Y-63401856D01*
X74648799Y-63398709D01*
X74655729Y-63396229D01*
X74662868Y-63394441D01*
X74670149Y-63393361D01*
X74677500Y-63393000D01*
X74827500Y-63393000D01*
X74834851Y-63393361D01*
X74834851Y-63393361D01*
G37*
D20*
X74752500Y-64118000D03*
D17*
X79302500Y-63343000D03*
D10*
G36*
X77617203Y-63393722D02*
G01*
X77631764Y-63395882D01*
X77646043Y-63399459D01*
X77659903Y-63404418D01*
X77673210Y-63410712D01*
X77685836Y-63418280D01*
X77697659Y-63427048D01*
X77708566Y-63436934D01*
X77718452Y-63447841D01*
X77727220Y-63459664D01*
X77734788Y-63472290D01*
X77741082Y-63485597D01*
X77746041Y-63499457D01*
X77749618Y-63513736D01*
X77751778Y-63528297D01*
X77752500Y-63543000D01*
X77752500Y-64693000D01*
X77751778Y-64707703D01*
X77749618Y-64722264D01*
X77746041Y-64736543D01*
X77741082Y-64750403D01*
X77734788Y-64763710D01*
X77727220Y-64776336D01*
X77718452Y-64788159D01*
X77708566Y-64799066D01*
X77697659Y-64808952D01*
X77685836Y-64817720D01*
X77673210Y-64825288D01*
X77659903Y-64831582D01*
X77646043Y-64836541D01*
X77631764Y-64840118D01*
X77617203Y-64842278D01*
X77602500Y-64843000D01*
X77302500Y-64843000D01*
X77287797Y-64842278D01*
X77273236Y-64840118D01*
X77258957Y-64836541D01*
X77245097Y-64831582D01*
X77231790Y-64825288D01*
X77219164Y-64817720D01*
X77207341Y-64808952D01*
X77196434Y-64799066D01*
X77186548Y-64788159D01*
X77177780Y-64776336D01*
X77170212Y-64763710D01*
X77163918Y-64750403D01*
X77158959Y-64736543D01*
X77155382Y-64722264D01*
X77153222Y-64707703D01*
X77152500Y-64693000D01*
X77152500Y-63543000D01*
X77153222Y-63528297D01*
X77155382Y-63513736D01*
X77158959Y-63499457D01*
X77163918Y-63485597D01*
X77170212Y-63472290D01*
X77177780Y-63459664D01*
X77186548Y-63447841D01*
X77196434Y-63436934D01*
X77207341Y-63427048D01*
X77219164Y-63418280D01*
X77231790Y-63410712D01*
X77245097Y-63404418D01*
X77258957Y-63399459D01*
X77273236Y-63395882D01*
X77287797Y-63393722D01*
X77302500Y-63393000D01*
X77602500Y-63393000D01*
X77617203Y-63393722D01*
X77617203Y-63393722D01*
G37*
D19*
X77452500Y-64118000D03*
D10*
G36*
X71917203Y-63393722D02*
G01*
X71931764Y-63395882D01*
X71946043Y-63399459D01*
X71959903Y-63404418D01*
X71973210Y-63410712D01*
X71985836Y-63418280D01*
X71997659Y-63427048D01*
X72008566Y-63436934D01*
X72018452Y-63447841D01*
X72027220Y-63459664D01*
X72034788Y-63472290D01*
X72041082Y-63485597D01*
X72046041Y-63499457D01*
X72049618Y-63513736D01*
X72051778Y-63528297D01*
X72052500Y-63543000D01*
X72052500Y-64693000D01*
X72051778Y-64707703D01*
X72049618Y-64722264D01*
X72046041Y-64736543D01*
X72041082Y-64750403D01*
X72034788Y-64763710D01*
X72027220Y-64776336D01*
X72018452Y-64788159D01*
X72008566Y-64799066D01*
X71997659Y-64808952D01*
X71985836Y-64817720D01*
X71973210Y-64825288D01*
X71959903Y-64831582D01*
X71946043Y-64836541D01*
X71931764Y-64840118D01*
X71917203Y-64842278D01*
X71902500Y-64843000D01*
X71602500Y-64843000D01*
X71587797Y-64842278D01*
X71573236Y-64840118D01*
X71558957Y-64836541D01*
X71545097Y-64831582D01*
X71531790Y-64825288D01*
X71519164Y-64817720D01*
X71507341Y-64808952D01*
X71496434Y-64799066D01*
X71486548Y-64788159D01*
X71477780Y-64776336D01*
X71470212Y-64763710D01*
X71463918Y-64750403D01*
X71458959Y-64736543D01*
X71455382Y-64722264D01*
X71453222Y-64707703D01*
X71452500Y-64693000D01*
X71452500Y-63543000D01*
X71453222Y-63528297D01*
X71455382Y-63513736D01*
X71458959Y-63499457D01*
X71463918Y-63485597D01*
X71470212Y-63472290D01*
X71477780Y-63459664D01*
X71486548Y-63447841D01*
X71496434Y-63436934D01*
X71507341Y-63427048D01*
X71519164Y-63418280D01*
X71531790Y-63410712D01*
X71545097Y-63404418D01*
X71558957Y-63399459D01*
X71573236Y-63395882D01*
X71587797Y-63393722D01*
X71602500Y-63393000D01*
X71902500Y-63393000D01*
X71917203Y-63393722D01*
X71917203Y-63393722D01*
G37*
D19*
X71752500Y-64118000D03*
D10*
G36*
X72717203Y-63393722D02*
G01*
X72731764Y-63395882D01*
X72746043Y-63399459D01*
X72759903Y-63404418D01*
X72773210Y-63410712D01*
X72785836Y-63418280D01*
X72797659Y-63427048D01*
X72808566Y-63436934D01*
X72818452Y-63447841D01*
X72827220Y-63459664D01*
X72834788Y-63472290D01*
X72841082Y-63485597D01*
X72846041Y-63499457D01*
X72849618Y-63513736D01*
X72851778Y-63528297D01*
X72852500Y-63543000D01*
X72852500Y-64693000D01*
X72851778Y-64707703D01*
X72849618Y-64722264D01*
X72846041Y-64736543D01*
X72841082Y-64750403D01*
X72834788Y-64763710D01*
X72827220Y-64776336D01*
X72818452Y-64788159D01*
X72808566Y-64799066D01*
X72797659Y-64808952D01*
X72785836Y-64817720D01*
X72773210Y-64825288D01*
X72759903Y-64831582D01*
X72746043Y-64836541D01*
X72731764Y-64840118D01*
X72717203Y-64842278D01*
X72702500Y-64843000D01*
X72402500Y-64843000D01*
X72387797Y-64842278D01*
X72373236Y-64840118D01*
X72358957Y-64836541D01*
X72345097Y-64831582D01*
X72331790Y-64825288D01*
X72319164Y-64817720D01*
X72307341Y-64808952D01*
X72296434Y-64799066D01*
X72286548Y-64788159D01*
X72277780Y-64776336D01*
X72270212Y-64763710D01*
X72263918Y-64750403D01*
X72258959Y-64736543D01*
X72255382Y-64722264D01*
X72253222Y-64707703D01*
X72252500Y-64693000D01*
X72252500Y-63543000D01*
X72253222Y-63528297D01*
X72255382Y-63513736D01*
X72258959Y-63499457D01*
X72263918Y-63485597D01*
X72270212Y-63472290D01*
X72277780Y-63459664D01*
X72286548Y-63447841D01*
X72296434Y-63436934D01*
X72307341Y-63427048D01*
X72319164Y-63418280D01*
X72331790Y-63410712D01*
X72345097Y-63404418D01*
X72358957Y-63399459D01*
X72373236Y-63395882D01*
X72387797Y-63393722D01*
X72402500Y-63393000D01*
X72702500Y-63393000D01*
X72717203Y-63393722D01*
X72717203Y-63393722D01*
G37*
D19*
X72552500Y-64118000D03*
D21*
X68004500Y-58543000D03*
D22*
X82004500Y-58543000D03*
X68002500Y-71043000D03*
D23*
X78977500Y-68841000D03*
X78977500Y-67841000D03*
X78977500Y-69841000D03*
X78977500Y-70841000D03*
D24*
X82852500Y-72141000D03*
X82852500Y-66541000D03*
D15*
X82752500Y-63843000D03*
X81252500Y-63843000D03*
D25*
X71628000Y-69596000D03*
X75002500Y-67891000D03*
X75000000Y-62500000D03*
X72009000Y-66929000D03*
X76454000Y-68707000D03*
X73723500Y-68897500D03*
X76835000Y-67437000D03*
X77279500Y-69913500D03*
X72771000Y-65659000D03*
X77470000Y-65659000D03*
D26*
X78977500Y-67841000D02*
X80033000Y-67841000D01*
X80033000Y-67841000D02*
X80391000Y-68199000D01*
X80391000Y-68199000D02*
X80391000Y-71374000D01*
X80391000Y-71374000D02*
X80010000Y-71755000D01*
X74679000Y-71755000D02*
X74425000Y-71501000D01*
X80010000Y-71755000D02*
X74679000Y-71755000D01*
X67509500Y-64988000D02*
X67890500Y-64607000D01*
X67509500Y-66890000D02*
X67509500Y-64988000D01*
X71755000Y-68199000D02*
X69596000Y-68199000D01*
X73279000Y-69723000D02*
X71755000Y-68199000D01*
X78977500Y-70841000D02*
X76492500Y-70841000D01*
X76492500Y-70841000D02*
X75374500Y-69723000D01*
X69596000Y-68199000D02*
X68287000Y-66890000D01*
X75374500Y-69723000D02*
X73279000Y-69723000D01*
X68287000Y-66890000D02*
X67509500Y-66890000D01*
D27*
X75002500Y-65958000D02*
X75002500Y-66728000D01*
D26*
X70927500Y-63568000D02*
X70702500Y-63343000D01*
X71752500Y-63568000D02*
X70927500Y-63568000D01*
X79077500Y-63568000D02*
X79302500Y-63343000D01*
X78252500Y-63568000D02*
X79077500Y-63568000D01*
X79302500Y-59143000D02*
X70702500Y-59143000D01*
X70702500Y-59143000D02*
X70702500Y-63343000D01*
D27*
X82752500Y-62143000D02*
X82752500Y-63843000D01*
D26*
X82752500Y-59291000D02*
X82004500Y-58543000D01*
X82752500Y-62143000D02*
X82752500Y-59291000D01*
X81404500Y-59143000D02*
X82004500Y-58543000D01*
X79302500Y-59143000D02*
X81404500Y-59143000D01*
X71625000Y-71501000D02*
X71625000Y-69599000D01*
X71625000Y-69599000D02*
X71628000Y-69596000D01*
D27*
X75002500Y-66728000D02*
X75002500Y-67891000D01*
D26*
X71970000Y-66890000D02*
X72009000Y-66929000D01*
X70809500Y-66890000D02*
X71970000Y-66890000D01*
D27*
X80463500Y-63054000D02*
X81252500Y-63843000D01*
X80463500Y-62430000D02*
X80463500Y-63054000D01*
X79701500Y-61668000D02*
X80463500Y-62430000D01*
X77796500Y-61668000D02*
X79701500Y-61668000D01*
X76252500Y-63212000D02*
X77796500Y-61668000D01*
X76252500Y-63568000D02*
X76252500Y-63212000D01*
X75256500Y-63568000D02*
X75256500Y-65224000D01*
X75502500Y-65470000D02*
X75502500Y-65958000D01*
X75256500Y-65224000D02*
X75502500Y-65470000D01*
X74252500Y-63568000D02*
X74252500Y-64958000D01*
X74002500Y-65208000D02*
X74002500Y-65958000D01*
X74252500Y-64958000D02*
X74002500Y-65208000D01*
X75502500Y-65958000D02*
X75502500Y-66728000D01*
X74002500Y-65958000D02*
X74002500Y-66728000D01*
X75502500Y-66728000D02*
X75502500Y-67248000D01*
X76961500Y-68707000D02*
X77095500Y-68841000D01*
X76454000Y-68707000D02*
X76961500Y-68707000D01*
X76454000Y-68199500D02*
X76263250Y-68008750D01*
X76454000Y-68707000D02*
X76454000Y-68199500D01*
X75502500Y-67248000D02*
X76263250Y-68008750D01*
X76263250Y-68008750D02*
X77095500Y-68841000D01*
X74002500Y-66728000D02*
X74002500Y-66967500D01*
X74002500Y-66967500D02*
X73723500Y-67246500D01*
X73723500Y-67246500D02*
X73723500Y-68897500D01*
X77342500Y-69088000D02*
X77095500Y-68841000D01*
X77978000Y-69088000D02*
X77342500Y-69088000D01*
X78977500Y-68841000D02*
X78225000Y-68841000D01*
X78225000Y-68841000D02*
X77978000Y-69088000D01*
X80939000Y-62143000D02*
X81252500Y-62143000D01*
X79956000Y-61160000D02*
X80939000Y-62143000D01*
X75365000Y-61160000D02*
X79956000Y-61160000D01*
X73252500Y-63568000D02*
X73252500Y-63272500D01*
X73252500Y-63272500D02*
X75365000Y-61160000D01*
X75752500Y-63568000D02*
X75752500Y-64958000D01*
X76002500Y-65208000D02*
X76002500Y-65958000D01*
X75752500Y-64958000D02*
X76002500Y-65208000D01*
X74502500Y-65470000D02*
X74502500Y-65958000D01*
X74752500Y-63568000D02*
X74752500Y-65220000D01*
X74752500Y-65220000D02*
X74502500Y-65470000D01*
X76002500Y-65958000D02*
X76002500Y-66728000D01*
X74502500Y-65958000D02*
X74502500Y-66728000D01*
X76002500Y-66728000D02*
X76002500Y-66985500D01*
X76002500Y-66985500D02*
X76454000Y-67437000D01*
X76454000Y-67437000D02*
X76835000Y-67437000D01*
X77279500Y-69913500D02*
X77597000Y-69596000D01*
X76962000Y-69596000D02*
X77279500Y-69913500D01*
X76962000Y-69596000D02*
X77597000Y-69596000D01*
X74502500Y-67248000D02*
X74168000Y-67582500D01*
X74502500Y-66728000D02*
X74502500Y-67248000D01*
X74168000Y-67582500D02*
X74168000Y-68199000D01*
X76200000Y-69596000D02*
X76962000Y-69596000D01*
X74168000Y-68199000D02*
X75057000Y-69088000D01*
X75057000Y-69088000D02*
X75692000Y-69088000D01*
X75692000Y-69088000D02*
X76200000Y-69596000D01*
X78223000Y-69841000D02*
X78977500Y-69841000D01*
X77597000Y-69596000D02*
X77978000Y-69596000D01*
X77978000Y-69596000D02*
X78223000Y-69841000D01*
D26*
X72552500Y-65440500D02*
X72771000Y-65659000D01*
X77452500Y-63568000D02*
X77452500Y-65641500D01*
X77452500Y-65641500D02*
X77470000Y-65659000D01*
X72552500Y-64988500D02*
X72552500Y-65115500D01*
X72552500Y-64988500D02*
X72552500Y-65440500D01*
X72552500Y-63568000D02*
X72552500Y-64988500D01*
X72552500Y-65115500D02*
X72136000Y-65532000D01*
X72136000Y-65532000D02*
X70485000Y-65532000D01*
X70485000Y-65532000D02*
X69469000Y-64516000D01*
X69469000Y-63385500D02*
X67890500Y-61807000D01*
X69469000Y-64516000D02*
X69469000Y-63385500D01*
X72644000Y-65532000D02*
X72771000Y-65659000D01*
X72136000Y-65532000D02*
X72644000Y-65532000D01*
D28*
G36*
X82333717Y-56880336D02*
G01*
X82650391Y-56975945D01*
X82942466Y-57131244D01*
X83198814Y-57340317D01*
X83409674Y-57595202D01*
X83567004Y-57886178D01*
X83664825Y-58202186D01*
X83700901Y-58545421D01*
X83699876Y-65711294D01*
X81952500Y-65711294D01*
X81907687Y-65715708D01*
X81864595Y-65728779D01*
X81824882Y-65750006D01*
X81790073Y-65778573D01*
X81761506Y-65813382D01*
X81740279Y-65853095D01*
X81727208Y-65896187D01*
X81722794Y-65941000D01*
X81722794Y-67141000D01*
X81727208Y-67185813D01*
X81740279Y-67228905D01*
X81761506Y-67268618D01*
X81790073Y-67303427D01*
X81824882Y-67331994D01*
X81864595Y-67353221D01*
X81907687Y-67366292D01*
X81952500Y-67370706D01*
X83699639Y-67370706D01*
X83699076Y-71311294D01*
X81952500Y-71311294D01*
X81907687Y-71315708D01*
X81864595Y-71328779D01*
X81824882Y-71350006D01*
X81790073Y-71378573D01*
X81761506Y-71413382D01*
X81740279Y-71453095D01*
X81727208Y-71496187D01*
X81722794Y-71541000D01*
X81722794Y-72739400D01*
X69607157Y-72739400D01*
X69815591Y-72530966D01*
X70071041Y-72148658D01*
X70246998Y-71723861D01*
X70336700Y-71272899D01*
X70336700Y-70813101D01*
X70246998Y-70362139D01*
X70071041Y-69937342D01*
X69815591Y-69555034D01*
X69490466Y-69229909D01*
X69108158Y-68974459D01*
X68683361Y-68798502D01*
X68232399Y-68708800D01*
X67772601Y-68708800D01*
X67321639Y-68798502D01*
X66896842Y-68974459D01*
X66514534Y-69229909D01*
X66308100Y-69436343D01*
X66308100Y-66540000D01*
X66779794Y-66540000D01*
X66779794Y-67240000D01*
X66789011Y-67333586D01*
X66816309Y-67423576D01*
X66860639Y-67506510D01*
X66920297Y-67579203D01*
X66992990Y-67638861D01*
X67075924Y-67683191D01*
X67165914Y-67710489D01*
X67259500Y-67719706D01*
X67759500Y-67719706D01*
X67853086Y-67710489D01*
X67943076Y-67683191D01*
X68026010Y-67638861D01*
X68098703Y-67579203D01*
X68158361Y-67506510D01*
X68180184Y-67465683D01*
X69237986Y-68523486D01*
X69253099Y-68541901D01*
X69326585Y-68602209D01*
X69392216Y-68637290D01*
X69410423Y-68647022D01*
X69501393Y-68674617D01*
X69596000Y-68683935D01*
X69619707Y-68681600D01*
X71555101Y-68681600D01*
X72920983Y-70047482D01*
X72936099Y-70065901D01*
X73009585Y-70126209D01*
X73093423Y-70171022D01*
X73184394Y-70198617D01*
X73255293Y-70205600D01*
X73255302Y-70205600D01*
X73278999Y-70207934D01*
X73302696Y-70205600D01*
X75174601Y-70205600D01*
X76134488Y-71165488D01*
X76149599Y-71183901D01*
X76223085Y-71244209D01*
X76275826Y-71272400D01*
X75279706Y-71272400D01*
X75279706Y-70876000D01*
X75270489Y-70782414D01*
X75243191Y-70692424D01*
X75198861Y-70609490D01*
X75139203Y-70536797D01*
X75066510Y-70477139D01*
X74983576Y-70432809D01*
X74893586Y-70405511D01*
X74800000Y-70396294D01*
X74050000Y-70396294D01*
X73956414Y-70405511D01*
X73866424Y-70432809D01*
X73783490Y-70477139D01*
X73710797Y-70536797D01*
X73651139Y-70609490D01*
X73606809Y-70692424D01*
X73579511Y-70782414D01*
X73570294Y-70876000D01*
X73570294Y-72126000D01*
X73579511Y-72219586D01*
X73606809Y-72309576D01*
X73651139Y-72392510D01*
X73710797Y-72465203D01*
X73783490Y-72524861D01*
X73866424Y-72569191D01*
X73956414Y-72596489D01*
X74050000Y-72605706D01*
X74800000Y-72605706D01*
X74893586Y-72596489D01*
X74983576Y-72569191D01*
X75066510Y-72524861D01*
X75139203Y-72465203D01*
X75198861Y-72392510D01*
X75243191Y-72309576D01*
X75265025Y-72237600D01*
X79986295Y-72237600D01*
X80010000Y-72239935D01*
X80033705Y-72237600D01*
X80033707Y-72237600D01*
X80104606Y-72230617D01*
X80195577Y-72203022D01*
X80279415Y-72158209D01*
X80352901Y-72097901D01*
X80368017Y-72079482D01*
X80715482Y-71732017D01*
X80733901Y-71716901D01*
X80794209Y-71643415D01*
X80839022Y-71559577D01*
X80866617Y-71468606D01*
X80873600Y-71397707D01*
X80873600Y-71397698D01*
X80875934Y-71374001D01*
X80873600Y-71350304D01*
X80873600Y-68222696D01*
X80875934Y-68198999D01*
X80873600Y-68175302D01*
X80873600Y-68175293D01*
X80866617Y-68104394D01*
X80839022Y-68013423D01*
X80794209Y-67929585D01*
X80733901Y-67856099D01*
X80715482Y-67840983D01*
X80391017Y-67516518D01*
X80375901Y-67498099D01*
X80302415Y-67437791D01*
X80218577Y-67392978D01*
X80127606Y-67365383D01*
X80056707Y-67358400D01*
X80056705Y-67358400D01*
X80033000Y-67356065D01*
X80009295Y-67358400D01*
X79890346Y-67358400D01*
X79880118Y-67350006D01*
X79840405Y-67328779D01*
X79797313Y-67315708D01*
X79752500Y-67311294D01*
X78202500Y-67311294D01*
X78157687Y-67315708D01*
X78114595Y-67328779D01*
X78074882Y-67350006D01*
X78040073Y-67378573D01*
X78011506Y-67413382D01*
X77990279Y-67453095D01*
X77977208Y-67496187D01*
X77972794Y-67541000D01*
X77972794Y-68141000D01*
X77977208Y-68185813D01*
X77990279Y-68228905D01*
X78011506Y-68268618D01*
X78040073Y-68303427D01*
X78074882Y-68331994D01*
X78091731Y-68341000D01*
X78074882Y-68350006D01*
X78040073Y-68378573D01*
X78011506Y-68413382D01*
X77990279Y-68453095D01*
X77977208Y-68496187D01*
X77972794Y-68541000D01*
X77972794Y-68587962D01*
X77972337Y-68588337D01*
X77961206Y-68601900D01*
X77830707Y-68732400D01*
X77489794Y-68732400D01*
X77359304Y-68601911D01*
X77359295Y-68601900D01*
X77225291Y-68467896D01*
X77214163Y-68454337D01*
X77200603Y-68443209D01*
X76822994Y-68065600D01*
X76896912Y-68065600D01*
X77018356Y-68041444D01*
X77132754Y-67994059D01*
X77235709Y-67925266D01*
X77323266Y-67837709D01*
X77392059Y-67734754D01*
X77439444Y-67620356D01*
X77463600Y-67498912D01*
X77463600Y-67375088D01*
X77439444Y-67253644D01*
X77392059Y-67139246D01*
X77323266Y-67036291D01*
X77235709Y-66948734D01*
X77132754Y-66879941D01*
X77018356Y-66832556D01*
X76896912Y-66808400D01*
X76773088Y-66808400D01*
X76651644Y-66832556D01*
X76537246Y-66879941D01*
X76454874Y-66934980D01*
X76358100Y-66838207D01*
X76358100Y-65225452D01*
X76359819Y-65207999D01*
X76358100Y-65190546D01*
X76358100Y-65190537D01*
X76352954Y-65138290D01*
X76332898Y-65072174D01*
X76386945Y-65066851D01*
X76444106Y-65049512D01*
X76496786Y-65021354D01*
X76502500Y-65016665D01*
X76508214Y-65021354D01*
X76560894Y-65049512D01*
X76618055Y-65066851D01*
X76677500Y-65072706D01*
X76827500Y-65072706D01*
X76886945Y-65066851D01*
X76944106Y-65049512D01*
X76969901Y-65035724D01*
X76969901Y-65276000D01*
X76912941Y-65361246D01*
X76865556Y-65475644D01*
X76841400Y-65597088D01*
X76841400Y-65720912D01*
X76865556Y-65842356D01*
X76912941Y-65956754D01*
X76981734Y-66059709D01*
X77069291Y-66147266D01*
X77172246Y-66216059D01*
X77286644Y-66263444D01*
X77408088Y-66287600D01*
X77531912Y-66287600D01*
X77653356Y-66263444D01*
X77767754Y-66216059D01*
X77870709Y-66147266D01*
X77958266Y-66059709D01*
X78027059Y-65956754D01*
X78074444Y-65842356D01*
X78098600Y-65720912D01*
X78098600Y-65597088D01*
X78074444Y-65475644D01*
X78027059Y-65361246D01*
X77958266Y-65258291D01*
X77935100Y-65235125D01*
X77935100Y-64872362D01*
X77953303Y-64838307D01*
X77974910Y-64767077D01*
X77982206Y-64693000D01*
X77982206Y-63543000D01*
X77974910Y-63468923D01*
X77953303Y-63397693D01*
X77925458Y-63345600D01*
X77947025Y-63345600D01*
X78053979Y-63324326D01*
X78154728Y-63282594D01*
X78245400Y-63222009D01*
X78322509Y-63144900D01*
X78383094Y-63054228D01*
X78424826Y-62953479D01*
X78446100Y-62846525D01*
X78446100Y-62737475D01*
X78424826Y-62630521D01*
X78383094Y-62529772D01*
X78322509Y-62439100D01*
X78245400Y-62361991D01*
X78154728Y-62301406D01*
X78053979Y-62259674D01*
X77947025Y-62238400D01*
X77837975Y-62238400D01*
X77731021Y-62259674D01*
X77691243Y-62276151D01*
X77943794Y-62023600D01*
X79554207Y-62023600D01*
X80107900Y-62577294D01*
X80107901Y-63036535D01*
X80106181Y-63054000D01*
X80113046Y-63123710D01*
X80133380Y-63190741D01*
X80139821Y-63202790D01*
X80166400Y-63252516D01*
X80176959Y-63265382D01*
X80197897Y-63290894D01*
X80210838Y-63306663D01*
X80224401Y-63317794D01*
X80772794Y-63866188D01*
X80772794Y-64293000D01*
X80777208Y-64337813D01*
X80790279Y-64380905D01*
X80811506Y-64420618D01*
X80840073Y-64455427D01*
X80874882Y-64483994D01*
X80914595Y-64505221D01*
X80957687Y-64518292D01*
X81002500Y-64522706D01*
X81502500Y-64522706D01*
X81547313Y-64518292D01*
X81590405Y-64505221D01*
X81630118Y-64483994D01*
X81664927Y-64455427D01*
X81693494Y-64420618D01*
X81714721Y-64380905D01*
X81727792Y-64337813D01*
X81732206Y-64293000D01*
X81732206Y-63393000D01*
X81727792Y-63348187D01*
X81714721Y-63305095D01*
X81693494Y-63265382D01*
X81664927Y-63230573D01*
X81630118Y-63202006D01*
X81590405Y-63180779D01*
X81547313Y-63167708D01*
X81502500Y-63163294D01*
X81075687Y-63163294D01*
X80819100Y-62906707D01*
X80819100Y-62729871D01*
X80840073Y-62755427D01*
X80874882Y-62783994D01*
X80914595Y-62805221D01*
X80957687Y-62818292D01*
X81002500Y-62822706D01*
X81502500Y-62822706D01*
X81547313Y-62818292D01*
X81590405Y-62805221D01*
X81630118Y-62783994D01*
X81664927Y-62755427D01*
X81693494Y-62720618D01*
X81714721Y-62680905D01*
X81727792Y-62637813D01*
X81732206Y-62593000D01*
X81732206Y-61693000D01*
X81727792Y-61648187D01*
X81714721Y-61605095D01*
X81693494Y-61565382D01*
X81664927Y-61530573D01*
X81630118Y-61502006D01*
X81590405Y-61480779D01*
X81547313Y-61467708D01*
X81502500Y-61463294D01*
X81002500Y-61463294D01*
X80957687Y-61467708D01*
X80914595Y-61480779D01*
X80874882Y-61502006D01*
X80840073Y-61530573D01*
X80835292Y-61536399D01*
X80219799Y-60920906D01*
X80208663Y-60907337D01*
X80154516Y-60862899D01*
X80092740Y-60829879D01*
X80025710Y-60809546D01*
X79973463Y-60804400D01*
X79973455Y-60804400D01*
X79956000Y-60802681D01*
X79938545Y-60804400D01*
X75382455Y-60804400D01*
X75364999Y-60802681D01*
X75347544Y-60804400D01*
X75347537Y-60804400D01*
X75302187Y-60808867D01*
X75295289Y-60809546D01*
X75266102Y-60818400D01*
X75228260Y-60829879D01*
X75166484Y-60862899D01*
X75166482Y-60862900D01*
X75166483Y-60862900D01*
X75125900Y-60896205D01*
X75125895Y-60896210D01*
X75112337Y-60907337D01*
X75101210Y-60920895D01*
X73013401Y-63008706D01*
X72999838Y-63019837D01*
X72955400Y-63073984D01*
X72922379Y-63135760D01*
X72902046Y-63202790D01*
X72900324Y-63220269D01*
X72869324Y-63203698D01*
X72821915Y-63164791D01*
X72738076Y-63119978D01*
X72647105Y-63092383D01*
X72581891Y-63085960D01*
X72603094Y-63054228D01*
X72644826Y-62953479D01*
X72666100Y-62846525D01*
X72666100Y-62737475D01*
X72644826Y-62630521D01*
X72603094Y-62529772D01*
X72542509Y-62439100D01*
X72465400Y-62361991D01*
X72374728Y-62301406D01*
X72273979Y-62259674D01*
X72167025Y-62238400D01*
X72057975Y-62238400D01*
X71951021Y-62259674D01*
X71850272Y-62301406D01*
X71759600Y-62361991D01*
X71682491Y-62439100D01*
X71621906Y-62529772D01*
X71580174Y-62630521D01*
X71558900Y-62737475D01*
X71558900Y-62846525D01*
X71580174Y-62953479D01*
X71621906Y-63054228D01*
X71682491Y-63144900D01*
X71759600Y-63222009D01*
X71850272Y-63282594D01*
X71951021Y-63324326D01*
X72057975Y-63345600D01*
X72079542Y-63345600D01*
X72051697Y-63397693D01*
X72030090Y-63468923D01*
X72022794Y-63543000D01*
X72022794Y-64693000D01*
X72030090Y-64767077D01*
X72051697Y-64838307D01*
X72069901Y-64872364D01*
X72069901Y-64915599D01*
X71936101Y-65049400D01*
X70684900Y-65049400D01*
X69951600Y-64316101D01*
X69951600Y-63409204D01*
X69953935Y-63385499D01*
X69948670Y-63332047D01*
X69944617Y-63290894D01*
X69917022Y-63199923D01*
X69872209Y-63116085D01*
X69811901Y-63042599D01*
X69793488Y-63027488D01*
X68990974Y-62224974D01*
X68995206Y-62182000D01*
X68995206Y-61432000D01*
X68985989Y-61338414D01*
X68958691Y-61248424D01*
X68914361Y-61165490D01*
X68854703Y-61092797D01*
X68782010Y-61033139D01*
X68699076Y-60988809D01*
X68609086Y-60961511D01*
X68515500Y-60952294D01*
X67265500Y-60952294D01*
X67171914Y-60961511D01*
X67081924Y-60988809D01*
X66998990Y-61033139D01*
X66926297Y-61092797D01*
X66866639Y-61165490D01*
X66822309Y-61248424D01*
X66795011Y-61338414D01*
X66785794Y-61432000D01*
X66785794Y-62182000D01*
X66795011Y-62275586D01*
X66822309Y-62365576D01*
X66866639Y-62448510D01*
X66926297Y-62521203D01*
X66998990Y-62580861D01*
X67081924Y-62625191D01*
X67171914Y-62652489D01*
X67265500Y-62661706D01*
X68062707Y-62661706D01*
X68986401Y-63585401D01*
X68986400Y-64142591D01*
X68985989Y-64138414D01*
X68958691Y-64048424D01*
X68914361Y-63965490D01*
X68854703Y-63892797D01*
X68782010Y-63833139D01*
X68699076Y-63788809D01*
X68609086Y-63761511D01*
X68515500Y-63752294D01*
X67265500Y-63752294D01*
X67171914Y-63761511D01*
X67081924Y-63788809D01*
X66998990Y-63833139D01*
X66926297Y-63892797D01*
X66866639Y-63965490D01*
X66822309Y-64048424D01*
X66795011Y-64138414D01*
X66785794Y-64232000D01*
X66785794Y-64982000D01*
X66795011Y-65075586D01*
X66822309Y-65165576D01*
X66866639Y-65248510D01*
X66926297Y-65321203D01*
X66998990Y-65380861D01*
X67026901Y-65395780D01*
X67026900Y-66123013D01*
X66992990Y-66141139D01*
X66920297Y-66200797D01*
X66860639Y-66273490D01*
X66816309Y-66356424D01*
X66789011Y-66446414D01*
X66779794Y-66540000D01*
X66308100Y-66540000D01*
X66308100Y-60136343D01*
X66521634Y-60349877D01*
X66902631Y-60604451D01*
X67325973Y-60779805D01*
X67775389Y-60869200D01*
X68233611Y-60869200D01*
X68683027Y-60779805D01*
X69106369Y-60604451D01*
X69487366Y-60349877D01*
X69811377Y-60025866D01*
X70065951Y-59644869D01*
X70241305Y-59221527D01*
X70330700Y-58772111D01*
X70330700Y-58313889D01*
X70241305Y-57864473D01*
X70065951Y-57441131D01*
X69811377Y-57060134D01*
X69597843Y-56846600D01*
X81989652Y-56846600D01*
X82333717Y-56880336D01*
X82333717Y-56880336D01*
G37*
X82333717Y-56880336D02*
X82650391Y-56975945D01*
X82942466Y-57131244D01*
X83198814Y-57340317D01*
X83409674Y-57595202D01*
X83567004Y-57886178D01*
X83664825Y-58202186D01*
X83700901Y-58545421D01*
X83699876Y-65711294D01*
X81952500Y-65711294D01*
X81907687Y-65715708D01*
X81864595Y-65728779D01*
X81824882Y-65750006D01*
X81790073Y-65778573D01*
X81761506Y-65813382D01*
X81740279Y-65853095D01*
X81727208Y-65896187D01*
X81722794Y-65941000D01*
X81722794Y-67141000D01*
X81727208Y-67185813D01*
X81740279Y-67228905D01*
X81761506Y-67268618D01*
X81790073Y-67303427D01*
X81824882Y-67331994D01*
X81864595Y-67353221D01*
X81907687Y-67366292D01*
X81952500Y-67370706D01*
X83699639Y-67370706D01*
X83699076Y-71311294D01*
X81952500Y-71311294D01*
X81907687Y-71315708D01*
X81864595Y-71328779D01*
X81824882Y-71350006D01*
X81790073Y-71378573D01*
X81761506Y-71413382D01*
X81740279Y-71453095D01*
X81727208Y-71496187D01*
X81722794Y-71541000D01*
X81722794Y-72739400D01*
X69607157Y-72739400D01*
X69815591Y-72530966D01*
X70071041Y-72148658D01*
X70246998Y-71723861D01*
X70336700Y-71272899D01*
X70336700Y-70813101D01*
X70246998Y-70362139D01*
X70071041Y-69937342D01*
X69815591Y-69555034D01*
X69490466Y-69229909D01*
X69108158Y-68974459D01*
X68683361Y-68798502D01*
X68232399Y-68708800D01*
X67772601Y-68708800D01*
X67321639Y-68798502D01*
X66896842Y-68974459D01*
X66514534Y-69229909D01*
X66308100Y-69436343D01*
X66308100Y-66540000D01*
X66779794Y-66540000D01*
X66779794Y-67240000D01*
X66789011Y-67333586D01*
X66816309Y-67423576D01*
X66860639Y-67506510D01*
X66920297Y-67579203D01*
X66992990Y-67638861D01*
X67075924Y-67683191D01*
X67165914Y-67710489D01*
X67259500Y-67719706D01*
X67759500Y-67719706D01*
X67853086Y-67710489D01*
X67943076Y-67683191D01*
X68026010Y-67638861D01*
X68098703Y-67579203D01*
X68158361Y-67506510D01*
X68180184Y-67465683D01*
X69237986Y-68523486D01*
X69253099Y-68541901D01*
X69326585Y-68602209D01*
X69392216Y-68637290D01*
X69410423Y-68647022D01*
X69501393Y-68674617D01*
X69596000Y-68683935D01*
X69619707Y-68681600D01*
X71555101Y-68681600D01*
X72920983Y-70047482D01*
X72936099Y-70065901D01*
X73009585Y-70126209D01*
X73093423Y-70171022D01*
X73184394Y-70198617D01*
X73255293Y-70205600D01*
X73255302Y-70205600D01*
X73278999Y-70207934D01*
X73302696Y-70205600D01*
X75174601Y-70205600D01*
X76134488Y-71165488D01*
X76149599Y-71183901D01*
X76223085Y-71244209D01*
X76275826Y-71272400D01*
X75279706Y-71272400D01*
X75279706Y-70876000D01*
X75270489Y-70782414D01*
X75243191Y-70692424D01*
X75198861Y-70609490D01*
X75139203Y-70536797D01*
X75066510Y-70477139D01*
X74983576Y-70432809D01*
X74893586Y-70405511D01*
X74800000Y-70396294D01*
X74050000Y-70396294D01*
X73956414Y-70405511D01*
X73866424Y-70432809D01*
X73783490Y-70477139D01*
X73710797Y-70536797D01*
X73651139Y-70609490D01*
X73606809Y-70692424D01*
X73579511Y-70782414D01*
X73570294Y-70876000D01*
X73570294Y-72126000D01*
X73579511Y-72219586D01*
X73606809Y-72309576D01*
X73651139Y-72392510D01*
X73710797Y-72465203D01*
X73783490Y-72524861D01*
X73866424Y-72569191D01*
X73956414Y-72596489D01*
X74050000Y-72605706D01*
X74800000Y-72605706D01*
X74893586Y-72596489D01*
X74983576Y-72569191D01*
X75066510Y-72524861D01*
X75139203Y-72465203D01*
X75198861Y-72392510D01*
X75243191Y-72309576D01*
X75265025Y-72237600D01*
X79986295Y-72237600D01*
X80010000Y-72239935D01*
X80033705Y-72237600D01*
X80033707Y-72237600D01*
X80104606Y-72230617D01*
X80195577Y-72203022D01*
X80279415Y-72158209D01*
X80352901Y-72097901D01*
X80368017Y-72079482D01*
X80715482Y-71732017D01*
X80733901Y-71716901D01*
X80794209Y-71643415D01*
X80839022Y-71559577D01*
X80866617Y-71468606D01*
X80873600Y-71397707D01*
X80873600Y-71397698D01*
X80875934Y-71374001D01*
X80873600Y-71350304D01*
X80873600Y-68222696D01*
X80875934Y-68198999D01*
X80873600Y-68175302D01*
X80873600Y-68175293D01*
X80866617Y-68104394D01*
X80839022Y-68013423D01*
X80794209Y-67929585D01*
X80733901Y-67856099D01*
X80715482Y-67840983D01*
X80391017Y-67516518D01*
X80375901Y-67498099D01*
X80302415Y-67437791D01*
X80218577Y-67392978D01*
X80127606Y-67365383D01*
X80056707Y-67358400D01*
X80056705Y-67358400D01*
X80033000Y-67356065D01*
X80009295Y-67358400D01*
X79890346Y-67358400D01*
X79880118Y-67350006D01*
X79840405Y-67328779D01*
X79797313Y-67315708D01*
X79752500Y-67311294D01*
X78202500Y-67311294D01*
X78157687Y-67315708D01*
X78114595Y-67328779D01*
X78074882Y-67350006D01*
X78040073Y-67378573D01*
X78011506Y-67413382D01*
X77990279Y-67453095D01*
X77977208Y-67496187D01*
X77972794Y-67541000D01*
X77972794Y-68141000D01*
X77977208Y-68185813D01*
X77990279Y-68228905D01*
X78011506Y-68268618D01*
X78040073Y-68303427D01*
X78074882Y-68331994D01*
X78091731Y-68341000D01*
X78074882Y-68350006D01*
X78040073Y-68378573D01*
X78011506Y-68413382D01*
X77990279Y-68453095D01*
X77977208Y-68496187D01*
X77972794Y-68541000D01*
X77972794Y-68587962D01*
X77972337Y-68588337D01*
X77961206Y-68601900D01*
X77830707Y-68732400D01*
X77489794Y-68732400D01*
X77359304Y-68601911D01*
X77359295Y-68601900D01*
X77225291Y-68467896D01*
X77214163Y-68454337D01*
X77200603Y-68443209D01*
X76822994Y-68065600D01*
X76896912Y-68065600D01*
X77018356Y-68041444D01*
X77132754Y-67994059D01*
X77235709Y-67925266D01*
X77323266Y-67837709D01*
X77392059Y-67734754D01*
X77439444Y-67620356D01*
X77463600Y-67498912D01*
X77463600Y-67375088D01*
X77439444Y-67253644D01*
X77392059Y-67139246D01*
X77323266Y-67036291D01*
X77235709Y-66948734D01*
X77132754Y-66879941D01*
X77018356Y-66832556D01*
X76896912Y-66808400D01*
X76773088Y-66808400D01*
X76651644Y-66832556D01*
X76537246Y-66879941D01*
X76454874Y-66934980D01*
X76358100Y-66838207D01*
X76358100Y-65225452D01*
X76359819Y-65207999D01*
X76358100Y-65190546D01*
X76358100Y-65190537D01*
X76352954Y-65138290D01*
X76332898Y-65072174D01*
X76386945Y-65066851D01*
X76444106Y-65049512D01*
X76496786Y-65021354D01*
X76502500Y-65016665D01*
X76508214Y-65021354D01*
X76560894Y-65049512D01*
X76618055Y-65066851D01*
X76677500Y-65072706D01*
X76827500Y-65072706D01*
X76886945Y-65066851D01*
X76944106Y-65049512D01*
X76969901Y-65035724D01*
X76969901Y-65276000D01*
X76912941Y-65361246D01*
X76865556Y-65475644D01*
X76841400Y-65597088D01*
X76841400Y-65720912D01*
X76865556Y-65842356D01*
X76912941Y-65956754D01*
X76981734Y-66059709D01*
X77069291Y-66147266D01*
X77172246Y-66216059D01*
X77286644Y-66263444D01*
X77408088Y-66287600D01*
X77531912Y-66287600D01*
X77653356Y-66263444D01*
X77767754Y-66216059D01*
X77870709Y-66147266D01*
X77958266Y-66059709D01*
X78027059Y-65956754D01*
X78074444Y-65842356D01*
X78098600Y-65720912D01*
X78098600Y-65597088D01*
X78074444Y-65475644D01*
X78027059Y-65361246D01*
X77958266Y-65258291D01*
X77935100Y-65235125D01*
X77935100Y-64872362D01*
X77953303Y-64838307D01*
X77974910Y-64767077D01*
X77982206Y-64693000D01*
X77982206Y-63543000D01*
X77974910Y-63468923D01*
X77953303Y-63397693D01*
X77925458Y-63345600D01*
X77947025Y-63345600D01*
X78053979Y-63324326D01*
X78154728Y-63282594D01*
X78245400Y-63222009D01*
X78322509Y-63144900D01*
X78383094Y-63054228D01*
X78424826Y-62953479D01*
X78446100Y-62846525D01*
X78446100Y-62737475D01*
X78424826Y-62630521D01*
X78383094Y-62529772D01*
X78322509Y-62439100D01*
X78245400Y-62361991D01*
X78154728Y-62301406D01*
X78053979Y-62259674D01*
X77947025Y-62238400D01*
X77837975Y-62238400D01*
X77731021Y-62259674D01*
X77691243Y-62276151D01*
X77943794Y-62023600D01*
X79554207Y-62023600D01*
X80107900Y-62577294D01*
X80107901Y-63036535D01*
X80106181Y-63054000D01*
X80113046Y-63123710D01*
X80133380Y-63190741D01*
X80139821Y-63202790D01*
X80166400Y-63252516D01*
X80176959Y-63265382D01*
X80197897Y-63290894D01*
X80210838Y-63306663D01*
X80224401Y-63317794D01*
X80772794Y-63866188D01*
X80772794Y-64293000D01*
X80777208Y-64337813D01*
X80790279Y-64380905D01*
X80811506Y-64420618D01*
X80840073Y-64455427D01*
X80874882Y-64483994D01*
X80914595Y-64505221D01*
X80957687Y-64518292D01*
X81002500Y-64522706D01*
X81502500Y-64522706D01*
X81547313Y-64518292D01*
X81590405Y-64505221D01*
X81630118Y-64483994D01*
X81664927Y-64455427D01*
X81693494Y-64420618D01*
X81714721Y-64380905D01*
X81727792Y-64337813D01*
X81732206Y-64293000D01*
X81732206Y-63393000D01*
X81727792Y-63348187D01*
X81714721Y-63305095D01*
X81693494Y-63265382D01*
X81664927Y-63230573D01*
X81630118Y-63202006D01*
X81590405Y-63180779D01*
X81547313Y-63167708D01*
X81502500Y-63163294D01*
X81075687Y-63163294D01*
X80819100Y-62906707D01*
X80819100Y-62729871D01*
X80840073Y-62755427D01*
X80874882Y-62783994D01*
X80914595Y-62805221D01*
X80957687Y-62818292D01*
X81002500Y-62822706D01*
X81502500Y-62822706D01*
X81547313Y-62818292D01*
X81590405Y-62805221D01*
X81630118Y-62783994D01*
X81664927Y-62755427D01*
X81693494Y-62720618D01*
X81714721Y-62680905D01*
X81727792Y-62637813D01*
X81732206Y-62593000D01*
X81732206Y-61693000D01*
X81727792Y-61648187D01*
X81714721Y-61605095D01*
X81693494Y-61565382D01*
X81664927Y-61530573D01*
X81630118Y-61502006D01*
X81590405Y-61480779D01*
X81547313Y-61467708D01*
X81502500Y-61463294D01*
X81002500Y-61463294D01*
X80957687Y-61467708D01*
X80914595Y-61480779D01*
X80874882Y-61502006D01*
X80840073Y-61530573D01*
X80835292Y-61536399D01*
X80219799Y-60920906D01*
X80208663Y-60907337D01*
X80154516Y-60862899D01*
X80092740Y-60829879D01*
X80025710Y-60809546D01*
X79973463Y-60804400D01*
X79973455Y-60804400D01*
X79956000Y-60802681D01*
X79938545Y-60804400D01*
X75382455Y-60804400D01*
X75364999Y-60802681D01*
X75347544Y-60804400D01*
X75347537Y-60804400D01*
X75302187Y-60808867D01*
X75295289Y-60809546D01*
X75266102Y-60818400D01*
X75228260Y-60829879D01*
X75166484Y-60862899D01*
X75166482Y-60862900D01*
X75166483Y-60862900D01*
X75125900Y-60896205D01*
X75125895Y-60896210D01*
X75112337Y-60907337D01*
X75101210Y-60920895D01*
X73013401Y-63008706D01*
X72999838Y-63019837D01*
X72955400Y-63073984D01*
X72922379Y-63135760D01*
X72902046Y-63202790D01*
X72900324Y-63220269D01*
X72869324Y-63203698D01*
X72821915Y-63164791D01*
X72738076Y-63119978D01*
X72647105Y-63092383D01*
X72581891Y-63085960D01*
X72603094Y-63054228D01*
X72644826Y-62953479D01*
X72666100Y-62846525D01*
X72666100Y-62737475D01*
X72644826Y-62630521D01*
X72603094Y-62529772D01*
X72542509Y-62439100D01*
X72465400Y-62361991D01*
X72374728Y-62301406D01*
X72273979Y-62259674D01*
X72167025Y-62238400D01*
X72057975Y-62238400D01*
X71951021Y-62259674D01*
X71850272Y-62301406D01*
X71759600Y-62361991D01*
X71682491Y-62439100D01*
X71621906Y-62529772D01*
X71580174Y-62630521D01*
X71558900Y-62737475D01*
X71558900Y-62846525D01*
X71580174Y-62953479D01*
X71621906Y-63054228D01*
X71682491Y-63144900D01*
X71759600Y-63222009D01*
X71850272Y-63282594D01*
X71951021Y-63324326D01*
X72057975Y-63345600D01*
X72079542Y-63345600D01*
X72051697Y-63397693D01*
X72030090Y-63468923D01*
X72022794Y-63543000D01*
X72022794Y-64693000D01*
X72030090Y-64767077D01*
X72051697Y-64838307D01*
X72069901Y-64872364D01*
X72069901Y-64915599D01*
X71936101Y-65049400D01*
X70684900Y-65049400D01*
X69951600Y-64316101D01*
X69951600Y-63409204D01*
X69953935Y-63385499D01*
X69948670Y-63332047D01*
X69944617Y-63290894D01*
X69917022Y-63199923D01*
X69872209Y-63116085D01*
X69811901Y-63042599D01*
X69793488Y-63027488D01*
X68990974Y-62224974D01*
X68995206Y-62182000D01*
X68995206Y-61432000D01*
X68985989Y-61338414D01*
X68958691Y-61248424D01*
X68914361Y-61165490D01*
X68854703Y-61092797D01*
X68782010Y-61033139D01*
X68699076Y-60988809D01*
X68609086Y-60961511D01*
X68515500Y-60952294D01*
X67265500Y-60952294D01*
X67171914Y-60961511D01*
X67081924Y-60988809D01*
X66998990Y-61033139D01*
X66926297Y-61092797D01*
X66866639Y-61165490D01*
X66822309Y-61248424D01*
X66795011Y-61338414D01*
X66785794Y-61432000D01*
X66785794Y-62182000D01*
X66795011Y-62275586D01*
X66822309Y-62365576D01*
X66866639Y-62448510D01*
X66926297Y-62521203D01*
X66998990Y-62580861D01*
X67081924Y-62625191D01*
X67171914Y-62652489D01*
X67265500Y-62661706D01*
X68062707Y-62661706D01*
X68986401Y-63585401D01*
X68986400Y-64142591D01*
X68985989Y-64138414D01*
X68958691Y-64048424D01*
X68914361Y-63965490D01*
X68854703Y-63892797D01*
X68782010Y-63833139D01*
X68699076Y-63788809D01*
X68609086Y-63761511D01*
X68515500Y-63752294D01*
X67265500Y-63752294D01*
X67171914Y-63761511D01*
X67081924Y-63788809D01*
X66998990Y-63833139D01*
X66926297Y-63892797D01*
X66866639Y-63965490D01*
X66822309Y-64048424D01*
X66795011Y-64138414D01*
X66785794Y-64232000D01*
X66785794Y-64982000D01*
X66795011Y-65075586D01*
X66822309Y-65165576D01*
X66866639Y-65248510D01*
X66926297Y-65321203D01*
X66998990Y-65380861D01*
X67026901Y-65395780D01*
X67026900Y-66123013D01*
X66992990Y-66141139D01*
X66920297Y-66200797D01*
X66860639Y-66273490D01*
X66816309Y-66356424D01*
X66789011Y-66446414D01*
X66779794Y-66540000D01*
X66308100Y-66540000D01*
X66308100Y-60136343D01*
X66521634Y-60349877D01*
X66902631Y-60604451D01*
X67325973Y-60779805D01*
X67775389Y-60869200D01*
X68233611Y-60869200D01*
X68683027Y-60779805D01*
X69106369Y-60604451D01*
X69487366Y-60349877D01*
X69811377Y-60025866D01*
X70065951Y-59644869D01*
X70241305Y-59221527D01*
X70330700Y-58772111D01*
X70330700Y-58313889D01*
X70241305Y-57864473D01*
X70065951Y-57441131D01*
X69811377Y-57060134D01*
X69597843Y-56846600D01*
X81989652Y-56846600D01*
X82333717Y-56880336D01*
G36*
X69020978Y-64701576D02*
G01*
X69065791Y-64785415D01*
X69126099Y-64858901D01*
X69144518Y-64874017D01*
X70126986Y-65856486D01*
X70142099Y-65874901D01*
X70215585Y-65935209D01*
X70273164Y-65965986D01*
X70299423Y-65980022D01*
X70390393Y-66007617D01*
X70485000Y-66016935D01*
X70508707Y-66014600D01*
X72112295Y-66014600D01*
X72136000Y-66016935D01*
X72159705Y-66014600D01*
X72252593Y-66014600D01*
X72282734Y-66059709D01*
X72370291Y-66147266D01*
X72473246Y-66216059D01*
X72587644Y-66263444D01*
X72709088Y-66287600D01*
X72832912Y-66287600D01*
X72954356Y-66263444D01*
X73068754Y-66216059D01*
X73171709Y-66147266D01*
X73259266Y-66059709D01*
X73328059Y-65956754D01*
X73375444Y-65842356D01*
X73399600Y-65720912D01*
X73399600Y-65597088D01*
X73375444Y-65475644D01*
X73328059Y-65361246D01*
X73259266Y-65258291D01*
X73171709Y-65170734D01*
X73068754Y-65101941D01*
X73035100Y-65088001D01*
X73035100Y-65035725D01*
X73060894Y-65049512D01*
X73118055Y-65066851D01*
X73177500Y-65072706D01*
X73327500Y-65072706D01*
X73386945Y-65066851D01*
X73444106Y-65049512D01*
X73496786Y-65021354D01*
X73502500Y-65016665D01*
X73508214Y-65021354D01*
X73560894Y-65049512D01*
X73618055Y-65066851D01*
X73672102Y-65072174D01*
X73660900Y-65109103D01*
X73652047Y-65138289D01*
X73652046Y-65138291D01*
X73646900Y-65190538D01*
X73646900Y-65190545D01*
X73645181Y-65208000D01*
X73646900Y-65225456D01*
X73646901Y-65940528D01*
X73646900Y-65940538D01*
X73646901Y-66710528D01*
X73646900Y-66710538D01*
X73646900Y-66820206D01*
X73484401Y-66982706D01*
X73470837Y-66993838D01*
X73426399Y-67047985D01*
X73393379Y-67109761D01*
X73387599Y-67128815D01*
X73376315Y-67166016D01*
X73373046Y-67176791D01*
X73367900Y-67229038D01*
X73367900Y-67229045D01*
X73366181Y-67246500D01*
X73367900Y-67263956D01*
X73367901Y-68379092D01*
X73322791Y-68409234D01*
X73235234Y-68496791D01*
X73166441Y-68599746D01*
X73119056Y-68714144D01*
X73094900Y-68835588D01*
X73094900Y-68856401D01*
X72113017Y-67874518D01*
X72097901Y-67856099D01*
X72024415Y-67795791D01*
X71940577Y-67750978D01*
X71849606Y-67723383D01*
X71778707Y-67716400D01*
X71778705Y-67716400D01*
X71755000Y-67714065D01*
X71731295Y-67716400D01*
X69795900Y-67716400D01*
X68645017Y-66565518D01*
X68629901Y-66547099D01*
X68556415Y-66486791D01*
X68472577Y-66441978D01*
X68381606Y-66414383D01*
X68310707Y-66407400D01*
X68310705Y-66407400D01*
X68287000Y-66405065D01*
X68263295Y-66407400D01*
X68218154Y-66407400D01*
X68202691Y-66356424D01*
X68158361Y-66273490D01*
X68098703Y-66200797D01*
X68026010Y-66141139D01*
X67992100Y-66123013D01*
X67992100Y-65461706D01*
X68515500Y-65461706D01*
X68609086Y-65452489D01*
X68699076Y-65425191D01*
X68782010Y-65380861D01*
X68854703Y-65321203D01*
X68914361Y-65248510D01*
X68958691Y-65165576D01*
X68985989Y-65075586D01*
X68995206Y-64982000D01*
X68995206Y-64616615D01*
X69020978Y-64701576D01*
X69020978Y-64701576D01*
G37*
X69020978Y-64701576D02*
X69065791Y-64785415D01*
X69126099Y-64858901D01*
X69144518Y-64874017D01*
X70126986Y-65856486D01*
X70142099Y-65874901D01*
X70215585Y-65935209D01*
X70273164Y-65965986D01*
X70299423Y-65980022D01*
X70390393Y-66007617D01*
X70485000Y-66016935D01*
X70508707Y-66014600D01*
X72112295Y-66014600D01*
X72136000Y-66016935D01*
X72159705Y-66014600D01*
X72252593Y-66014600D01*
X72282734Y-66059709D01*
X72370291Y-66147266D01*
X72473246Y-66216059D01*
X72587644Y-66263444D01*
X72709088Y-66287600D01*
X72832912Y-66287600D01*
X72954356Y-66263444D01*
X73068754Y-66216059D01*
X73171709Y-66147266D01*
X73259266Y-66059709D01*
X73328059Y-65956754D01*
X73375444Y-65842356D01*
X73399600Y-65720912D01*
X73399600Y-65597088D01*
X73375444Y-65475644D01*
X73328059Y-65361246D01*
X73259266Y-65258291D01*
X73171709Y-65170734D01*
X73068754Y-65101941D01*
X73035100Y-65088001D01*
X73035100Y-65035725D01*
X73060894Y-65049512D01*
X73118055Y-65066851D01*
X73177500Y-65072706D01*
X73327500Y-65072706D01*
X73386945Y-65066851D01*
X73444106Y-65049512D01*
X73496786Y-65021354D01*
X73502500Y-65016665D01*
X73508214Y-65021354D01*
X73560894Y-65049512D01*
X73618055Y-65066851D01*
X73672102Y-65072174D01*
X73660900Y-65109103D01*
X73652047Y-65138289D01*
X73652046Y-65138291D01*
X73646900Y-65190538D01*
X73646900Y-65190545D01*
X73645181Y-65208000D01*
X73646900Y-65225456D01*
X73646901Y-65940528D01*
X73646900Y-65940538D01*
X73646901Y-66710528D01*
X73646900Y-66710538D01*
X73646900Y-66820206D01*
X73484401Y-66982706D01*
X73470837Y-66993838D01*
X73426399Y-67047985D01*
X73393379Y-67109761D01*
X73387599Y-67128815D01*
X73376315Y-67166016D01*
X73373046Y-67176791D01*
X73367900Y-67229038D01*
X73367900Y-67229045D01*
X73366181Y-67246500D01*
X73367900Y-67263956D01*
X73367901Y-68379092D01*
X73322791Y-68409234D01*
X73235234Y-68496791D01*
X73166441Y-68599746D01*
X73119056Y-68714144D01*
X73094900Y-68835588D01*
X73094900Y-68856401D01*
X72113017Y-67874518D01*
X72097901Y-67856099D01*
X72024415Y-67795791D01*
X71940577Y-67750978D01*
X71849606Y-67723383D01*
X71778707Y-67716400D01*
X71778705Y-67716400D01*
X71755000Y-67714065D01*
X71731295Y-67716400D01*
X69795900Y-67716400D01*
X68645017Y-66565518D01*
X68629901Y-66547099D01*
X68556415Y-66486791D01*
X68472577Y-66441978D01*
X68381606Y-66414383D01*
X68310707Y-66407400D01*
X68310705Y-66407400D01*
X68287000Y-66405065D01*
X68263295Y-66407400D01*
X68218154Y-66407400D01*
X68202691Y-66356424D01*
X68158361Y-66273490D01*
X68098703Y-66200797D01*
X68026010Y-66141139D01*
X67992100Y-66123013D01*
X67992100Y-65461706D01*
X68515500Y-65461706D01*
X68609086Y-65452489D01*
X68699076Y-65425191D01*
X68782010Y-65380861D01*
X68854703Y-65321203D01*
X68914361Y-65248510D01*
X68958691Y-65165576D01*
X68985989Y-65075586D01*
X68995206Y-64982000D01*
X68995206Y-64616615D01*
X69020978Y-64701576D01*
G36*
X75003838Y-65476663D02*
G01*
X75017401Y-65487794D01*
X75146900Y-65617294D01*
X75146901Y-65940529D01*
X75146900Y-65940538D01*
X75146901Y-66710528D01*
X75146900Y-66710538D01*
X75146901Y-67230535D01*
X75145181Y-67248000D01*
X75152046Y-67317710D01*
X75172380Y-67384741D01*
X75172381Y-67384742D01*
X75205400Y-67446516D01*
X75249838Y-67500663D01*
X75263401Y-67511794D01*
X76011816Y-68260209D01*
X75965734Y-68306291D01*
X75896941Y-68409246D01*
X75849556Y-68523644D01*
X75825400Y-68645088D01*
X75825400Y-68756866D01*
X75761710Y-68737546D01*
X75709463Y-68732400D01*
X75709455Y-68732400D01*
X75692000Y-68730681D01*
X75674545Y-68732400D01*
X75204294Y-68732400D01*
X74523600Y-68051707D01*
X74523600Y-67729794D01*
X74741605Y-67511790D01*
X74755163Y-67500663D01*
X74766290Y-67487105D01*
X74766295Y-67487100D01*
X74799600Y-67446517D01*
X74799602Y-67446515D01*
X74832621Y-67384740D01*
X74852954Y-67317710D01*
X74858100Y-67265463D01*
X74858100Y-67265454D01*
X74859819Y-67248001D01*
X74858100Y-67230548D01*
X74858100Y-65617294D01*
X74991604Y-65483790D01*
X75002410Y-65474923D01*
X75003838Y-65476663D01*
X75003838Y-65476663D01*
G37*
X75003838Y-65476663D02*
X75017401Y-65487794D01*
X75146900Y-65617294D01*
X75146901Y-65940529D01*
X75146900Y-65940538D01*
X75146901Y-66710528D01*
X75146900Y-66710538D01*
X75146901Y-67230535D01*
X75145181Y-67248000D01*
X75152046Y-67317710D01*
X75172380Y-67384741D01*
X75172381Y-67384742D01*
X75205400Y-67446516D01*
X75249838Y-67500663D01*
X75263401Y-67511794D01*
X76011816Y-68260209D01*
X75965734Y-68306291D01*
X75896941Y-68409246D01*
X75849556Y-68523644D01*
X75825400Y-68645088D01*
X75825400Y-68756866D01*
X75761710Y-68737546D01*
X75709463Y-68732400D01*
X75709455Y-68732400D01*
X75692000Y-68730681D01*
X75674545Y-68732400D01*
X75204294Y-68732400D01*
X74523600Y-68051707D01*
X74523600Y-67729794D01*
X74741605Y-67511790D01*
X74755163Y-67500663D01*
X74766290Y-67487105D01*
X74766295Y-67487100D01*
X74799600Y-67446517D01*
X74799602Y-67446515D01*
X74832621Y-67384740D01*
X74852954Y-67317710D01*
X74858100Y-67265463D01*
X74858100Y-67265454D01*
X74859819Y-67248001D01*
X74858100Y-67230548D01*
X74858100Y-65617294D01*
X74991604Y-65483790D01*
X75002410Y-65474923D01*
X75003838Y-65476663D01*
G36*
X76013401Y-62948206D02*
G01*
X75999838Y-62959337D01*
X75955400Y-63013484D01*
X75944754Y-63033402D01*
X75922380Y-63075259D01*
X75909996Y-63116084D01*
X75902046Y-63142290D01*
X75899039Y-63172818D01*
X75886945Y-63169149D01*
X75827500Y-63163294D01*
X75677500Y-63163294D01*
X75618055Y-63169149D01*
X75560894Y-63186488D01*
X75508214Y-63214646D01*
X75504500Y-63217694D01*
X75500786Y-63214646D01*
X75448106Y-63186488D01*
X75390945Y-63169149D01*
X75331500Y-63163294D01*
X75181500Y-63163294D01*
X75122055Y-63169149D01*
X75064894Y-63186488D01*
X75012214Y-63214646D01*
X75004500Y-63220977D01*
X74996786Y-63214646D01*
X74944106Y-63186488D01*
X74886945Y-63169149D01*
X74827500Y-63163294D01*
X74677500Y-63163294D01*
X74618055Y-63169149D01*
X74560894Y-63186488D01*
X74508214Y-63214646D01*
X74502500Y-63219335D01*
X74496786Y-63214646D01*
X74444106Y-63186488D01*
X74386945Y-63169149D01*
X74327500Y-63163294D01*
X74177500Y-63163294D01*
X74118055Y-63169149D01*
X74060894Y-63186488D01*
X74008214Y-63214646D01*
X74002500Y-63219335D01*
X73996786Y-63214646D01*
X73944106Y-63186488D01*
X73886945Y-63169149D01*
X73861273Y-63166620D01*
X75512295Y-61515600D01*
X77446006Y-61515600D01*
X76013401Y-62948206D01*
X76013401Y-62948206D01*
G37*
X76013401Y-62948206D02*
X75999838Y-62959337D01*
X75955400Y-63013484D01*
X75944754Y-63033402D01*
X75922380Y-63075259D01*
X75909996Y-63116084D01*
X75902046Y-63142290D01*
X75899039Y-63172818D01*
X75886945Y-63169149D01*
X75827500Y-63163294D01*
X75677500Y-63163294D01*
X75618055Y-63169149D01*
X75560894Y-63186488D01*
X75508214Y-63214646D01*
X75504500Y-63217694D01*
X75500786Y-63214646D01*
X75448106Y-63186488D01*
X75390945Y-63169149D01*
X75331500Y-63163294D01*
X75181500Y-63163294D01*
X75122055Y-63169149D01*
X75064894Y-63186488D01*
X75012214Y-63214646D01*
X75004500Y-63220977D01*
X74996786Y-63214646D01*
X74944106Y-63186488D01*
X74886945Y-63169149D01*
X74827500Y-63163294D01*
X74677500Y-63163294D01*
X74618055Y-63169149D01*
X74560894Y-63186488D01*
X74508214Y-63214646D01*
X74502500Y-63219335D01*
X74496786Y-63214646D01*
X74444106Y-63186488D01*
X74386945Y-63169149D01*
X74327500Y-63163294D01*
X74177500Y-63163294D01*
X74118055Y-63169149D01*
X74060894Y-63186488D01*
X74008214Y-63214646D01*
X74002500Y-63219335D01*
X73996786Y-63214646D01*
X73944106Y-63186488D01*
X73886945Y-63169149D01*
X73861273Y-63166620D01*
X75512295Y-61515600D01*
X77446006Y-61515600D01*
X76013401Y-62948206D01*
M02*
