G04 #@! TF.GenerationSoftware,KiCad,Pcbnew,(5.1.4)-1*
G04 #@! TF.CreationDate,2022-05-10T00:39:04+09:00*
G04 #@! TF.ProjectId,Unified-Daughterboard,556e6966-6965-4642-9d44-617567687465,C3*
G04 #@! TF.SameCoordinates,Original*
G04 #@! TF.FileFunction,Soldermask,Top*
G04 #@! TF.FilePolarity,Negative*
%FSLAX46Y46*%
G04 Gerber Fmt 4.6, Leading zero omitted, Abs format (unit mm)*
G04 Created by KiCad (PCBNEW (5.1.4)-1) date 2022-05-10 00:39:04*
%MOMM*%
%LPD*%
G04 APERTURE LIST*
%ADD10C,0.100000*%
G04 APERTURE END LIST*
D10*
G36*
X68527831Y-69311211D02*
G01*
X68855592Y-69446974D01*
X69150570Y-69644072D01*
X69401428Y-69894930D01*
X69598526Y-70189908D01*
X69734289Y-70517669D01*
X69803500Y-70865616D01*
X69803500Y-71220384D01*
X69734289Y-71568331D01*
X69598526Y-71896092D01*
X69401428Y-72191070D01*
X69150570Y-72441928D01*
X68855592Y-72639026D01*
X68527831Y-72774789D01*
X68179884Y-72844000D01*
X67825116Y-72844000D01*
X67477169Y-72774789D01*
X67149408Y-72639026D01*
X66854430Y-72441928D01*
X66603572Y-72191070D01*
X66406474Y-71896092D01*
X66270711Y-71568331D01*
X66201500Y-71220384D01*
X66201500Y-70865616D01*
X66270711Y-70517669D01*
X66406474Y-70189908D01*
X66603572Y-69894930D01*
X66854430Y-69644072D01*
X67149408Y-69446974D01*
X67477169Y-69311211D01*
X67825116Y-69242000D01*
X68179884Y-69242000D01*
X68527831Y-69311211D01*
X68527831Y-69311211D01*
G37*
G36*
X83803500Y-72792000D02*
G01*
X81901500Y-72792000D01*
X81901500Y-71490000D01*
X83803500Y-71490000D01*
X83803500Y-72792000D01*
X83803500Y-72792000D01*
G37*
G36*
X74943604Y-70579347D02*
G01*
X74980144Y-70590432D01*
X75013821Y-70608433D01*
X75043341Y-70632659D01*
X75067567Y-70662179D01*
X75085568Y-70695856D01*
X75096653Y-70732396D01*
X75101000Y-70776538D01*
X75101000Y-72225462D01*
X75096653Y-72269604D01*
X75085568Y-72306144D01*
X75067567Y-72339821D01*
X75043341Y-72369341D01*
X75013821Y-72393567D01*
X74980144Y-72411568D01*
X74943604Y-72422653D01*
X74899462Y-72427000D01*
X73950538Y-72427000D01*
X73906396Y-72422653D01*
X73869856Y-72411568D01*
X73836179Y-72393567D01*
X73806659Y-72369341D01*
X73782433Y-72339821D01*
X73764432Y-72306144D01*
X73753347Y-72269604D01*
X73749000Y-72225462D01*
X73749000Y-70776538D01*
X73753347Y-70732396D01*
X73764432Y-70695856D01*
X73782433Y-70662179D01*
X73806659Y-70632659D01*
X73836179Y-70608433D01*
X73869856Y-70590432D01*
X73906396Y-70579347D01*
X73950538Y-70575000D01*
X74899462Y-70575000D01*
X74943604Y-70579347D01*
X74943604Y-70579347D01*
G37*
G36*
X72143604Y-70579347D02*
G01*
X72180144Y-70590432D01*
X72213821Y-70608433D01*
X72243341Y-70632659D01*
X72267567Y-70662179D01*
X72285568Y-70695856D01*
X72296653Y-70732396D01*
X72301000Y-70776538D01*
X72301000Y-72225462D01*
X72296653Y-72269604D01*
X72285568Y-72306144D01*
X72267567Y-72339821D01*
X72243341Y-72369341D01*
X72213821Y-72393567D01*
X72180144Y-72411568D01*
X72143604Y-72422653D01*
X72099462Y-72427000D01*
X71150538Y-72427000D01*
X71106396Y-72422653D01*
X71069856Y-72411568D01*
X71036179Y-72393567D01*
X71006659Y-72369341D01*
X70982433Y-72339821D01*
X70964432Y-72306144D01*
X70953347Y-72269604D01*
X70949000Y-72225462D01*
X70949000Y-70776538D01*
X70953347Y-70732396D01*
X70964432Y-70695856D01*
X70982433Y-70662179D01*
X71006659Y-70632659D01*
X71036179Y-70608433D01*
X71069856Y-70590432D01*
X71106396Y-70579347D01*
X71150538Y-70575000D01*
X72099462Y-70575000D01*
X72143604Y-70579347D01*
X72143604Y-70579347D01*
G37*
G36*
X79803500Y-71192000D02*
G01*
X78151500Y-71192000D01*
X78151500Y-70490000D01*
X79803500Y-70490000D01*
X79803500Y-71192000D01*
X79803500Y-71192000D01*
G37*
G36*
X79803500Y-70192000D02*
G01*
X78151500Y-70192000D01*
X78151500Y-69490000D01*
X79803500Y-69490000D01*
X79803500Y-70192000D01*
X79803500Y-70192000D01*
G37*
G36*
X79803500Y-69192000D02*
G01*
X78151500Y-69192000D01*
X78151500Y-68490000D01*
X79803500Y-68490000D01*
X79803500Y-69192000D01*
X79803500Y-69192000D01*
G37*
G36*
X79803500Y-68192000D02*
G01*
X78151500Y-68192000D01*
X78151500Y-67490000D01*
X79803500Y-67490000D01*
X79803500Y-68192000D01*
X79803500Y-68192000D01*
G37*
G36*
X71188934Y-66243686D02*
G01*
X71228784Y-66255774D01*
X71265499Y-66275399D01*
X71297686Y-66301814D01*
X71324101Y-66334001D01*
X71343726Y-66370716D01*
X71355814Y-66410566D01*
X71360500Y-66458141D01*
X71360500Y-67321859D01*
X71355814Y-67369434D01*
X71343726Y-67409284D01*
X71324101Y-67445999D01*
X71297686Y-67478186D01*
X71265499Y-67504601D01*
X71228784Y-67524226D01*
X71188934Y-67536314D01*
X71141359Y-67541000D01*
X70477641Y-67541000D01*
X70430066Y-67536314D01*
X70390216Y-67524226D01*
X70353501Y-67504601D01*
X70321314Y-67478186D01*
X70294899Y-67445999D01*
X70275274Y-67409284D01*
X70263186Y-67369434D01*
X70258500Y-67321859D01*
X70258500Y-66458141D01*
X70263186Y-66410566D01*
X70275274Y-66370716D01*
X70294899Y-66334001D01*
X70321314Y-66301814D01*
X70353501Y-66275399D01*
X70390216Y-66255774D01*
X70430066Y-66243686D01*
X70477641Y-66239000D01*
X71141359Y-66239000D01*
X71188934Y-66243686D01*
X71188934Y-66243686D01*
G37*
G36*
X67888934Y-66243686D02*
G01*
X67928784Y-66255774D01*
X67965499Y-66275399D01*
X67997686Y-66301814D01*
X68024101Y-66334001D01*
X68043726Y-66370716D01*
X68055814Y-66410566D01*
X68060500Y-66458141D01*
X68060500Y-67321859D01*
X68055814Y-67369434D01*
X68043726Y-67409284D01*
X68024101Y-67445999D01*
X67997686Y-67478186D01*
X67965499Y-67504601D01*
X67928784Y-67524226D01*
X67888934Y-67536314D01*
X67841359Y-67541000D01*
X67177641Y-67541000D01*
X67130066Y-67536314D01*
X67090216Y-67524226D01*
X67053501Y-67504601D01*
X67021314Y-67478186D01*
X66994899Y-67445999D01*
X66975274Y-67409284D01*
X66963186Y-67369434D01*
X66958500Y-67321859D01*
X66958500Y-66458141D01*
X66963186Y-66410566D01*
X66975274Y-66370716D01*
X66994899Y-66334001D01*
X67021314Y-66301814D01*
X67053501Y-66275399D01*
X67090216Y-66255774D01*
X67130066Y-66243686D01*
X67177641Y-66239000D01*
X67841359Y-66239000D01*
X67888934Y-66243686D01*
X67888934Y-66243686D01*
G37*
G36*
X83803500Y-67192000D02*
G01*
X81901500Y-67192000D01*
X81901500Y-65890000D01*
X83803500Y-65890000D01*
X83803500Y-67192000D01*
X83803500Y-67192000D01*
G37*
G36*
X76178500Y-67054000D02*
G01*
X74316793Y-67054000D01*
X74305434Y-67032749D01*
X74289889Y-67013807D01*
X74270947Y-66998262D01*
X74249336Y-66986711D01*
X74225887Y-66979598D01*
X74201501Y-66977196D01*
X74177115Y-66979598D01*
X74153666Y-66986711D01*
X74132055Y-66998262D01*
X74127799Y-67001419D01*
X74126952Y-67002451D01*
X74100281Y-67024339D01*
X74069853Y-67040603D01*
X74036837Y-67050618D01*
X74002501Y-67054000D01*
X74002499Y-67054000D01*
X73968163Y-67050618D01*
X73935147Y-67040603D01*
X73904719Y-67024339D01*
X73878048Y-67002451D01*
X73856160Y-66975780D01*
X73839896Y-66945352D01*
X73829881Y-66912336D01*
X73826499Y-66878000D01*
X73826499Y-66578000D01*
X73829881Y-66543664D01*
X73839896Y-66510648D01*
X73856160Y-66480220D01*
X73858117Y-66477835D01*
X73861381Y-66471729D01*
X73863917Y-66467934D01*
X73873297Y-66445296D01*
X73878080Y-66421263D01*
X73878082Y-66396759D01*
X73873304Y-66372726D01*
X73863929Y-66350086D01*
X73850317Y-66329710D01*
X73832992Y-66312381D01*
X73826500Y-66308042D01*
X73826500Y-65632000D01*
X76178500Y-65632000D01*
X76178500Y-67054000D01*
X76178500Y-67054000D01*
G37*
G36*
X68659104Y-63935347D02*
G01*
X68695644Y-63946432D01*
X68729321Y-63964433D01*
X68758841Y-63988659D01*
X68783067Y-64018179D01*
X68801068Y-64051856D01*
X68812153Y-64088396D01*
X68816500Y-64132538D01*
X68816500Y-65081462D01*
X68812153Y-65125604D01*
X68801068Y-65162144D01*
X68783067Y-65195821D01*
X68758841Y-65225341D01*
X68729321Y-65249567D01*
X68695644Y-65267568D01*
X68659104Y-65278653D01*
X68614962Y-65283000D01*
X67166038Y-65283000D01*
X67121896Y-65278653D01*
X67085356Y-65267568D01*
X67051679Y-65249567D01*
X67022159Y-65225341D01*
X66997933Y-65195821D01*
X66979932Y-65162144D01*
X66968847Y-65125604D01*
X66964500Y-65081462D01*
X66964500Y-64132538D01*
X66968847Y-64088396D01*
X66979932Y-64051856D01*
X66997933Y-64018179D01*
X67022159Y-63988659D01*
X67051679Y-63964433D01*
X67085356Y-63946432D01*
X67121896Y-63935347D01*
X67166038Y-63931000D01*
X68614962Y-63931000D01*
X68659104Y-63935347D01*
X68659104Y-63935347D01*
G37*
G36*
X79420318Y-62200696D02*
G01*
X79533605Y-62235062D01*
X79638012Y-62290869D01*
X79729527Y-62365973D01*
X79804631Y-62457488D01*
X79860438Y-62561895D01*
X79894804Y-62675182D01*
X79903500Y-62763481D01*
X79903500Y-63922519D01*
X79894804Y-64010818D01*
X79860438Y-64124105D01*
X79804631Y-64228512D01*
X79804630Y-64228513D01*
X79729527Y-64320027D01*
X79700315Y-64344000D01*
X79638011Y-64395131D01*
X79533604Y-64450938D01*
X79420317Y-64485304D01*
X79302500Y-64496907D01*
X79184682Y-64485304D01*
X79071395Y-64450938D01*
X78966988Y-64395131D01*
X78950577Y-64381663D01*
X78875473Y-64320027D01*
X78825122Y-64258673D01*
X78807798Y-64241348D01*
X78787423Y-64227735D01*
X78764784Y-64218357D01*
X78740751Y-64213577D01*
X78716247Y-64213577D01*
X78692214Y-64218357D01*
X78669575Y-64227735D01*
X78649201Y-64241348D01*
X78631873Y-64258675D01*
X78618260Y-64279050D01*
X78608882Y-64301689D01*
X78604102Y-64325722D01*
X78603500Y-64337974D01*
X78603500Y-64774860D01*
X78600736Y-64802928D01*
X78594340Y-64824009D01*
X78583952Y-64843445D01*
X78569976Y-64860476D01*
X78552945Y-64874452D01*
X78533509Y-64884840D01*
X78512428Y-64891236D01*
X78484360Y-64894000D01*
X78020640Y-64894000D01*
X77992572Y-64891236D01*
X77971491Y-64884840D01*
X77952056Y-64874452D01*
X77931797Y-64857827D01*
X77911423Y-64844214D01*
X77888784Y-64834837D01*
X77864750Y-64830057D01*
X77840246Y-64830057D01*
X77816213Y-64834838D01*
X77793574Y-64844216D01*
X77773203Y-64857827D01*
X77752944Y-64874452D01*
X77733509Y-64884840D01*
X77712428Y-64891236D01*
X77684360Y-64894000D01*
X77220640Y-64894000D01*
X77192572Y-64891236D01*
X77171491Y-64884840D01*
X77152056Y-64874452D01*
X77127048Y-64853929D01*
X77106674Y-64840315D01*
X77084035Y-64830938D01*
X77060002Y-64826157D01*
X77035497Y-64826157D01*
X77011464Y-64830937D01*
X76988825Y-64840314D01*
X76968451Y-64853928D01*
X76951123Y-64871256D01*
X76941943Y-64882442D01*
X76936276Y-64887092D01*
X76929810Y-64890549D01*
X76922795Y-64892677D01*
X76909360Y-64894000D01*
X76595640Y-64894000D01*
X76582205Y-64892677D01*
X76575191Y-64890549D01*
X76561423Y-64883190D01*
X76538784Y-64873813D01*
X76514751Y-64869033D01*
X76490247Y-64869033D01*
X76466214Y-64873814D01*
X76443577Y-64883190D01*
X76429809Y-64890549D01*
X76422795Y-64892677D01*
X76409360Y-64894000D01*
X76095640Y-64894000D01*
X76082205Y-64892677D01*
X76075191Y-64890549D01*
X76061423Y-64883190D01*
X76038784Y-64873813D01*
X76014751Y-64869033D01*
X75990247Y-64869033D01*
X75966214Y-64873814D01*
X75943577Y-64883190D01*
X75929809Y-64890549D01*
X75922795Y-64892677D01*
X75909360Y-64894000D01*
X75595640Y-64894000D01*
X75582205Y-64892677D01*
X75575191Y-64890549D01*
X75563423Y-64884259D01*
X75540784Y-64874882D01*
X75516751Y-64870102D01*
X75492247Y-64870102D01*
X75468214Y-64874883D01*
X75445577Y-64884259D01*
X75433809Y-64890549D01*
X75426795Y-64892677D01*
X75413360Y-64894000D01*
X75099640Y-64894000D01*
X75086205Y-64892677D01*
X75079191Y-64890549D01*
X75063423Y-64882121D01*
X75040784Y-64872744D01*
X75016751Y-64867964D01*
X74992247Y-64867964D01*
X74968214Y-64872745D01*
X74945577Y-64882121D01*
X74929809Y-64890549D01*
X74922795Y-64892677D01*
X74909360Y-64894000D01*
X74595640Y-64894000D01*
X74582205Y-64892677D01*
X74575191Y-64890549D01*
X74561423Y-64883190D01*
X74538784Y-64873813D01*
X74514751Y-64869033D01*
X74490247Y-64869033D01*
X74466214Y-64873814D01*
X74443577Y-64883190D01*
X74429809Y-64890549D01*
X74422795Y-64892677D01*
X74409360Y-64894000D01*
X74095640Y-64894000D01*
X74082205Y-64892677D01*
X74075191Y-64890549D01*
X74061423Y-64883190D01*
X74038784Y-64873813D01*
X74014751Y-64869033D01*
X73990247Y-64869033D01*
X73966214Y-64873814D01*
X73943577Y-64883190D01*
X73929809Y-64890549D01*
X73922795Y-64892677D01*
X73909360Y-64894000D01*
X73595640Y-64894000D01*
X73582205Y-64892677D01*
X73575191Y-64890549D01*
X73561423Y-64883190D01*
X73538784Y-64873813D01*
X73514751Y-64869033D01*
X73490247Y-64869033D01*
X73466214Y-64873814D01*
X73443577Y-64883190D01*
X73429809Y-64890549D01*
X73422795Y-64892677D01*
X73409360Y-64894000D01*
X73095640Y-64894000D01*
X73082205Y-64892677D01*
X73075190Y-64890549D01*
X73068724Y-64887092D01*
X73063057Y-64882442D01*
X73053877Y-64871256D01*
X73036550Y-64853929D01*
X73016176Y-64840315D01*
X72993537Y-64830938D01*
X72969504Y-64826157D01*
X72945000Y-64826157D01*
X72920967Y-64830937D01*
X72898328Y-64840314D01*
X72877952Y-64853929D01*
X72852944Y-64874452D01*
X72833509Y-64884840D01*
X72812428Y-64891236D01*
X72784360Y-64894000D01*
X72320640Y-64894000D01*
X72292572Y-64891236D01*
X72271491Y-64884840D01*
X72252056Y-64874452D01*
X72231797Y-64857827D01*
X72211423Y-64844214D01*
X72188784Y-64834837D01*
X72164750Y-64830057D01*
X72140246Y-64830057D01*
X72116213Y-64834838D01*
X72093574Y-64844216D01*
X72073203Y-64857827D01*
X72052944Y-64874452D01*
X72033509Y-64884840D01*
X72012428Y-64891236D01*
X71984360Y-64894000D01*
X71520640Y-64894000D01*
X71492572Y-64891236D01*
X71471491Y-64884840D01*
X71452055Y-64874452D01*
X71435024Y-64860476D01*
X71421048Y-64843445D01*
X71410660Y-64824009D01*
X71404264Y-64802928D01*
X71401500Y-64774860D01*
X71401500Y-64337975D01*
X71399098Y-64313589D01*
X71391985Y-64290140D01*
X71380434Y-64268529D01*
X71364889Y-64249587D01*
X71345947Y-64234042D01*
X71324336Y-64222491D01*
X71300887Y-64215378D01*
X71276501Y-64212976D01*
X71252115Y-64215378D01*
X71228666Y-64222491D01*
X71207055Y-64234042D01*
X71179877Y-64258675D01*
X71129527Y-64320027D01*
X71100315Y-64344000D01*
X71038011Y-64395131D01*
X70933604Y-64450938D01*
X70820317Y-64485304D01*
X70702500Y-64496907D01*
X70584682Y-64485304D01*
X70471395Y-64450938D01*
X70366988Y-64395131D01*
X70353072Y-64383711D01*
X70275473Y-64320027D01*
X70200370Y-64228512D01*
X70200369Y-64228511D01*
X70144562Y-64124104D01*
X70110196Y-64010817D01*
X70101500Y-63922518D01*
X70101501Y-62763481D01*
X70110197Y-62675182D01*
X70144563Y-62561895D01*
X70200370Y-62457488D01*
X70275474Y-62365973D01*
X70366989Y-62290869D01*
X70471396Y-62235062D01*
X70584683Y-62200696D01*
X70702500Y-62189093D01*
X70820318Y-62200696D01*
X70933605Y-62235062D01*
X71038012Y-62290869D01*
X71129527Y-62365973D01*
X71204631Y-62457488D01*
X71260438Y-62561895D01*
X71294804Y-62675182D01*
X71303500Y-62763481D01*
X71303500Y-63233578D01*
X71305902Y-63257964D01*
X71313015Y-63281413D01*
X71324566Y-63303024D01*
X71340111Y-63321966D01*
X71359053Y-63337511D01*
X71380664Y-63349062D01*
X71404113Y-63356175D01*
X71428499Y-63358577D01*
X71452885Y-63356175D01*
X71464786Y-63353194D01*
X71492574Y-63344764D01*
X71520640Y-63342000D01*
X71846785Y-63342000D01*
X71871171Y-63339598D01*
X71894620Y-63332485D01*
X71916231Y-63320934D01*
X71935173Y-63305389D01*
X71950718Y-63286447D01*
X71962269Y-63264836D01*
X71969382Y-63241387D01*
X71971784Y-63217001D01*
X71969382Y-63192615D01*
X71962269Y-63169166D01*
X71950718Y-63147555D01*
X71935173Y-63128613D01*
X71916236Y-63113072D01*
X71872814Y-63084058D01*
X71820442Y-63031686D01*
X71779293Y-62970103D01*
X71750950Y-62901675D01*
X71736500Y-62829033D01*
X71736500Y-62754967D01*
X71750950Y-62682325D01*
X71779293Y-62613897D01*
X71820442Y-62552314D01*
X71872814Y-62499942D01*
X71934397Y-62458793D01*
X72002825Y-62430450D01*
X72002826Y-62430450D01*
X72002828Y-62430449D01*
X72075466Y-62416000D01*
X72149534Y-62416000D01*
X72222172Y-62430449D01*
X72222174Y-62430450D01*
X72222175Y-62430450D01*
X72290603Y-62458793D01*
X72352186Y-62499942D01*
X72404558Y-62552314D01*
X72445707Y-62613897D01*
X72474050Y-62682325D01*
X72488500Y-62754967D01*
X72488500Y-62829033D01*
X72474050Y-62901675D01*
X72445707Y-62970103D01*
X72404558Y-63031686D01*
X72352186Y-63084058D01*
X72308764Y-63113072D01*
X72289827Y-63128614D01*
X72274282Y-63147556D01*
X72262731Y-63169166D01*
X72255618Y-63192615D01*
X72253216Y-63217001D01*
X72255618Y-63241387D01*
X72262731Y-63264836D01*
X72274282Y-63286447D01*
X72289828Y-63305389D01*
X72308770Y-63320934D01*
X72330380Y-63332485D01*
X72353829Y-63339598D01*
X72378215Y-63342000D01*
X72784360Y-63342000D01*
X72812428Y-63344764D01*
X72833509Y-63351160D01*
X72852944Y-63361548D01*
X72877952Y-63382071D01*
X72898326Y-63395685D01*
X72920965Y-63405062D01*
X72944998Y-63409843D01*
X72969503Y-63409843D01*
X72993536Y-63405063D01*
X73016175Y-63395686D01*
X73036549Y-63382072D01*
X73053877Y-63364744D01*
X73063057Y-63353558D01*
X73068724Y-63348908D01*
X73075190Y-63345451D01*
X73082205Y-63343323D01*
X73095640Y-63342000D01*
X73409360Y-63342000D01*
X73422795Y-63343323D01*
X73429809Y-63345451D01*
X73443577Y-63352810D01*
X73466216Y-63362187D01*
X73490249Y-63366967D01*
X73514753Y-63366967D01*
X73538786Y-63362186D01*
X73561423Y-63352810D01*
X73575191Y-63345451D01*
X73582205Y-63343323D01*
X73595640Y-63342000D01*
X73909360Y-63342000D01*
X73922795Y-63343323D01*
X73929809Y-63345451D01*
X73943577Y-63352810D01*
X73966216Y-63362187D01*
X73990249Y-63366967D01*
X74014753Y-63366967D01*
X74038786Y-63362186D01*
X74061423Y-63352810D01*
X74075191Y-63345451D01*
X74082205Y-63343323D01*
X74095640Y-63342000D01*
X74409360Y-63342000D01*
X74422795Y-63343323D01*
X74429809Y-63345451D01*
X74443577Y-63352810D01*
X74466216Y-63362187D01*
X74490249Y-63366967D01*
X74514753Y-63366967D01*
X74538786Y-63362186D01*
X74561423Y-63352810D01*
X74575191Y-63345451D01*
X74582205Y-63343323D01*
X74595640Y-63342000D01*
X74909360Y-63342000D01*
X74922795Y-63343323D01*
X74929809Y-63345451D01*
X74945577Y-63353879D01*
X74968216Y-63363256D01*
X74992249Y-63368036D01*
X75016753Y-63368036D01*
X75040786Y-63363255D01*
X75063423Y-63353879D01*
X75079191Y-63345451D01*
X75086205Y-63343323D01*
X75099640Y-63342000D01*
X75413360Y-63342000D01*
X75426795Y-63343323D01*
X75433809Y-63345451D01*
X75445577Y-63351741D01*
X75468216Y-63361118D01*
X75492249Y-63365898D01*
X75516753Y-63365898D01*
X75540786Y-63361117D01*
X75563423Y-63351741D01*
X75575191Y-63345451D01*
X75582205Y-63343323D01*
X75595640Y-63342000D01*
X75909360Y-63342000D01*
X75922795Y-63343323D01*
X75929809Y-63345451D01*
X75943577Y-63352810D01*
X75966216Y-63362187D01*
X75990249Y-63366967D01*
X76014753Y-63366967D01*
X76038786Y-63362186D01*
X76061423Y-63352810D01*
X76075191Y-63345451D01*
X76082205Y-63343323D01*
X76095640Y-63342000D01*
X76409360Y-63342000D01*
X76422795Y-63343323D01*
X76429809Y-63345451D01*
X76443577Y-63352810D01*
X76466216Y-63362187D01*
X76490249Y-63366967D01*
X76514753Y-63366967D01*
X76538786Y-63362186D01*
X76561423Y-63352810D01*
X76575191Y-63345451D01*
X76582205Y-63343323D01*
X76595640Y-63342000D01*
X76909360Y-63342000D01*
X76922795Y-63343323D01*
X76929810Y-63345451D01*
X76936276Y-63348908D01*
X76941943Y-63353558D01*
X76951123Y-63364744D01*
X76968450Y-63382071D01*
X76988824Y-63395685D01*
X77011463Y-63405062D01*
X77035496Y-63409843D01*
X77060000Y-63409843D01*
X77084033Y-63405063D01*
X77106672Y-63395686D01*
X77127048Y-63382071D01*
X77152056Y-63361548D01*
X77171491Y-63351160D01*
X77192572Y-63344764D01*
X77220640Y-63342000D01*
X77626785Y-63342000D01*
X77651171Y-63339598D01*
X77674620Y-63332485D01*
X77696231Y-63320934D01*
X77715173Y-63305389D01*
X77730718Y-63286447D01*
X77742269Y-63264836D01*
X77749382Y-63241387D01*
X77751784Y-63217001D01*
X77749382Y-63192615D01*
X77742269Y-63169166D01*
X77730718Y-63147555D01*
X77715173Y-63128613D01*
X77696236Y-63113072D01*
X77652814Y-63084058D01*
X77600442Y-63031686D01*
X77559293Y-62970103D01*
X77530950Y-62901675D01*
X77516500Y-62829033D01*
X77516500Y-62754967D01*
X77530950Y-62682325D01*
X77559293Y-62613897D01*
X77600442Y-62552314D01*
X77652814Y-62499942D01*
X77714397Y-62458793D01*
X77782825Y-62430450D01*
X77782826Y-62430450D01*
X77782828Y-62430449D01*
X77855466Y-62416000D01*
X77929534Y-62416000D01*
X78002172Y-62430449D01*
X78002174Y-62430450D01*
X78002175Y-62430450D01*
X78070603Y-62458793D01*
X78132186Y-62499942D01*
X78184558Y-62552314D01*
X78225707Y-62613897D01*
X78254050Y-62682325D01*
X78268500Y-62754967D01*
X78268500Y-62829033D01*
X78254050Y-62901675D01*
X78225707Y-62970103D01*
X78184558Y-63031686D01*
X78132186Y-63084058D01*
X78088764Y-63113072D01*
X78069827Y-63128614D01*
X78054282Y-63147556D01*
X78042731Y-63169166D01*
X78035618Y-63192615D01*
X78033216Y-63217001D01*
X78035618Y-63241387D01*
X78042731Y-63264836D01*
X78054282Y-63286447D01*
X78069828Y-63305389D01*
X78088770Y-63320934D01*
X78110380Y-63332485D01*
X78133829Y-63339598D01*
X78158215Y-63342000D01*
X78484360Y-63342000D01*
X78512428Y-63344764D01*
X78540216Y-63353194D01*
X78564249Y-63357975D01*
X78588753Y-63357975D01*
X78612787Y-63353195D01*
X78635425Y-63343818D01*
X78655800Y-63330204D01*
X78673127Y-63312877D01*
X78686741Y-63292503D01*
X78696118Y-63269864D01*
X78700899Y-63245831D01*
X78701501Y-63233578D01*
X78701501Y-62763481D01*
X78710197Y-62675182D01*
X78744563Y-62561895D01*
X78800370Y-62457488D01*
X78875474Y-62365973D01*
X78966989Y-62290869D01*
X79071396Y-62235062D01*
X79184683Y-62200696D01*
X79302500Y-62189093D01*
X79420318Y-62200696D01*
X79420318Y-62200696D01*
G37*
G36*
X83053500Y-64344000D02*
G01*
X82451500Y-64344000D01*
X82451500Y-63342000D01*
X83053500Y-63342000D01*
X83053500Y-64344000D01*
X83053500Y-64344000D01*
G37*
G36*
X81553500Y-64344000D02*
G01*
X80951500Y-64344000D01*
X80951500Y-63342000D01*
X81553500Y-63342000D01*
X81553500Y-64344000D01*
X81553500Y-64344000D01*
G37*
G36*
X81553500Y-62644000D02*
G01*
X80951500Y-62644000D01*
X80951500Y-61642000D01*
X81553500Y-61642000D01*
X81553500Y-62644000D01*
X81553500Y-62644000D01*
G37*
G36*
X83053500Y-62644000D02*
G01*
X82451500Y-62644000D01*
X82451500Y-61642000D01*
X83053500Y-61642000D01*
X83053500Y-62644000D01*
X83053500Y-62644000D01*
G37*
G36*
X68659104Y-61135347D02*
G01*
X68695644Y-61146432D01*
X68729321Y-61164433D01*
X68758841Y-61188659D01*
X68783067Y-61218179D01*
X68801068Y-61251856D01*
X68812153Y-61288396D01*
X68816500Y-61332538D01*
X68816500Y-62281462D01*
X68812153Y-62325604D01*
X68801068Y-62362144D01*
X68783067Y-62395821D01*
X68758841Y-62425341D01*
X68729321Y-62449567D01*
X68695644Y-62467568D01*
X68659104Y-62478653D01*
X68614962Y-62483000D01*
X67166038Y-62483000D01*
X67121896Y-62478653D01*
X67085356Y-62467568D01*
X67051679Y-62449567D01*
X67022159Y-62425341D01*
X66997933Y-62395821D01*
X66979932Y-62362144D01*
X66968847Y-62325604D01*
X66964500Y-62281462D01*
X66964500Y-61332538D01*
X66968847Y-61288396D01*
X66979932Y-61251856D01*
X66997933Y-61218179D01*
X67022159Y-61188659D01*
X67051679Y-61164433D01*
X67085356Y-61146432D01*
X67121896Y-61135347D01*
X67166038Y-61131000D01*
X68614962Y-61131000D01*
X68659104Y-61135347D01*
X68659104Y-61135347D01*
G37*
G36*
X82529831Y-56811211D02*
G01*
X82857592Y-56946974D01*
X83152570Y-57144072D01*
X83403428Y-57394930D01*
X83600526Y-57689908D01*
X83736289Y-58017669D01*
X83805500Y-58365616D01*
X83805500Y-58720384D01*
X83736289Y-59068331D01*
X83600526Y-59396092D01*
X83403428Y-59691070D01*
X83152570Y-59941928D01*
X82857592Y-60139026D01*
X82529831Y-60274789D01*
X82181884Y-60344000D01*
X81827116Y-60344000D01*
X81479169Y-60274789D01*
X81151408Y-60139026D01*
X80856430Y-59941928D01*
X80605572Y-59691070D01*
X80408474Y-59396092D01*
X80272711Y-59068331D01*
X80251096Y-58959665D01*
X80243983Y-58936216D01*
X80232432Y-58914605D01*
X80216887Y-58895663D01*
X80197945Y-58880118D01*
X80176334Y-58868567D01*
X80152885Y-58861454D01*
X80128499Y-58859052D01*
X80104113Y-58861454D01*
X80080664Y-58868567D01*
X80059053Y-58880118D01*
X80040111Y-58895663D01*
X80024566Y-58914605D01*
X80013015Y-58936216D01*
X80005902Y-58959665D01*
X80003500Y-58984051D01*
X80003500Y-59477432D01*
X79993357Y-59580421D01*
X79959791Y-59691070D01*
X79953272Y-59712559D01*
X79888181Y-59834338D01*
X79888179Y-59834340D01*
X79800580Y-59941080D01*
X79712980Y-60012971D01*
X79693838Y-60028680D01*
X79572058Y-60093772D01*
X79572056Y-60093773D01*
X79439920Y-60133857D01*
X79302500Y-60147391D01*
X79165079Y-60133857D01*
X79032943Y-60093773D01*
X79032941Y-60093772D01*
X78911161Y-60028680D01*
X78894930Y-60015360D01*
X78804420Y-59941080D01*
X78716821Y-59834339D01*
X78670534Y-59747741D01*
X78651728Y-59712558D01*
X78651727Y-59712556D01*
X78611643Y-59580420D01*
X78601500Y-59477431D01*
X78601500Y-58808568D01*
X78611643Y-58705579D01*
X78651727Y-58573442D01*
X78716820Y-58451662D01*
X78804421Y-58344920D01*
X78911161Y-58257321D01*
X78911160Y-58257321D01*
X78911162Y-58257320D01*
X79032942Y-58192228D01*
X79032944Y-58192227D01*
X79165080Y-58152143D01*
X79302500Y-58138609D01*
X79439921Y-58152143D01*
X79572057Y-58192227D01*
X79572059Y-58192228D01*
X79693839Y-58257320D01*
X79800580Y-58344920D01*
X79888180Y-58451661D01*
X79918479Y-58508348D01*
X79953272Y-58573440D01*
X79958884Y-58591942D01*
X79968262Y-58614581D01*
X79981876Y-58634956D01*
X79999203Y-58652283D01*
X80019577Y-58665896D01*
X80042216Y-58675274D01*
X80066249Y-58680054D01*
X80090753Y-58680054D01*
X80114786Y-58675274D01*
X80137425Y-58665896D01*
X80157800Y-58652282D01*
X80175127Y-58634955D01*
X80188740Y-58614581D01*
X80198118Y-58591942D01*
X80203500Y-58555657D01*
X80203500Y-58365616D01*
X80272711Y-58017669D01*
X80408474Y-57689908D01*
X80605572Y-57394930D01*
X80856430Y-57144072D01*
X81151408Y-56946974D01*
X81479169Y-56811211D01*
X81827116Y-56742000D01*
X82181884Y-56742000D01*
X82529831Y-56811211D01*
X82529831Y-56811211D01*
G37*
G36*
X70839921Y-58152143D02*
G01*
X70972057Y-58192227D01*
X70972059Y-58192228D01*
X71093839Y-58257320D01*
X71200580Y-58344920D01*
X71288180Y-58451661D01*
X71343766Y-58555657D01*
X71353273Y-58573443D01*
X71393357Y-58705579D01*
X71403500Y-58808568D01*
X71403500Y-59477432D01*
X71393357Y-59580421D01*
X71359791Y-59691070D01*
X71353272Y-59712559D01*
X71288181Y-59834338D01*
X71288179Y-59834340D01*
X71200580Y-59941080D01*
X71112980Y-60012971D01*
X71093838Y-60028680D01*
X70972058Y-60093772D01*
X70972056Y-60093773D01*
X70839920Y-60133857D01*
X70702500Y-60147391D01*
X70565079Y-60133857D01*
X70432943Y-60093773D01*
X70432941Y-60093772D01*
X70311161Y-60028680D01*
X70294930Y-60015360D01*
X70204420Y-59941080D01*
X70116821Y-59834339D01*
X70070534Y-59747741D01*
X70051728Y-59712558D01*
X70051727Y-59712556D01*
X70011643Y-59580420D01*
X70001500Y-59477431D01*
X70001500Y-58808568D01*
X70011643Y-58705579D01*
X70051727Y-58573442D01*
X70116820Y-58451662D01*
X70204421Y-58344920D01*
X70311161Y-58257321D01*
X70311160Y-58257321D01*
X70311162Y-58257320D01*
X70432942Y-58192228D01*
X70432944Y-58192227D01*
X70565080Y-58152143D01*
X70702500Y-58138609D01*
X70839921Y-58152143D01*
X70839921Y-58152143D01*
G37*
G36*
X68307085Y-57021802D02*
G01*
X68456910Y-57051604D01*
X68739174Y-57168521D01*
X68993205Y-57338259D01*
X69209241Y-57554295D01*
X69378979Y-57808326D01*
X69495896Y-58090590D01*
X69555500Y-58390240D01*
X69555500Y-58695760D01*
X69495896Y-58995410D01*
X69378979Y-59277674D01*
X69209241Y-59531705D01*
X68993205Y-59747741D01*
X68739174Y-59917479D01*
X68456910Y-60034396D01*
X68307085Y-60064198D01*
X68157261Y-60094000D01*
X67851739Y-60094000D01*
X67701915Y-60064198D01*
X67552090Y-60034396D01*
X67269826Y-59917479D01*
X67015795Y-59747741D01*
X66799759Y-59531705D01*
X66630021Y-59277674D01*
X66513104Y-58995410D01*
X66453500Y-58695760D01*
X66453500Y-58390240D01*
X66513104Y-58090590D01*
X66630021Y-57808326D01*
X66799759Y-57554295D01*
X67015795Y-57338259D01*
X67269826Y-57168521D01*
X67552090Y-57051604D01*
X67701915Y-57021802D01*
X67851739Y-56992000D01*
X68157261Y-56992000D01*
X68307085Y-57021802D01*
X68307085Y-57021802D01*
G37*
M02*
