G04 #@! TF.GenerationSoftware,KiCad,Pcbnew,(5.99.0-1490-g73eda91ec)*
G04 #@! TF.CreationDate,2020-05-03T20:48:54+09:00*
G04 #@! TF.ProjectId,Unified-Daughterboard,556e6966-6965-4642-9d44-617567687465,C3*
G04 #@! TF.SameCoordinates,Original*
G04 #@! TF.FileFunction,Legend,Top*
G04 #@! TF.FilePolarity,Positive*
%FSLAX46Y46*%
G04 Gerber Fmt 4.6, Leading zero omitted, Abs format (unit mm)*
G04 Created by KiCad (PCBNEW (5.99.0-1490-g73eda91ec)) date 2020-05-03 20:48:54*
%MOMM*%
%LPD*%
G01*
G04 APERTURE LIST*
%ADD10C,0.400000*%
%ADD11C,0.120000*%
%ADD12C,0.100000*%
%ADD13C,0.101600*%
%ADD14C,0.150000*%
%ADD15O,1.202000X2.302000*%
%ADD16O,1.402000X2.002000*%
%ADD17C,0.752000*%
%ADD18C,3.602001*%
G04 APERTURE END LIST*
X76401128Y-66483542D02*
X76886842Y-66483542D01*
X76943985Y-66454971D01*
X76972557Y-66426400D01*
X77001128Y-66369257D01*
X77001128Y-66254971D01*
X76972557Y-66197828D01*
X76943985Y-66169257D01*
X76886842Y-66140685D01*
X76401128Y-66140685D01*
X77001128Y-65540685D02*
X77001128Y-65883542D01*
X77001128Y-65712114D02*
X76401128Y-65712114D01*
X76486842Y-65769257D01*
X76543985Y-65826400D01*
X76572557Y-65883542D01*
X81860500Y-63282714D02*
X81497642Y-63282714D01*
X81497642Y-62520714D01*
X82513642Y-63282714D02*
X82078214Y-63282714D01*
X82295928Y-63282714D02*
X82295928Y-62520714D01*
X82223357Y-62629571D01*
X82150785Y-62702142D01*
X82078214Y-62738428D01*
X71603133Y-65742280D02*
X71408400Y-65464090D01*
X71269304Y-65742280D02*
X71269304Y-65158080D01*
X71491857Y-65158080D01*
X71547495Y-65185900D01*
X71575314Y-65213719D01*
X71603133Y-65269357D01*
X71603133Y-65352814D01*
X71575314Y-65408452D01*
X71547495Y-65436271D01*
X71491857Y-65464090D01*
X71269304Y-65464090D01*
X71825685Y-65213719D02*
X71853504Y-65185900D01*
X71909142Y-65158080D01*
X72048238Y-65158080D01*
X72103876Y-65185900D01*
X72131695Y-65213719D01*
X72159514Y-65269357D01*
X72159514Y-65324995D01*
X72131695Y-65408452D01*
X71797866Y-65742280D01*
X72159514Y-65742280D01*
X67678833Y-63161642D02*
X67467166Y-63161642D01*
X67467166Y-63494261D02*
X67467166Y-62859261D01*
X67769547Y-62859261D01*
X68344071Y-63494261D02*
X67981214Y-63494261D01*
X68162642Y-63494261D02*
X68162642Y-62859261D01*
X68102166Y-62949976D01*
X68041690Y-63010452D01*
X67981214Y-63040690D01*
X68062023Y-68902904D02*
X68062023Y-68102904D01*
X68252500Y-68102904D01*
X68366785Y-68141000D01*
X68442976Y-68217190D01*
X68481071Y-68293380D01*
X68519166Y-68445761D01*
X68519166Y-68560047D01*
X68481071Y-68712428D01*
X68442976Y-68788619D01*
X68366785Y-68864809D01*
X68252500Y-68902904D01*
X68062023Y-68902904D01*
X69281071Y-68902904D02*
X68823928Y-68902904D01*
X69052500Y-68902904D02*
X69052500Y-68102904D01*
X68976309Y-68217190D01*
X68900119Y-68293380D01*
X68823928Y-68331476D01*
X74669166Y-59295380D02*
X74669166Y-60009666D01*
X74621547Y-60152523D01*
X74526309Y-60247761D01*
X74383452Y-60295380D01*
X74288214Y-60295380D01*
X75669166Y-60295380D02*
X75097738Y-60295380D01*
X75383452Y-60295380D02*
X75383452Y-59295380D01*
X75288214Y-59438238D01*
X75192976Y-59533476D01*
X75097738Y-59581095D01*
X74675166Y-71056380D02*
X74675166Y-71770666D01*
X74627547Y-71913523D01*
X74532309Y-72008761D01*
X74389452Y-72056380D01*
X74294214Y-72056380D01*
X75103738Y-71151619D02*
X75151357Y-71104000D01*
X75246595Y-71056380D01*
X75484690Y-71056380D01*
X75579928Y-71104000D01*
X75627547Y-71151619D01*
X75675166Y-71246857D01*
X75675166Y-71342095D01*
X75627547Y-71484952D01*
X75056119Y-72056380D01*
X75675166Y-72056380D01*
X78325666Y-65765261D02*
X78114000Y-65462880D01*
X77962809Y-65765261D02*
X77962809Y-65130261D01*
X78204714Y-65130261D01*
X78265190Y-65160500D01*
X78295428Y-65190738D01*
X78325666Y-65251214D01*
X78325666Y-65341928D01*
X78295428Y-65402404D01*
X78265190Y-65432642D01*
X78204714Y-65462880D01*
X77962809Y-65462880D01*
X78930428Y-65765261D02*
X78567571Y-65765261D01*
X78749000Y-65765261D02*
X78749000Y-65130261D01*
X78688523Y-65220976D01*
X78628047Y-65281452D01*
X78567571Y-65311690D01*
D10*
X73502500Y-66426400D02*
G75*
G03*
X73502500Y-66426400I0J0D01*
G01*
D11*
X81077500Y-66476064D02*
X81077500Y-65271936D01*
X82897500Y-66476064D02*
X82897500Y-65271936D01*
X71274500Y-67629000D02*
X71274500Y-66629000D01*
X72634500Y-66629000D02*
X72634500Y-67629000D01*
X68800500Y-62604936D02*
X68800500Y-63809064D01*
X66980500Y-62604936D02*
X66980500Y-63809064D01*
X68652500Y-66255000D02*
X68906500Y-66255000D01*
X68652500Y-67525000D02*
X68398500Y-67525000D01*
X68652500Y-66255000D02*
X68652500Y-67525000D01*
G36*
X68652500Y-66890000D02*
G01*
X67941500Y-67490000D01*
X67941500Y-66290000D01*
X68652500Y-66890000D01*
G37*
D12*
X68652500Y-66890000D02*
X67941500Y-67490000D01*
X67941500Y-66290000D01*
X68652500Y-66890000D01*
G36*
X69363500Y-67490000D02*
G01*
X68652500Y-66890000D01*
X69363500Y-66290000D01*
X69363500Y-67490000D01*
G37*
X69363500Y-67490000D02*
X68652500Y-66890000D01*
X69363500Y-66290000D01*
X69363500Y-67490000D01*
D13*
X66302500Y-68040000D02*
X66302500Y-65740000D01*
X66302500Y-65740000D02*
X67252500Y-65740000D01*
X66302500Y-68040000D02*
X67252500Y-68040000D01*
X71002500Y-65740000D02*
X71002500Y-68040000D01*
X71002500Y-65740000D02*
X70052500Y-65740000D01*
X71002500Y-68040000D02*
X70052500Y-68040000D01*
D14*
X77004500Y-68393000D02*
X78004500Y-68393000D01*
X78004500Y-68393000D02*
X78004500Y-70793000D01*
X77004500Y-72593000D02*
X73004500Y-72593000D01*
X72004500Y-70793000D02*
X72004500Y-68393000D01*
X72004500Y-68393000D02*
X73004500Y-68393000D01*
D11*
X78603500Y-66629000D02*
X78603500Y-67629000D01*
X77243500Y-67629000D02*
X77243500Y-66629000D01*
%LPC*%
G36*
G01*
X73826500Y-66561400D02*
X73826500Y-66261400D01*
G75*
G02*
X74002500Y-66085400I176000J0D01*
G01*
X74002500Y-66085400D01*
G75*
G02*
X74178500Y-66261400I0J-176000D01*
G01*
X74178500Y-66561400D01*
G75*
G02*
X74002500Y-66737400I-176000J0D01*
G01*
X74002500Y-66737400D01*
G75*
G02*
X73826500Y-66561400I0J176000D01*
G01*
G37*
G36*
G01*
X74326500Y-66686400D02*
X74326500Y-66136400D01*
G75*
G02*
X74377500Y-66085400I51000J0D01*
G01*
X74627500Y-66085400D01*
G75*
G02*
X74678500Y-66136400I0J-51000D01*
G01*
X74678500Y-66686400D01*
G75*
G02*
X74627500Y-66737400I-51000J0D01*
G01*
X74377500Y-66737400D01*
G75*
G02*
X74326500Y-66686400I0J51000D01*
G01*
G37*
G36*
G01*
X74801500Y-66686400D02*
X74801500Y-66136400D01*
G75*
G02*
X74852500Y-66085400I51000J0D01*
G01*
X75152500Y-66085400D01*
G75*
G02*
X75203500Y-66136400I0J-51000D01*
G01*
X75203500Y-66686400D01*
G75*
G02*
X75152500Y-66737400I-51000J0D01*
G01*
X74852500Y-66737400D01*
G75*
G02*
X74801500Y-66686400I0J51000D01*
G01*
G37*
G36*
G01*
X75326500Y-66686400D02*
X75326500Y-66136400D01*
G75*
G02*
X75377500Y-66085400I51000J0D01*
G01*
X75627500Y-66085400D01*
G75*
G02*
X75678500Y-66136400I0J-51000D01*
G01*
X75678500Y-66686400D01*
G75*
G02*
X75627500Y-66737400I-51000J0D01*
G01*
X75377500Y-66737400D01*
G75*
G02*
X75326500Y-66686400I0J51000D01*
G01*
G37*
G36*
G01*
X75826500Y-66686400D02*
X75826500Y-66136400D01*
G75*
G02*
X75877500Y-66085400I51000J0D01*
G01*
X76127500Y-66085400D01*
G75*
G02*
X76178500Y-66136400I0J-51000D01*
G01*
X76178500Y-66686400D01*
G75*
G02*
X76127500Y-66737400I-51000J0D01*
G01*
X75877500Y-66737400D01*
G75*
G02*
X75826500Y-66686400I0J51000D01*
G01*
G37*
G36*
G01*
X74326500Y-65916400D02*
X74326500Y-65366400D01*
G75*
G02*
X74377500Y-65315400I51000J0D01*
G01*
X74627500Y-65315400D01*
G75*
G02*
X74678500Y-65366400I0J-51000D01*
G01*
X74678500Y-65916400D01*
G75*
G02*
X74627500Y-65967400I-51000J0D01*
G01*
X74377500Y-65967400D01*
G75*
G02*
X74326500Y-65916400I0J51000D01*
G01*
G37*
G36*
G01*
X75826500Y-65916400D02*
X75826500Y-65366400D01*
G75*
G02*
X75877500Y-65315400I51000J0D01*
G01*
X76127500Y-65315400D01*
G75*
G02*
X76178500Y-65366400I0J-51000D01*
G01*
X76178500Y-65916400D01*
G75*
G02*
X76127500Y-65967400I-51000J0D01*
G01*
X75877500Y-65967400D01*
G75*
G02*
X75826500Y-65916400I0J51000D01*
G01*
G37*
G36*
G01*
X75326500Y-65916400D02*
X75326500Y-65366400D01*
G75*
G02*
X75377500Y-65315400I51000J0D01*
G01*
X75627500Y-65315400D01*
G75*
G02*
X75678500Y-65366400I0J-51000D01*
G01*
X75678500Y-65916400D01*
G75*
G02*
X75627500Y-65967400I-51000J0D01*
G01*
X75377500Y-65967400D01*
G75*
G02*
X75326500Y-65916400I0J51000D01*
G01*
G37*
G36*
G01*
X73826500Y-65916400D02*
X73826500Y-65366400D01*
G75*
G02*
X73877500Y-65315400I51000J0D01*
G01*
X74127500Y-65315400D01*
G75*
G02*
X74178500Y-65366400I0J-51000D01*
G01*
X74178500Y-65916400D01*
G75*
G02*
X74127500Y-65967400I-51000J0D01*
G01*
X73877500Y-65967400D01*
G75*
G02*
X73826500Y-65916400I0J51000D01*
G01*
G37*
G36*
G01*
X74801500Y-65916400D02*
X74801500Y-65366400D01*
G75*
G02*
X74852500Y-65315400I51000J0D01*
G01*
X75152500Y-65315400D01*
G75*
G02*
X75203500Y-65366400I0J-51000D01*
G01*
X75203500Y-65916400D01*
G75*
G02*
X75152500Y-65967400I-51000J0D01*
G01*
X74852500Y-65967400D01*
G75*
G02*
X74801500Y-65916400I0J51000D01*
G01*
G37*
G36*
G01*
X82643100Y-65150000D02*
X81331900Y-65150000D01*
G75*
G02*
X81061500Y-64879600I0J270400D01*
G01*
X81061500Y-64068400D01*
G75*
G02*
X81331900Y-63798000I270400J0D01*
G01*
X82643100Y-63798000D01*
G75*
G02*
X82913500Y-64068400I0J-270400D01*
G01*
X82913500Y-64879600D01*
G75*
G02*
X82643100Y-65150000I-270400J0D01*
G01*
G37*
G36*
G01*
X82643100Y-67950000D02*
X81331900Y-67950000D01*
G75*
G02*
X81061500Y-67679600I0J270400D01*
G01*
X81061500Y-66868400D01*
G75*
G02*
X81331900Y-66598000I270400J0D01*
G01*
X82643100Y-66598000D01*
G75*
G02*
X82913500Y-66868400I0J-270400D01*
G01*
X82913500Y-67679600D01*
G75*
G02*
X82643100Y-67950000I-270400J0D01*
G01*
G37*
G36*
G01*
X71504500Y-66078000D02*
X72404500Y-66078000D01*
G75*
G02*
X72455500Y-66129000I0J-51000D01*
G01*
X72455500Y-66629000D01*
G75*
G02*
X72404500Y-66680000I-51000J0D01*
G01*
X71504500Y-66680000D01*
G75*
G02*
X71453500Y-66629000I0J51000D01*
G01*
X71453500Y-66129000D01*
G75*
G02*
X71504500Y-66078000I51000J0D01*
G01*
G37*
G36*
G01*
X71504500Y-67578000D02*
X72404500Y-67578000D01*
G75*
G02*
X72455500Y-67629000I0J-51000D01*
G01*
X72455500Y-68129000D01*
G75*
G02*
X72404500Y-68180000I-51000J0D01*
G01*
X71504500Y-68180000D01*
G75*
G02*
X71453500Y-68129000I0J51000D01*
G01*
X71453500Y-67629000D01*
G75*
G02*
X71504500Y-67578000I51000J0D01*
G01*
G37*
G36*
G01*
X67234900Y-63931000D02*
X68546100Y-63931000D01*
G75*
G02*
X68816500Y-64201400I0J-270400D01*
G01*
X68816500Y-65012600D01*
G75*
G02*
X68546100Y-65283000I-270400J0D01*
G01*
X67234900Y-65283000D01*
G75*
G02*
X66964500Y-65012600I0J270400D01*
G01*
X66964500Y-64201400D01*
G75*
G02*
X67234900Y-63931000I270400J0D01*
G01*
G37*
G36*
G01*
X67234900Y-61131000D02*
X68546100Y-61131000D01*
G75*
G02*
X68816500Y-61401400I0J-270400D01*
G01*
X68816500Y-62212600D01*
G75*
G02*
X68546100Y-62483000I-270400J0D01*
G01*
X67234900Y-62483000D01*
G75*
G02*
X66964500Y-62212600I0J270400D01*
G01*
X66964500Y-61401400D01*
G75*
G02*
X67234900Y-61131000I270400J0D01*
G01*
G37*
G36*
G01*
X70853500Y-66514500D02*
X70853500Y-67265500D01*
G75*
G02*
X70578000Y-67541000I-275500J0D01*
G01*
X70027000Y-67541000D01*
G75*
G02*
X69751500Y-67265500I0J275500D01*
G01*
X69751500Y-66514500D01*
G75*
G02*
X70027000Y-66239000I275500J0D01*
G01*
X70578000Y-66239000D01*
G75*
G02*
X70853500Y-66514500I0J-275500D01*
G01*
G37*
G36*
G01*
X67553500Y-66514500D02*
X67553500Y-67265500D01*
G75*
G02*
X67278000Y-67541000I-275500J0D01*
G01*
X66727000Y-67541000D01*
G75*
G02*
X66451500Y-67265500I0J275500D01*
G01*
X66451500Y-66514500D01*
G75*
G02*
X66727000Y-66239000I275500J0D01*
G01*
X67278000Y-66239000D01*
G75*
G02*
X67553500Y-66514500I0J-275500D01*
G01*
G37*
D15*
X70702500Y-63343000D03*
D16*
X70702500Y-59143000D03*
D17*
X72112500Y-62792000D03*
X77892500Y-62792000D03*
D16*
X79302500Y-59143000D03*
G36*
G01*
X78603500Y-63517500D02*
X78603500Y-64718500D01*
G75*
G02*
X78428000Y-64894000I-175500J0D01*
G01*
X78077000Y-64894000D01*
G75*
G02*
X77901500Y-64718500I0J175500D01*
G01*
X77901500Y-63517500D01*
G75*
G02*
X78077000Y-63342000I175500J0D01*
G01*
X78428000Y-63342000D01*
G75*
G02*
X78603500Y-63517500I0J-175500D01*
G01*
G37*
G36*
G01*
X76953500Y-63442500D02*
X76953500Y-64793500D01*
G75*
G02*
X76853000Y-64894000I-100500J0D01*
G01*
X76652000Y-64894000D01*
G75*
G02*
X76551500Y-64793500I0J100500D01*
G01*
X76551500Y-63442500D01*
G75*
G02*
X76652000Y-63342000I100500J0D01*
G01*
X76853000Y-63342000D01*
G75*
G02*
X76953500Y-63442500I0J-100500D01*
G01*
G37*
G36*
G01*
X76453500Y-63442500D02*
X76453500Y-64793500D01*
G75*
G02*
X76353000Y-64894000I-100500J0D01*
G01*
X76152000Y-64894000D01*
G75*
G02*
X76051500Y-64793500I0J100500D01*
G01*
X76051500Y-63442500D01*
G75*
G02*
X76152000Y-63342000I100500J0D01*
G01*
X76353000Y-63342000D01*
G75*
G02*
X76453500Y-63442500I0J-100500D01*
G01*
G37*
G36*
G01*
X75953500Y-63442500D02*
X75953500Y-64793500D01*
G75*
G02*
X75853000Y-64894000I-100500J0D01*
G01*
X75652000Y-64894000D01*
G75*
G02*
X75551500Y-64793500I0J100500D01*
G01*
X75551500Y-63442500D01*
G75*
G02*
X75652000Y-63342000I100500J0D01*
G01*
X75853000Y-63342000D01*
G75*
G02*
X75953500Y-63442500I0J-100500D01*
G01*
G37*
G36*
G01*
X75457500Y-63442500D02*
X75457500Y-64793500D01*
G75*
G02*
X75357000Y-64894000I-100500J0D01*
G01*
X75156000Y-64894000D01*
G75*
G02*
X75055500Y-64793500I0J100500D01*
G01*
X75055500Y-63442500D01*
G75*
G02*
X75156000Y-63342000I100500J0D01*
G01*
X75357000Y-63342000D01*
G75*
G02*
X75457500Y-63442500I0J-100500D01*
G01*
G37*
G36*
G01*
X73453500Y-63442500D02*
X73453500Y-64793500D01*
G75*
G02*
X73353000Y-64894000I-100500J0D01*
G01*
X73152000Y-64894000D01*
G75*
G02*
X73051500Y-64793500I0J100500D01*
G01*
X73051500Y-63442500D01*
G75*
G02*
X73152000Y-63342000I100500J0D01*
G01*
X73353000Y-63342000D01*
G75*
G02*
X73453500Y-63442500I0J-100500D01*
G01*
G37*
G36*
G01*
X73953500Y-63442500D02*
X73953500Y-64793500D01*
G75*
G02*
X73853000Y-64894000I-100500J0D01*
G01*
X73652000Y-64894000D01*
G75*
G02*
X73551500Y-64793500I0J100500D01*
G01*
X73551500Y-63442500D01*
G75*
G02*
X73652000Y-63342000I100500J0D01*
G01*
X73853000Y-63342000D01*
G75*
G02*
X73953500Y-63442500I0J-100500D01*
G01*
G37*
G36*
G01*
X74453500Y-63442500D02*
X74453500Y-64793500D01*
G75*
G02*
X74353000Y-64894000I-100500J0D01*
G01*
X74152000Y-64894000D01*
G75*
G02*
X74051500Y-64793500I0J100500D01*
G01*
X74051500Y-63442500D01*
G75*
G02*
X74152000Y-63342000I100500J0D01*
G01*
X74353000Y-63342000D01*
G75*
G02*
X74453500Y-63442500I0J-100500D01*
G01*
G37*
G36*
G01*
X74953500Y-63442500D02*
X74953500Y-64793500D01*
G75*
G02*
X74853000Y-64894000I-100500J0D01*
G01*
X74652000Y-64894000D01*
G75*
G02*
X74551500Y-64793500I0J100500D01*
G01*
X74551500Y-63442500D01*
G75*
G02*
X74652000Y-63342000I100500J0D01*
G01*
X74853000Y-63342000D01*
G75*
G02*
X74953500Y-63442500I0J-100500D01*
G01*
G37*
D15*
X79302500Y-63343000D03*
G36*
G01*
X77803500Y-63517500D02*
X77803500Y-64718500D01*
G75*
G02*
X77628000Y-64894000I-175500J0D01*
G01*
X77277000Y-64894000D01*
G75*
G02*
X77101500Y-64718500I0J175500D01*
G01*
X77101500Y-63517500D01*
G75*
G02*
X77277000Y-63342000I175500J0D01*
G01*
X77628000Y-63342000D01*
G75*
G02*
X77803500Y-63517500I0J-175500D01*
G01*
G37*
G36*
G01*
X72103500Y-63517500D02*
X72103500Y-64718500D01*
G75*
G02*
X71928000Y-64894000I-175500J0D01*
G01*
X71577000Y-64894000D01*
G75*
G02*
X71401500Y-64718500I0J175500D01*
G01*
X71401500Y-63517500D01*
G75*
G02*
X71577000Y-63342000I175500J0D01*
G01*
X71928000Y-63342000D01*
G75*
G02*
X72103500Y-63517500I0J-175500D01*
G01*
G37*
G36*
G01*
X72903500Y-63517500D02*
X72903500Y-64718500D01*
G75*
G02*
X72728000Y-64894000I-175500J0D01*
G01*
X72377000Y-64894000D01*
G75*
G02*
X72201500Y-64718500I0J175500D01*
G01*
X72201500Y-63517500D01*
G75*
G02*
X72377000Y-63342000I175500J0D01*
G01*
X72728000Y-63342000D01*
G75*
G02*
X72903500Y-63517500I0J-175500D01*
G01*
G37*
D18*
X68004500Y-58543000D03*
X82004500Y-58543000D03*
X68004500Y-71043000D03*
X82004500Y-71043000D03*
G36*
G01*
X75153500Y-68793000D02*
X75153500Y-67243000D01*
G75*
G02*
X75204500Y-67192000I51000J0D01*
G01*
X75804500Y-67192000D01*
G75*
G02*
X75855500Y-67243000I0J-51000D01*
G01*
X75855500Y-68793000D01*
G75*
G02*
X75804500Y-68844000I-51000J0D01*
G01*
X75204500Y-68844000D01*
G75*
G02*
X75153500Y-68793000I0J51000D01*
G01*
G37*
G36*
G01*
X76153500Y-68793000D02*
X76153500Y-67243000D01*
G75*
G02*
X76204500Y-67192000I51000J0D01*
G01*
X76804500Y-67192000D01*
G75*
G02*
X76855500Y-67243000I0J-51000D01*
G01*
X76855500Y-68793000D01*
G75*
G02*
X76804500Y-68844000I-51000J0D01*
G01*
X76204500Y-68844000D01*
G75*
G02*
X76153500Y-68793000I0J51000D01*
G01*
G37*
G36*
G01*
X74153500Y-68793000D02*
X74153500Y-67243000D01*
G75*
G02*
X74204500Y-67192000I51000J0D01*
G01*
X74804500Y-67192000D01*
G75*
G02*
X74855500Y-67243000I0J-51000D01*
G01*
X74855500Y-68793000D01*
G75*
G02*
X74804500Y-68844000I-51000J0D01*
G01*
X74204500Y-68844000D01*
G75*
G02*
X74153500Y-68793000I0J51000D01*
G01*
G37*
G36*
G01*
X73153500Y-68793000D02*
X73153500Y-67243000D01*
G75*
G02*
X73204500Y-67192000I51000J0D01*
G01*
X73804500Y-67192000D01*
G75*
G02*
X73855500Y-67243000I0J-51000D01*
G01*
X73855500Y-68793000D01*
G75*
G02*
X73804500Y-68844000I-51000J0D01*
G01*
X73204500Y-68844000D01*
G75*
G02*
X73153500Y-68793000I0J51000D01*
G01*
G37*
G36*
G01*
X71553500Y-72793001D02*
X71553500Y-70992999D01*
G75*
G02*
X71604499Y-70942000I50999J0D01*
G01*
X72804501Y-70942000D01*
G75*
G02*
X72855500Y-70992999I0J-50999D01*
G01*
X72855500Y-72793001D01*
G75*
G02*
X72804501Y-72844000I-50999J0D01*
G01*
X71604499Y-72844000D01*
G75*
G02*
X71553500Y-72793001I0J50999D01*
G01*
G37*
G36*
G01*
X77153500Y-72793001D02*
X77153500Y-70992999D01*
G75*
G02*
X77204499Y-70942000I50999J0D01*
G01*
X78404501Y-70942000D01*
G75*
G02*
X78455500Y-70992999I0J-50999D01*
G01*
X78455500Y-72793001D01*
G75*
G02*
X78404501Y-72844000I-50999J0D01*
G01*
X77204499Y-72844000D01*
G75*
G02*
X77153500Y-72793001I0J50999D01*
G01*
G37*
G36*
G01*
X77473500Y-67578000D02*
X78373500Y-67578000D01*
G75*
G02*
X78424500Y-67629000I0J-51000D01*
G01*
X78424500Y-68129000D01*
G75*
G02*
X78373500Y-68180000I-51000J0D01*
G01*
X77473500Y-68180000D01*
G75*
G02*
X77422500Y-68129000I0J51000D01*
G01*
X77422500Y-67629000D01*
G75*
G02*
X77473500Y-67578000I51000J0D01*
G01*
G37*
G36*
G01*
X77473500Y-66078000D02*
X78373500Y-66078000D01*
G75*
G02*
X78424500Y-66129000I0J-51000D01*
G01*
X78424500Y-66629000D01*
G75*
G02*
X78373500Y-66680000I-51000J0D01*
G01*
X77473500Y-66680000D01*
G75*
G02*
X77422500Y-66629000I0J51000D01*
G01*
X77422500Y-66129000D01*
G75*
G02*
X77473500Y-66078000I51000J0D01*
G01*
G37*
M02*
