G04 #@! TF.GenerationSoftware,KiCad,Pcbnew,(5.99.0-1490-g73eda91ec)*
G04 #@! TF.CreationDate,2020-05-03T20:48:54+09:00*
G04 #@! TF.ProjectId,Unified-Daughterboard,556e6966-6965-4642-9d44-617567687465,C3*
G04 #@! TF.SameCoordinates,Original*
G04 #@! TF.FileFunction,Paste,Top*
G04 #@! TF.FilePolarity,Positive*
%FSLAX46Y46*%
G04 Gerber Fmt 4.6, Leading zero omitted, Abs format (unit mm)*
G04 Created by KiCad (PCBNEW (5.99.0-1490-g73eda91ec)) date 2020-05-03 20:48:54*
%MOMM*%
%LPD*%
G01*
G04 APERTURE LIST*
%ADD10R,0.250000X0.550000*%
%ADD11R,0.300000X0.550000*%
%ADD12R,0.900000X0.500000*%
%ADD13R,0.600000X1.550000*%
%ADD14R,1.200000X1.800000*%
G04 APERTURE END LIST*
G36*
G01*
X73877500Y-66561400D02*
X73877500Y-66261400D01*
G75*
G02*
X74002500Y-66136400I125000J0D01*
G01*
X74002500Y-66136400D01*
G75*
G02*
X74127500Y-66261400I0J-125000D01*
G01*
X74127500Y-66561400D01*
G75*
G02*
X74002500Y-66686400I-125000J0D01*
G01*
X74002500Y-66686400D01*
G75*
G02*
X73877500Y-66561400I0J125000D01*
G01*
G37*
D10*
X74502500Y-66411400D03*
D11*
X75002500Y-66411400D03*
D10*
X75502500Y-66411400D03*
X76002500Y-66411400D03*
X74502500Y-65641400D03*
X76002500Y-65641400D03*
X75502500Y-65641400D03*
X74002500Y-65641400D03*
D11*
X75002500Y-65641400D03*
G36*
G01*
X82612500Y-65099000D02*
X81362500Y-65099000D01*
G75*
G02*
X81112500Y-64849000I0J250000D01*
G01*
X81112500Y-64099000D01*
G75*
G02*
X81362500Y-63849000I250000J0D01*
G01*
X82612500Y-63849000D01*
G75*
G02*
X82862500Y-64099000I0J-250000D01*
G01*
X82862500Y-64849000D01*
G75*
G02*
X82612500Y-65099000I-250000J0D01*
G01*
G37*
G36*
G01*
X82612500Y-67899000D02*
X81362500Y-67899000D01*
G75*
G02*
X81112500Y-67649000I0J250000D01*
G01*
X81112500Y-66899000D01*
G75*
G02*
X81362500Y-66649000I250000J0D01*
G01*
X82612500Y-66649000D01*
G75*
G02*
X82862500Y-66899000I0J-250000D01*
G01*
X82862500Y-67649000D01*
G75*
G02*
X82612500Y-67899000I-250000J0D01*
G01*
G37*
D12*
X71954500Y-66379000D03*
X71954500Y-67879000D03*
G36*
G01*
X67265500Y-63982000D02*
X68515500Y-63982000D01*
G75*
G02*
X68765500Y-64232000I0J-250000D01*
G01*
X68765500Y-64982000D01*
G75*
G02*
X68515500Y-65232000I-250000J0D01*
G01*
X67265500Y-65232000D01*
G75*
G02*
X67015500Y-64982000I0J250000D01*
G01*
X67015500Y-64232000D01*
G75*
G02*
X67265500Y-63982000I250000J0D01*
G01*
G37*
G36*
G01*
X67265500Y-61182000D02*
X68515500Y-61182000D01*
G75*
G02*
X68765500Y-61432000I0J-250000D01*
G01*
X68765500Y-62182000D01*
G75*
G02*
X68515500Y-62432000I-250000J0D01*
G01*
X67265500Y-62432000D01*
G75*
G02*
X67015500Y-62182000I0J250000D01*
G01*
X67015500Y-61432000D01*
G75*
G02*
X67265500Y-61182000I250000J0D01*
G01*
G37*
G36*
G01*
X70802500Y-66540000D02*
X70802500Y-67240000D01*
G75*
G02*
X70552500Y-67490000I-250000J0D01*
G01*
X70052500Y-67490000D01*
G75*
G02*
X69802500Y-67240000I0J250000D01*
G01*
X69802500Y-66540000D01*
G75*
G02*
X70052500Y-66290000I250000J0D01*
G01*
X70552500Y-66290000D01*
G75*
G02*
X70802500Y-66540000I0J-250000D01*
G01*
G37*
G36*
G01*
X67502500Y-66540000D02*
X67502500Y-67240000D01*
G75*
G02*
X67252500Y-67490000I-250000J0D01*
G01*
X66752500Y-67490000D01*
G75*
G02*
X66502500Y-67240000I0J250000D01*
G01*
X66502500Y-66540000D01*
G75*
G02*
X66752500Y-66290000I250000J0D01*
G01*
X67252500Y-66290000D01*
G75*
G02*
X67502500Y-66540000I0J-250000D01*
G01*
G37*
G36*
G01*
X78552500Y-63543000D02*
X78552500Y-64693000D01*
G75*
G02*
X78402500Y-64843000I-150000J0D01*
G01*
X78102500Y-64843000D01*
G75*
G02*
X77952500Y-64693000I0J150000D01*
G01*
X77952500Y-63543000D01*
G75*
G02*
X78102500Y-63393000I150000J0D01*
G01*
X78402500Y-63393000D01*
G75*
G02*
X78552500Y-63543000I0J-150000D01*
G01*
G37*
G36*
G01*
X76902500Y-63468000D02*
X76902500Y-64768000D01*
G75*
G02*
X76827500Y-64843000I-75000J0D01*
G01*
X76677500Y-64843000D01*
G75*
G02*
X76602500Y-64768000I0J75000D01*
G01*
X76602500Y-63468000D01*
G75*
G02*
X76677500Y-63393000I75000J0D01*
G01*
X76827500Y-63393000D01*
G75*
G02*
X76902500Y-63468000I0J-75000D01*
G01*
G37*
G36*
G01*
X76402500Y-63468000D02*
X76402500Y-64768000D01*
G75*
G02*
X76327500Y-64843000I-75000J0D01*
G01*
X76177500Y-64843000D01*
G75*
G02*
X76102500Y-64768000I0J75000D01*
G01*
X76102500Y-63468000D01*
G75*
G02*
X76177500Y-63393000I75000J0D01*
G01*
X76327500Y-63393000D01*
G75*
G02*
X76402500Y-63468000I0J-75000D01*
G01*
G37*
G36*
G01*
X75902500Y-63468000D02*
X75902500Y-64768000D01*
G75*
G02*
X75827500Y-64843000I-75000J0D01*
G01*
X75677500Y-64843000D01*
G75*
G02*
X75602500Y-64768000I0J75000D01*
G01*
X75602500Y-63468000D01*
G75*
G02*
X75677500Y-63393000I75000J0D01*
G01*
X75827500Y-63393000D01*
G75*
G02*
X75902500Y-63468000I0J-75000D01*
G01*
G37*
G36*
G01*
X75406500Y-63468000D02*
X75406500Y-64768000D01*
G75*
G02*
X75331500Y-64843000I-75000J0D01*
G01*
X75181500Y-64843000D01*
G75*
G02*
X75106500Y-64768000I0J75000D01*
G01*
X75106500Y-63468000D01*
G75*
G02*
X75181500Y-63393000I75000J0D01*
G01*
X75331500Y-63393000D01*
G75*
G02*
X75406500Y-63468000I0J-75000D01*
G01*
G37*
G36*
G01*
X73402500Y-63468000D02*
X73402500Y-64768000D01*
G75*
G02*
X73327500Y-64843000I-75000J0D01*
G01*
X73177500Y-64843000D01*
G75*
G02*
X73102500Y-64768000I0J75000D01*
G01*
X73102500Y-63468000D01*
G75*
G02*
X73177500Y-63393000I75000J0D01*
G01*
X73327500Y-63393000D01*
G75*
G02*
X73402500Y-63468000I0J-75000D01*
G01*
G37*
G36*
G01*
X73902500Y-63468000D02*
X73902500Y-64768000D01*
G75*
G02*
X73827500Y-64843000I-75000J0D01*
G01*
X73677500Y-64843000D01*
G75*
G02*
X73602500Y-64768000I0J75000D01*
G01*
X73602500Y-63468000D01*
G75*
G02*
X73677500Y-63393000I75000J0D01*
G01*
X73827500Y-63393000D01*
G75*
G02*
X73902500Y-63468000I0J-75000D01*
G01*
G37*
G36*
G01*
X74402500Y-63468000D02*
X74402500Y-64768000D01*
G75*
G02*
X74327500Y-64843000I-75000J0D01*
G01*
X74177500Y-64843000D01*
G75*
G02*
X74102500Y-64768000I0J75000D01*
G01*
X74102500Y-63468000D01*
G75*
G02*
X74177500Y-63393000I75000J0D01*
G01*
X74327500Y-63393000D01*
G75*
G02*
X74402500Y-63468000I0J-75000D01*
G01*
G37*
G36*
G01*
X74902500Y-63468000D02*
X74902500Y-64768000D01*
G75*
G02*
X74827500Y-64843000I-75000J0D01*
G01*
X74677500Y-64843000D01*
G75*
G02*
X74602500Y-64768000I0J75000D01*
G01*
X74602500Y-63468000D01*
G75*
G02*
X74677500Y-63393000I75000J0D01*
G01*
X74827500Y-63393000D01*
G75*
G02*
X74902500Y-63468000I0J-75000D01*
G01*
G37*
G36*
G01*
X77752500Y-63543000D02*
X77752500Y-64693000D01*
G75*
G02*
X77602500Y-64843000I-150000J0D01*
G01*
X77302500Y-64843000D01*
G75*
G02*
X77152500Y-64693000I0J150000D01*
G01*
X77152500Y-63543000D01*
G75*
G02*
X77302500Y-63393000I150000J0D01*
G01*
X77602500Y-63393000D01*
G75*
G02*
X77752500Y-63543000I0J-150000D01*
G01*
G37*
G36*
G01*
X72052500Y-63543000D02*
X72052500Y-64693000D01*
G75*
G02*
X71902500Y-64843000I-150000J0D01*
G01*
X71602500Y-64843000D01*
G75*
G02*
X71452500Y-64693000I0J150000D01*
G01*
X71452500Y-63543000D01*
G75*
G02*
X71602500Y-63393000I150000J0D01*
G01*
X71902500Y-63393000D01*
G75*
G02*
X72052500Y-63543000I0J-150000D01*
G01*
G37*
G36*
G01*
X72852500Y-63543000D02*
X72852500Y-64693000D01*
G75*
G02*
X72702500Y-64843000I-150000J0D01*
G01*
X72402500Y-64843000D01*
G75*
G02*
X72252500Y-64693000I0J150000D01*
G01*
X72252500Y-63543000D01*
G75*
G02*
X72402500Y-63393000I150000J0D01*
G01*
X72702500Y-63393000D01*
G75*
G02*
X72852500Y-63543000I0J-150000D01*
G01*
G37*
D13*
X75504500Y-68018000D03*
X76504500Y-68018000D03*
X74504500Y-68018000D03*
X73504500Y-68018000D03*
D14*
X72204500Y-71893000D03*
X77804500Y-71893000D03*
D12*
X77923500Y-67879000D03*
X77923500Y-66379000D03*
M02*
