G04 #@! TF.GenerationSoftware,KiCad,Pcbnew,(5.99.0-840-g2507f985a)*
G04 #@! TF.CreationDate,2020-03-22T20:28:13-03:00*
G04 #@! TF.ProjectId,Unified-Daughterboard,556e6966-6965-4642-9d44-617567687465,rev?*
G04 #@! TF.SameCoordinates,Original*
G04 #@! TF.FileFunction,Soldermask,Top*
G04 #@! TF.FilePolarity,Negative*
%FSLAX46Y46*%
G04 Gerber Fmt 4.6, Leading zero omitted, Abs format (unit mm)*
G04 Created by KiCad (PCBNEW (5.99.0-840-g2507f985a)) date 2020-03-22 20:28:13*
%MOMM*%
%LPD*%
G01*
G04 APERTURE LIST*
G04 APERTURE END LIST*
G36*
X68097070Y-69243135D02*
G01*
X68160303Y-69244129D01*
X68224321Y-69254268D01*
X68294809Y-69260435D01*
X68355974Y-69275120D01*
X68412208Y-69284026D01*
X68480210Y-69304946D01*
X68555100Y-69322926D01*
X68607595Y-69344135D01*
X68655978Y-69359020D01*
X68726059Y-69391998D01*
X68803295Y-69423203D01*
X68846672Y-69448754D01*
X68886762Y-69467619D01*
X68956786Y-69513616D01*
X69033943Y-69559065D01*
X69068171Y-69586782D01*
X69099930Y-69607644D01*
X69167537Y-69667247D01*
X69241975Y-69727526D01*
X69267474Y-69755353D01*
X69291245Y-69776310D01*
X69353900Y-69849670D01*
X69422822Y-69924885D01*
X69440413Y-69950964D01*
X69456884Y-69970250D01*
X69511989Y-70057081D01*
X69572510Y-70146808D01*
X69583338Y-70169508D01*
X69593549Y-70185599D01*
X69638538Y-70285238D01*
X69687753Y-70388419D01*
X69693261Y-70406436D01*
X69698503Y-70418045D01*
X69730840Y-70529352D01*
X69766017Y-70644409D01*
X69767870Y-70656810D01*
X69769660Y-70662970D01*
X69787006Y-70784846D01*
X69805584Y-70909156D01*
X69796111Y-71270922D01*
X69793717Y-71282689D01*
X69793635Y-71285297D01*
X69768047Y-71408857D01*
X69742742Y-71533235D01*
X69699383Y-71652365D01*
X69655920Y-71773086D01*
X69654397Y-71775963D01*
X69651188Y-71784779D01*
X69592430Y-71892999D01*
X69536576Y-71998488D01*
X69530947Y-72006235D01*
X69523459Y-72020027D01*
X69452817Y-72113771D01*
X69386662Y-72204826D01*
X69375603Y-72216238D01*
X69362360Y-72233812D01*
X69282955Y-72311843D01*
X69209165Y-72387988D01*
X69191620Y-72401598D01*
X69171432Y-72421436D01*
X69086391Y-72483222D01*
X69007643Y-72544306D01*
X68982862Y-72558441D01*
X68954869Y-72578779D01*
X68867135Y-72624450D01*
X68786096Y-72670674D01*
X68753701Y-72683500D01*
X68717427Y-72702383D01*
X68629806Y-72732553D01*
X68548958Y-72764563D01*
X68508940Y-72774170D01*
X68464324Y-72789533D01*
X68379359Y-72805280D01*
X68300957Y-72824103D01*
X68253696Y-72828570D01*
X68201119Y-72838315D01*
X68121012Y-72841113D01*
X68047040Y-72848105D01*
X67993325Y-72845572D01*
X67933595Y-72847658D01*
X67860176Y-72839293D01*
X67792275Y-72836091D01*
X67733254Y-72824832D01*
X67667628Y-72817355D01*
X67602313Y-72799854D01*
X67541746Y-72788300D01*
X67478932Y-72766794D01*
X67409062Y-72748072D01*
X67352801Y-72723609D01*
X67300441Y-72705682D01*
X67235660Y-72672675D01*
X67163577Y-72641332D01*
X67116889Y-72612158D01*
X67073195Y-72589895D01*
X67008531Y-72544448D01*
X66936565Y-72499479D01*
X66899484Y-72467809D01*
X66864526Y-72443240D01*
X66802295Y-72384801D01*
X66733014Y-72325630D01*
X66705154Y-72293581D01*
X66678600Y-72268645D01*
X66621251Y-72197061D01*
X66557396Y-72123604D01*
X66537960Y-72093095D01*
X66519139Y-72069603D01*
X66469230Y-71985212D01*
X66413567Y-71897839D01*
X66401412Y-71870539D01*
X66389304Y-71850065D01*
X66349333Y-71753566D01*
X66304689Y-71653294D01*
X66298389Y-71630577D01*
X66291702Y-71614433D01*
X66264118Y-71506999D01*
X66233153Y-71395343D01*
X66231048Y-71378199D01*
X66228274Y-71367395D01*
X66215369Y-71250505D01*
X66200530Y-71129651D01*
X66200817Y-71118695D01*
X66200286Y-71113886D01*
X66204224Y-70988563D01*
X66207537Y-70862055D01*
X66229228Y-70739041D01*
X66252149Y-70607711D01*
X66252666Y-70606120D01*
X66254021Y-70598435D01*
X66293502Y-70480440D01*
X66330961Y-70365150D01*
X66334481Y-70357966D01*
X66338959Y-70344581D01*
X66392917Y-70238682D01*
X66443170Y-70136103D01*
X66451216Y-70124264D01*
X66460486Y-70106070D01*
X66525988Y-70014240D01*
X66586526Y-69925160D01*
X66600416Y-69909895D01*
X66615933Y-69888141D01*
X66690018Y-69811423D01*
X66758176Y-69736519D01*
X66778942Y-69719340D01*
X66801884Y-69695583D01*
X66881604Y-69634411D01*
X66954699Y-69573943D01*
X66983051Y-69556569D01*
X67014255Y-69532625D01*
X67096677Y-69486938D01*
X67172164Y-69440679D01*
X67208489Y-69424960D01*
X67248380Y-69402848D01*
X67330782Y-69372039D01*
X67406230Y-69339390D01*
X67450493Y-69327281D01*
X67499115Y-69309102D01*
X67579056Y-69292110D01*
X67652248Y-69272087D01*
X67704038Y-69265544D01*
X67760952Y-69253447D01*
X67836259Y-69248841D01*
X67905277Y-69240122D01*
X67963783Y-69241041D01*
X68028140Y-69237105D01*
X68097070Y-69243135D01*
G37*
G36*
X82097070Y-69243135D02*
G01*
X82160303Y-69244129D01*
X82224321Y-69254268D01*
X82294809Y-69260435D01*
X82355974Y-69275120D01*
X82412208Y-69284026D01*
X82480210Y-69304946D01*
X82555100Y-69322926D01*
X82607595Y-69344135D01*
X82655978Y-69359020D01*
X82726059Y-69391998D01*
X82803295Y-69423203D01*
X82846672Y-69448754D01*
X82886762Y-69467619D01*
X82956786Y-69513616D01*
X83033943Y-69559065D01*
X83068171Y-69586782D01*
X83099930Y-69607644D01*
X83167537Y-69667247D01*
X83241975Y-69727526D01*
X83267474Y-69755353D01*
X83291245Y-69776310D01*
X83353900Y-69849670D01*
X83422822Y-69924885D01*
X83440413Y-69950964D01*
X83456884Y-69970250D01*
X83511989Y-70057081D01*
X83572510Y-70146808D01*
X83583338Y-70169508D01*
X83593549Y-70185599D01*
X83638538Y-70285238D01*
X83687753Y-70388419D01*
X83693261Y-70406436D01*
X83698503Y-70418045D01*
X83730840Y-70529352D01*
X83766017Y-70644409D01*
X83767870Y-70656810D01*
X83769660Y-70662970D01*
X83787006Y-70784846D01*
X83805584Y-70909156D01*
X83796111Y-71270922D01*
X83793717Y-71282689D01*
X83793635Y-71285297D01*
X83768047Y-71408857D01*
X83742742Y-71533235D01*
X83699383Y-71652365D01*
X83655920Y-71773086D01*
X83654397Y-71775963D01*
X83651188Y-71784779D01*
X83592430Y-71892999D01*
X83536576Y-71998488D01*
X83530947Y-72006235D01*
X83523459Y-72020027D01*
X83452817Y-72113771D01*
X83386662Y-72204826D01*
X83375603Y-72216238D01*
X83362360Y-72233812D01*
X83282955Y-72311843D01*
X83209165Y-72387988D01*
X83191620Y-72401598D01*
X83171432Y-72421436D01*
X83086391Y-72483222D01*
X83007643Y-72544306D01*
X82982862Y-72558441D01*
X82954869Y-72578779D01*
X82867135Y-72624450D01*
X82786096Y-72670674D01*
X82753701Y-72683500D01*
X82717427Y-72702383D01*
X82629806Y-72732553D01*
X82548958Y-72764563D01*
X82508940Y-72774170D01*
X82464324Y-72789533D01*
X82379359Y-72805280D01*
X82300957Y-72824103D01*
X82253696Y-72828570D01*
X82201119Y-72838315D01*
X82121012Y-72841113D01*
X82047040Y-72848105D01*
X81993325Y-72845572D01*
X81933595Y-72847658D01*
X81860176Y-72839293D01*
X81792275Y-72836091D01*
X81733254Y-72824832D01*
X81667628Y-72817355D01*
X81602313Y-72799854D01*
X81541746Y-72788300D01*
X81478932Y-72766794D01*
X81409062Y-72748072D01*
X81352801Y-72723609D01*
X81300441Y-72705682D01*
X81235660Y-72672675D01*
X81163577Y-72641332D01*
X81116889Y-72612158D01*
X81073195Y-72589895D01*
X81008531Y-72544448D01*
X80936565Y-72499479D01*
X80899484Y-72467809D01*
X80864526Y-72443240D01*
X80802295Y-72384801D01*
X80733014Y-72325630D01*
X80705154Y-72293581D01*
X80678600Y-72268645D01*
X80621251Y-72197061D01*
X80557396Y-72123604D01*
X80537960Y-72093095D01*
X80519139Y-72069603D01*
X80469230Y-71985212D01*
X80413567Y-71897839D01*
X80401412Y-71870539D01*
X80389304Y-71850065D01*
X80349333Y-71753566D01*
X80304689Y-71653294D01*
X80298389Y-71630577D01*
X80291702Y-71614433D01*
X80264118Y-71506999D01*
X80233153Y-71395343D01*
X80231048Y-71378199D01*
X80228274Y-71367395D01*
X80215369Y-71250505D01*
X80200530Y-71129651D01*
X80200817Y-71118695D01*
X80200286Y-71113886D01*
X80204224Y-70988563D01*
X80207537Y-70862055D01*
X80229228Y-70739041D01*
X80252149Y-70607711D01*
X80252666Y-70606120D01*
X80254021Y-70598435D01*
X80293502Y-70480440D01*
X80330961Y-70365150D01*
X80334481Y-70357966D01*
X80338959Y-70344581D01*
X80392917Y-70238682D01*
X80443170Y-70136103D01*
X80451216Y-70124264D01*
X80460486Y-70106070D01*
X80525988Y-70014240D01*
X80586526Y-69925160D01*
X80600416Y-69909895D01*
X80615933Y-69888141D01*
X80690018Y-69811423D01*
X80758176Y-69736519D01*
X80778942Y-69719340D01*
X80801884Y-69695583D01*
X80881604Y-69634411D01*
X80954699Y-69573943D01*
X80983051Y-69556569D01*
X81014255Y-69532625D01*
X81096677Y-69486938D01*
X81172164Y-69440679D01*
X81208489Y-69424960D01*
X81248380Y-69402848D01*
X81330782Y-69372039D01*
X81406230Y-69339390D01*
X81450493Y-69327281D01*
X81499115Y-69309102D01*
X81579056Y-69292110D01*
X81652248Y-69272087D01*
X81704038Y-69265544D01*
X81760952Y-69253447D01*
X81836259Y-69248841D01*
X81905277Y-69240122D01*
X81963783Y-69241041D01*
X82028140Y-69237105D01*
X82097070Y-69243135D01*
G37*
G36*
X78424399Y-70944959D02*
G01*
X78441269Y-70956231D01*
X78452541Y-70973101D01*
X78458948Y-71005312D01*
X78458948Y-72780688D01*
X78456499Y-72793000D01*
X78452541Y-72812899D01*
X78441269Y-72829769D01*
X78424399Y-72841041D01*
X78404500Y-72844999D01*
X78392188Y-72847448D01*
X77216812Y-72847448D01*
X77184601Y-72841041D01*
X77167731Y-72829769D01*
X77156459Y-72812899D01*
X77150052Y-72780688D01*
X77150052Y-71005312D01*
X77156459Y-70973101D01*
X77167731Y-70956231D01*
X77184601Y-70944959D01*
X77216812Y-70938552D01*
X78392188Y-70938552D01*
X78424399Y-70944959D01*
G37*
G36*
X72824399Y-70944959D02*
G01*
X72841269Y-70956231D01*
X72852541Y-70973101D01*
X72858948Y-71005312D01*
X72858948Y-72780688D01*
X72856499Y-72793000D01*
X72852541Y-72812899D01*
X72841269Y-72829769D01*
X72824399Y-72841041D01*
X72804500Y-72844999D01*
X72792188Y-72847448D01*
X71616812Y-72847448D01*
X71584601Y-72841041D01*
X71567731Y-72829769D01*
X71556459Y-72812899D01*
X71550052Y-72780688D01*
X71550052Y-71005312D01*
X71556459Y-70973101D01*
X71567731Y-70956231D01*
X71584601Y-70944959D01*
X71616812Y-70938552D01*
X72792188Y-70938552D01*
X72824399Y-70944959D01*
G37*
G36*
X76824399Y-67194959D02*
G01*
X76841269Y-67206231D01*
X76852541Y-67223101D01*
X76858948Y-67255312D01*
X76858948Y-68780688D01*
X76856499Y-68793000D01*
X76852541Y-68812899D01*
X76841269Y-68829769D01*
X76824399Y-68841041D01*
X76804500Y-68844999D01*
X76792188Y-68847448D01*
X76216812Y-68847448D01*
X76184601Y-68841041D01*
X76167731Y-68829769D01*
X76156459Y-68812899D01*
X76150052Y-68780688D01*
X76150052Y-67255312D01*
X76156459Y-67223101D01*
X76167731Y-67206231D01*
X76184601Y-67194959D01*
X76216812Y-67188552D01*
X76792188Y-67188552D01*
X76824399Y-67194959D01*
G37*
G36*
X75824399Y-67194959D02*
G01*
X75841269Y-67206231D01*
X75852541Y-67223101D01*
X75858948Y-67255312D01*
X75858948Y-68780688D01*
X75856499Y-68793000D01*
X75852541Y-68812899D01*
X75841269Y-68829769D01*
X75824399Y-68841041D01*
X75804500Y-68844999D01*
X75792188Y-68847448D01*
X75216812Y-68847448D01*
X75184601Y-68841041D01*
X75167731Y-68829769D01*
X75156459Y-68812899D01*
X75150052Y-68780688D01*
X75150052Y-67255312D01*
X75156459Y-67223101D01*
X75167731Y-67206231D01*
X75184601Y-67194959D01*
X75216812Y-67188552D01*
X75792188Y-67188552D01*
X75824399Y-67194959D01*
G37*
G36*
X73824399Y-67194959D02*
G01*
X73841269Y-67206231D01*
X73852541Y-67223101D01*
X73858948Y-67255312D01*
X73858948Y-68780688D01*
X73856499Y-68793000D01*
X73852541Y-68812899D01*
X73841269Y-68829769D01*
X73824399Y-68841041D01*
X73804500Y-68844999D01*
X73792188Y-68847448D01*
X73216812Y-68847448D01*
X73184601Y-68841041D01*
X73167731Y-68829769D01*
X73156459Y-68812899D01*
X73150052Y-68780688D01*
X73150052Y-67255312D01*
X73156459Y-67223101D01*
X73167731Y-67206231D01*
X73184601Y-67194959D01*
X73216812Y-67188552D01*
X73792188Y-67188552D01*
X73824399Y-67194959D01*
G37*
G36*
X74824399Y-67194959D02*
G01*
X74841269Y-67206231D01*
X74852541Y-67223101D01*
X74858948Y-67255312D01*
X74858948Y-68780688D01*
X74856499Y-68793000D01*
X74852541Y-68812899D01*
X74841269Y-68829769D01*
X74824399Y-68841041D01*
X74804500Y-68844999D01*
X74792188Y-68847448D01*
X74216812Y-68847448D01*
X74184601Y-68841041D01*
X74167731Y-68829769D01*
X74156459Y-68812899D01*
X74150052Y-68780688D01*
X74150052Y-67255312D01*
X74156459Y-67223101D01*
X74167731Y-67206231D01*
X74184601Y-67194959D01*
X74216812Y-67188552D01*
X74792188Y-67188552D01*
X74824399Y-67194959D01*
G37*
G36*
X72424399Y-67580959D02*
G01*
X72441269Y-67592231D01*
X72452541Y-67609101D01*
X72458948Y-67641312D01*
X72458948Y-68116688D01*
X72456499Y-68129000D01*
X72452541Y-68148899D01*
X72441269Y-68165769D01*
X72424399Y-68177041D01*
X72404500Y-68180999D01*
X72392188Y-68183448D01*
X71516812Y-68183448D01*
X71484601Y-68177041D01*
X71467731Y-68165769D01*
X71456459Y-68148899D01*
X71450052Y-68116688D01*
X71450052Y-67641312D01*
X71456459Y-67609101D01*
X71467731Y-67592231D01*
X71484601Y-67580959D01*
X71516812Y-67574552D01*
X72392188Y-67574552D01*
X72424399Y-67580959D01*
G37*
G36*
X78393399Y-67580959D02*
G01*
X78410269Y-67592231D01*
X78421541Y-67609101D01*
X78427948Y-67641312D01*
X78427948Y-68116688D01*
X78425499Y-68129000D01*
X78421541Y-68148899D01*
X78410269Y-68165769D01*
X78393399Y-68177041D01*
X78373500Y-68180999D01*
X78361188Y-68183448D01*
X77485812Y-68183448D01*
X77453601Y-68177041D01*
X77436731Y-68165769D01*
X77425459Y-68148899D01*
X77419052Y-68116688D01*
X77419052Y-67641312D01*
X77425459Y-67609101D01*
X77436731Y-67592231D01*
X77453601Y-67580959D01*
X77485812Y-67574552D01*
X78361188Y-67574552D01*
X78393399Y-67580959D01*
G37*
G36*
X82699256Y-66610764D02*
G01*
X82710728Y-66616289D01*
X82718786Y-66617795D01*
X82736043Y-66628480D01*
X82781138Y-66650197D01*
X82801238Y-66668847D01*
X82814464Y-66677036D01*
X82824764Y-66690676D01*
X82847765Y-66712017D01*
X82870117Y-66750732D01*
X82882281Y-66766840D01*
X82884250Y-66775212D01*
X82892006Y-66788646D01*
X82910919Y-66888603D01*
X82914383Y-66903331D01*
X82914383Y-66906910D01*
X82915694Y-66913839D01*
X82915694Y-67636516D01*
X82900736Y-67735756D01*
X82895211Y-67747228D01*
X82893705Y-67755286D01*
X82883020Y-67772543D01*
X82861303Y-67817638D01*
X82842653Y-67837738D01*
X82834464Y-67850964D01*
X82820824Y-67861264D01*
X82799483Y-67884265D01*
X82760768Y-67906617D01*
X82744660Y-67918781D01*
X82736288Y-67920750D01*
X82722854Y-67928506D01*
X82622897Y-67947419D01*
X82608169Y-67950883D01*
X82604590Y-67950883D01*
X82597661Y-67952194D01*
X81374984Y-67952194D01*
X81275744Y-67937236D01*
X81264272Y-67931711D01*
X81256214Y-67930205D01*
X81238957Y-67919520D01*
X81193862Y-67897803D01*
X81173762Y-67879153D01*
X81160536Y-67870964D01*
X81150236Y-67857324D01*
X81127235Y-67835983D01*
X81104883Y-67797268D01*
X81092719Y-67781160D01*
X81090750Y-67772788D01*
X81082994Y-67759354D01*
X81064081Y-67659397D01*
X81060617Y-67644669D01*
X81060617Y-67641090D01*
X81059306Y-67634161D01*
X81059306Y-66911484D01*
X81074264Y-66812244D01*
X81079789Y-66800772D01*
X81081295Y-66792714D01*
X81091980Y-66775457D01*
X81113697Y-66730362D01*
X81132347Y-66710262D01*
X81140536Y-66697036D01*
X81154176Y-66686736D01*
X81175517Y-66663735D01*
X81214232Y-66641383D01*
X81230340Y-66629219D01*
X81238712Y-66627250D01*
X81252146Y-66619494D01*
X81352103Y-66600581D01*
X81366831Y-66597117D01*
X81370410Y-66597117D01*
X81377339Y-66595806D01*
X82600016Y-66595806D01*
X82699256Y-66610764D01*
G37*
G36*
X67339256Y-66251764D02*
G01*
X67350728Y-66257289D01*
X67358786Y-66258795D01*
X67376043Y-66269480D01*
X67421138Y-66291197D01*
X67441238Y-66309847D01*
X67454464Y-66318036D01*
X67464764Y-66331676D01*
X67487765Y-66353017D01*
X67510117Y-66391732D01*
X67522281Y-66407840D01*
X67524250Y-66416212D01*
X67532006Y-66429646D01*
X67550919Y-66529603D01*
X67554383Y-66544331D01*
X67554383Y-66547910D01*
X67555694Y-66554839D01*
X67555694Y-67227516D01*
X67540736Y-67326756D01*
X67535211Y-67338228D01*
X67533705Y-67346286D01*
X67523020Y-67363543D01*
X67501303Y-67408638D01*
X67482653Y-67428738D01*
X67474464Y-67441964D01*
X67460824Y-67452264D01*
X67439483Y-67475265D01*
X67400768Y-67497617D01*
X67384660Y-67509781D01*
X67376288Y-67511750D01*
X67362854Y-67519506D01*
X67262897Y-67538419D01*
X67248169Y-67541883D01*
X67244590Y-67541883D01*
X67237661Y-67543194D01*
X66764984Y-67543194D01*
X66665744Y-67528236D01*
X66654272Y-67522711D01*
X66646214Y-67521205D01*
X66628957Y-67510520D01*
X66583862Y-67488803D01*
X66563762Y-67470153D01*
X66550536Y-67461964D01*
X66540236Y-67448324D01*
X66517235Y-67426983D01*
X66494883Y-67388268D01*
X66482719Y-67372160D01*
X66480750Y-67363788D01*
X66472994Y-67350354D01*
X66454081Y-67250397D01*
X66450617Y-67235669D01*
X66450617Y-67232090D01*
X66449306Y-67225161D01*
X66449306Y-66552484D01*
X66464264Y-66453244D01*
X66469789Y-66441772D01*
X66471295Y-66433714D01*
X66481980Y-66416457D01*
X66503697Y-66371362D01*
X66522347Y-66351262D01*
X66530536Y-66338036D01*
X66544176Y-66327736D01*
X66565517Y-66304735D01*
X66604232Y-66282383D01*
X66620340Y-66270219D01*
X66628712Y-66268250D01*
X66642146Y-66260494D01*
X66742103Y-66241581D01*
X66756831Y-66238117D01*
X66760410Y-66238117D01*
X66767339Y-66236806D01*
X67240016Y-66236806D01*
X67339256Y-66251764D01*
G37*
G36*
X70639256Y-66251764D02*
G01*
X70650728Y-66257289D01*
X70658786Y-66258795D01*
X70676043Y-66269480D01*
X70721138Y-66291197D01*
X70741238Y-66309847D01*
X70754464Y-66318036D01*
X70764764Y-66331676D01*
X70787765Y-66353017D01*
X70810117Y-66391732D01*
X70822281Y-66407840D01*
X70824250Y-66416212D01*
X70832006Y-66429646D01*
X70850919Y-66529603D01*
X70854383Y-66544331D01*
X70854383Y-66547910D01*
X70855694Y-66554839D01*
X70855694Y-67227516D01*
X70840736Y-67326756D01*
X70835211Y-67338228D01*
X70833705Y-67346286D01*
X70823020Y-67363543D01*
X70801303Y-67408638D01*
X70782653Y-67428738D01*
X70774464Y-67441964D01*
X70760824Y-67452264D01*
X70739483Y-67475265D01*
X70700768Y-67497617D01*
X70684660Y-67509781D01*
X70676288Y-67511750D01*
X70662854Y-67519506D01*
X70562897Y-67538419D01*
X70548169Y-67541883D01*
X70544590Y-67541883D01*
X70537661Y-67543194D01*
X70064984Y-67543194D01*
X69965744Y-67528236D01*
X69954272Y-67522711D01*
X69946214Y-67521205D01*
X69928957Y-67510520D01*
X69883862Y-67488803D01*
X69863762Y-67470153D01*
X69850536Y-67461964D01*
X69840236Y-67448324D01*
X69817235Y-67426983D01*
X69794883Y-67388268D01*
X69782719Y-67372160D01*
X69780750Y-67363788D01*
X69772994Y-67350354D01*
X69754081Y-67250397D01*
X69750617Y-67235669D01*
X69750617Y-67232090D01*
X69749306Y-67225161D01*
X69749306Y-66552484D01*
X69764264Y-66453244D01*
X69769789Y-66441772D01*
X69771295Y-66433714D01*
X69781980Y-66416457D01*
X69803697Y-66371362D01*
X69822347Y-66351262D01*
X69830536Y-66338036D01*
X69844176Y-66327736D01*
X69865517Y-66304735D01*
X69904232Y-66282383D01*
X69920340Y-66270219D01*
X69928712Y-66268250D01*
X69942146Y-66260494D01*
X70042103Y-66241581D01*
X70056831Y-66238117D01*
X70060410Y-66238117D01*
X70067339Y-66236806D01*
X70540016Y-66236806D01*
X70639256Y-66251764D01*
G37*
G36*
X74127500Y-65314401D02*
G01*
X74147399Y-65318359D01*
X74164269Y-65329631D01*
X74164270Y-65329632D01*
X74183055Y-65342184D01*
X74250270Y-65363229D01*
X74321945Y-65342184D01*
X74340730Y-65329632D01*
X74340731Y-65329631D01*
X74357601Y-65318359D01*
X74377500Y-65314401D01*
X74389812Y-65311952D01*
X74615188Y-65311952D01*
X74627500Y-65314401D01*
X74647399Y-65318359D01*
X74664269Y-65329631D01*
X74664270Y-65329633D01*
X74670555Y-65333832D01*
X74737770Y-65354877D01*
X74809445Y-65333832D01*
X74815730Y-65329633D01*
X74815731Y-65329631D01*
X74832601Y-65318359D01*
X74852500Y-65314401D01*
X74864812Y-65311952D01*
X75140188Y-65311952D01*
X75152500Y-65314401D01*
X75172399Y-65318359D01*
X75189269Y-65329631D01*
X75189270Y-65329633D01*
X75195555Y-65333832D01*
X75262770Y-65354877D01*
X75334445Y-65333832D01*
X75340730Y-65329633D01*
X75340731Y-65329631D01*
X75357601Y-65318359D01*
X75377500Y-65314401D01*
X75389812Y-65311952D01*
X75615188Y-65311952D01*
X75627500Y-65314401D01*
X75647399Y-65318359D01*
X75664269Y-65329631D01*
X75664270Y-65329632D01*
X75683055Y-65342184D01*
X75750270Y-65363229D01*
X75821945Y-65342184D01*
X75840730Y-65329632D01*
X75840731Y-65329631D01*
X75857601Y-65318359D01*
X75877500Y-65314401D01*
X75889812Y-65311952D01*
X76115188Y-65311952D01*
X76147399Y-65318359D01*
X76164269Y-65329631D01*
X76175541Y-65346501D01*
X76181948Y-65378712D01*
X76181948Y-65904088D01*
X76179499Y-65916400D01*
X76175541Y-65936299D01*
X76164270Y-65953168D01*
X76161739Y-65956955D01*
X76140693Y-66024169D01*
X76161739Y-66095845D01*
X76164269Y-66099631D01*
X76175541Y-66116501D01*
X76181948Y-66148712D01*
X76181948Y-66674088D01*
X76175541Y-66706299D01*
X76164269Y-66723169D01*
X76147399Y-66734441D01*
X76130854Y-66737732D01*
X76127500Y-66738399D01*
X76115188Y-66740848D01*
X75889812Y-66740848D01*
X75877500Y-66738399D01*
X75857601Y-66734441D01*
X75840731Y-66723169D01*
X75840730Y-66723168D01*
X75821945Y-66710616D01*
X75754730Y-66689571D01*
X75683055Y-66710616D01*
X75664270Y-66723168D01*
X75664269Y-66723169D01*
X75647399Y-66734441D01*
X75627500Y-66738399D01*
X75615188Y-66740848D01*
X75389812Y-66740848D01*
X75377500Y-66738399D01*
X75357601Y-66734441D01*
X75340731Y-66723169D01*
X75340730Y-66723167D01*
X75334445Y-66718968D01*
X75267230Y-66697923D01*
X75195555Y-66718968D01*
X75189270Y-66723167D01*
X75189269Y-66723169D01*
X75172399Y-66734441D01*
X75152500Y-66738399D01*
X75140188Y-66740848D01*
X74864812Y-66740848D01*
X74852500Y-66738399D01*
X74832601Y-66734441D01*
X74815731Y-66723169D01*
X74815730Y-66723167D01*
X74809445Y-66718968D01*
X74742230Y-66697923D01*
X74670555Y-66718968D01*
X74664270Y-66723167D01*
X74664269Y-66723169D01*
X74647399Y-66734441D01*
X74627500Y-66738399D01*
X74615188Y-66740848D01*
X74389812Y-66740848D01*
X74357601Y-66734441D01*
X74340731Y-66723169D01*
X74337924Y-66718968D01*
X74329459Y-66706299D01*
X74329459Y-66706298D01*
X74326019Y-66701150D01*
X74271976Y-66655984D01*
X74202092Y-66647205D01*
X74146756Y-66670844D01*
X74131928Y-66682042D01*
X74129390Y-66685840D01*
X74107762Y-66700291D01*
X74084704Y-66717704D01*
X74080071Y-66718794D01*
X74071173Y-66724739D01*
X74002501Y-66738399D01*
X74002499Y-66738399D01*
X73992839Y-66736477D01*
X73937818Y-66726192D01*
X73936250Y-66725221D01*
X73933827Y-66724739D01*
X73913049Y-66710856D01*
X73881874Y-66691553D01*
X73879545Y-66688470D01*
X73875610Y-66685840D01*
X73860636Y-66663430D01*
X73844030Y-66641440D01*
X73842991Y-66637021D01*
X73836711Y-66627623D01*
X73823051Y-66558951D01*
X73823051Y-66552242D01*
X73821285Y-66544733D01*
X73821285Y-66275150D01*
X73823051Y-66265703D01*
X73823051Y-66263849D01*
X73828806Y-66234916D01*
X73835542Y-66198884D01*
X73836178Y-66197857D01*
X73836711Y-66195177D01*
X73852071Y-66172189D01*
X73881116Y-66125280D01*
X73899821Y-66057377D01*
X73878846Y-65990140D01*
X73844287Y-65955545D01*
X73840731Y-65953169D01*
X73829459Y-65936299D01*
X73825501Y-65916400D01*
X73823052Y-65904088D01*
X73823052Y-65378712D01*
X73829459Y-65346501D01*
X73840731Y-65329631D01*
X73857601Y-65318359D01*
X73889812Y-65311952D01*
X74115188Y-65311952D01*
X74127500Y-65314401D01*
G37*
G36*
X72424399Y-66080959D02*
G01*
X72441269Y-66092231D01*
X72452541Y-66109101D01*
X72458948Y-66141312D01*
X72458948Y-66616688D01*
X72456499Y-66629000D01*
X72452541Y-66648899D01*
X72441269Y-66665769D01*
X72424399Y-66677041D01*
X72404500Y-66680999D01*
X72392188Y-66683448D01*
X71516812Y-66683448D01*
X71484601Y-66677041D01*
X71467731Y-66665769D01*
X71456459Y-66648899D01*
X71450052Y-66616688D01*
X71450052Y-66141312D01*
X71456459Y-66109101D01*
X71467731Y-66092231D01*
X71484601Y-66080959D01*
X71516812Y-66074552D01*
X72392188Y-66074552D01*
X72424399Y-66080959D01*
G37*
G36*
X78393399Y-66080959D02*
G01*
X78410269Y-66092231D01*
X78421541Y-66109101D01*
X78427948Y-66141312D01*
X78427948Y-66616688D01*
X78425499Y-66629000D01*
X78421541Y-66648899D01*
X78410269Y-66665769D01*
X78393399Y-66677041D01*
X78373500Y-66680999D01*
X78361188Y-66683448D01*
X77485812Y-66683448D01*
X77453601Y-66677041D01*
X77436731Y-66665769D01*
X77425459Y-66648899D01*
X77419052Y-66616688D01*
X77419052Y-66141312D01*
X77425459Y-66109101D01*
X77436731Y-66092231D01*
X77453601Y-66080959D01*
X77485812Y-66074552D01*
X78361188Y-66074552D01*
X78393399Y-66080959D01*
G37*
G36*
X68602256Y-63943764D02*
G01*
X68613728Y-63949289D01*
X68621786Y-63950795D01*
X68639043Y-63961480D01*
X68684138Y-63983197D01*
X68704238Y-64001847D01*
X68717464Y-64010036D01*
X68727764Y-64023676D01*
X68750765Y-64045017D01*
X68773117Y-64083732D01*
X68785281Y-64099840D01*
X68787250Y-64108212D01*
X68795006Y-64121646D01*
X68813919Y-64221603D01*
X68817383Y-64236331D01*
X68817383Y-64239910D01*
X68818694Y-64246839D01*
X68818694Y-64969516D01*
X68803736Y-65068756D01*
X68798211Y-65080228D01*
X68796705Y-65088286D01*
X68786020Y-65105543D01*
X68764303Y-65150638D01*
X68745653Y-65170738D01*
X68737464Y-65183964D01*
X68723824Y-65194264D01*
X68702483Y-65217265D01*
X68663768Y-65239617D01*
X68647660Y-65251781D01*
X68639288Y-65253750D01*
X68625854Y-65261506D01*
X68525897Y-65280419D01*
X68511169Y-65283883D01*
X68507590Y-65283883D01*
X68500661Y-65285194D01*
X67277984Y-65285194D01*
X67178744Y-65270236D01*
X67167272Y-65264711D01*
X67159214Y-65263205D01*
X67141957Y-65252520D01*
X67096862Y-65230803D01*
X67076762Y-65212153D01*
X67063536Y-65203964D01*
X67053236Y-65190324D01*
X67030235Y-65168983D01*
X67007883Y-65130268D01*
X66995719Y-65114160D01*
X66993750Y-65105788D01*
X66985994Y-65092354D01*
X66967081Y-64992397D01*
X66963617Y-64977669D01*
X66963617Y-64974090D01*
X66962306Y-64967161D01*
X66962306Y-64244484D01*
X66977264Y-64145244D01*
X66982789Y-64133772D01*
X66984295Y-64125714D01*
X66994980Y-64108457D01*
X67016697Y-64063362D01*
X67035347Y-64043262D01*
X67043536Y-64030036D01*
X67057176Y-64019736D01*
X67078517Y-63996735D01*
X67117232Y-63974383D01*
X67133340Y-63962219D01*
X67141712Y-63960250D01*
X67155146Y-63952494D01*
X67255103Y-63933581D01*
X67269831Y-63930117D01*
X67273410Y-63930117D01*
X67280339Y-63928806D01*
X68503016Y-63928806D01*
X68602256Y-63943764D01*
G37*
G36*
X82699256Y-63810764D02*
G01*
X82710728Y-63816289D01*
X82718786Y-63817795D01*
X82736043Y-63828480D01*
X82781138Y-63850197D01*
X82801238Y-63868847D01*
X82814464Y-63877036D01*
X82824764Y-63890676D01*
X82847765Y-63912017D01*
X82870117Y-63950732D01*
X82882281Y-63966840D01*
X82884250Y-63975212D01*
X82892006Y-63988646D01*
X82910919Y-64088603D01*
X82914383Y-64103331D01*
X82914383Y-64106910D01*
X82915694Y-64113839D01*
X82915694Y-64836516D01*
X82900736Y-64935756D01*
X82895211Y-64947228D01*
X82893705Y-64955286D01*
X82883020Y-64972543D01*
X82861303Y-65017638D01*
X82842653Y-65037738D01*
X82834464Y-65050964D01*
X82820824Y-65061264D01*
X82799483Y-65084265D01*
X82760768Y-65106617D01*
X82744660Y-65118781D01*
X82736288Y-65120750D01*
X82722854Y-65128506D01*
X82622897Y-65147419D01*
X82608169Y-65150883D01*
X82604590Y-65150883D01*
X82597661Y-65152194D01*
X81374984Y-65152194D01*
X81275744Y-65137236D01*
X81264272Y-65131711D01*
X81256214Y-65130205D01*
X81238957Y-65119520D01*
X81193862Y-65097803D01*
X81173762Y-65079153D01*
X81160536Y-65070964D01*
X81150236Y-65057324D01*
X81127235Y-65035983D01*
X81104883Y-64997268D01*
X81092719Y-64981160D01*
X81090750Y-64972788D01*
X81082994Y-64959354D01*
X81064081Y-64859397D01*
X81060617Y-64844669D01*
X81060617Y-64841090D01*
X81059306Y-64834161D01*
X81059306Y-64111484D01*
X81074264Y-64012244D01*
X81079789Y-64000772D01*
X81081295Y-63992714D01*
X81091980Y-63975457D01*
X81113697Y-63930362D01*
X81132347Y-63910262D01*
X81140536Y-63897036D01*
X81154176Y-63886736D01*
X81175517Y-63863735D01*
X81214232Y-63841383D01*
X81230340Y-63829219D01*
X81238712Y-63827250D01*
X81252146Y-63819494D01*
X81352103Y-63800581D01*
X81366831Y-63797117D01*
X81370410Y-63797117D01*
X81377339Y-63795806D01*
X82600016Y-63795806D01*
X82699256Y-63810764D01*
G37*
G36*
X79374107Y-62196241D02*
G01*
X79440611Y-62204171D01*
X79444289Y-62205481D01*
X79459392Y-62207469D01*
X79517695Y-62231619D01*
X79567630Y-62249400D01*
X79580801Y-62257759D01*
X79605593Y-62268028D01*
X79646769Y-62299623D01*
X79681474Y-62321648D01*
X79700689Y-62340998D01*
X79731138Y-62364362D01*
X79755776Y-62396471D01*
X79776487Y-62417327D01*
X79797137Y-62450374D01*
X79827472Y-62489907D01*
X79838546Y-62516641D01*
X79847937Y-62531670D01*
X79864646Y-62579652D01*
X79888031Y-62636108D01*
X79890295Y-62653308D01*
X79892279Y-62659004D01*
X79899381Y-62722325D01*
X79903500Y-62753608D01*
X79903500Y-63932392D01*
X79893001Y-64012144D01*
X79890200Y-64035631D01*
X79889743Y-64036886D01*
X79888031Y-64049892D01*
X79863120Y-64110033D01*
X79844234Y-64161920D01*
X79836937Y-64173243D01*
X79827472Y-64196093D01*
X79794621Y-64238905D01*
X79771193Y-64275259D01*
X79753223Y-64292856D01*
X79731138Y-64321638D01*
X79697376Y-64347544D01*
X79674859Y-64369594D01*
X79643488Y-64388894D01*
X79605592Y-64417972D01*
X79576911Y-64429852D01*
X79560013Y-64440248D01*
X79513981Y-64455919D01*
X79459391Y-64478531D01*
X79440099Y-64481071D01*
X79432373Y-64483701D01*
X79371626Y-64490085D01*
X79302500Y-64499186D01*
X79230893Y-64489759D01*
X79164389Y-64481829D01*
X79160711Y-64480519D01*
X79145608Y-64478531D01*
X79087305Y-64454381D01*
X79037370Y-64436600D01*
X79024199Y-64428241D01*
X78999407Y-64417972D01*
X78958227Y-64386374D01*
X78923524Y-64364350D01*
X78904311Y-64345002D01*
X78873862Y-64321638D01*
X78849226Y-64289531D01*
X78819910Y-64260010D01*
X78758211Y-64226039D01*
X78687941Y-64230818D01*
X78631410Y-64272830D01*
X78606215Y-64348088D01*
X78606215Y-64679751D01*
X78604499Y-64689483D01*
X78604499Y-64690061D01*
X78603601Y-64694575D01*
X78591978Y-64760492D01*
X78589707Y-64764426D01*
X78588899Y-64768487D01*
X78577595Y-64785405D01*
X78556537Y-64821879D01*
X78548996Y-64828207D01*
X78544474Y-64834974D01*
X78527078Y-64846598D01*
X78506580Y-64863797D01*
X78497827Y-64866142D01*
X78477987Y-64879399D01*
X78399561Y-64894999D01*
X78390133Y-64894999D01*
X78383729Y-64896715D01*
X78115749Y-64896715D01*
X78106017Y-64894999D01*
X78105439Y-64894999D01*
X78100925Y-64894101D01*
X78035008Y-64882478D01*
X78031074Y-64880207D01*
X78027013Y-64879399D01*
X78010091Y-64868092D01*
X77973619Y-64847035D01*
X77967292Y-64839495D01*
X77960526Y-64834974D01*
X77950337Y-64819725D01*
X77892524Y-64781261D01*
X77822100Y-64780144D01*
X77778556Y-64813832D01*
X77773420Y-64807712D01*
X77748996Y-64828206D01*
X77744474Y-64834974D01*
X77727076Y-64846599D01*
X77706580Y-64863797D01*
X77697827Y-64866142D01*
X77677987Y-64879399D01*
X77599561Y-64894999D01*
X77590133Y-64894999D01*
X77583729Y-64896715D01*
X77315749Y-64896715D01*
X77306017Y-64894999D01*
X77305439Y-64894999D01*
X77300925Y-64894101D01*
X77235008Y-64882478D01*
X77231074Y-64880207D01*
X77227013Y-64879399D01*
X77210095Y-64868095D01*
X77173621Y-64847037D01*
X77167293Y-64839496D01*
X77160526Y-64834974D01*
X77148903Y-64817580D01*
X77141644Y-64808928D01*
X77083003Y-64769914D01*
X77012580Y-64768797D01*
X76941957Y-64819829D01*
X76916872Y-64857372D01*
X76907256Y-64863797D01*
X76875193Y-64885221D01*
X76813721Y-64897448D01*
X76691279Y-64897448D01*
X76629807Y-64885221D01*
X76597744Y-64863797D01*
X76588128Y-64857372D01*
X76588128Y-64857371D01*
X76571946Y-64846559D01*
X76504731Y-64825513D01*
X76433054Y-64846559D01*
X76416872Y-64857371D01*
X76416872Y-64857372D01*
X76407256Y-64863797D01*
X76375193Y-64885221D01*
X76313721Y-64897448D01*
X76191279Y-64897448D01*
X76129807Y-64885221D01*
X76097744Y-64863797D01*
X76088128Y-64857372D01*
X76088128Y-64857371D01*
X76071946Y-64846559D01*
X76004731Y-64825513D01*
X75933054Y-64846559D01*
X75916872Y-64857371D01*
X75916872Y-64857372D01*
X75907256Y-64863797D01*
X75875193Y-64885221D01*
X75813721Y-64897448D01*
X75691279Y-64897448D01*
X75629805Y-64885220D01*
X75573946Y-64847896D01*
X75506732Y-64826849D01*
X75435054Y-64847896D01*
X75379195Y-64885220D01*
X75317721Y-64897448D01*
X75195279Y-64897448D01*
X75133807Y-64885221D01*
X75101744Y-64863797D01*
X75092128Y-64857372D01*
X75092127Y-64857371D01*
X75073947Y-64845223D01*
X75006732Y-64824176D01*
X74935053Y-64845223D01*
X74916873Y-64857371D01*
X74916872Y-64857372D01*
X74907256Y-64863797D01*
X74875193Y-64885221D01*
X74813721Y-64897448D01*
X74691279Y-64897448D01*
X74629807Y-64885221D01*
X74597744Y-64863797D01*
X74588128Y-64857372D01*
X74588128Y-64857371D01*
X74571946Y-64846559D01*
X74504731Y-64825513D01*
X74433054Y-64846559D01*
X74416872Y-64857371D01*
X74416872Y-64857372D01*
X74407256Y-64863797D01*
X74375193Y-64885221D01*
X74313721Y-64897448D01*
X74191279Y-64897448D01*
X74129807Y-64885221D01*
X74097744Y-64863797D01*
X74088128Y-64857372D01*
X74088128Y-64857371D01*
X74071946Y-64846559D01*
X74004731Y-64825513D01*
X73933054Y-64846559D01*
X73916872Y-64857371D01*
X73916872Y-64857372D01*
X73907256Y-64863797D01*
X73875193Y-64885221D01*
X73813721Y-64897448D01*
X73691279Y-64897448D01*
X73629807Y-64885221D01*
X73597744Y-64863797D01*
X73588128Y-64857372D01*
X73588128Y-64857371D01*
X73571946Y-64846559D01*
X73504731Y-64825513D01*
X73433054Y-64846559D01*
X73416872Y-64857371D01*
X73416872Y-64857372D01*
X73407256Y-64863797D01*
X73375193Y-64885221D01*
X73313721Y-64897448D01*
X73191279Y-64897448D01*
X73129807Y-64885221D01*
X73097744Y-64863797D01*
X73088128Y-64857372D01*
X73088126Y-64857370D01*
X73064572Y-64822119D01*
X73010528Y-64776953D01*
X72940645Y-64768176D01*
X72877109Y-64798574D01*
X72861783Y-64817476D01*
X72848997Y-64828205D01*
X72844474Y-64834974D01*
X72827075Y-64846600D01*
X72806580Y-64863797D01*
X72797827Y-64866142D01*
X72777987Y-64879399D01*
X72699561Y-64894999D01*
X72690133Y-64894999D01*
X72683729Y-64896715D01*
X72415749Y-64896715D01*
X72406017Y-64894999D01*
X72405439Y-64894999D01*
X72400925Y-64894101D01*
X72335008Y-64882478D01*
X72331074Y-64880207D01*
X72327013Y-64879399D01*
X72310091Y-64868092D01*
X72273619Y-64847035D01*
X72267292Y-64839495D01*
X72260526Y-64834974D01*
X72250337Y-64819725D01*
X72192524Y-64781261D01*
X72122100Y-64780144D01*
X72078556Y-64813832D01*
X72073420Y-64807712D01*
X72048996Y-64828206D01*
X72044474Y-64834974D01*
X72027076Y-64846599D01*
X72006580Y-64863797D01*
X71997827Y-64866142D01*
X71977987Y-64879399D01*
X71899561Y-64894999D01*
X71890133Y-64894999D01*
X71883729Y-64896715D01*
X71615749Y-64896715D01*
X71606017Y-64894999D01*
X71605439Y-64894999D01*
X71600925Y-64894101D01*
X71535008Y-64882478D01*
X71531074Y-64880207D01*
X71527013Y-64879399D01*
X71510095Y-64868095D01*
X71473621Y-64847037D01*
X71467293Y-64839496D01*
X71460526Y-64834974D01*
X71448902Y-64817578D01*
X71431703Y-64797080D01*
X71429358Y-64788327D01*
X71416101Y-64768487D01*
X71400501Y-64690061D01*
X71400501Y-64680633D01*
X71398785Y-64674229D01*
X71398785Y-64346814D01*
X71378942Y-64279234D01*
X71325712Y-64233111D01*
X71255997Y-64223087D01*
X71184601Y-64268908D01*
X71181212Y-64265447D01*
X71153225Y-64292853D01*
X71131138Y-64321638D01*
X71097375Y-64347545D01*
X71074859Y-64369594D01*
X71043488Y-64388894D01*
X71005592Y-64417972D01*
X70976911Y-64429852D01*
X70960013Y-64440248D01*
X70913981Y-64455919D01*
X70859391Y-64478531D01*
X70840099Y-64481071D01*
X70832373Y-64483701D01*
X70771626Y-64490085D01*
X70702500Y-64499186D01*
X70630893Y-64489759D01*
X70564389Y-64481829D01*
X70560711Y-64480519D01*
X70545608Y-64478531D01*
X70487305Y-64454381D01*
X70437370Y-64436600D01*
X70424199Y-64428241D01*
X70399407Y-64417972D01*
X70358227Y-64386374D01*
X70323524Y-64364350D01*
X70304311Y-64345002D01*
X70273862Y-64321638D01*
X70249225Y-64289530D01*
X70228515Y-64268675D01*
X70207865Y-64235628D01*
X70177528Y-64196092D01*
X70166454Y-64169358D01*
X70157063Y-64154329D01*
X70140354Y-64106347D01*
X70116969Y-64049891D01*
X70114705Y-64032691D01*
X70112721Y-64026995D01*
X70105619Y-63963674D01*
X70101500Y-63932391D01*
X70101501Y-62753608D01*
X70112000Y-62673856D01*
X70114801Y-62650369D01*
X70115258Y-62649114D01*
X70116970Y-62636108D01*
X70141881Y-62575967D01*
X70160767Y-62524080D01*
X70168064Y-62512757D01*
X70177529Y-62489907D01*
X70210384Y-62447090D01*
X70233807Y-62410744D01*
X70251773Y-62393151D01*
X70273863Y-62364362D01*
X70307628Y-62338453D01*
X70330144Y-62316404D01*
X70361514Y-62297105D01*
X70399408Y-62268028D01*
X70428089Y-62256148D01*
X70444987Y-62245752D01*
X70491019Y-62230081D01*
X70545609Y-62207469D01*
X70564901Y-62204929D01*
X70572627Y-62202299D01*
X70633374Y-62195915D01*
X70702500Y-62186814D01*
X70774107Y-62196241D01*
X70840611Y-62204171D01*
X70844289Y-62205481D01*
X70859392Y-62207469D01*
X70917695Y-62231619D01*
X70967630Y-62249400D01*
X70980801Y-62257759D01*
X71005593Y-62268028D01*
X71046769Y-62299623D01*
X71081474Y-62321648D01*
X71100689Y-62340998D01*
X71131138Y-62364362D01*
X71155776Y-62396471D01*
X71176487Y-62417327D01*
X71197137Y-62450374D01*
X71227472Y-62489907D01*
X71238546Y-62516641D01*
X71247937Y-62531670D01*
X71264646Y-62579652D01*
X71288031Y-62636108D01*
X71290295Y-62653308D01*
X71292279Y-62659004D01*
X71299381Y-62722325D01*
X71303500Y-62753608D01*
X71303500Y-63267698D01*
X71323343Y-63335278D01*
X71376573Y-63381401D01*
X71446288Y-63391425D01*
X71475608Y-63378315D01*
X71507174Y-63369857D01*
X71527013Y-63356601D01*
X71605439Y-63341001D01*
X71614867Y-63341001D01*
X71621271Y-63339285D01*
X71834020Y-63339285D01*
X71901600Y-63319442D01*
X71947723Y-63266212D01*
X71957747Y-63196497D01*
X71928488Y-63132429D01*
X71914144Y-63121502D01*
X71915349Y-63120154D01*
X71904973Y-63110877D01*
X71900717Y-63108955D01*
X71858818Y-63069610D01*
X71821711Y-63036432D01*
X71819212Y-63032417D01*
X71809468Y-63023267D01*
X71786415Y-62979728D01*
X71764794Y-62944992D01*
X71761191Y-62932087D01*
X71750895Y-62912641D01*
X71744514Y-62872356D01*
X71735832Y-62841258D01*
X71736101Y-62819235D01*
X71731313Y-62789006D01*
X71736858Y-62757235D01*
X71737147Y-62733555D01*
X71746103Y-62704262D01*
X71752834Y-62665694D01*
X71764235Y-62644957D01*
X71768637Y-62630557D01*
X71790184Y-62597755D01*
X71813138Y-62556002D01*
X71824256Y-62545885D01*
X71827770Y-62540536D01*
X71864328Y-62509423D01*
X71905722Y-62471757D01*
X71960041Y-62448251D01*
X72008111Y-62426748D01*
X72010482Y-62426423D01*
X72020602Y-62422044D01*
X72071956Y-62418002D01*
X72114819Y-62412131D01*
X72125768Y-62413767D01*
X72145392Y-62412223D01*
X72187114Y-62422935D01*
X72221344Y-62428051D01*
X72239236Y-62436318D01*
X72266635Y-62443353D01*
X72295510Y-62462320D01*
X72319117Y-62473228D01*
X72340459Y-62491846D01*
X72371258Y-62512077D01*
X72387181Y-62532605D01*
X72400280Y-62544032D01*
X72420172Y-62575137D01*
X72447979Y-62610985D01*
X72453603Y-62627412D01*
X72458309Y-62634770D01*
X72471108Y-62678540D01*
X72488526Y-62729412D01*
X72487496Y-62860486D01*
X72468749Y-62912558D01*
X72454365Y-62957631D01*
X72450413Y-62963490D01*
X72445095Y-62978262D01*
X72415708Y-63014943D01*
X72394135Y-63046926D01*
X72382038Y-63056969D01*
X72366829Y-63075953D01*
X72334329Y-63096578D01*
X72300491Y-63124671D01*
X72261509Y-63182602D01*
X72192388Y-63160994D01*
X72179725Y-63162571D01*
X72139423Y-63172247D01*
X72118170Y-63170238D01*
X72101406Y-63172326D01*
X72036798Y-63200370D01*
X71997607Y-63258892D01*
X71996277Y-63329312D01*
X72021102Y-63376716D01*
X72037707Y-63396504D01*
X72044474Y-63401026D01*
X72054664Y-63416277D01*
X72112477Y-63454739D01*
X72182900Y-63455856D01*
X72226444Y-63422168D01*
X72231580Y-63428288D01*
X72256004Y-63407794D01*
X72260526Y-63401026D01*
X72277923Y-63389402D01*
X72288186Y-63380790D01*
X72324065Y-63326862D01*
X72359940Y-63344169D01*
X72399175Y-63342247D01*
X72405439Y-63341001D01*
X72414869Y-63341001D01*
X72421273Y-63339285D01*
X72689251Y-63339285D01*
X72698983Y-63341001D01*
X72699561Y-63341001D01*
X72704075Y-63341899D01*
X72769992Y-63353522D01*
X72773926Y-63355793D01*
X72777987Y-63356601D01*
X72794905Y-63367905D01*
X72831379Y-63388963D01*
X72837707Y-63396504D01*
X72844474Y-63401026D01*
X72856097Y-63418420D01*
X72863356Y-63427072D01*
X72921997Y-63466086D01*
X72992420Y-63467203D01*
X73063044Y-63416170D01*
X73088128Y-63378628D01*
X73129806Y-63350780D01*
X73129805Y-63350780D01*
X73129807Y-63350779D01*
X73191279Y-63338552D01*
X73313721Y-63338552D01*
X73375193Y-63350779D01*
X73375195Y-63350780D01*
X73375194Y-63350780D01*
X73416872Y-63378628D01*
X73416872Y-63378629D01*
X73433054Y-63389441D01*
X73500269Y-63410487D01*
X73571946Y-63389441D01*
X73588128Y-63378629D01*
X73588128Y-63378628D01*
X73629806Y-63350780D01*
X73629805Y-63350780D01*
X73629807Y-63350779D01*
X73691279Y-63338552D01*
X73813721Y-63338552D01*
X73875193Y-63350779D01*
X73875195Y-63350780D01*
X73875194Y-63350780D01*
X73916872Y-63378628D01*
X73916872Y-63378629D01*
X73933054Y-63389441D01*
X74000269Y-63410487D01*
X74071946Y-63389441D01*
X74088128Y-63378629D01*
X74088128Y-63378628D01*
X74129806Y-63350780D01*
X74129805Y-63350780D01*
X74129807Y-63350779D01*
X74191279Y-63338552D01*
X74313721Y-63338552D01*
X74375193Y-63350779D01*
X74375195Y-63350780D01*
X74375194Y-63350780D01*
X74416872Y-63378628D01*
X74416872Y-63378629D01*
X74433054Y-63389441D01*
X74500269Y-63410487D01*
X74571946Y-63389441D01*
X74588128Y-63378629D01*
X74588128Y-63378628D01*
X74629806Y-63350780D01*
X74629805Y-63350780D01*
X74629807Y-63350779D01*
X74691279Y-63338552D01*
X74813721Y-63338552D01*
X74875193Y-63350779D01*
X74875195Y-63350780D01*
X74875194Y-63350780D01*
X74916872Y-63378628D01*
X74916873Y-63378629D01*
X74935053Y-63390777D01*
X75002268Y-63411824D01*
X75073947Y-63390777D01*
X75092127Y-63378629D01*
X75092128Y-63378628D01*
X75133806Y-63350780D01*
X75133805Y-63350780D01*
X75133807Y-63350779D01*
X75195279Y-63338552D01*
X75317721Y-63338552D01*
X75379195Y-63350780D01*
X75435054Y-63388104D01*
X75502268Y-63409151D01*
X75573946Y-63388104D01*
X75629805Y-63350780D01*
X75691279Y-63338552D01*
X75813721Y-63338552D01*
X75875193Y-63350779D01*
X75875195Y-63350780D01*
X75875194Y-63350780D01*
X75916872Y-63378628D01*
X75916872Y-63378629D01*
X75933054Y-63389441D01*
X76000269Y-63410487D01*
X76071946Y-63389441D01*
X76088128Y-63378629D01*
X76088128Y-63378628D01*
X76129806Y-63350780D01*
X76129805Y-63350780D01*
X76129807Y-63350779D01*
X76191279Y-63338552D01*
X76313721Y-63338552D01*
X76375193Y-63350779D01*
X76375195Y-63350780D01*
X76375194Y-63350780D01*
X76416872Y-63378628D01*
X76416872Y-63378629D01*
X76433054Y-63389441D01*
X76500269Y-63410487D01*
X76571946Y-63389441D01*
X76588128Y-63378629D01*
X76588128Y-63378628D01*
X76629806Y-63350780D01*
X76629805Y-63350780D01*
X76629807Y-63350779D01*
X76691279Y-63338552D01*
X76813721Y-63338552D01*
X76875193Y-63350779D01*
X76875195Y-63350780D01*
X76875194Y-63350780D01*
X76916872Y-63378628D01*
X76916874Y-63378630D01*
X76940428Y-63413881D01*
X76994472Y-63459047D01*
X77064355Y-63467824D01*
X77127891Y-63437426D01*
X77143217Y-63418524D01*
X77156003Y-63407795D01*
X77160526Y-63401026D01*
X77177925Y-63389400D01*
X77198420Y-63372203D01*
X77207173Y-63369858D01*
X77227013Y-63356601D01*
X77305439Y-63341001D01*
X77314867Y-63341001D01*
X77321271Y-63339285D01*
X77589250Y-63339285D01*
X77598982Y-63341001D01*
X77599561Y-63341001D01*
X77600694Y-63341226D01*
X77670427Y-63333449D01*
X77686287Y-63320565D01*
X77694479Y-63350418D01*
X77719043Y-63374261D01*
X77737709Y-63396506D01*
X77744474Y-63401026D01*
X77754663Y-63416275D01*
X77812476Y-63454739D01*
X77882900Y-63455856D01*
X77926444Y-63422168D01*
X77931580Y-63428288D01*
X77956004Y-63407794D01*
X77960526Y-63401026D01*
X77974994Y-63391359D01*
X78013255Y-63333850D01*
X78014372Y-63263427D01*
X77977238Y-63203578D01*
X77902321Y-63180161D01*
X77903210Y-63174674D01*
X77844497Y-63165164D01*
X77813548Y-63162239D01*
X77750921Y-63170110D01*
X77736666Y-63182025D01*
X77729381Y-63153947D01*
X77693953Y-63121715D01*
X77695349Y-63120154D01*
X77684973Y-63110877D01*
X77680717Y-63108955D01*
X77638818Y-63069610D01*
X77601711Y-63036432D01*
X77599212Y-63032417D01*
X77589468Y-63023267D01*
X77566415Y-62979728D01*
X77544794Y-62944992D01*
X77541191Y-62932087D01*
X77530895Y-62912641D01*
X77524514Y-62872356D01*
X77515832Y-62841258D01*
X77516101Y-62819235D01*
X77511313Y-62789006D01*
X77516858Y-62757235D01*
X77517147Y-62733555D01*
X77526103Y-62704262D01*
X77532834Y-62665694D01*
X77544235Y-62644957D01*
X77548637Y-62630557D01*
X77570184Y-62597755D01*
X77593138Y-62556002D01*
X77604256Y-62545885D01*
X77607770Y-62540536D01*
X77644328Y-62509423D01*
X77685722Y-62471757D01*
X77740041Y-62448251D01*
X77788111Y-62426748D01*
X77790482Y-62426423D01*
X77800602Y-62422044D01*
X77851956Y-62418002D01*
X77894819Y-62412131D01*
X77905768Y-62413767D01*
X77925392Y-62412223D01*
X77967114Y-62422935D01*
X78001344Y-62428051D01*
X78019236Y-62436318D01*
X78046635Y-62443353D01*
X78075510Y-62462320D01*
X78099117Y-62473228D01*
X78120459Y-62491846D01*
X78151258Y-62512077D01*
X78167181Y-62532605D01*
X78180280Y-62544032D01*
X78200172Y-62575137D01*
X78227979Y-62610985D01*
X78233603Y-62627412D01*
X78238309Y-62634770D01*
X78251108Y-62678540D01*
X78268526Y-62729412D01*
X78267496Y-62860486D01*
X78248749Y-62912558D01*
X78234365Y-62957631D01*
X78230413Y-62963490D01*
X78225095Y-62978262D01*
X78195708Y-63014943D01*
X78174135Y-63046926D01*
X78162038Y-63056969D01*
X78146829Y-63075953D01*
X78114328Y-63096579D01*
X78088391Y-63118112D01*
X78049070Y-63176547D01*
X78047584Y-63246963D01*
X78084404Y-63307006D01*
X78168236Y-63339285D01*
X78389251Y-63339285D01*
X78398983Y-63341001D01*
X78399561Y-63341001D01*
X78404075Y-63341899D01*
X78469992Y-63353522D01*
X78473926Y-63355793D01*
X78477987Y-63356601D01*
X78494907Y-63367907D01*
X78514002Y-63378931D01*
X78582449Y-63395536D01*
X78649008Y-63372500D01*
X78692547Y-63317137D01*
X78701501Y-63270679D01*
X78701501Y-62753608D01*
X78712000Y-62673856D01*
X78714801Y-62650369D01*
X78715258Y-62649114D01*
X78716970Y-62636108D01*
X78741881Y-62575967D01*
X78760767Y-62524080D01*
X78768064Y-62512757D01*
X78777529Y-62489907D01*
X78810384Y-62447090D01*
X78833807Y-62410744D01*
X78851773Y-62393151D01*
X78873863Y-62364362D01*
X78907628Y-62338453D01*
X78930144Y-62316404D01*
X78961514Y-62297105D01*
X78999408Y-62268028D01*
X79028089Y-62256148D01*
X79044987Y-62245752D01*
X79091019Y-62230081D01*
X79145609Y-62207469D01*
X79164901Y-62204929D01*
X79172627Y-62202299D01*
X79233374Y-62195915D01*
X79302500Y-62186814D01*
X79374107Y-62196241D01*
G37*
G36*
X68602256Y-61143764D02*
G01*
X68613728Y-61149289D01*
X68621786Y-61150795D01*
X68639043Y-61161480D01*
X68684138Y-61183197D01*
X68704238Y-61201847D01*
X68717464Y-61210036D01*
X68727764Y-61223676D01*
X68750765Y-61245017D01*
X68773117Y-61283732D01*
X68785281Y-61299840D01*
X68787250Y-61308212D01*
X68795006Y-61321646D01*
X68813919Y-61421603D01*
X68817383Y-61436331D01*
X68817383Y-61439910D01*
X68818694Y-61446839D01*
X68818694Y-62169516D01*
X68803736Y-62268756D01*
X68798211Y-62280228D01*
X68796705Y-62288286D01*
X68786020Y-62305543D01*
X68764303Y-62350638D01*
X68745653Y-62370738D01*
X68737464Y-62383964D01*
X68723824Y-62394264D01*
X68702483Y-62417265D01*
X68663768Y-62439617D01*
X68647660Y-62451781D01*
X68639288Y-62453750D01*
X68625854Y-62461506D01*
X68525897Y-62480419D01*
X68511169Y-62483883D01*
X68507590Y-62483883D01*
X68500661Y-62485194D01*
X67277984Y-62485194D01*
X67178744Y-62470236D01*
X67167272Y-62464711D01*
X67159214Y-62463205D01*
X67141957Y-62452520D01*
X67096862Y-62430803D01*
X67076762Y-62412153D01*
X67063536Y-62403964D01*
X67053236Y-62390324D01*
X67030235Y-62368983D01*
X67007883Y-62330268D01*
X66995719Y-62314160D01*
X66993750Y-62305788D01*
X66985994Y-62292354D01*
X66967081Y-62192397D01*
X66963617Y-62177669D01*
X66963617Y-62174090D01*
X66962306Y-62167161D01*
X66962306Y-61444484D01*
X66977264Y-61345244D01*
X66982789Y-61333772D01*
X66984295Y-61325714D01*
X66994980Y-61308457D01*
X67016697Y-61263362D01*
X67035347Y-61243262D01*
X67043536Y-61230036D01*
X67057176Y-61219736D01*
X67078517Y-61196735D01*
X67117232Y-61174383D01*
X67133340Y-61162219D01*
X67141712Y-61160250D01*
X67155146Y-61152494D01*
X67255103Y-61133581D01*
X67269831Y-61130117D01*
X67273410Y-61130117D01*
X67280339Y-61128806D01*
X68503016Y-61128806D01*
X68602256Y-61143764D01*
G37*
G36*
X82097070Y-56743135D02*
G01*
X82160303Y-56744129D01*
X82224321Y-56754268D01*
X82294809Y-56760435D01*
X82355974Y-56775120D01*
X82412208Y-56784026D01*
X82480210Y-56804946D01*
X82555100Y-56822926D01*
X82607595Y-56844135D01*
X82655978Y-56859020D01*
X82726059Y-56891998D01*
X82803295Y-56923203D01*
X82846672Y-56948754D01*
X82886762Y-56967619D01*
X82956786Y-57013616D01*
X83033943Y-57059065D01*
X83068171Y-57086782D01*
X83099930Y-57107644D01*
X83167537Y-57167247D01*
X83241975Y-57227526D01*
X83267474Y-57255353D01*
X83291245Y-57276310D01*
X83353900Y-57349670D01*
X83422822Y-57424885D01*
X83440413Y-57450964D01*
X83456884Y-57470250D01*
X83511989Y-57557081D01*
X83572510Y-57646808D01*
X83583338Y-57669508D01*
X83593549Y-57685599D01*
X83638538Y-57785238D01*
X83687753Y-57888419D01*
X83693261Y-57906436D01*
X83698503Y-57918045D01*
X83730840Y-58029352D01*
X83766017Y-58144409D01*
X83767870Y-58156810D01*
X83769660Y-58162970D01*
X83787006Y-58284846D01*
X83805584Y-58409156D01*
X83796111Y-58770922D01*
X83793717Y-58782689D01*
X83793635Y-58785297D01*
X83768047Y-58908857D01*
X83742742Y-59033235D01*
X83699383Y-59152365D01*
X83655920Y-59273086D01*
X83654397Y-59275963D01*
X83651188Y-59284779D01*
X83592430Y-59392999D01*
X83536576Y-59498488D01*
X83530947Y-59506235D01*
X83523459Y-59520027D01*
X83452817Y-59613771D01*
X83386662Y-59704826D01*
X83375603Y-59716238D01*
X83362360Y-59733812D01*
X83282955Y-59811843D01*
X83209165Y-59887988D01*
X83191620Y-59901598D01*
X83171432Y-59921436D01*
X83086391Y-59983222D01*
X83007643Y-60044306D01*
X82982862Y-60058441D01*
X82954869Y-60078779D01*
X82867135Y-60124450D01*
X82786096Y-60170674D01*
X82753701Y-60183500D01*
X82717427Y-60202383D01*
X82629806Y-60232553D01*
X82548958Y-60264563D01*
X82508940Y-60274170D01*
X82464324Y-60289533D01*
X82379359Y-60305280D01*
X82300957Y-60324103D01*
X82253696Y-60328570D01*
X82201119Y-60338315D01*
X82121012Y-60341113D01*
X82047040Y-60348105D01*
X81993325Y-60345572D01*
X81933595Y-60347658D01*
X81860176Y-60339293D01*
X81792275Y-60336091D01*
X81733254Y-60324832D01*
X81667628Y-60317355D01*
X81602313Y-60299854D01*
X81541746Y-60288300D01*
X81478932Y-60266794D01*
X81409062Y-60248072D01*
X81352801Y-60223609D01*
X81300441Y-60205682D01*
X81235660Y-60172675D01*
X81163577Y-60141332D01*
X81116889Y-60112158D01*
X81073195Y-60089895D01*
X81008531Y-60044448D01*
X80936565Y-59999479D01*
X80899484Y-59967809D01*
X80864526Y-59943240D01*
X80802295Y-59884801D01*
X80733014Y-59825630D01*
X80705154Y-59793581D01*
X80678600Y-59768645D01*
X80621251Y-59697061D01*
X80557396Y-59623604D01*
X80537960Y-59593095D01*
X80519139Y-59569603D01*
X80469230Y-59485212D01*
X80413567Y-59397839D01*
X80401412Y-59370539D01*
X80389304Y-59350065D01*
X80349333Y-59253566D01*
X80304689Y-59153294D01*
X80298389Y-59130577D01*
X80291702Y-59114433D01*
X80264116Y-59006992D01*
X80247389Y-58946678D01*
X80213545Y-58889821D01*
X80150517Y-58858385D01*
X80080499Y-58866013D01*
X80025721Y-58910286D01*
X80003500Y-58981429D01*
X80003500Y-59483751D01*
X80000987Y-59503643D01*
X79991958Y-59589548D01*
X79988975Y-59598729D01*
X79986463Y-59618612D01*
X79962762Y-59679402D01*
X79946421Y-59729694D01*
X79936360Y-59747120D01*
X79924831Y-59776691D01*
X79893778Y-59820874D01*
X79872745Y-59857305D01*
X79851915Y-59880440D01*
X79827270Y-59915505D01*
X79794976Y-59943677D01*
X79774144Y-59966813D01*
X79740102Y-59991546D01*
X79699413Y-60027041D01*
X79671215Y-60041595D01*
X79654927Y-60053429D01*
X79606605Y-60074943D01*
X79548642Y-60104860D01*
X79528604Y-60109671D01*
X79520313Y-60113362D01*
X79458506Y-60126500D01*
X79383662Y-60144468D01*
X79294052Y-60143999D01*
X79228820Y-60143999D01*
X79227173Y-60143649D01*
X79213996Y-60143580D01*
X79143264Y-60125813D01*
X79084686Y-60113362D01*
X79073026Y-60108171D01*
X79049439Y-60102246D01*
X78995118Y-60073484D01*
X78950072Y-60053429D01*
X78930815Y-60039438D01*
X78899492Y-60022853D01*
X78861949Y-59989403D01*
X78830857Y-59966813D01*
X78807581Y-59940962D01*
X78772811Y-59909983D01*
X78750635Y-59877718D01*
X78732255Y-59857304D01*
X78709409Y-59817733D01*
X78676709Y-59770155D01*
X78666801Y-59743933D01*
X78658579Y-59729693D01*
X78641146Y-59676040D01*
X78616735Y-59611439D01*
X78614705Y-59594666D01*
X78613042Y-59589547D01*
X78606144Y-59523920D01*
X78601500Y-59485541D01*
X78601500Y-58802249D01*
X78604013Y-58782357D01*
X78613042Y-58696452D01*
X78616025Y-58687271D01*
X78618537Y-58667388D01*
X78642236Y-58606602D01*
X78658578Y-58556308D01*
X78668639Y-58538882D01*
X78680169Y-58509309D01*
X78711224Y-58465123D01*
X78732257Y-58428693D01*
X78753088Y-58405558D01*
X78777731Y-58370495D01*
X78810025Y-58342323D01*
X78830857Y-58319187D01*
X78864896Y-58294456D01*
X78905587Y-58258959D01*
X78933786Y-58244405D01*
X78950073Y-58232571D01*
X78998395Y-58211057D01*
X79056358Y-58181140D01*
X79076396Y-58176329D01*
X79084687Y-58172638D01*
X79146494Y-58159500D01*
X79221338Y-58141532D01*
X79310948Y-58142001D01*
X79376180Y-58142001D01*
X79377827Y-58142351D01*
X79391004Y-58142420D01*
X79461736Y-58160187D01*
X79520314Y-58172638D01*
X79531974Y-58177829D01*
X79555561Y-58183754D01*
X79609882Y-58212516D01*
X79654928Y-58232571D01*
X79674186Y-58246563D01*
X79705508Y-58263147D01*
X79743050Y-58296596D01*
X79774144Y-58319187D01*
X79797421Y-58345038D01*
X79832189Y-58376016D01*
X79854365Y-58408281D01*
X79872745Y-58428695D01*
X79895591Y-58468266D01*
X79928291Y-58515844D01*
X79938199Y-58542066D01*
X79946421Y-58556306D01*
X79958226Y-58592637D01*
X79997981Y-58650777D01*
X80062858Y-58678194D01*
X80132259Y-58666184D01*
X80184150Y-58618559D01*
X80202044Y-58557936D01*
X80204225Y-58488528D01*
X80207537Y-58362055D01*
X80229228Y-58239041D01*
X80252149Y-58107711D01*
X80252666Y-58106120D01*
X80254021Y-58098435D01*
X80293502Y-57980440D01*
X80330961Y-57865150D01*
X80334481Y-57857966D01*
X80338959Y-57844581D01*
X80392917Y-57738682D01*
X80443170Y-57636103D01*
X80451216Y-57624264D01*
X80460486Y-57606070D01*
X80525988Y-57514240D01*
X80586526Y-57425160D01*
X80600416Y-57409895D01*
X80615933Y-57388141D01*
X80690018Y-57311423D01*
X80758176Y-57236519D01*
X80778942Y-57219340D01*
X80801884Y-57195583D01*
X80881604Y-57134411D01*
X80954699Y-57073943D01*
X80983051Y-57056569D01*
X81014255Y-57032625D01*
X81096677Y-56986938D01*
X81172164Y-56940679D01*
X81208489Y-56924960D01*
X81248380Y-56902848D01*
X81330782Y-56872039D01*
X81406230Y-56839390D01*
X81450493Y-56827281D01*
X81499115Y-56809102D01*
X81579056Y-56792110D01*
X81652248Y-56772087D01*
X81704038Y-56765544D01*
X81760952Y-56753447D01*
X81836259Y-56748841D01*
X81905277Y-56740122D01*
X81963783Y-56741041D01*
X82028140Y-56737105D01*
X82097070Y-56743135D01*
G37*
G36*
X68097070Y-56743135D02*
G01*
X68160303Y-56744129D01*
X68224321Y-56754268D01*
X68294809Y-56760435D01*
X68355974Y-56775120D01*
X68412208Y-56784026D01*
X68480210Y-56804946D01*
X68555100Y-56822926D01*
X68607595Y-56844135D01*
X68655978Y-56859020D01*
X68726059Y-56891998D01*
X68803295Y-56923203D01*
X68846672Y-56948754D01*
X68886762Y-56967619D01*
X68956786Y-57013616D01*
X69033943Y-57059065D01*
X69068171Y-57086782D01*
X69099930Y-57107644D01*
X69167537Y-57167247D01*
X69241975Y-57227526D01*
X69267474Y-57255353D01*
X69291245Y-57276310D01*
X69353900Y-57349670D01*
X69422822Y-57424885D01*
X69440413Y-57450964D01*
X69456884Y-57470250D01*
X69511989Y-57557081D01*
X69572510Y-57646808D01*
X69583338Y-57669508D01*
X69593549Y-57685599D01*
X69638538Y-57785238D01*
X69687753Y-57888419D01*
X69693261Y-57906436D01*
X69698503Y-57918045D01*
X69730840Y-58029352D01*
X69766017Y-58144409D01*
X69767870Y-58156810D01*
X69769660Y-58162970D01*
X69787006Y-58284846D01*
X69805584Y-58409156D01*
X69801639Y-58559804D01*
X69818531Y-58624824D01*
X69870286Y-58672597D01*
X69939652Y-58684805D01*
X70004607Y-58657573D01*
X70044639Y-58599208D01*
X70058578Y-58556308D01*
X70068639Y-58538882D01*
X70080169Y-58509309D01*
X70111224Y-58465123D01*
X70132257Y-58428693D01*
X70153088Y-58405558D01*
X70177731Y-58370495D01*
X70210025Y-58342323D01*
X70230857Y-58319187D01*
X70264896Y-58294456D01*
X70305587Y-58258959D01*
X70333786Y-58244405D01*
X70350073Y-58232571D01*
X70398395Y-58211057D01*
X70456358Y-58181140D01*
X70476396Y-58176329D01*
X70484687Y-58172638D01*
X70546494Y-58159500D01*
X70621338Y-58141532D01*
X70710948Y-58142001D01*
X70776180Y-58142001D01*
X70777827Y-58142351D01*
X70791004Y-58142420D01*
X70861736Y-58160187D01*
X70920314Y-58172638D01*
X70931974Y-58177829D01*
X70955561Y-58183754D01*
X71009882Y-58212516D01*
X71054928Y-58232571D01*
X71074186Y-58246563D01*
X71105508Y-58263147D01*
X71143050Y-58296596D01*
X71174144Y-58319187D01*
X71197421Y-58345038D01*
X71232189Y-58376016D01*
X71254365Y-58408281D01*
X71272745Y-58428695D01*
X71295591Y-58468266D01*
X71328291Y-58515844D01*
X71338199Y-58542066D01*
X71346421Y-58556306D01*
X71363854Y-58609959D01*
X71388265Y-58674560D01*
X71390295Y-58691333D01*
X71391958Y-58696452D01*
X71398856Y-58762079D01*
X71403500Y-58800458D01*
X71403500Y-59483751D01*
X71400987Y-59503643D01*
X71391958Y-59589548D01*
X71388975Y-59598729D01*
X71386463Y-59618612D01*
X71362762Y-59679402D01*
X71346421Y-59729694D01*
X71336360Y-59747120D01*
X71324831Y-59776691D01*
X71293778Y-59820874D01*
X71272745Y-59857305D01*
X71251915Y-59880440D01*
X71227270Y-59915505D01*
X71194976Y-59943677D01*
X71174144Y-59966813D01*
X71140102Y-59991546D01*
X71099413Y-60027041D01*
X71071215Y-60041595D01*
X71054927Y-60053429D01*
X71006605Y-60074943D01*
X70948642Y-60104860D01*
X70928604Y-60109671D01*
X70920313Y-60113362D01*
X70858506Y-60126500D01*
X70783662Y-60144468D01*
X70694052Y-60143999D01*
X70628820Y-60143999D01*
X70627173Y-60143649D01*
X70613996Y-60143580D01*
X70543264Y-60125813D01*
X70484686Y-60113362D01*
X70473026Y-60108171D01*
X70449439Y-60102246D01*
X70395118Y-60073484D01*
X70350072Y-60053429D01*
X70330815Y-60039438D01*
X70299492Y-60022853D01*
X70261949Y-59989403D01*
X70230857Y-59966813D01*
X70207581Y-59940962D01*
X70172811Y-59909983D01*
X70150635Y-59877718D01*
X70132255Y-59857304D01*
X70109409Y-59817733D01*
X70076709Y-59770155D01*
X70066801Y-59743933D01*
X70058579Y-59729693D01*
X70041146Y-59676040D01*
X70016735Y-59611439D01*
X70014705Y-59594666D01*
X70013042Y-59589547D01*
X70006144Y-59523920D01*
X70001500Y-59485541D01*
X70001500Y-59001558D01*
X69981657Y-58933978D01*
X69928427Y-58887855D01*
X69858712Y-58877831D01*
X69794644Y-58907090D01*
X69754474Y-58975570D01*
X69742742Y-59033235D01*
X69699336Y-59152492D01*
X69655920Y-59273086D01*
X69654397Y-59275963D01*
X69651188Y-59284779D01*
X69592430Y-59392999D01*
X69536576Y-59498488D01*
X69530947Y-59506235D01*
X69523459Y-59520027D01*
X69452817Y-59613771D01*
X69386662Y-59704826D01*
X69375603Y-59716238D01*
X69362360Y-59733812D01*
X69282955Y-59811843D01*
X69209165Y-59887988D01*
X69191620Y-59901598D01*
X69171432Y-59921436D01*
X69086391Y-59983222D01*
X69007643Y-60044306D01*
X68982862Y-60058441D01*
X68954869Y-60078779D01*
X68867135Y-60124450D01*
X68786096Y-60170674D01*
X68753701Y-60183500D01*
X68717427Y-60202383D01*
X68629806Y-60232553D01*
X68548958Y-60264563D01*
X68508940Y-60274170D01*
X68464324Y-60289533D01*
X68379359Y-60305280D01*
X68300957Y-60324103D01*
X68253696Y-60328570D01*
X68201119Y-60338315D01*
X68121012Y-60341113D01*
X68047040Y-60348105D01*
X67993325Y-60345572D01*
X67933595Y-60347658D01*
X67860176Y-60339293D01*
X67792275Y-60336091D01*
X67733254Y-60324832D01*
X67667628Y-60317355D01*
X67602313Y-60299854D01*
X67541746Y-60288300D01*
X67478932Y-60266794D01*
X67409062Y-60248072D01*
X67352801Y-60223609D01*
X67300441Y-60205682D01*
X67235660Y-60172675D01*
X67163577Y-60141332D01*
X67116889Y-60112158D01*
X67073195Y-60089895D01*
X67008531Y-60044448D01*
X66936565Y-59999479D01*
X66899484Y-59967809D01*
X66864526Y-59943240D01*
X66802295Y-59884801D01*
X66733014Y-59825630D01*
X66705154Y-59793581D01*
X66678600Y-59768645D01*
X66621251Y-59697061D01*
X66557396Y-59623604D01*
X66537960Y-59593095D01*
X66519139Y-59569603D01*
X66469230Y-59485212D01*
X66413567Y-59397839D01*
X66401412Y-59370539D01*
X66389304Y-59350065D01*
X66349333Y-59253566D01*
X66304689Y-59153294D01*
X66298389Y-59130577D01*
X66291702Y-59114433D01*
X66264118Y-59006999D01*
X66233153Y-58895343D01*
X66231048Y-58878199D01*
X66228274Y-58867395D01*
X66215369Y-58750505D01*
X66200530Y-58629651D01*
X66200817Y-58618695D01*
X66200286Y-58613886D01*
X66204224Y-58488563D01*
X66207537Y-58362055D01*
X66229228Y-58239041D01*
X66252149Y-58107711D01*
X66252666Y-58106120D01*
X66254021Y-58098435D01*
X66293502Y-57980440D01*
X66330961Y-57865150D01*
X66334481Y-57857966D01*
X66338959Y-57844581D01*
X66392917Y-57738682D01*
X66443170Y-57636103D01*
X66451216Y-57624264D01*
X66460486Y-57606070D01*
X66525988Y-57514240D01*
X66586526Y-57425160D01*
X66600416Y-57409895D01*
X66615933Y-57388141D01*
X66690018Y-57311423D01*
X66758176Y-57236519D01*
X66778942Y-57219340D01*
X66801884Y-57195583D01*
X66881604Y-57134411D01*
X66954699Y-57073943D01*
X66983051Y-57056569D01*
X67014255Y-57032625D01*
X67096677Y-56986938D01*
X67172164Y-56940679D01*
X67208489Y-56924960D01*
X67248380Y-56902848D01*
X67330782Y-56872039D01*
X67406230Y-56839390D01*
X67450493Y-56827281D01*
X67499115Y-56809102D01*
X67579056Y-56792110D01*
X67652248Y-56772087D01*
X67704038Y-56765544D01*
X67760952Y-56753447D01*
X67836259Y-56748841D01*
X67905277Y-56740122D01*
X67963783Y-56741041D01*
X68028140Y-56737105D01*
X68097070Y-56743135D01*
G37*
M02*
