G04 #@! TF.GenerationSoftware,KiCad,Pcbnew,(5.99.0-1490-g73eda91ec)*
G04 #@! TF.CreationDate,2020-05-03T20:48:54+09:00*
G04 #@! TF.ProjectId,Unified-Daughterboard,556e6966-6965-4642-9d44-617567687465,C3*
G04 #@! TF.SameCoordinates,Original*
G04 #@! TF.FileFunction,Copper,L1,Top*
G04 #@! TF.FilePolarity,Positive*
%FSLAX46Y46*%
G04 Gerber Fmt 4.6, Leading zero omitted, Abs format (unit mm)*
G04 Created by KiCad (PCBNEW (5.99.0-1490-g73eda91ec)) date 2020-05-03 20:48:54*
%MOMM*%
%LPD*%
G01*
G04 APERTURE LIST*
G04 #@! TA.AperFunction,SMDPad,CuDef*
%ADD10R,0.250000X0.550000*%
G04 #@! TD*
G04 #@! TA.AperFunction,SMDPad,CuDef*
%ADD11R,0.300000X0.550000*%
G04 #@! TD*
G04 #@! TA.AperFunction,SMDPad,CuDef*
%ADD12R,0.900000X0.500000*%
G04 #@! TD*
G04 #@! TA.AperFunction,ComponentPad*
%ADD13O,1.100000X2.200000*%
G04 #@! TD*
G04 #@! TA.AperFunction,ComponentPad*
%ADD14O,1.300000X1.900000*%
G04 #@! TD*
G04 #@! TA.AperFunction,WasherPad*
%ADD15C,3.500001*%
G04 #@! TD*
G04 #@! TA.AperFunction,ComponentPad*
%ADD16C,3.500001*%
G04 #@! TD*
G04 #@! TA.AperFunction,SMDPad,CuDef*
%ADD17R,0.600000X1.550000*%
G04 #@! TD*
G04 #@! TA.AperFunction,SMDPad,CuDef*
%ADD18R,1.200000X1.800000*%
G04 #@! TD*
G04 #@! TA.AperFunction,ViaPad*
%ADD19C,0.508000*%
G04 #@! TD*
G04 #@! TA.AperFunction,ViaPad*
%ADD20C,0.450000*%
G04 #@! TD*
G04 #@! TA.AperFunction,Conductor*
%ADD21C,0.508000*%
G04 #@! TD*
G04 #@! TA.AperFunction,Conductor*
%ADD22C,0.254000*%
G04 #@! TD*
G04 #@! TA.AperFunction,Conductor*
%ADD23C,0.152400*%
G04 #@! TD*
G04 APERTURE END LIST*
G04 #@! TA.AperFunction,SMDPad,CuDef*
G36*
G01*
X73877500Y-66561400D02*
X73877500Y-66261400D01*
G75*
G02*
X74002500Y-66136400I125000J0D01*
G01*
X74002500Y-66136400D01*
G75*
G02*
X74127500Y-66261400I0J-125000D01*
G01*
X74127500Y-66561400D01*
G75*
G02*
X74002500Y-66686400I-125000J0D01*
G01*
X74002500Y-66686400D01*
G75*
G02*
X73877500Y-66561400I0J125000D01*
G01*
G37*
G04 #@! TD.AperFunction*
D10*
X74502500Y-66411400D03*
D11*
X75002500Y-66411400D03*
D10*
X75502500Y-66411400D03*
X76002500Y-66411400D03*
X74502500Y-65641400D03*
X76002500Y-65641400D03*
X75502500Y-65641400D03*
X74002500Y-65641400D03*
D11*
X75002500Y-65641400D03*
G04 #@! TA.AperFunction,SMDPad,CuDef*
G36*
G01*
X82612500Y-65099000D02*
X81362500Y-65099000D01*
G75*
G02*
X81112500Y-64849000I0J250000D01*
G01*
X81112500Y-64099000D01*
G75*
G02*
X81362500Y-63849000I250000J0D01*
G01*
X82612500Y-63849000D01*
G75*
G02*
X82862500Y-64099000I0J-250000D01*
G01*
X82862500Y-64849000D01*
G75*
G02*
X82612500Y-65099000I-250000J0D01*
G01*
G37*
G04 #@! TD.AperFunction*
G04 #@! TA.AperFunction,SMDPad,CuDef*
G36*
G01*
X82612500Y-67899000D02*
X81362500Y-67899000D01*
G75*
G02*
X81112500Y-67649000I0J250000D01*
G01*
X81112500Y-66899000D01*
G75*
G02*
X81362500Y-66649000I250000J0D01*
G01*
X82612500Y-66649000D01*
G75*
G02*
X82862500Y-66899000I0J-250000D01*
G01*
X82862500Y-67649000D01*
G75*
G02*
X82612500Y-67899000I-250000J0D01*
G01*
G37*
G04 #@! TD.AperFunction*
D12*
X71954500Y-66379000D03*
X71954500Y-67879000D03*
G04 #@! TA.AperFunction,SMDPad,CuDef*
G36*
G01*
X67265500Y-63982000D02*
X68515500Y-63982000D01*
G75*
G02*
X68765500Y-64232000I0J-250000D01*
G01*
X68765500Y-64982000D01*
G75*
G02*
X68515500Y-65232000I-250000J0D01*
G01*
X67265500Y-65232000D01*
G75*
G02*
X67015500Y-64982000I0J250000D01*
G01*
X67015500Y-64232000D01*
G75*
G02*
X67265500Y-63982000I250000J0D01*
G01*
G37*
G04 #@! TD.AperFunction*
G04 #@! TA.AperFunction,SMDPad,CuDef*
G36*
G01*
X67265500Y-61182000D02*
X68515500Y-61182000D01*
G75*
G02*
X68765500Y-61432000I0J-250000D01*
G01*
X68765500Y-62182000D01*
G75*
G02*
X68515500Y-62432000I-250000J0D01*
G01*
X67265500Y-62432000D01*
G75*
G02*
X67015500Y-62182000I0J250000D01*
G01*
X67015500Y-61432000D01*
G75*
G02*
X67265500Y-61182000I250000J0D01*
G01*
G37*
G04 #@! TD.AperFunction*
G04 #@! TA.AperFunction,SMDPad,CuDef*
G36*
G01*
X70802500Y-66540000D02*
X70802500Y-67240000D01*
G75*
G02*
X70552500Y-67490000I-250000J0D01*
G01*
X70052500Y-67490000D01*
G75*
G02*
X69802500Y-67240000I0J250000D01*
G01*
X69802500Y-66540000D01*
G75*
G02*
X70052500Y-66290000I250000J0D01*
G01*
X70552500Y-66290000D01*
G75*
G02*
X70802500Y-66540000I0J-250000D01*
G01*
G37*
G04 #@! TD.AperFunction*
G04 #@! TA.AperFunction,SMDPad,CuDef*
G36*
G01*
X67502500Y-66540000D02*
X67502500Y-67240000D01*
G75*
G02*
X67252500Y-67490000I-250000J0D01*
G01*
X66752500Y-67490000D01*
G75*
G02*
X66502500Y-67240000I0J250000D01*
G01*
X66502500Y-66540000D01*
G75*
G02*
X66752500Y-66290000I250000J0D01*
G01*
X67252500Y-66290000D01*
G75*
G02*
X67502500Y-66540000I0J-250000D01*
G01*
G37*
G04 #@! TD.AperFunction*
D13*
X70702500Y-63343000D03*
D14*
X70702500Y-59143000D03*
X79302500Y-59143000D03*
G04 #@! TA.AperFunction,SMDPad,CuDef*
G36*
G01*
X78552500Y-63543000D02*
X78552500Y-64693000D01*
G75*
G02*
X78402500Y-64843000I-150000J0D01*
G01*
X78102500Y-64843000D01*
G75*
G02*
X77952500Y-64693000I0J150000D01*
G01*
X77952500Y-63543000D01*
G75*
G02*
X78102500Y-63393000I150000J0D01*
G01*
X78402500Y-63393000D01*
G75*
G02*
X78552500Y-63543000I0J-150000D01*
G01*
G37*
G04 #@! TD.AperFunction*
G04 #@! TA.AperFunction,SMDPad,CuDef*
G36*
G01*
X76902500Y-63468000D02*
X76902500Y-64768000D01*
G75*
G02*
X76827500Y-64843000I-75000J0D01*
G01*
X76677500Y-64843000D01*
G75*
G02*
X76602500Y-64768000I0J75000D01*
G01*
X76602500Y-63468000D01*
G75*
G02*
X76677500Y-63393000I75000J0D01*
G01*
X76827500Y-63393000D01*
G75*
G02*
X76902500Y-63468000I0J-75000D01*
G01*
G37*
G04 #@! TD.AperFunction*
G04 #@! TA.AperFunction,SMDPad,CuDef*
G36*
G01*
X76402500Y-63468000D02*
X76402500Y-64768000D01*
G75*
G02*
X76327500Y-64843000I-75000J0D01*
G01*
X76177500Y-64843000D01*
G75*
G02*
X76102500Y-64768000I0J75000D01*
G01*
X76102500Y-63468000D01*
G75*
G02*
X76177500Y-63393000I75000J0D01*
G01*
X76327500Y-63393000D01*
G75*
G02*
X76402500Y-63468000I0J-75000D01*
G01*
G37*
G04 #@! TD.AperFunction*
G04 #@! TA.AperFunction,SMDPad,CuDef*
G36*
G01*
X75902500Y-63468000D02*
X75902500Y-64768000D01*
G75*
G02*
X75827500Y-64843000I-75000J0D01*
G01*
X75677500Y-64843000D01*
G75*
G02*
X75602500Y-64768000I0J75000D01*
G01*
X75602500Y-63468000D01*
G75*
G02*
X75677500Y-63393000I75000J0D01*
G01*
X75827500Y-63393000D01*
G75*
G02*
X75902500Y-63468000I0J-75000D01*
G01*
G37*
G04 #@! TD.AperFunction*
G04 #@! TA.AperFunction,SMDPad,CuDef*
G36*
G01*
X75406500Y-63468000D02*
X75406500Y-64768000D01*
G75*
G02*
X75331500Y-64843000I-75000J0D01*
G01*
X75181500Y-64843000D01*
G75*
G02*
X75106500Y-64768000I0J75000D01*
G01*
X75106500Y-63468000D01*
G75*
G02*
X75181500Y-63393000I75000J0D01*
G01*
X75331500Y-63393000D01*
G75*
G02*
X75406500Y-63468000I0J-75000D01*
G01*
G37*
G04 #@! TD.AperFunction*
G04 #@! TA.AperFunction,SMDPad,CuDef*
G36*
G01*
X73402500Y-63468000D02*
X73402500Y-64768000D01*
G75*
G02*
X73327500Y-64843000I-75000J0D01*
G01*
X73177500Y-64843000D01*
G75*
G02*
X73102500Y-64768000I0J75000D01*
G01*
X73102500Y-63468000D01*
G75*
G02*
X73177500Y-63393000I75000J0D01*
G01*
X73327500Y-63393000D01*
G75*
G02*
X73402500Y-63468000I0J-75000D01*
G01*
G37*
G04 #@! TD.AperFunction*
G04 #@! TA.AperFunction,SMDPad,CuDef*
G36*
G01*
X73902500Y-63468000D02*
X73902500Y-64768000D01*
G75*
G02*
X73827500Y-64843000I-75000J0D01*
G01*
X73677500Y-64843000D01*
G75*
G02*
X73602500Y-64768000I0J75000D01*
G01*
X73602500Y-63468000D01*
G75*
G02*
X73677500Y-63393000I75000J0D01*
G01*
X73827500Y-63393000D01*
G75*
G02*
X73902500Y-63468000I0J-75000D01*
G01*
G37*
G04 #@! TD.AperFunction*
G04 #@! TA.AperFunction,SMDPad,CuDef*
G36*
G01*
X74402500Y-63468000D02*
X74402500Y-64768000D01*
G75*
G02*
X74327500Y-64843000I-75000J0D01*
G01*
X74177500Y-64843000D01*
G75*
G02*
X74102500Y-64768000I0J75000D01*
G01*
X74102500Y-63468000D01*
G75*
G02*
X74177500Y-63393000I75000J0D01*
G01*
X74327500Y-63393000D01*
G75*
G02*
X74402500Y-63468000I0J-75000D01*
G01*
G37*
G04 #@! TD.AperFunction*
G04 #@! TA.AperFunction,SMDPad,CuDef*
G36*
G01*
X74902500Y-63468000D02*
X74902500Y-64768000D01*
G75*
G02*
X74827500Y-64843000I-75000J0D01*
G01*
X74677500Y-64843000D01*
G75*
G02*
X74602500Y-64768000I0J75000D01*
G01*
X74602500Y-63468000D01*
G75*
G02*
X74677500Y-63393000I75000J0D01*
G01*
X74827500Y-63393000D01*
G75*
G02*
X74902500Y-63468000I0J-75000D01*
G01*
G37*
G04 #@! TD.AperFunction*
D13*
X79302500Y-63343000D03*
G04 #@! TA.AperFunction,SMDPad,CuDef*
G36*
G01*
X77752500Y-63543000D02*
X77752500Y-64693000D01*
G75*
G02*
X77602500Y-64843000I-150000J0D01*
G01*
X77302500Y-64843000D01*
G75*
G02*
X77152500Y-64693000I0J150000D01*
G01*
X77152500Y-63543000D01*
G75*
G02*
X77302500Y-63393000I150000J0D01*
G01*
X77602500Y-63393000D01*
G75*
G02*
X77752500Y-63543000I0J-150000D01*
G01*
G37*
G04 #@! TD.AperFunction*
G04 #@! TA.AperFunction,SMDPad,CuDef*
G36*
G01*
X72052500Y-63543000D02*
X72052500Y-64693000D01*
G75*
G02*
X71902500Y-64843000I-150000J0D01*
G01*
X71602500Y-64843000D01*
G75*
G02*
X71452500Y-64693000I0J150000D01*
G01*
X71452500Y-63543000D01*
G75*
G02*
X71602500Y-63393000I150000J0D01*
G01*
X71902500Y-63393000D01*
G75*
G02*
X72052500Y-63543000I0J-150000D01*
G01*
G37*
G04 #@! TD.AperFunction*
G04 #@! TA.AperFunction,SMDPad,CuDef*
G36*
G01*
X72852500Y-63543000D02*
X72852500Y-64693000D01*
G75*
G02*
X72702500Y-64843000I-150000J0D01*
G01*
X72402500Y-64843000D01*
G75*
G02*
X72252500Y-64693000I0J150000D01*
G01*
X72252500Y-63543000D01*
G75*
G02*
X72402500Y-63393000I150000J0D01*
G01*
X72702500Y-63393000D01*
G75*
G02*
X72852500Y-63543000I0J-150000D01*
G01*
G37*
G04 #@! TD.AperFunction*
D15*
X68004500Y-58543000D03*
D16*
X82004500Y-58543000D03*
D15*
X68004500Y-71043000D03*
X82004500Y-71043000D03*
D17*
X75504500Y-68018000D03*
X76504500Y-68018000D03*
X74504500Y-68018000D03*
X73504500Y-68018000D03*
D18*
X72204500Y-71893000D03*
X77804500Y-71893000D03*
D12*
X77923500Y-67879000D03*
X77923500Y-66379000D03*
D19*
X75502500Y-68016000D03*
X74504500Y-68018000D03*
D20*
X76272500Y-66890000D03*
X73732500Y-66890000D03*
X75002500Y-66026400D03*
D19*
X77452500Y-65239000D03*
X72552500Y-65239000D03*
D21*
X79755300Y-69430000D02*
X81987500Y-67197800D01*
X77288500Y-69430000D02*
X79755300Y-69430000D01*
D22*
X74504500Y-68018000D02*
X74504500Y-66892000D01*
X74504500Y-66892000D02*
X74502500Y-66890000D01*
X75502500Y-66890000D02*
X75502500Y-68016000D01*
X75502500Y-68016000D02*
X75504500Y-68018000D01*
X74502500Y-66890000D02*
X74502500Y-66411400D01*
X75502500Y-66890000D02*
X75502500Y-66411400D01*
X75256500Y-63568000D02*
X75256500Y-64842828D01*
X75256500Y-64842828D02*
X75502500Y-65088828D01*
X74502500Y-65088828D02*
X74502500Y-65057432D01*
X74502500Y-65057432D02*
X74752500Y-64807432D01*
X74752500Y-64807432D02*
X74752500Y-63568000D01*
X75502500Y-66890000D02*
X75502500Y-65088828D01*
X74502500Y-66890000D02*
X74502500Y-65088828D01*
X75502500Y-66890000D02*
X75502500Y-65641400D01*
X76002500Y-66411400D02*
X76002500Y-66620000D01*
X76002500Y-66620000D02*
X76272500Y-66890000D01*
X74002500Y-66411400D02*
X74002500Y-66620000D01*
X74002500Y-66620000D02*
X73732500Y-66890000D01*
D21*
X67129500Y-65368000D02*
X67890500Y-64607000D01*
D23*
X72834500Y-66013000D02*
X73252500Y-65595000D01*
X77261700Y-66140000D02*
X76526500Y-65404800D01*
X76252500Y-64840445D02*
X76252500Y-63568000D01*
X77923500Y-66140000D02*
X77261700Y-66140000D01*
X76526500Y-65404800D02*
X76526500Y-65114445D01*
X76526500Y-65114445D02*
X76252500Y-64840445D01*
D21*
X72473500Y-69049000D02*
X73504500Y-68018000D01*
X77452500Y-64895480D02*
X77452500Y-65239000D01*
X72552500Y-64895480D02*
X72552500Y-65239000D01*
X72552500Y-63568000D02*
X72552500Y-64895480D01*
D23*
X73252500Y-63568000D02*
X73252500Y-65595000D01*
D21*
X76504500Y-68646000D02*
X77288500Y-69430000D01*
X76504500Y-68018000D02*
X76504500Y-68646000D01*
D23*
X76002500Y-66411400D02*
X76002500Y-65088828D01*
X76002500Y-65088828D02*
X75752500Y-64838828D01*
X75752500Y-64838828D02*
X75752500Y-63568000D01*
X75502500Y-66411400D02*
X75502500Y-65088828D01*
X74002500Y-66411400D02*
X74002500Y-65088828D01*
X74002500Y-65088828D02*
X74252500Y-64838828D01*
X74252500Y-64838828D02*
X74252500Y-63568000D01*
X74502500Y-66411400D02*
X74502500Y-65088828D01*
D21*
X77452500Y-63568000D02*
X77452500Y-64895480D01*
D22*
X75504500Y-68018000D02*
X75504500Y-68018000D01*
D21*
X73504500Y-67814000D02*
X73504500Y-68018000D01*
X73504500Y-68018000D02*
X73504500Y-68018000D01*
D22*
X76254500Y-64238000D02*
X76254500Y-64389000D01*
X76254500Y-64389000D02*
X76231501Y-64411999D01*
D21*
X79324500Y-59143000D02*
X79324500Y-59283000D01*
X68004500Y-71043000D02*
X68004500Y-70950000D01*
X71105900Y-69049000D02*
X70369300Y-69049000D01*
X71105900Y-69049000D02*
X72473500Y-69049000D01*
X70064500Y-69049000D02*
X72473500Y-69049000D01*
X69231000Y-68215500D02*
X70064500Y-69049000D01*
D22*
X73252500Y-63568000D02*
X73252500Y-65704000D01*
X72577500Y-66379000D02*
X71954500Y-66379000D01*
X73252500Y-65704000D02*
X72577500Y-66379000D01*
D21*
X67002500Y-65495000D02*
X67890500Y-64607000D01*
X67002500Y-66890000D02*
X67002500Y-65495000D01*
X67002500Y-66890000D02*
X67002500Y-67511000D01*
X67707000Y-68215500D02*
X68596000Y-68215500D01*
X67002500Y-67511000D02*
X67707000Y-68215500D01*
X68074000Y-68215500D02*
X68596000Y-68215500D01*
X68596000Y-68215500D02*
X69231000Y-68215500D01*
X70731854Y-65239000D02*
X69771490Y-64278636D01*
X72552500Y-65239000D02*
X70731854Y-65239000D01*
X69124480Y-61807000D02*
X69771490Y-62454010D01*
X67890500Y-61807000D02*
X69124480Y-61807000D01*
X69771490Y-64278636D02*
X69771490Y-62454010D01*
G36*
X81973471Y-56773072D02*
G01*
X81983129Y-56775046D01*
X82253387Y-56794182D01*
X82497329Y-56846701D01*
X82731414Y-56933059D01*
X82951008Y-57051546D01*
X83151714Y-57199789D01*
X83329522Y-57374827D01*
X83480904Y-57573184D01*
X83602826Y-57790891D01*
X83692852Y-58023592D01*
X83749192Y-58266661D01*
X83771356Y-58522579D01*
X83771570Y-58549760D01*
X83772933Y-58559523D01*
X83776900Y-58573876D01*
X83776901Y-69521699D01*
X83749275Y-69486339D01*
X83745949Y-69482619D01*
X83528069Y-69269255D01*
X83524281Y-69266008D01*
X83280096Y-69083335D01*
X83275912Y-69080617D01*
X83009712Y-68931843D01*
X83005205Y-68929703D01*
X82721668Y-68817443D01*
X82716918Y-68815918D01*
X82421024Y-68742143D01*
X82416113Y-68741260D01*
X82113062Y-68707268D01*
X82108078Y-68707041D01*
X81803193Y-68713428D01*
X81798223Y-68713863D01*
X81496860Y-68760516D01*
X81491991Y-68761604D01*
X81199447Y-68847705D01*
X81194765Y-68849428D01*
X80916177Y-68973462D01*
X80911763Y-68975789D01*
X80864102Y-69005110D01*
X81739627Y-68129586D01*
X82611297Y-68129586D01*
X82618650Y-68128862D01*
X82786547Y-68095465D01*
X82800233Y-68089796D01*
X82945654Y-67992629D01*
X82956129Y-67982154D01*
X83053296Y-67836733D01*
X83058965Y-67823047D01*
X83092362Y-67655150D01*
X83093086Y-67647797D01*
X83093086Y-66900203D01*
X83092362Y-66892850D01*
X83058965Y-66724953D01*
X83053296Y-66711267D01*
X82956129Y-66565846D01*
X82945654Y-66555371D01*
X82800233Y-66458204D01*
X82786547Y-66452535D01*
X82618650Y-66419138D01*
X82611297Y-66418414D01*
X81363703Y-66418414D01*
X81356350Y-66419138D01*
X81188453Y-66452535D01*
X81174767Y-66458204D01*
X81029346Y-66555371D01*
X81018871Y-66565846D01*
X80921704Y-66711267D01*
X80916035Y-66724953D01*
X80882638Y-66892850D01*
X80881914Y-66900203D01*
X80881914Y-67619473D01*
X79554988Y-68946400D01*
X77488813Y-68946400D01*
X77035086Y-68492674D01*
X77035086Y-67239306D01*
X77034362Y-67231953D01*
X77020368Y-67161601D01*
X77014699Y-67147915D01*
X76972785Y-67085188D01*
X76962312Y-67074715D01*
X76899585Y-67032801D01*
X76885899Y-67027132D01*
X76815547Y-67013138D01*
X76808194Y-67012414D01*
X76713849Y-67012414D01*
X76724209Y-66987402D01*
X76727099Y-66972874D01*
X76727099Y-66807126D01*
X76724209Y-66792598D01*
X76660780Y-66639467D01*
X76652551Y-66627151D01*
X76535349Y-66509949D01*
X76523033Y-66501720D01*
X76369902Y-66438291D01*
X76359100Y-66436142D01*
X76359100Y-66375458D01*
X76358155Y-66367069D01*
X76358086Y-66366766D01*
X76358086Y-66132706D01*
X76357362Y-66125353D01*
X76343368Y-66055001D01*
X76337699Y-66041315D01*
X76327733Y-66026400D01*
X76337699Y-66011485D01*
X76343368Y-65997799D01*
X76357362Y-65927447D01*
X76358086Y-65920094D01*
X76358086Y-65668852D01*
X77071218Y-66381985D01*
X77071225Y-66381990D01*
X77096159Y-66406925D01*
X77113307Y-66416825D01*
X77143670Y-66424961D01*
X77170885Y-66440674D01*
X77190011Y-66445799D01*
X77226724Y-66445799D01*
X77226732Y-66445800D01*
X77242914Y-66445800D01*
X77242914Y-66632694D01*
X77243638Y-66640047D01*
X77257632Y-66710399D01*
X77263301Y-66724085D01*
X77305215Y-66786812D01*
X77315688Y-66797285D01*
X77378415Y-66839199D01*
X77392101Y-66844868D01*
X77462453Y-66858862D01*
X77469806Y-66859586D01*
X78377194Y-66859586D01*
X78384547Y-66858862D01*
X78454899Y-66844868D01*
X78468585Y-66839199D01*
X78531312Y-66797285D01*
X78541785Y-66786812D01*
X78583699Y-66724085D01*
X78589368Y-66710399D01*
X78603362Y-66640047D01*
X78604086Y-66632694D01*
X78604086Y-66125306D01*
X78603362Y-66117953D01*
X78589368Y-66047601D01*
X78583699Y-66033915D01*
X78541785Y-65971188D01*
X78531312Y-65960715D01*
X78468585Y-65918801D01*
X78454899Y-65913132D01*
X78384547Y-65899138D01*
X78377194Y-65898414D01*
X78114379Y-65898414D01*
X78089041Y-65873075D01*
X78071893Y-65863175D01*
X77968559Y-65835487D01*
X77958786Y-65834200D01*
X77388366Y-65834200D01*
X77220522Y-65666357D01*
X77223435Y-65667563D01*
X77257530Y-65690345D01*
X77271215Y-65696014D01*
X77311438Y-65704015D01*
X77349329Y-65719710D01*
X77363858Y-65722600D01*
X77404870Y-65722600D01*
X77445093Y-65730601D01*
X77459907Y-65730601D01*
X77500130Y-65722600D01*
X77541142Y-65722600D01*
X77555671Y-65719710D01*
X77593563Y-65704015D01*
X77633785Y-65696014D01*
X77647470Y-65690345D01*
X77681570Y-65667562D01*
X77719461Y-65651866D01*
X77731777Y-65643637D01*
X77760774Y-65614639D01*
X77794877Y-65591852D01*
X77805352Y-65581377D01*
X77828139Y-65547274D01*
X77857137Y-65518277D01*
X77865366Y-65505961D01*
X77881062Y-65468070D01*
X77903845Y-65433970D01*
X77909514Y-65420285D01*
X77917515Y-65380063D01*
X77933210Y-65342171D01*
X77936100Y-65327642D01*
X77936100Y-64866057D01*
X77951057Y-64843673D01*
X77956726Y-64829987D01*
X77982362Y-64701110D01*
X77983086Y-64693756D01*
X77983086Y-63542244D01*
X77982362Y-63534890D01*
X77956726Y-63406013D01*
X77951057Y-63392328D01*
X77919776Y-63345511D01*
X78033973Y-63331287D01*
X78044311Y-63328469D01*
X78179647Y-63269903D01*
X78188779Y-63264297D01*
X78302236Y-63170102D01*
X78309427Y-63162158D01*
X78391887Y-63039905D01*
X78396559Y-63030262D01*
X78441464Y-62889559D01*
X78443251Y-62878526D01*
X78445201Y-62718956D01*
X78443684Y-62707882D01*
X78402231Y-62566125D01*
X78397796Y-62556371D01*
X78318346Y-62432139D01*
X78311352Y-62424022D01*
X78200228Y-62327083D01*
X78191237Y-62321255D01*
X78057373Y-62259401D01*
X78047107Y-62256331D01*
X77901263Y-62234534D01*
X77890548Y-62234469D01*
X77744448Y-62254482D01*
X77734146Y-62257426D01*
X77599536Y-62317641D01*
X77590474Y-62323358D01*
X77478174Y-62418933D01*
X77471082Y-62426964D01*
X77390121Y-62550215D01*
X77385567Y-62559914D01*
X77342453Y-62700935D01*
X77340804Y-62711522D01*
X77339002Y-62858975D01*
X77340391Y-62869600D01*
X77380048Y-63011631D01*
X77384363Y-63021438D01*
X77421495Y-63081093D01*
X77271215Y-63110986D01*
X77257529Y-63116655D01*
X77110123Y-63215148D01*
X77099649Y-63225623D01*
X77095203Y-63232277D01*
X77051147Y-63261714D01*
X77048389Y-63257586D01*
X77037914Y-63247111D01*
X76950379Y-63188622D01*
X76936693Y-63182953D01*
X76837079Y-63163138D01*
X76829725Y-63162414D01*
X76675275Y-63162414D01*
X76667921Y-63163138D01*
X76568307Y-63182953D01*
X76554621Y-63188622D01*
X76502500Y-63223448D01*
X76450379Y-63188622D01*
X76436693Y-63182953D01*
X76337079Y-63163138D01*
X76329725Y-63162414D01*
X76175275Y-63162414D01*
X76167921Y-63163138D01*
X76068307Y-63182953D01*
X76054621Y-63188622D01*
X76002500Y-63223448D01*
X75950379Y-63188622D01*
X75936693Y-63182953D01*
X75837079Y-63163138D01*
X75829725Y-63162414D01*
X75675275Y-63162414D01*
X75667921Y-63163138D01*
X75568307Y-63182953D01*
X75554621Y-63188622D01*
X75504500Y-63222112D01*
X75454379Y-63188622D01*
X75440693Y-63182953D01*
X75341079Y-63163138D01*
X75333725Y-63162414D01*
X75179275Y-63162414D01*
X75171921Y-63163138D01*
X75072307Y-63182953D01*
X75058621Y-63188622D01*
X75004500Y-63224784D01*
X74950379Y-63188622D01*
X74936693Y-63182953D01*
X74837079Y-63163138D01*
X74829725Y-63162414D01*
X74675275Y-63162414D01*
X74667921Y-63163138D01*
X74568307Y-63182953D01*
X74554621Y-63188622D01*
X74502500Y-63223448D01*
X74450379Y-63188622D01*
X74436693Y-63182953D01*
X74337079Y-63163138D01*
X74329725Y-63162414D01*
X74175275Y-63162414D01*
X74167921Y-63163138D01*
X74068307Y-63182953D01*
X74054621Y-63188622D01*
X74002500Y-63223448D01*
X73950379Y-63188622D01*
X73936693Y-63182953D01*
X73837079Y-63163138D01*
X73829725Y-63162414D01*
X73675275Y-63162414D01*
X73667921Y-63163138D01*
X73568307Y-63182953D01*
X73554621Y-63188622D01*
X73502500Y-63223448D01*
X73450379Y-63188622D01*
X73436693Y-63182953D01*
X73337079Y-63163138D01*
X73329725Y-63162414D01*
X73175275Y-63162414D01*
X73167921Y-63163138D01*
X73068307Y-63182953D01*
X73054621Y-63188622D01*
X72967086Y-63247111D01*
X72956611Y-63257586D01*
X72953853Y-63261714D01*
X72909798Y-63232278D01*
X72905351Y-63225622D01*
X72894877Y-63215148D01*
X72747469Y-63116655D01*
X72733784Y-63110986D01*
X72584035Y-63081198D01*
X72611887Y-63039905D01*
X72616559Y-63030262D01*
X72661464Y-62889559D01*
X72663251Y-62878526D01*
X72665201Y-62718956D01*
X72663684Y-62707882D01*
X72622231Y-62566125D01*
X72617796Y-62556371D01*
X72538346Y-62432139D01*
X72531352Y-62424022D01*
X72420228Y-62327083D01*
X72411237Y-62321255D01*
X72277373Y-62259401D01*
X72267107Y-62256331D01*
X72121263Y-62234534D01*
X72110548Y-62234469D01*
X71964448Y-62254482D01*
X71954146Y-62257426D01*
X71819536Y-62317641D01*
X71810474Y-62323358D01*
X71698174Y-62418933D01*
X71691082Y-62426964D01*
X71610121Y-62550215D01*
X71605567Y-62559914D01*
X71562453Y-62700935D01*
X71560804Y-62711522D01*
X71559002Y-62858975D01*
X71560391Y-62869600D01*
X71600048Y-63011631D01*
X71604363Y-63021438D01*
X71682289Y-63146632D01*
X71689184Y-63154834D01*
X71799115Y-63253123D01*
X71808034Y-63259060D01*
X71941133Y-63322545D01*
X71951360Y-63325740D01*
X72084073Y-63347235D01*
X72053943Y-63392328D01*
X72048274Y-63406013D01*
X72022638Y-63534890D01*
X72021914Y-63542244D01*
X72021914Y-64693756D01*
X72022638Y-64701110D01*
X72033437Y-64755400D01*
X70932167Y-64755400D01*
X70255090Y-64078324D01*
X70255090Y-62501634D01*
X70263090Y-62461415D01*
X70263090Y-62446602D01*
X70254367Y-62402748D01*
X70254366Y-62402739D01*
X70228504Y-62272725D01*
X70222835Y-62259039D01*
X70124342Y-62111633D01*
X70113867Y-62101158D01*
X70079766Y-62078373D01*
X69500121Y-61498729D01*
X69477332Y-61464623D01*
X69466857Y-61454148D01*
X69319451Y-61355655D01*
X69305765Y-61349986D01*
X69179374Y-61324845D01*
X69131887Y-61315399D01*
X69117073Y-61315399D01*
X69076850Y-61323400D01*
X68974983Y-61323400D01*
X68961965Y-61257953D01*
X68956296Y-61244267D01*
X68859129Y-61098846D01*
X68848654Y-61088371D01*
X68703233Y-60991204D01*
X68689547Y-60985535D01*
X68521650Y-60952138D01*
X68514297Y-60951414D01*
X67266703Y-60951414D01*
X67259350Y-60952138D01*
X67091453Y-60985535D01*
X67077767Y-60991204D01*
X66932346Y-61088371D01*
X66921871Y-61098846D01*
X66824704Y-61244267D01*
X66819035Y-61257953D01*
X66785638Y-61425850D01*
X66784914Y-61433203D01*
X66784914Y-62180797D01*
X66785638Y-62188150D01*
X66819035Y-62356047D01*
X66824704Y-62369733D01*
X66921871Y-62515154D01*
X66932346Y-62525629D01*
X67077767Y-62622796D01*
X67091453Y-62628465D01*
X67259350Y-62661862D01*
X67266703Y-62662586D01*
X68514297Y-62662586D01*
X68521650Y-62661862D01*
X68689547Y-62628465D01*
X68703233Y-62622796D01*
X68848654Y-62525629D01*
X68859129Y-62515154D01*
X68956296Y-62369733D01*
X68961965Y-62356047D01*
X68966552Y-62332985D01*
X69287891Y-62654324D01*
X69287890Y-64231006D01*
X69279889Y-64271229D01*
X69279889Y-64286043D01*
X69309571Y-64435263D01*
X69309571Y-64435264D01*
X69314476Y-64459921D01*
X69320145Y-64473606D01*
X69418638Y-64621013D01*
X69429113Y-64631488D01*
X69463219Y-64654277D01*
X70356217Y-65547276D01*
X70379002Y-65581377D01*
X70389477Y-65591852D01*
X70429734Y-65618751D01*
X70536884Y-65690345D01*
X70550569Y-65696014D01*
X70724447Y-65730601D01*
X70739261Y-65730601D01*
X70779484Y-65722600D01*
X72504870Y-65722600D01*
X72545093Y-65730601D01*
X72559907Y-65730601D01*
X72600130Y-65722600D01*
X72641142Y-65722600D01*
X72655671Y-65719710D01*
X72693563Y-65704015D01*
X72715353Y-65699681D01*
X72593316Y-65821718D01*
X72587315Y-65829538D01*
X72539041Y-65913152D01*
X72519851Y-65932342D01*
X72499585Y-65918801D01*
X72485899Y-65913132D01*
X72415547Y-65899138D01*
X72408194Y-65898414D01*
X71500806Y-65898414D01*
X71493453Y-65899138D01*
X71423101Y-65913132D01*
X71409415Y-65918801D01*
X71346688Y-65960715D01*
X71336215Y-65971188D01*
X71294301Y-66033915D01*
X71288632Y-66047601D01*
X71274638Y-66117953D01*
X71273914Y-66125306D01*
X71273914Y-66632694D01*
X71274638Y-66640047D01*
X71288632Y-66710399D01*
X71294301Y-66724085D01*
X71336215Y-66786812D01*
X71346688Y-66797285D01*
X71409415Y-66839199D01*
X71423101Y-66844868D01*
X71493453Y-66858862D01*
X71500806Y-66859586D01*
X72408194Y-66859586D01*
X72415547Y-66858862D01*
X72485899Y-66844868D01*
X72499585Y-66839199D01*
X72562312Y-66797285D01*
X72572785Y-66786812D01*
X72607005Y-66735600D01*
X72613441Y-66735600D01*
X72621829Y-66734656D01*
X72637071Y-66731179D01*
X72689172Y-66725380D01*
X72705195Y-66719793D01*
X72715601Y-66713265D01*
X72727652Y-66710516D01*
X72742912Y-66703171D01*
X72784419Y-66670096D01*
X72797689Y-66661772D01*
X72804318Y-66656490D01*
X72815397Y-66645410D01*
X72856562Y-66612608D01*
X72867129Y-66599371D01*
X72872434Y-66588373D01*
X73461647Y-65999160D01*
X73472366Y-65994013D01*
X73485621Y-65983469D01*
X73518695Y-65942113D01*
X73530068Y-65930740D01*
X73535332Y-65924140D01*
X73543646Y-65910912D01*
X73576393Y-65869963D01*
X73583772Y-65854682D01*
X73586515Y-65842705D01*
X73593089Y-65832246D01*
X73598687Y-65816262D01*
X73604648Y-65763533D01*
X73608148Y-65748252D01*
X73609100Y-65739830D01*
X73609100Y-65724155D01*
X73615012Y-65671860D01*
X73613124Y-65655029D01*
X73609100Y-65643506D01*
X73609100Y-65061161D01*
X73667921Y-65072862D01*
X73675275Y-65073586D01*
X73696701Y-65073586D01*
X73696701Y-65227316D01*
X73667301Y-65271315D01*
X73661632Y-65285001D01*
X73647638Y-65355353D01*
X73646914Y-65362706D01*
X73646914Y-65920094D01*
X73647638Y-65927447D01*
X73661632Y-65997799D01*
X73667301Y-66011485D01*
X73696700Y-66055482D01*
X73696700Y-66087656D01*
X73671746Y-66127958D01*
X73666712Y-66140953D01*
X73645736Y-66253164D01*
X73645094Y-66260088D01*
X73645094Y-66436303D01*
X73635098Y-66438291D01*
X73481967Y-66501720D01*
X73469651Y-66509949D01*
X73352449Y-66627151D01*
X73344220Y-66639467D01*
X73280791Y-66792598D01*
X73277901Y-66807126D01*
X73277901Y-66972874D01*
X73280791Y-66987402D01*
X73291151Y-67012414D01*
X73200806Y-67012414D01*
X73193453Y-67013138D01*
X73123101Y-67027132D01*
X73109415Y-67032801D01*
X73046688Y-67074715D01*
X73036215Y-67085188D01*
X72994301Y-67147915D01*
X72988632Y-67161601D01*
X72974638Y-67231953D01*
X72973914Y-67239306D01*
X72973914Y-67864673D01*
X72273188Y-68565400D01*
X70264813Y-68565400D01*
X69606641Y-67907229D01*
X69583852Y-67873123D01*
X69573377Y-67862648D01*
X69425971Y-67764155D01*
X69412285Y-67758486D01*
X69285894Y-67733345D01*
X69238407Y-67723899D01*
X69223593Y-67723899D01*
X69183370Y-67731900D01*
X67907313Y-67731900D01*
X67657187Y-67481774D01*
X67693296Y-67427732D01*
X67698965Y-67414047D01*
X67732362Y-67246150D01*
X67733086Y-67238797D01*
X67733086Y-66541203D01*
X67732362Y-66533850D01*
X67698965Y-66365953D01*
X67693296Y-66352267D01*
X67596129Y-66206846D01*
X67585654Y-66196371D01*
X67486100Y-66129851D01*
X67486100Y-65695312D01*
X67718826Y-65462586D01*
X68514297Y-65462586D01*
X68521650Y-65461862D01*
X68689547Y-65428465D01*
X68703233Y-65422796D01*
X68848654Y-65325629D01*
X68859129Y-65315154D01*
X68956296Y-65169733D01*
X68961965Y-65156047D01*
X68995362Y-64988150D01*
X68996086Y-64980797D01*
X68996086Y-64233203D01*
X68995362Y-64225850D01*
X68961965Y-64057953D01*
X68956296Y-64044267D01*
X68859129Y-63898846D01*
X68848654Y-63888371D01*
X68703233Y-63791204D01*
X68689547Y-63785535D01*
X68521650Y-63752138D01*
X68514297Y-63751414D01*
X67266703Y-63751414D01*
X67259350Y-63752138D01*
X67091453Y-63785535D01*
X67077767Y-63791204D01*
X66932346Y-63888371D01*
X66921871Y-63898846D01*
X66824704Y-64044267D01*
X66819035Y-64057953D01*
X66785638Y-64225850D01*
X66784914Y-64233203D01*
X66784914Y-64980797D01*
X66785638Y-64988150D01*
X66792241Y-65021347D01*
X66694227Y-65119361D01*
X66660124Y-65142148D01*
X66649649Y-65152623D01*
X66624802Y-65189809D01*
X66551155Y-65300030D01*
X66545486Y-65313716D01*
X66510899Y-65487593D01*
X66510899Y-65502407D01*
X66518901Y-65542635D01*
X66518901Y-66129850D01*
X66419346Y-66196371D01*
X66408871Y-66206846D01*
X66311704Y-66352267D01*
X66306035Y-66365953D01*
X66272638Y-66533850D01*
X66271914Y-66541203D01*
X66271914Y-67238797D01*
X66272638Y-67246150D01*
X66306035Y-67414047D01*
X66311704Y-67427733D01*
X66408871Y-67573154D01*
X66419346Y-67583629D01*
X66539895Y-67664178D01*
X66545486Y-67692284D01*
X66551155Y-67705970D01*
X66622749Y-67813119D01*
X66649649Y-67853377D01*
X66660124Y-67863852D01*
X66694227Y-67886639D01*
X67331363Y-68523776D01*
X67354148Y-68557877D01*
X67364623Y-68568352D01*
X67512029Y-68666845D01*
X67525715Y-68672514D01*
X67655729Y-68698376D01*
X67655740Y-68698377D01*
X67699592Y-68707100D01*
X67714406Y-68707100D01*
X67754624Y-68699100D01*
X69030688Y-68699100D01*
X69688863Y-69357276D01*
X69711648Y-69391377D01*
X69722123Y-69401852D01*
X69762380Y-69428751D01*
X69869530Y-69500345D01*
X69883215Y-69506014D01*
X70057092Y-69540601D01*
X70071906Y-69540601D01*
X70112129Y-69532600D01*
X72425870Y-69532600D01*
X72466093Y-69540601D01*
X72480907Y-69540601D01*
X72528394Y-69531155D01*
X72654785Y-69506014D01*
X72668471Y-69500345D01*
X72815877Y-69401852D01*
X72826352Y-69391377D01*
X72849141Y-69357271D01*
X73185193Y-69021219D01*
X73193452Y-69022862D01*
X73200806Y-69023586D01*
X73808194Y-69023586D01*
X73815547Y-69022862D01*
X73885899Y-69008868D01*
X73899585Y-69003199D01*
X73962312Y-68961285D01*
X73972785Y-68950812D01*
X74004500Y-68903348D01*
X74036215Y-68950812D01*
X74046688Y-68961285D01*
X74109415Y-69003199D01*
X74123101Y-69008868D01*
X74193453Y-69022862D01*
X74200806Y-69023586D01*
X74808194Y-69023586D01*
X74815547Y-69022862D01*
X74885899Y-69008868D01*
X74899585Y-69003199D01*
X74962312Y-68961285D01*
X74972785Y-68950812D01*
X75004500Y-68903348D01*
X75036215Y-68950812D01*
X75046688Y-68961285D01*
X75109415Y-69003199D01*
X75123101Y-69008868D01*
X75193453Y-69022862D01*
X75200806Y-69023586D01*
X75808194Y-69023586D01*
X75815547Y-69022862D01*
X75885899Y-69008868D01*
X75899585Y-69003199D01*
X75962312Y-68961285D01*
X75972785Y-68950812D01*
X76004500Y-68903348D01*
X76036215Y-68950812D01*
X76046688Y-68961285D01*
X76109415Y-69003199D01*
X76123101Y-69008868D01*
X76193453Y-69022862D01*
X76197887Y-69023299D01*
X76912863Y-69738276D01*
X76935648Y-69772377D01*
X76946123Y-69782852D01*
X77093529Y-69881345D01*
X77107215Y-69887014D01*
X77237229Y-69912876D01*
X77237240Y-69912877D01*
X77281092Y-69921600D01*
X77295906Y-69921600D01*
X77336124Y-69913600D01*
X79707670Y-69913600D01*
X79747893Y-69921601D01*
X79762707Y-69921601D01*
X79810194Y-69912155D01*
X79936585Y-69887014D01*
X79950271Y-69881345D01*
X79995704Y-69850988D01*
X79872755Y-70082220D01*
X79870710Y-70086771D01*
X79764412Y-70372598D01*
X79762986Y-70377379D01*
X79695425Y-70674753D01*
X79694645Y-70679681D01*
X79667006Y-70983378D01*
X79666884Y-70988366D01*
X79679654Y-71293049D01*
X79680193Y-71298010D01*
X79733148Y-71598329D01*
X79734338Y-71603174D01*
X79826545Y-71893852D01*
X79828366Y-71898497D01*
X79958208Y-72174426D01*
X79960627Y-72178790D01*
X80125823Y-72435121D01*
X80128797Y-72439127D01*
X80326442Y-72671360D01*
X80329920Y-72674937D01*
X80485920Y-72815400D01*
X78632104Y-72815400D01*
X78634362Y-72804047D01*
X78635086Y-72796694D01*
X78635086Y-70989306D01*
X78634362Y-70981953D01*
X78620368Y-70911601D01*
X78614699Y-70897915D01*
X78572785Y-70835188D01*
X78562312Y-70824715D01*
X78499585Y-70782801D01*
X78485899Y-70777132D01*
X78415547Y-70763138D01*
X78408194Y-70762414D01*
X77200806Y-70762414D01*
X77193453Y-70763138D01*
X77123101Y-70777132D01*
X77109415Y-70782801D01*
X77046688Y-70824715D01*
X77036215Y-70835188D01*
X76994301Y-70897915D01*
X76988632Y-70911601D01*
X76974638Y-70981953D01*
X76973914Y-70989306D01*
X76973914Y-72796694D01*
X76974638Y-72804047D01*
X76976896Y-72815400D01*
X73032104Y-72815400D01*
X73034362Y-72804047D01*
X73035086Y-72796694D01*
X73035086Y-70989306D01*
X73034362Y-70981953D01*
X73020368Y-70911601D01*
X73014699Y-70897915D01*
X72972785Y-70835188D01*
X72962312Y-70824715D01*
X72899585Y-70782801D01*
X72885899Y-70777132D01*
X72815547Y-70763138D01*
X72808194Y-70762414D01*
X71600806Y-70762414D01*
X71593453Y-70763138D01*
X71523101Y-70777132D01*
X71509415Y-70782801D01*
X71446688Y-70824715D01*
X71436215Y-70835188D01*
X71394301Y-70897915D01*
X71388632Y-70911601D01*
X71374638Y-70981953D01*
X71373914Y-70989306D01*
X71373914Y-72796694D01*
X71374638Y-72804047D01*
X71376896Y-72815400D01*
X69522562Y-72815400D01*
X69667646Y-72686588D01*
X69671149Y-72683036D01*
X69870410Y-72452188D01*
X69873413Y-72448203D01*
X70040394Y-72193030D01*
X70042843Y-72188684D01*
X70174609Y-71913668D01*
X70176462Y-71909036D01*
X70270696Y-71619009D01*
X70271920Y-71614173D01*
X70327053Y-71313778D01*
X70327660Y-71307900D01*
X70337828Y-70891903D01*
X70337508Y-70886002D01*
X70297115Y-70583273D01*
X70296129Y-70578382D01*
X70216174Y-70284098D01*
X70214550Y-70279380D01*
X70096375Y-69998256D01*
X70094141Y-69993795D01*
X69939826Y-69730771D01*
X69937021Y-69726644D01*
X69749275Y-69486339D01*
X69745949Y-69482619D01*
X69528069Y-69269255D01*
X69524281Y-69266008D01*
X69280096Y-69083335D01*
X69275912Y-69080617D01*
X69009712Y-68931843D01*
X69005205Y-68929703D01*
X68721668Y-68817443D01*
X68716918Y-68815918D01*
X68421024Y-68742143D01*
X68416113Y-68741260D01*
X68113062Y-68707268D01*
X68108078Y-68707041D01*
X67803193Y-68713428D01*
X67798223Y-68713863D01*
X67496860Y-68760516D01*
X67491991Y-68761604D01*
X67199447Y-68847705D01*
X67194765Y-68849428D01*
X66916177Y-68973462D01*
X66911763Y-68975789D01*
X66652027Y-69135580D01*
X66647961Y-69138471D01*
X66411640Y-69331209D01*
X66407991Y-69334611D01*
X66232100Y-69521916D01*
X66232100Y-60060508D01*
X66326442Y-60171360D01*
X66329920Y-60174937D01*
X66556544Y-60378990D01*
X66560465Y-60382075D01*
X66812085Y-60554363D01*
X66816379Y-60556903D01*
X67088576Y-60694398D01*
X67093168Y-60696348D01*
X67381157Y-60796636D01*
X67385967Y-60797961D01*
X67684691Y-60859281D01*
X67689634Y-60859958D01*
X67993843Y-60881230D01*
X67998832Y-60881247D01*
X68303183Y-60862099D01*
X68308130Y-60861456D01*
X68607274Y-60802224D01*
X68612094Y-60800933D01*
X68900777Y-60702658D01*
X68905383Y-60700741D01*
X69178532Y-60565148D01*
X69182844Y-60562639D01*
X69435660Y-60392112D01*
X69439603Y-60389054D01*
X69667646Y-60186588D01*
X69671149Y-60183036D01*
X69870410Y-59952188D01*
X69873413Y-59948203D01*
X70040394Y-59693030D01*
X70042843Y-59688684D01*
X70174609Y-59413668D01*
X70176462Y-59409036D01*
X70270696Y-59119009D01*
X70271920Y-59114173D01*
X70327053Y-58813778D01*
X70327660Y-58807900D01*
X70337828Y-58391903D01*
X70337508Y-58386002D01*
X70297115Y-58083273D01*
X70296129Y-58078382D01*
X70216174Y-57784098D01*
X70214550Y-57779380D01*
X70096375Y-57498256D01*
X70094141Y-57493795D01*
X69939826Y-57230771D01*
X69937021Y-57226644D01*
X69749275Y-56986339D01*
X69745949Y-56982619D01*
X69529442Y-56770600D01*
X81966311Y-56770600D01*
X81973471Y-56773072D01*
G37*
D23*
X81973471Y-56773072D02*
X81983129Y-56775046D01*
X82253387Y-56794182D01*
X82497329Y-56846701D01*
X82731414Y-56933059D01*
X82951008Y-57051546D01*
X83151714Y-57199789D01*
X83329522Y-57374827D01*
X83480904Y-57573184D01*
X83602826Y-57790891D01*
X83692852Y-58023592D01*
X83749192Y-58266661D01*
X83771356Y-58522579D01*
X83771570Y-58549760D01*
X83772933Y-58559523D01*
X83776900Y-58573876D01*
X83776901Y-69521699D01*
X83749275Y-69486339D01*
X83745949Y-69482619D01*
X83528069Y-69269255D01*
X83524281Y-69266008D01*
X83280096Y-69083335D01*
X83275912Y-69080617D01*
X83009712Y-68931843D01*
X83005205Y-68929703D01*
X82721668Y-68817443D01*
X82716918Y-68815918D01*
X82421024Y-68742143D01*
X82416113Y-68741260D01*
X82113062Y-68707268D01*
X82108078Y-68707041D01*
X81803193Y-68713428D01*
X81798223Y-68713863D01*
X81496860Y-68760516D01*
X81491991Y-68761604D01*
X81199447Y-68847705D01*
X81194765Y-68849428D01*
X80916177Y-68973462D01*
X80911763Y-68975789D01*
X80864102Y-69005110D01*
X81739627Y-68129586D01*
X82611297Y-68129586D01*
X82618650Y-68128862D01*
X82786547Y-68095465D01*
X82800233Y-68089796D01*
X82945654Y-67992629D01*
X82956129Y-67982154D01*
X83053296Y-67836733D01*
X83058965Y-67823047D01*
X83092362Y-67655150D01*
X83093086Y-67647797D01*
X83093086Y-66900203D01*
X83092362Y-66892850D01*
X83058965Y-66724953D01*
X83053296Y-66711267D01*
X82956129Y-66565846D01*
X82945654Y-66555371D01*
X82800233Y-66458204D01*
X82786547Y-66452535D01*
X82618650Y-66419138D01*
X82611297Y-66418414D01*
X81363703Y-66418414D01*
X81356350Y-66419138D01*
X81188453Y-66452535D01*
X81174767Y-66458204D01*
X81029346Y-66555371D01*
X81018871Y-66565846D01*
X80921704Y-66711267D01*
X80916035Y-66724953D01*
X80882638Y-66892850D01*
X80881914Y-66900203D01*
X80881914Y-67619473D01*
X79554988Y-68946400D01*
X77488813Y-68946400D01*
X77035086Y-68492674D01*
X77035086Y-67239306D01*
X77034362Y-67231953D01*
X77020368Y-67161601D01*
X77014699Y-67147915D01*
X76972785Y-67085188D01*
X76962312Y-67074715D01*
X76899585Y-67032801D01*
X76885899Y-67027132D01*
X76815547Y-67013138D01*
X76808194Y-67012414D01*
X76713849Y-67012414D01*
X76724209Y-66987402D01*
X76727099Y-66972874D01*
X76727099Y-66807126D01*
X76724209Y-66792598D01*
X76660780Y-66639467D01*
X76652551Y-66627151D01*
X76535349Y-66509949D01*
X76523033Y-66501720D01*
X76369902Y-66438291D01*
X76359100Y-66436142D01*
X76359100Y-66375458D01*
X76358155Y-66367069D01*
X76358086Y-66366766D01*
X76358086Y-66132706D01*
X76357362Y-66125353D01*
X76343368Y-66055001D01*
X76337699Y-66041315D01*
X76327733Y-66026400D01*
X76337699Y-66011485D01*
X76343368Y-65997799D01*
X76357362Y-65927447D01*
X76358086Y-65920094D01*
X76358086Y-65668852D01*
X77071218Y-66381985D01*
X77071225Y-66381990D01*
X77096159Y-66406925D01*
X77113307Y-66416825D01*
X77143670Y-66424961D01*
X77170885Y-66440674D01*
X77190011Y-66445799D01*
X77226724Y-66445799D01*
X77226732Y-66445800D01*
X77242914Y-66445800D01*
X77242914Y-66632694D01*
X77243638Y-66640047D01*
X77257632Y-66710399D01*
X77263301Y-66724085D01*
X77305215Y-66786812D01*
X77315688Y-66797285D01*
X77378415Y-66839199D01*
X77392101Y-66844868D01*
X77462453Y-66858862D01*
X77469806Y-66859586D01*
X78377194Y-66859586D01*
X78384547Y-66858862D01*
X78454899Y-66844868D01*
X78468585Y-66839199D01*
X78531312Y-66797285D01*
X78541785Y-66786812D01*
X78583699Y-66724085D01*
X78589368Y-66710399D01*
X78603362Y-66640047D01*
X78604086Y-66632694D01*
X78604086Y-66125306D01*
X78603362Y-66117953D01*
X78589368Y-66047601D01*
X78583699Y-66033915D01*
X78541785Y-65971188D01*
X78531312Y-65960715D01*
X78468585Y-65918801D01*
X78454899Y-65913132D01*
X78384547Y-65899138D01*
X78377194Y-65898414D01*
X78114379Y-65898414D01*
X78089041Y-65873075D01*
X78071893Y-65863175D01*
X77968559Y-65835487D01*
X77958786Y-65834200D01*
X77388366Y-65834200D01*
X77220522Y-65666357D01*
X77223435Y-65667563D01*
X77257530Y-65690345D01*
X77271215Y-65696014D01*
X77311438Y-65704015D01*
X77349329Y-65719710D01*
X77363858Y-65722600D01*
X77404870Y-65722600D01*
X77445093Y-65730601D01*
X77459907Y-65730601D01*
X77500130Y-65722600D01*
X77541142Y-65722600D01*
X77555671Y-65719710D01*
X77593563Y-65704015D01*
X77633785Y-65696014D01*
X77647470Y-65690345D01*
X77681570Y-65667562D01*
X77719461Y-65651866D01*
X77731777Y-65643637D01*
X77760774Y-65614639D01*
X77794877Y-65591852D01*
X77805352Y-65581377D01*
X77828139Y-65547274D01*
X77857137Y-65518277D01*
X77865366Y-65505961D01*
X77881062Y-65468070D01*
X77903845Y-65433970D01*
X77909514Y-65420285D01*
X77917515Y-65380063D01*
X77933210Y-65342171D01*
X77936100Y-65327642D01*
X77936100Y-64866057D01*
X77951057Y-64843673D01*
X77956726Y-64829987D01*
X77982362Y-64701110D01*
X77983086Y-64693756D01*
X77983086Y-63542244D01*
X77982362Y-63534890D01*
X77956726Y-63406013D01*
X77951057Y-63392328D01*
X77919776Y-63345511D01*
X78033973Y-63331287D01*
X78044311Y-63328469D01*
X78179647Y-63269903D01*
X78188779Y-63264297D01*
X78302236Y-63170102D01*
X78309427Y-63162158D01*
X78391887Y-63039905D01*
X78396559Y-63030262D01*
X78441464Y-62889559D01*
X78443251Y-62878526D01*
X78445201Y-62718956D01*
X78443684Y-62707882D01*
X78402231Y-62566125D01*
X78397796Y-62556371D01*
X78318346Y-62432139D01*
X78311352Y-62424022D01*
X78200228Y-62327083D01*
X78191237Y-62321255D01*
X78057373Y-62259401D01*
X78047107Y-62256331D01*
X77901263Y-62234534D01*
X77890548Y-62234469D01*
X77744448Y-62254482D01*
X77734146Y-62257426D01*
X77599536Y-62317641D01*
X77590474Y-62323358D01*
X77478174Y-62418933D01*
X77471082Y-62426964D01*
X77390121Y-62550215D01*
X77385567Y-62559914D01*
X77342453Y-62700935D01*
X77340804Y-62711522D01*
X77339002Y-62858975D01*
X77340391Y-62869600D01*
X77380048Y-63011631D01*
X77384363Y-63021438D01*
X77421495Y-63081093D01*
X77271215Y-63110986D01*
X77257529Y-63116655D01*
X77110123Y-63215148D01*
X77099649Y-63225623D01*
X77095203Y-63232277D01*
X77051147Y-63261714D01*
X77048389Y-63257586D01*
X77037914Y-63247111D01*
X76950379Y-63188622D01*
X76936693Y-63182953D01*
X76837079Y-63163138D01*
X76829725Y-63162414D01*
X76675275Y-63162414D01*
X76667921Y-63163138D01*
X76568307Y-63182953D01*
X76554621Y-63188622D01*
X76502500Y-63223448D01*
X76450379Y-63188622D01*
X76436693Y-63182953D01*
X76337079Y-63163138D01*
X76329725Y-63162414D01*
X76175275Y-63162414D01*
X76167921Y-63163138D01*
X76068307Y-63182953D01*
X76054621Y-63188622D01*
X76002500Y-63223448D01*
X75950379Y-63188622D01*
X75936693Y-63182953D01*
X75837079Y-63163138D01*
X75829725Y-63162414D01*
X75675275Y-63162414D01*
X75667921Y-63163138D01*
X75568307Y-63182953D01*
X75554621Y-63188622D01*
X75504500Y-63222112D01*
X75454379Y-63188622D01*
X75440693Y-63182953D01*
X75341079Y-63163138D01*
X75333725Y-63162414D01*
X75179275Y-63162414D01*
X75171921Y-63163138D01*
X75072307Y-63182953D01*
X75058621Y-63188622D01*
X75004500Y-63224784D01*
X74950379Y-63188622D01*
X74936693Y-63182953D01*
X74837079Y-63163138D01*
X74829725Y-63162414D01*
X74675275Y-63162414D01*
X74667921Y-63163138D01*
X74568307Y-63182953D01*
X74554621Y-63188622D01*
X74502500Y-63223448D01*
X74450379Y-63188622D01*
X74436693Y-63182953D01*
X74337079Y-63163138D01*
X74329725Y-63162414D01*
X74175275Y-63162414D01*
X74167921Y-63163138D01*
X74068307Y-63182953D01*
X74054621Y-63188622D01*
X74002500Y-63223448D01*
X73950379Y-63188622D01*
X73936693Y-63182953D01*
X73837079Y-63163138D01*
X73829725Y-63162414D01*
X73675275Y-63162414D01*
X73667921Y-63163138D01*
X73568307Y-63182953D01*
X73554621Y-63188622D01*
X73502500Y-63223448D01*
X73450379Y-63188622D01*
X73436693Y-63182953D01*
X73337079Y-63163138D01*
X73329725Y-63162414D01*
X73175275Y-63162414D01*
X73167921Y-63163138D01*
X73068307Y-63182953D01*
X73054621Y-63188622D01*
X72967086Y-63247111D01*
X72956611Y-63257586D01*
X72953853Y-63261714D01*
X72909798Y-63232278D01*
X72905351Y-63225622D01*
X72894877Y-63215148D01*
X72747469Y-63116655D01*
X72733784Y-63110986D01*
X72584035Y-63081198D01*
X72611887Y-63039905D01*
X72616559Y-63030262D01*
X72661464Y-62889559D01*
X72663251Y-62878526D01*
X72665201Y-62718956D01*
X72663684Y-62707882D01*
X72622231Y-62566125D01*
X72617796Y-62556371D01*
X72538346Y-62432139D01*
X72531352Y-62424022D01*
X72420228Y-62327083D01*
X72411237Y-62321255D01*
X72277373Y-62259401D01*
X72267107Y-62256331D01*
X72121263Y-62234534D01*
X72110548Y-62234469D01*
X71964448Y-62254482D01*
X71954146Y-62257426D01*
X71819536Y-62317641D01*
X71810474Y-62323358D01*
X71698174Y-62418933D01*
X71691082Y-62426964D01*
X71610121Y-62550215D01*
X71605567Y-62559914D01*
X71562453Y-62700935D01*
X71560804Y-62711522D01*
X71559002Y-62858975D01*
X71560391Y-62869600D01*
X71600048Y-63011631D01*
X71604363Y-63021438D01*
X71682289Y-63146632D01*
X71689184Y-63154834D01*
X71799115Y-63253123D01*
X71808034Y-63259060D01*
X71941133Y-63322545D01*
X71951360Y-63325740D01*
X72084073Y-63347235D01*
X72053943Y-63392328D01*
X72048274Y-63406013D01*
X72022638Y-63534890D01*
X72021914Y-63542244D01*
X72021914Y-64693756D01*
X72022638Y-64701110D01*
X72033437Y-64755400D01*
X70932167Y-64755400D01*
X70255090Y-64078324D01*
X70255090Y-62501634D01*
X70263090Y-62461415D01*
X70263090Y-62446602D01*
X70254367Y-62402748D01*
X70254366Y-62402739D01*
X70228504Y-62272725D01*
X70222835Y-62259039D01*
X70124342Y-62111633D01*
X70113867Y-62101158D01*
X70079766Y-62078373D01*
X69500121Y-61498729D01*
X69477332Y-61464623D01*
X69466857Y-61454148D01*
X69319451Y-61355655D01*
X69305765Y-61349986D01*
X69179374Y-61324845D01*
X69131887Y-61315399D01*
X69117073Y-61315399D01*
X69076850Y-61323400D01*
X68974983Y-61323400D01*
X68961965Y-61257953D01*
X68956296Y-61244267D01*
X68859129Y-61098846D01*
X68848654Y-61088371D01*
X68703233Y-60991204D01*
X68689547Y-60985535D01*
X68521650Y-60952138D01*
X68514297Y-60951414D01*
X67266703Y-60951414D01*
X67259350Y-60952138D01*
X67091453Y-60985535D01*
X67077767Y-60991204D01*
X66932346Y-61088371D01*
X66921871Y-61098846D01*
X66824704Y-61244267D01*
X66819035Y-61257953D01*
X66785638Y-61425850D01*
X66784914Y-61433203D01*
X66784914Y-62180797D01*
X66785638Y-62188150D01*
X66819035Y-62356047D01*
X66824704Y-62369733D01*
X66921871Y-62515154D01*
X66932346Y-62525629D01*
X67077767Y-62622796D01*
X67091453Y-62628465D01*
X67259350Y-62661862D01*
X67266703Y-62662586D01*
X68514297Y-62662586D01*
X68521650Y-62661862D01*
X68689547Y-62628465D01*
X68703233Y-62622796D01*
X68848654Y-62525629D01*
X68859129Y-62515154D01*
X68956296Y-62369733D01*
X68961965Y-62356047D01*
X68966552Y-62332985D01*
X69287891Y-62654324D01*
X69287890Y-64231006D01*
X69279889Y-64271229D01*
X69279889Y-64286043D01*
X69309571Y-64435263D01*
X69309571Y-64435264D01*
X69314476Y-64459921D01*
X69320145Y-64473606D01*
X69418638Y-64621013D01*
X69429113Y-64631488D01*
X69463219Y-64654277D01*
X70356217Y-65547276D01*
X70379002Y-65581377D01*
X70389477Y-65591852D01*
X70429734Y-65618751D01*
X70536884Y-65690345D01*
X70550569Y-65696014D01*
X70724447Y-65730601D01*
X70739261Y-65730601D01*
X70779484Y-65722600D01*
X72504870Y-65722600D01*
X72545093Y-65730601D01*
X72559907Y-65730601D01*
X72600130Y-65722600D01*
X72641142Y-65722600D01*
X72655671Y-65719710D01*
X72693563Y-65704015D01*
X72715353Y-65699681D01*
X72593316Y-65821718D01*
X72587315Y-65829538D01*
X72539041Y-65913152D01*
X72519851Y-65932342D01*
X72499585Y-65918801D01*
X72485899Y-65913132D01*
X72415547Y-65899138D01*
X72408194Y-65898414D01*
X71500806Y-65898414D01*
X71493453Y-65899138D01*
X71423101Y-65913132D01*
X71409415Y-65918801D01*
X71346688Y-65960715D01*
X71336215Y-65971188D01*
X71294301Y-66033915D01*
X71288632Y-66047601D01*
X71274638Y-66117953D01*
X71273914Y-66125306D01*
X71273914Y-66632694D01*
X71274638Y-66640047D01*
X71288632Y-66710399D01*
X71294301Y-66724085D01*
X71336215Y-66786812D01*
X71346688Y-66797285D01*
X71409415Y-66839199D01*
X71423101Y-66844868D01*
X71493453Y-66858862D01*
X71500806Y-66859586D01*
X72408194Y-66859586D01*
X72415547Y-66858862D01*
X72485899Y-66844868D01*
X72499585Y-66839199D01*
X72562312Y-66797285D01*
X72572785Y-66786812D01*
X72607005Y-66735600D01*
X72613441Y-66735600D01*
X72621829Y-66734656D01*
X72637071Y-66731179D01*
X72689172Y-66725380D01*
X72705195Y-66719793D01*
X72715601Y-66713265D01*
X72727652Y-66710516D01*
X72742912Y-66703171D01*
X72784419Y-66670096D01*
X72797689Y-66661772D01*
X72804318Y-66656490D01*
X72815397Y-66645410D01*
X72856562Y-66612608D01*
X72867129Y-66599371D01*
X72872434Y-66588373D01*
X73461647Y-65999160D01*
X73472366Y-65994013D01*
X73485621Y-65983469D01*
X73518695Y-65942113D01*
X73530068Y-65930740D01*
X73535332Y-65924140D01*
X73543646Y-65910912D01*
X73576393Y-65869963D01*
X73583772Y-65854682D01*
X73586515Y-65842705D01*
X73593089Y-65832246D01*
X73598687Y-65816262D01*
X73604648Y-65763533D01*
X73608148Y-65748252D01*
X73609100Y-65739830D01*
X73609100Y-65724155D01*
X73615012Y-65671860D01*
X73613124Y-65655029D01*
X73609100Y-65643506D01*
X73609100Y-65061161D01*
X73667921Y-65072862D01*
X73675275Y-65073586D01*
X73696701Y-65073586D01*
X73696701Y-65227316D01*
X73667301Y-65271315D01*
X73661632Y-65285001D01*
X73647638Y-65355353D01*
X73646914Y-65362706D01*
X73646914Y-65920094D01*
X73647638Y-65927447D01*
X73661632Y-65997799D01*
X73667301Y-66011485D01*
X73696700Y-66055482D01*
X73696700Y-66087656D01*
X73671746Y-66127958D01*
X73666712Y-66140953D01*
X73645736Y-66253164D01*
X73645094Y-66260088D01*
X73645094Y-66436303D01*
X73635098Y-66438291D01*
X73481967Y-66501720D01*
X73469651Y-66509949D01*
X73352449Y-66627151D01*
X73344220Y-66639467D01*
X73280791Y-66792598D01*
X73277901Y-66807126D01*
X73277901Y-66972874D01*
X73280791Y-66987402D01*
X73291151Y-67012414D01*
X73200806Y-67012414D01*
X73193453Y-67013138D01*
X73123101Y-67027132D01*
X73109415Y-67032801D01*
X73046688Y-67074715D01*
X73036215Y-67085188D01*
X72994301Y-67147915D01*
X72988632Y-67161601D01*
X72974638Y-67231953D01*
X72973914Y-67239306D01*
X72973914Y-67864673D01*
X72273188Y-68565400D01*
X70264813Y-68565400D01*
X69606641Y-67907229D01*
X69583852Y-67873123D01*
X69573377Y-67862648D01*
X69425971Y-67764155D01*
X69412285Y-67758486D01*
X69285894Y-67733345D01*
X69238407Y-67723899D01*
X69223593Y-67723899D01*
X69183370Y-67731900D01*
X67907313Y-67731900D01*
X67657187Y-67481774D01*
X67693296Y-67427732D01*
X67698965Y-67414047D01*
X67732362Y-67246150D01*
X67733086Y-67238797D01*
X67733086Y-66541203D01*
X67732362Y-66533850D01*
X67698965Y-66365953D01*
X67693296Y-66352267D01*
X67596129Y-66206846D01*
X67585654Y-66196371D01*
X67486100Y-66129851D01*
X67486100Y-65695312D01*
X67718826Y-65462586D01*
X68514297Y-65462586D01*
X68521650Y-65461862D01*
X68689547Y-65428465D01*
X68703233Y-65422796D01*
X68848654Y-65325629D01*
X68859129Y-65315154D01*
X68956296Y-65169733D01*
X68961965Y-65156047D01*
X68995362Y-64988150D01*
X68996086Y-64980797D01*
X68996086Y-64233203D01*
X68995362Y-64225850D01*
X68961965Y-64057953D01*
X68956296Y-64044267D01*
X68859129Y-63898846D01*
X68848654Y-63888371D01*
X68703233Y-63791204D01*
X68689547Y-63785535D01*
X68521650Y-63752138D01*
X68514297Y-63751414D01*
X67266703Y-63751414D01*
X67259350Y-63752138D01*
X67091453Y-63785535D01*
X67077767Y-63791204D01*
X66932346Y-63888371D01*
X66921871Y-63898846D01*
X66824704Y-64044267D01*
X66819035Y-64057953D01*
X66785638Y-64225850D01*
X66784914Y-64233203D01*
X66784914Y-64980797D01*
X66785638Y-64988150D01*
X66792241Y-65021347D01*
X66694227Y-65119361D01*
X66660124Y-65142148D01*
X66649649Y-65152623D01*
X66624802Y-65189809D01*
X66551155Y-65300030D01*
X66545486Y-65313716D01*
X66510899Y-65487593D01*
X66510899Y-65502407D01*
X66518901Y-65542635D01*
X66518901Y-66129850D01*
X66419346Y-66196371D01*
X66408871Y-66206846D01*
X66311704Y-66352267D01*
X66306035Y-66365953D01*
X66272638Y-66533850D01*
X66271914Y-66541203D01*
X66271914Y-67238797D01*
X66272638Y-67246150D01*
X66306035Y-67414047D01*
X66311704Y-67427733D01*
X66408871Y-67573154D01*
X66419346Y-67583629D01*
X66539895Y-67664178D01*
X66545486Y-67692284D01*
X66551155Y-67705970D01*
X66622749Y-67813119D01*
X66649649Y-67853377D01*
X66660124Y-67863852D01*
X66694227Y-67886639D01*
X67331363Y-68523776D01*
X67354148Y-68557877D01*
X67364623Y-68568352D01*
X67512029Y-68666845D01*
X67525715Y-68672514D01*
X67655729Y-68698376D01*
X67655740Y-68698377D01*
X67699592Y-68707100D01*
X67714406Y-68707100D01*
X67754624Y-68699100D01*
X69030688Y-68699100D01*
X69688863Y-69357276D01*
X69711648Y-69391377D01*
X69722123Y-69401852D01*
X69762380Y-69428751D01*
X69869530Y-69500345D01*
X69883215Y-69506014D01*
X70057092Y-69540601D01*
X70071906Y-69540601D01*
X70112129Y-69532600D01*
X72425870Y-69532600D01*
X72466093Y-69540601D01*
X72480907Y-69540601D01*
X72528394Y-69531155D01*
X72654785Y-69506014D01*
X72668471Y-69500345D01*
X72815877Y-69401852D01*
X72826352Y-69391377D01*
X72849141Y-69357271D01*
X73185193Y-69021219D01*
X73193452Y-69022862D01*
X73200806Y-69023586D01*
X73808194Y-69023586D01*
X73815547Y-69022862D01*
X73885899Y-69008868D01*
X73899585Y-69003199D01*
X73962312Y-68961285D01*
X73972785Y-68950812D01*
X74004500Y-68903348D01*
X74036215Y-68950812D01*
X74046688Y-68961285D01*
X74109415Y-69003199D01*
X74123101Y-69008868D01*
X74193453Y-69022862D01*
X74200806Y-69023586D01*
X74808194Y-69023586D01*
X74815547Y-69022862D01*
X74885899Y-69008868D01*
X74899585Y-69003199D01*
X74962312Y-68961285D01*
X74972785Y-68950812D01*
X75004500Y-68903348D01*
X75036215Y-68950812D01*
X75046688Y-68961285D01*
X75109415Y-69003199D01*
X75123101Y-69008868D01*
X75193453Y-69022862D01*
X75200806Y-69023586D01*
X75808194Y-69023586D01*
X75815547Y-69022862D01*
X75885899Y-69008868D01*
X75899585Y-69003199D01*
X75962312Y-68961285D01*
X75972785Y-68950812D01*
X76004500Y-68903348D01*
X76036215Y-68950812D01*
X76046688Y-68961285D01*
X76109415Y-69003199D01*
X76123101Y-69008868D01*
X76193453Y-69022862D01*
X76197887Y-69023299D01*
X76912863Y-69738276D01*
X76935648Y-69772377D01*
X76946123Y-69782852D01*
X77093529Y-69881345D01*
X77107215Y-69887014D01*
X77237229Y-69912876D01*
X77237240Y-69912877D01*
X77281092Y-69921600D01*
X77295906Y-69921600D01*
X77336124Y-69913600D01*
X79707670Y-69913600D01*
X79747893Y-69921601D01*
X79762707Y-69921601D01*
X79810194Y-69912155D01*
X79936585Y-69887014D01*
X79950271Y-69881345D01*
X79995704Y-69850988D01*
X79872755Y-70082220D01*
X79870710Y-70086771D01*
X79764412Y-70372598D01*
X79762986Y-70377379D01*
X79695425Y-70674753D01*
X79694645Y-70679681D01*
X79667006Y-70983378D01*
X79666884Y-70988366D01*
X79679654Y-71293049D01*
X79680193Y-71298010D01*
X79733148Y-71598329D01*
X79734338Y-71603174D01*
X79826545Y-71893852D01*
X79828366Y-71898497D01*
X79958208Y-72174426D01*
X79960627Y-72178790D01*
X80125823Y-72435121D01*
X80128797Y-72439127D01*
X80326442Y-72671360D01*
X80329920Y-72674937D01*
X80485920Y-72815400D01*
X78632104Y-72815400D01*
X78634362Y-72804047D01*
X78635086Y-72796694D01*
X78635086Y-70989306D01*
X78634362Y-70981953D01*
X78620368Y-70911601D01*
X78614699Y-70897915D01*
X78572785Y-70835188D01*
X78562312Y-70824715D01*
X78499585Y-70782801D01*
X78485899Y-70777132D01*
X78415547Y-70763138D01*
X78408194Y-70762414D01*
X77200806Y-70762414D01*
X77193453Y-70763138D01*
X77123101Y-70777132D01*
X77109415Y-70782801D01*
X77046688Y-70824715D01*
X77036215Y-70835188D01*
X76994301Y-70897915D01*
X76988632Y-70911601D01*
X76974638Y-70981953D01*
X76973914Y-70989306D01*
X76973914Y-72796694D01*
X76974638Y-72804047D01*
X76976896Y-72815400D01*
X73032104Y-72815400D01*
X73034362Y-72804047D01*
X73035086Y-72796694D01*
X73035086Y-70989306D01*
X73034362Y-70981953D01*
X73020368Y-70911601D01*
X73014699Y-70897915D01*
X72972785Y-70835188D01*
X72962312Y-70824715D01*
X72899585Y-70782801D01*
X72885899Y-70777132D01*
X72815547Y-70763138D01*
X72808194Y-70762414D01*
X71600806Y-70762414D01*
X71593453Y-70763138D01*
X71523101Y-70777132D01*
X71509415Y-70782801D01*
X71446688Y-70824715D01*
X71436215Y-70835188D01*
X71394301Y-70897915D01*
X71388632Y-70911601D01*
X71374638Y-70981953D01*
X71373914Y-70989306D01*
X71373914Y-72796694D01*
X71374638Y-72804047D01*
X71376896Y-72815400D01*
X69522562Y-72815400D01*
X69667646Y-72686588D01*
X69671149Y-72683036D01*
X69870410Y-72452188D01*
X69873413Y-72448203D01*
X70040394Y-72193030D01*
X70042843Y-72188684D01*
X70174609Y-71913668D01*
X70176462Y-71909036D01*
X70270696Y-71619009D01*
X70271920Y-71614173D01*
X70327053Y-71313778D01*
X70327660Y-71307900D01*
X70337828Y-70891903D01*
X70337508Y-70886002D01*
X70297115Y-70583273D01*
X70296129Y-70578382D01*
X70216174Y-70284098D01*
X70214550Y-70279380D01*
X70096375Y-69998256D01*
X70094141Y-69993795D01*
X69939826Y-69730771D01*
X69937021Y-69726644D01*
X69749275Y-69486339D01*
X69745949Y-69482619D01*
X69528069Y-69269255D01*
X69524281Y-69266008D01*
X69280096Y-69083335D01*
X69275912Y-69080617D01*
X69009712Y-68931843D01*
X69005205Y-68929703D01*
X68721668Y-68817443D01*
X68716918Y-68815918D01*
X68421024Y-68742143D01*
X68416113Y-68741260D01*
X68113062Y-68707268D01*
X68108078Y-68707041D01*
X67803193Y-68713428D01*
X67798223Y-68713863D01*
X67496860Y-68760516D01*
X67491991Y-68761604D01*
X67199447Y-68847705D01*
X67194765Y-68849428D01*
X66916177Y-68973462D01*
X66911763Y-68975789D01*
X66652027Y-69135580D01*
X66647961Y-69138471D01*
X66411640Y-69331209D01*
X66407991Y-69334611D01*
X66232100Y-69521916D01*
X66232100Y-60060508D01*
X66326442Y-60171360D01*
X66329920Y-60174937D01*
X66556544Y-60378990D01*
X66560465Y-60382075D01*
X66812085Y-60554363D01*
X66816379Y-60556903D01*
X67088576Y-60694398D01*
X67093168Y-60696348D01*
X67381157Y-60796636D01*
X67385967Y-60797961D01*
X67684691Y-60859281D01*
X67689634Y-60859958D01*
X67993843Y-60881230D01*
X67998832Y-60881247D01*
X68303183Y-60862099D01*
X68308130Y-60861456D01*
X68607274Y-60802224D01*
X68612094Y-60800933D01*
X68900777Y-60702658D01*
X68905383Y-60700741D01*
X69178532Y-60565148D01*
X69182844Y-60562639D01*
X69435660Y-60392112D01*
X69439603Y-60389054D01*
X69667646Y-60186588D01*
X69671149Y-60183036D01*
X69870410Y-59952188D01*
X69873413Y-59948203D01*
X70040394Y-59693030D01*
X70042843Y-59688684D01*
X70174609Y-59413668D01*
X70176462Y-59409036D01*
X70270696Y-59119009D01*
X70271920Y-59114173D01*
X70327053Y-58813778D01*
X70327660Y-58807900D01*
X70337828Y-58391903D01*
X70337508Y-58386002D01*
X70297115Y-58083273D01*
X70296129Y-58078382D01*
X70216174Y-57784098D01*
X70214550Y-57779380D01*
X70096375Y-57498256D01*
X70094141Y-57493795D01*
X69939826Y-57230771D01*
X69937021Y-57226644D01*
X69749275Y-56986339D01*
X69745949Y-56982619D01*
X69529442Y-56770600D01*
X81966311Y-56770600D01*
X81973471Y-56773072D01*
G36*
X75022893Y-65121890D02*
G01*
X75036130Y-65132457D01*
X75047123Y-65137759D01*
X75145901Y-65236538D01*
X75145900Y-66651580D01*
X75145900Y-67022597D01*
X75123101Y-67027132D01*
X75109415Y-67032801D01*
X75046688Y-67074715D01*
X75036215Y-67085188D01*
X75004500Y-67132652D01*
X74972785Y-67085188D01*
X74962312Y-67074715D01*
X74899585Y-67032801D01*
X74885899Y-67027132D01*
X74861100Y-67022199D01*
X74861100Y-66952815D01*
X74865038Y-66941601D01*
X74866955Y-66924773D01*
X74861100Y-66872156D01*
X74861100Y-66856058D01*
X74860155Y-66847670D01*
X74859100Y-66843044D01*
X74859100Y-65205139D01*
X74961647Y-65102592D01*
X74972366Y-65097445D01*
X74985621Y-65086901D01*
X74990325Y-65081019D01*
X75022893Y-65121890D01*
G37*
X75022893Y-65121890D02*
X75036130Y-65132457D01*
X75047123Y-65137759D01*
X75145901Y-65236538D01*
X75145900Y-66651580D01*
X75145900Y-67022597D01*
X75123101Y-67027132D01*
X75109415Y-67032801D01*
X75046688Y-67074715D01*
X75036215Y-67085188D01*
X75004500Y-67132652D01*
X74972785Y-67085188D01*
X74962312Y-67074715D01*
X74899585Y-67032801D01*
X74885899Y-67027132D01*
X74861100Y-67022199D01*
X74861100Y-66952815D01*
X74865038Y-66941601D01*
X74866955Y-66924773D01*
X74861100Y-66872156D01*
X74861100Y-66856058D01*
X74860155Y-66847670D01*
X74859100Y-66843044D01*
X74859100Y-65205139D01*
X74961647Y-65102592D01*
X74972366Y-65097445D01*
X74985621Y-65086901D01*
X74990325Y-65081019D01*
X75022893Y-65121890D01*
M02*
