G04 #@! TF.GenerationSoftware,KiCad,Pcbnew,(5.99.0-840-g2507f985a)*
G04 #@! TF.CreationDate,2020-03-22T20:28:13-03:00*
G04 #@! TF.ProjectId,Unified-Daughterboard,556e6966-6965-4642-9d44-617567687465,rev?*
G04 #@! TF.SameCoordinates,Original*
G04 #@! TF.FileFunction,Legend,Top*
G04 #@! TF.FilePolarity,Positive*
%FSLAX46Y46*%
G04 Gerber Fmt 4.6, Leading zero omitted, Abs format (unit mm)*
G04 Created by KiCad (PCBNEW (5.99.0-840-g2507f985a)) date 2020-03-22 20:28:13*
%MOMM*%
%LPD*%
G01*
G04 APERTURE LIST*
%ADD10C,0.400000*%
%ADD11C,0.120000*%
%ADD12C,0.100000*%
%ADD13C,0.101600*%
%ADD14C,0.150000*%
%ADD15C,0.152400*%
%ADD16C,0.127000*%
%ADD17C,0.200000*%
%ADD18R,0.352000X0.652000*%
%ADD19R,0.402000X0.652000*%
%ADD20R,1.002000X0.602000*%
%ADD21O,1.202000X2.302000*%
%ADD22O,1.402000X2.002000*%
%ADD23C,0.752000*%
%ADD24C,3.602001*%
%ADD25R,0.702000X1.652000*%
%ADD26R,1.302000X1.902000*%
G04 APERTURE END LIST*
D10*
X73502500Y-66426400D02*
G75*
G03*
X73502500Y-66426400I0J0D01*
G01*
D11*
X81077500Y-66476064D02*
X81077500Y-65271936D01*
X82897500Y-66476064D02*
X82897500Y-65271936D01*
X71274500Y-67629000D02*
X71274500Y-66629000D01*
X72634500Y-66629000D02*
X72634500Y-67629000D01*
X68800500Y-62604936D02*
X68800500Y-63809064D01*
X66980500Y-62604936D02*
X66980500Y-63809064D01*
X68652500Y-66255000D02*
X68906500Y-66255000D01*
X68652500Y-67525000D02*
X68398500Y-67525000D01*
X68652500Y-66255000D02*
X68652500Y-67525000D01*
G36*
X68652500Y-66890000D02*
G01*
X67941500Y-67490000D01*
X67941500Y-66290000D01*
X68652500Y-66890000D01*
G37*
D12*
X68652500Y-66890000D02*
X67941500Y-67490000D01*
X67941500Y-66290000D01*
X68652500Y-66890000D01*
G36*
X69363500Y-67490000D02*
G01*
X68652500Y-66890000D01*
X69363500Y-66290000D01*
X69363500Y-67490000D01*
G37*
X69363500Y-67490000D02*
X68652500Y-66890000D01*
X69363500Y-66290000D01*
X69363500Y-67490000D01*
D13*
X66302500Y-68040000D02*
X66302500Y-65740000D01*
X66302500Y-65740000D02*
X67252500Y-65740000D01*
X66302500Y-68040000D02*
X67252500Y-68040000D01*
X71002500Y-65740000D02*
X71002500Y-68040000D01*
X71002500Y-65740000D02*
X70052500Y-65740000D01*
X71002500Y-68040000D02*
X70052500Y-68040000D01*
D14*
X77004500Y-68393000D02*
X78004500Y-68393000D01*
X78004500Y-68393000D02*
X78004500Y-70793000D01*
X77004500Y-72593000D02*
X73004500Y-72593000D01*
X72004500Y-70793000D02*
X72004500Y-68393000D01*
X72004500Y-68393000D02*
X73004500Y-68393000D01*
D11*
X78603500Y-66629000D02*
X78603500Y-67629000D01*
X77243500Y-67629000D02*
X77243500Y-66629000D01*
D14*
X76401128Y-66483542D02*
X76886842Y-66483542D01*
X76943985Y-66454971D01*
X76972557Y-66426400D01*
X77001128Y-66369257D01*
X77001128Y-66254971D01*
X76972557Y-66197828D01*
X76943985Y-66169257D01*
X76886842Y-66140685D01*
X76401128Y-66140685D01*
X77001128Y-65540685D02*
X77001128Y-65883542D01*
X77001128Y-65712114D02*
X76401128Y-65712114D01*
X76486842Y-65769257D01*
X76543985Y-65826400D01*
X76572557Y-65883542D01*
D15*
X81860500Y-63282714D02*
X81497642Y-63282714D01*
X81497642Y-62520714D01*
X82513642Y-63282714D02*
X82078214Y-63282714D01*
X82295928Y-63282714D02*
X82295928Y-62520714D01*
X82223357Y-62629571D01*
X82150785Y-62702142D01*
X82078214Y-62738428D01*
D16*
X71603133Y-65742280D02*
X71408400Y-65464090D01*
X71269304Y-65742280D02*
X71269304Y-65158080D01*
X71491857Y-65158080D01*
X71547495Y-65185900D01*
X71575314Y-65213719D01*
X71603133Y-65269357D01*
X71603133Y-65352814D01*
X71575314Y-65408452D01*
X71547495Y-65436271D01*
X71491857Y-65464090D01*
X71269304Y-65464090D01*
X71825685Y-65213719D02*
X71853504Y-65185900D01*
X71909142Y-65158080D01*
X72048238Y-65158080D01*
X72103876Y-65185900D01*
X72131695Y-65213719D01*
X72159514Y-65269357D01*
X72159514Y-65324995D01*
X72131695Y-65408452D01*
X71797866Y-65742280D01*
X72159514Y-65742280D01*
X67678833Y-63161642D02*
X67467166Y-63161642D01*
X67467166Y-63494261D02*
X67467166Y-62859261D01*
X67769547Y-62859261D01*
X68344071Y-63494261D02*
X67981214Y-63494261D01*
X68162642Y-63494261D02*
X68162642Y-62859261D01*
X68102166Y-62949976D01*
X68041690Y-63010452D01*
X67981214Y-63040690D01*
D17*
X68062023Y-68902904D02*
X68062023Y-68102904D01*
X68252500Y-68102904D01*
X68366785Y-68141000D01*
X68442976Y-68217190D01*
X68481071Y-68293380D01*
X68519166Y-68445761D01*
X68519166Y-68560047D01*
X68481071Y-68712428D01*
X68442976Y-68788619D01*
X68366785Y-68864809D01*
X68252500Y-68902904D01*
X68062023Y-68902904D01*
X69281071Y-68902904D02*
X68823928Y-68902904D01*
X69052500Y-68902904D02*
X69052500Y-68102904D01*
X68976309Y-68217190D01*
X68900119Y-68293380D01*
X68823928Y-68331476D01*
D14*
X74669166Y-59295380D02*
X74669166Y-60009666D01*
X74621547Y-60152523D01*
X74526309Y-60247761D01*
X74383452Y-60295380D01*
X74288214Y-60295380D01*
X75669166Y-60295380D02*
X75097738Y-60295380D01*
X75383452Y-60295380D02*
X75383452Y-59295380D01*
X75288214Y-59438238D01*
X75192976Y-59533476D01*
X75097738Y-59581095D01*
X74675166Y-71056380D02*
X74675166Y-71770666D01*
X74627547Y-71913523D01*
X74532309Y-72008761D01*
X74389452Y-72056380D01*
X74294214Y-72056380D01*
X75103738Y-71151619D02*
X75151357Y-71104000D01*
X75246595Y-71056380D01*
X75484690Y-71056380D01*
X75579928Y-71104000D01*
X75627547Y-71151619D01*
X75675166Y-71246857D01*
X75675166Y-71342095D01*
X75627547Y-71484952D01*
X75056119Y-72056380D01*
X75675166Y-72056380D01*
D16*
X78325666Y-65765261D02*
X78114000Y-65462880D01*
X77962809Y-65765261D02*
X77962809Y-65130261D01*
X78204714Y-65130261D01*
X78265190Y-65160500D01*
X78295428Y-65190738D01*
X78325666Y-65251214D01*
X78325666Y-65341928D01*
X78295428Y-65402404D01*
X78265190Y-65432642D01*
X78204714Y-65462880D01*
X77962809Y-65462880D01*
X78930428Y-65765261D02*
X78567571Y-65765261D01*
X78749000Y-65765261D02*
X78749000Y-65130261D01*
X78688523Y-65220976D01*
X78628047Y-65281452D01*
X78567571Y-65311690D01*
%LPC*%
G36*
X74069853Y-66098797D02*
G01*
X74126952Y-66136949D01*
X74165104Y-66194048D01*
X74178501Y-66261400D01*
X74178501Y-66561400D01*
X74165104Y-66628752D01*
X74126952Y-66685851D01*
X74069853Y-66724003D01*
X74002501Y-66737400D01*
X74002499Y-66737400D01*
X73935147Y-66724003D01*
X73878048Y-66685851D01*
X73839896Y-66628752D01*
X73826499Y-66561400D01*
X73826499Y-66261400D01*
X73839896Y-66194048D01*
X73878048Y-66136949D01*
X73935147Y-66098797D01*
X74002499Y-66085400D01*
X74002501Y-66085400D01*
X74069853Y-66098797D01*
G37*
D18*
X74502500Y-66411400D03*
D19*
X75002500Y-66411400D03*
D18*
X75502500Y-66411400D03*
X76002500Y-66411400D03*
X74502500Y-65641400D03*
X76002500Y-65641400D03*
X75502500Y-65641400D03*
X74002500Y-65641400D03*
D19*
X75002500Y-65641400D03*
G36*
X82746578Y-63818583D02*
G01*
X82834302Y-63877198D01*
X82892917Y-63964922D01*
X82913500Y-64068400D01*
X82913500Y-64879600D01*
X82892917Y-64983078D01*
X82834302Y-65070802D01*
X82746578Y-65129417D01*
X82643100Y-65150000D01*
X81331900Y-65150000D01*
X81228422Y-65129417D01*
X81140698Y-65070802D01*
X81082083Y-64983078D01*
X81061500Y-64879600D01*
X81061500Y-64068400D01*
X81082083Y-63964922D01*
X81140698Y-63877198D01*
X81228422Y-63818583D01*
X81331900Y-63798000D01*
X82643100Y-63798000D01*
X82746578Y-63818583D01*
G37*
G36*
X82746578Y-66618583D02*
G01*
X82834302Y-66677198D01*
X82892917Y-66764922D01*
X82913500Y-66868400D01*
X82913500Y-67679600D01*
X82892917Y-67783078D01*
X82834302Y-67870802D01*
X82746578Y-67929417D01*
X82643100Y-67950000D01*
X81331900Y-67950000D01*
X81228422Y-67929417D01*
X81140698Y-67870802D01*
X81082083Y-67783078D01*
X81061500Y-67679600D01*
X81061500Y-66868400D01*
X81082083Y-66764922D01*
X81140698Y-66677198D01*
X81228422Y-66618583D01*
X81331900Y-66598000D01*
X82643100Y-66598000D01*
X82746578Y-66618583D01*
G37*
D20*
X71954500Y-66379000D03*
X71954500Y-67879000D03*
G36*
X68649578Y-63951583D02*
G01*
X68737302Y-64010198D01*
X68795917Y-64097922D01*
X68816500Y-64201400D01*
X68816500Y-65012600D01*
X68795917Y-65116078D01*
X68737302Y-65203802D01*
X68649578Y-65262417D01*
X68546100Y-65283000D01*
X67234900Y-65283000D01*
X67131422Y-65262417D01*
X67043698Y-65203802D01*
X66985083Y-65116078D01*
X66964500Y-65012600D01*
X66964500Y-64201400D01*
X66985083Y-64097922D01*
X67043698Y-64010198D01*
X67131422Y-63951583D01*
X67234900Y-63931000D01*
X68546100Y-63931000D01*
X68649578Y-63951583D01*
G37*
G36*
X68649578Y-61151583D02*
G01*
X68737302Y-61210198D01*
X68795917Y-61297922D01*
X68816500Y-61401400D01*
X68816500Y-62212600D01*
X68795917Y-62316078D01*
X68737302Y-62403802D01*
X68649578Y-62462417D01*
X68546100Y-62483000D01*
X67234900Y-62483000D01*
X67131422Y-62462417D01*
X67043698Y-62403802D01*
X66985083Y-62316078D01*
X66964500Y-62212600D01*
X66964500Y-61401400D01*
X66985083Y-61297922D01*
X67043698Y-61210198D01*
X67131422Y-61151583D01*
X67234900Y-61131000D01*
X68546100Y-61131000D01*
X68649578Y-61151583D01*
G37*
G36*
X70683429Y-66259971D02*
G01*
X70772808Y-66319692D01*
X70832529Y-66409071D01*
X70853500Y-66514500D01*
X70853500Y-67265500D01*
X70832529Y-67370929D01*
X70772808Y-67460308D01*
X70683429Y-67520029D01*
X70578000Y-67541000D01*
X70027000Y-67541000D01*
X69921571Y-67520029D01*
X69832192Y-67460308D01*
X69772471Y-67370929D01*
X69751500Y-67265500D01*
X69751500Y-66514500D01*
X69772471Y-66409071D01*
X69832192Y-66319692D01*
X69921571Y-66259971D01*
X70027000Y-66239000D01*
X70578000Y-66239000D01*
X70683429Y-66259971D01*
G37*
G36*
X67383429Y-66259971D02*
G01*
X67472808Y-66319692D01*
X67532529Y-66409071D01*
X67553500Y-66514500D01*
X67553500Y-67265500D01*
X67532529Y-67370929D01*
X67472808Y-67460308D01*
X67383429Y-67520029D01*
X67278000Y-67541000D01*
X66727000Y-67541000D01*
X66621571Y-67520029D01*
X66532192Y-67460308D01*
X66472471Y-67370929D01*
X66451500Y-67265500D01*
X66451500Y-66514500D01*
X66472471Y-66409071D01*
X66532192Y-66319692D01*
X66621571Y-66259971D01*
X66727000Y-66239000D01*
X67278000Y-66239000D01*
X67383429Y-66259971D01*
G37*
D21*
X70702500Y-63343000D03*
D22*
X70702500Y-59143000D03*
D23*
X72112500Y-62792000D03*
X77892500Y-62792000D03*
D22*
X79302500Y-59143000D03*
G36*
X78495161Y-63355359D02*
G01*
X78552097Y-63393403D01*
X78590141Y-63450339D01*
X78603500Y-63517500D01*
X78603500Y-64718500D01*
X78590141Y-64785661D01*
X78552097Y-64842597D01*
X78495161Y-64880641D01*
X78428000Y-64894000D01*
X78077000Y-64894000D01*
X78009839Y-64880641D01*
X77952903Y-64842597D01*
X77914859Y-64785661D01*
X77901500Y-64718500D01*
X77901500Y-63517500D01*
X77914859Y-63450339D01*
X77952903Y-63393403D01*
X78009839Y-63355359D01*
X78077000Y-63342000D01*
X78428000Y-63342000D01*
X78495161Y-63355359D01*
G37*
G36*
X76891460Y-63349650D02*
G01*
X76924064Y-63371436D01*
X76945850Y-63404040D01*
X76953500Y-63442500D01*
X76953500Y-64793500D01*
X76945850Y-64831960D01*
X76924064Y-64864564D01*
X76891460Y-64886350D01*
X76853000Y-64894000D01*
X76652000Y-64894000D01*
X76613540Y-64886350D01*
X76580936Y-64864564D01*
X76559150Y-64831960D01*
X76551500Y-64793500D01*
X76551500Y-63442500D01*
X76559150Y-63404040D01*
X76580936Y-63371436D01*
X76613540Y-63349650D01*
X76652000Y-63342000D01*
X76853000Y-63342000D01*
X76891460Y-63349650D01*
G37*
G36*
X76391460Y-63349650D02*
G01*
X76424064Y-63371436D01*
X76445850Y-63404040D01*
X76453500Y-63442500D01*
X76453500Y-64793500D01*
X76445850Y-64831960D01*
X76424064Y-64864564D01*
X76391460Y-64886350D01*
X76353000Y-64894000D01*
X76152000Y-64894000D01*
X76113540Y-64886350D01*
X76080936Y-64864564D01*
X76059150Y-64831960D01*
X76051500Y-64793500D01*
X76051500Y-63442500D01*
X76059150Y-63404040D01*
X76080936Y-63371436D01*
X76113540Y-63349650D01*
X76152000Y-63342000D01*
X76353000Y-63342000D01*
X76391460Y-63349650D01*
G37*
G36*
X75891460Y-63349650D02*
G01*
X75924064Y-63371436D01*
X75945850Y-63404040D01*
X75953500Y-63442500D01*
X75953500Y-64793500D01*
X75945850Y-64831960D01*
X75924064Y-64864564D01*
X75891460Y-64886350D01*
X75853000Y-64894000D01*
X75652000Y-64894000D01*
X75613540Y-64886350D01*
X75580936Y-64864564D01*
X75559150Y-64831960D01*
X75551500Y-64793500D01*
X75551500Y-63442500D01*
X75559150Y-63404040D01*
X75580936Y-63371436D01*
X75613540Y-63349650D01*
X75652000Y-63342000D01*
X75853000Y-63342000D01*
X75891460Y-63349650D01*
G37*
G36*
X75395460Y-63349650D02*
G01*
X75428064Y-63371436D01*
X75449850Y-63404040D01*
X75457500Y-63442500D01*
X75457500Y-64793500D01*
X75449850Y-64831960D01*
X75428064Y-64864564D01*
X75395460Y-64886350D01*
X75357000Y-64894000D01*
X75156000Y-64894000D01*
X75117540Y-64886350D01*
X75084936Y-64864564D01*
X75063150Y-64831960D01*
X75055500Y-64793500D01*
X75055500Y-63442500D01*
X75063150Y-63404040D01*
X75084936Y-63371436D01*
X75117540Y-63349650D01*
X75156000Y-63342000D01*
X75357000Y-63342000D01*
X75395460Y-63349650D01*
G37*
G36*
X73391460Y-63349650D02*
G01*
X73424064Y-63371436D01*
X73445850Y-63404040D01*
X73453500Y-63442500D01*
X73453500Y-64793500D01*
X73445850Y-64831960D01*
X73424064Y-64864564D01*
X73391460Y-64886350D01*
X73353000Y-64894000D01*
X73152000Y-64894000D01*
X73113540Y-64886350D01*
X73080936Y-64864564D01*
X73059150Y-64831960D01*
X73051500Y-64793500D01*
X73051500Y-63442500D01*
X73059150Y-63404040D01*
X73080936Y-63371436D01*
X73113540Y-63349650D01*
X73152000Y-63342000D01*
X73353000Y-63342000D01*
X73391460Y-63349650D01*
G37*
G36*
X73891460Y-63349650D02*
G01*
X73924064Y-63371436D01*
X73945850Y-63404040D01*
X73953500Y-63442500D01*
X73953500Y-64793500D01*
X73945850Y-64831960D01*
X73924064Y-64864564D01*
X73891460Y-64886350D01*
X73853000Y-64894000D01*
X73652000Y-64894000D01*
X73613540Y-64886350D01*
X73580936Y-64864564D01*
X73559150Y-64831960D01*
X73551500Y-64793500D01*
X73551500Y-63442500D01*
X73559150Y-63404040D01*
X73580936Y-63371436D01*
X73613540Y-63349650D01*
X73652000Y-63342000D01*
X73853000Y-63342000D01*
X73891460Y-63349650D01*
G37*
G36*
X74391460Y-63349650D02*
G01*
X74424064Y-63371436D01*
X74445850Y-63404040D01*
X74453500Y-63442500D01*
X74453500Y-64793500D01*
X74445850Y-64831960D01*
X74424064Y-64864564D01*
X74391460Y-64886350D01*
X74353000Y-64894000D01*
X74152000Y-64894000D01*
X74113540Y-64886350D01*
X74080936Y-64864564D01*
X74059150Y-64831960D01*
X74051500Y-64793500D01*
X74051500Y-63442500D01*
X74059150Y-63404040D01*
X74080936Y-63371436D01*
X74113540Y-63349650D01*
X74152000Y-63342000D01*
X74353000Y-63342000D01*
X74391460Y-63349650D01*
G37*
G36*
X74891460Y-63349650D02*
G01*
X74924064Y-63371436D01*
X74945850Y-63404040D01*
X74953500Y-63442500D01*
X74953500Y-64793500D01*
X74945850Y-64831960D01*
X74924064Y-64864564D01*
X74891460Y-64886350D01*
X74853000Y-64894000D01*
X74652000Y-64894000D01*
X74613540Y-64886350D01*
X74580936Y-64864564D01*
X74559150Y-64831960D01*
X74551500Y-64793500D01*
X74551500Y-63442500D01*
X74559150Y-63404040D01*
X74580936Y-63371436D01*
X74613540Y-63349650D01*
X74652000Y-63342000D01*
X74853000Y-63342000D01*
X74891460Y-63349650D01*
G37*
D21*
X79302500Y-63343000D03*
G36*
X77695161Y-63355359D02*
G01*
X77752097Y-63393403D01*
X77790141Y-63450339D01*
X77803500Y-63517500D01*
X77803500Y-64718500D01*
X77790141Y-64785661D01*
X77752097Y-64842597D01*
X77695161Y-64880641D01*
X77628000Y-64894000D01*
X77277000Y-64894000D01*
X77209839Y-64880641D01*
X77152903Y-64842597D01*
X77114859Y-64785661D01*
X77101500Y-64718500D01*
X77101500Y-63517500D01*
X77114859Y-63450339D01*
X77152903Y-63393403D01*
X77209839Y-63355359D01*
X77277000Y-63342000D01*
X77628000Y-63342000D01*
X77695161Y-63355359D01*
G37*
G36*
X71995161Y-63355359D02*
G01*
X72052097Y-63393403D01*
X72090141Y-63450339D01*
X72103500Y-63517500D01*
X72103500Y-64718500D01*
X72090141Y-64785661D01*
X72052097Y-64842597D01*
X71995161Y-64880641D01*
X71928000Y-64894000D01*
X71577000Y-64894000D01*
X71509839Y-64880641D01*
X71452903Y-64842597D01*
X71414859Y-64785661D01*
X71401500Y-64718500D01*
X71401500Y-63517500D01*
X71414859Y-63450339D01*
X71452903Y-63393403D01*
X71509839Y-63355359D01*
X71577000Y-63342000D01*
X71928000Y-63342000D01*
X71995161Y-63355359D01*
G37*
G36*
X72795161Y-63355359D02*
G01*
X72852097Y-63393403D01*
X72890141Y-63450339D01*
X72903500Y-63517500D01*
X72903500Y-64718500D01*
X72890141Y-64785661D01*
X72852097Y-64842597D01*
X72795161Y-64880641D01*
X72728000Y-64894000D01*
X72377000Y-64894000D01*
X72309839Y-64880641D01*
X72252903Y-64842597D01*
X72214859Y-64785661D01*
X72201500Y-64718500D01*
X72201500Y-63517500D01*
X72214859Y-63450339D01*
X72252903Y-63393403D01*
X72309839Y-63355359D01*
X72377000Y-63342000D01*
X72728000Y-63342000D01*
X72795161Y-63355359D01*
G37*
D24*
X68004500Y-58543000D03*
X82004500Y-58543000D03*
X68004500Y-71043000D03*
X82004500Y-71043000D03*
D25*
X75504500Y-68018000D03*
X76504500Y-68018000D03*
X74504500Y-68018000D03*
X73504500Y-68018000D03*
D26*
X72204500Y-71893000D03*
X77804500Y-71893000D03*
D20*
X77923500Y-67879000D03*
X77923500Y-66379000D03*
M02*
