G04 #@! TF.GenerationSoftware,KiCad,Pcbnew,(5.99.0-1490-g73eda91ec)*
G04 #@! TF.CreationDate,2020-05-03T20:48:54+09:00*
G04 #@! TF.ProjectId,Unified-Daughterboard,556e6966-6965-4642-9d44-617567687465,C3*
G04 #@! TF.SameCoordinates,Original*
G04 #@! TF.FileFunction,Soldermask,Top*
G04 #@! TF.FilePolarity,Negative*
%FSLAX46Y46*%
G04 Gerber Fmt 4.6, Leading zero omitted, Abs format (unit mm)*
G04 Created by KiCad (PCBNEW (5.99.0-1490-g73eda91ec)) date 2020-05-03 20:48:54*
%MOMM*%
%LPD*%
G01*
G04 APERTURE LIST*
%ADD10O,1.202000X2.302000*%
%ADD11O,1.402000X2.002000*%
%ADD12C,0.752000*%
%ADD13C,3.602001*%
G04 APERTURE END LIST*
G36*
G01*
X73826500Y-66561400D02*
X73826500Y-66261400D01*
G75*
G02*
X74002500Y-66085400I176000J0D01*
G01*
X74002500Y-66085400D01*
G75*
G02*
X74178500Y-66261400I0J-176000D01*
G01*
X74178500Y-66561400D01*
G75*
G02*
X74002500Y-66737400I-176000J0D01*
G01*
X74002500Y-66737400D01*
G75*
G02*
X73826500Y-66561400I0J176000D01*
G01*
G37*
G36*
G01*
X74326500Y-66686400D02*
X74326500Y-66136400D01*
G75*
G02*
X74377500Y-66085400I51000J0D01*
G01*
X74627500Y-66085400D01*
G75*
G02*
X74678500Y-66136400I0J-51000D01*
G01*
X74678500Y-66686400D01*
G75*
G02*
X74627500Y-66737400I-51000J0D01*
G01*
X74377500Y-66737400D01*
G75*
G02*
X74326500Y-66686400I0J51000D01*
G01*
G37*
G36*
G01*
X74801500Y-66686400D02*
X74801500Y-66136400D01*
G75*
G02*
X74852500Y-66085400I51000J0D01*
G01*
X75152500Y-66085400D01*
G75*
G02*
X75203500Y-66136400I0J-51000D01*
G01*
X75203500Y-66686400D01*
G75*
G02*
X75152500Y-66737400I-51000J0D01*
G01*
X74852500Y-66737400D01*
G75*
G02*
X74801500Y-66686400I0J51000D01*
G01*
G37*
G36*
G01*
X75326500Y-66686400D02*
X75326500Y-66136400D01*
G75*
G02*
X75377500Y-66085400I51000J0D01*
G01*
X75627500Y-66085400D01*
G75*
G02*
X75678500Y-66136400I0J-51000D01*
G01*
X75678500Y-66686400D01*
G75*
G02*
X75627500Y-66737400I-51000J0D01*
G01*
X75377500Y-66737400D01*
G75*
G02*
X75326500Y-66686400I0J51000D01*
G01*
G37*
G36*
G01*
X75826500Y-66686400D02*
X75826500Y-66136400D01*
G75*
G02*
X75877500Y-66085400I51000J0D01*
G01*
X76127500Y-66085400D01*
G75*
G02*
X76178500Y-66136400I0J-51000D01*
G01*
X76178500Y-66686400D01*
G75*
G02*
X76127500Y-66737400I-51000J0D01*
G01*
X75877500Y-66737400D01*
G75*
G02*
X75826500Y-66686400I0J51000D01*
G01*
G37*
G36*
G01*
X74326500Y-65916400D02*
X74326500Y-65366400D01*
G75*
G02*
X74377500Y-65315400I51000J0D01*
G01*
X74627500Y-65315400D01*
G75*
G02*
X74678500Y-65366400I0J-51000D01*
G01*
X74678500Y-65916400D01*
G75*
G02*
X74627500Y-65967400I-51000J0D01*
G01*
X74377500Y-65967400D01*
G75*
G02*
X74326500Y-65916400I0J51000D01*
G01*
G37*
G36*
G01*
X75826500Y-65916400D02*
X75826500Y-65366400D01*
G75*
G02*
X75877500Y-65315400I51000J0D01*
G01*
X76127500Y-65315400D01*
G75*
G02*
X76178500Y-65366400I0J-51000D01*
G01*
X76178500Y-65916400D01*
G75*
G02*
X76127500Y-65967400I-51000J0D01*
G01*
X75877500Y-65967400D01*
G75*
G02*
X75826500Y-65916400I0J51000D01*
G01*
G37*
G36*
G01*
X75326500Y-65916400D02*
X75326500Y-65366400D01*
G75*
G02*
X75377500Y-65315400I51000J0D01*
G01*
X75627500Y-65315400D01*
G75*
G02*
X75678500Y-65366400I0J-51000D01*
G01*
X75678500Y-65916400D01*
G75*
G02*
X75627500Y-65967400I-51000J0D01*
G01*
X75377500Y-65967400D01*
G75*
G02*
X75326500Y-65916400I0J51000D01*
G01*
G37*
G36*
G01*
X73826500Y-65916400D02*
X73826500Y-65366400D01*
G75*
G02*
X73877500Y-65315400I51000J0D01*
G01*
X74127500Y-65315400D01*
G75*
G02*
X74178500Y-65366400I0J-51000D01*
G01*
X74178500Y-65916400D01*
G75*
G02*
X74127500Y-65967400I-51000J0D01*
G01*
X73877500Y-65967400D01*
G75*
G02*
X73826500Y-65916400I0J51000D01*
G01*
G37*
G36*
G01*
X74801500Y-65916400D02*
X74801500Y-65366400D01*
G75*
G02*
X74852500Y-65315400I51000J0D01*
G01*
X75152500Y-65315400D01*
G75*
G02*
X75203500Y-65366400I0J-51000D01*
G01*
X75203500Y-65916400D01*
G75*
G02*
X75152500Y-65967400I-51000J0D01*
G01*
X74852500Y-65967400D01*
G75*
G02*
X74801500Y-65916400I0J51000D01*
G01*
G37*
G36*
G01*
X82643100Y-65150000D02*
X81331900Y-65150000D01*
G75*
G02*
X81061500Y-64879600I0J270400D01*
G01*
X81061500Y-64068400D01*
G75*
G02*
X81331900Y-63798000I270400J0D01*
G01*
X82643100Y-63798000D01*
G75*
G02*
X82913500Y-64068400I0J-270400D01*
G01*
X82913500Y-64879600D01*
G75*
G02*
X82643100Y-65150000I-270400J0D01*
G01*
G37*
G36*
G01*
X82643100Y-67950000D02*
X81331900Y-67950000D01*
G75*
G02*
X81061500Y-67679600I0J270400D01*
G01*
X81061500Y-66868400D01*
G75*
G02*
X81331900Y-66598000I270400J0D01*
G01*
X82643100Y-66598000D01*
G75*
G02*
X82913500Y-66868400I0J-270400D01*
G01*
X82913500Y-67679600D01*
G75*
G02*
X82643100Y-67950000I-270400J0D01*
G01*
G37*
G36*
G01*
X71504500Y-66078000D02*
X72404500Y-66078000D01*
G75*
G02*
X72455500Y-66129000I0J-51000D01*
G01*
X72455500Y-66629000D01*
G75*
G02*
X72404500Y-66680000I-51000J0D01*
G01*
X71504500Y-66680000D01*
G75*
G02*
X71453500Y-66629000I0J51000D01*
G01*
X71453500Y-66129000D01*
G75*
G02*
X71504500Y-66078000I51000J0D01*
G01*
G37*
G36*
G01*
X71504500Y-67578000D02*
X72404500Y-67578000D01*
G75*
G02*
X72455500Y-67629000I0J-51000D01*
G01*
X72455500Y-68129000D01*
G75*
G02*
X72404500Y-68180000I-51000J0D01*
G01*
X71504500Y-68180000D01*
G75*
G02*
X71453500Y-68129000I0J51000D01*
G01*
X71453500Y-67629000D01*
G75*
G02*
X71504500Y-67578000I51000J0D01*
G01*
G37*
G36*
G01*
X67234900Y-63931000D02*
X68546100Y-63931000D01*
G75*
G02*
X68816500Y-64201400I0J-270400D01*
G01*
X68816500Y-65012600D01*
G75*
G02*
X68546100Y-65283000I-270400J0D01*
G01*
X67234900Y-65283000D01*
G75*
G02*
X66964500Y-65012600I0J270400D01*
G01*
X66964500Y-64201400D01*
G75*
G02*
X67234900Y-63931000I270400J0D01*
G01*
G37*
G36*
G01*
X67234900Y-61131000D02*
X68546100Y-61131000D01*
G75*
G02*
X68816500Y-61401400I0J-270400D01*
G01*
X68816500Y-62212600D01*
G75*
G02*
X68546100Y-62483000I-270400J0D01*
G01*
X67234900Y-62483000D01*
G75*
G02*
X66964500Y-62212600I0J270400D01*
G01*
X66964500Y-61401400D01*
G75*
G02*
X67234900Y-61131000I270400J0D01*
G01*
G37*
G36*
G01*
X70853500Y-66514500D02*
X70853500Y-67265500D01*
G75*
G02*
X70578000Y-67541000I-275500J0D01*
G01*
X70027000Y-67541000D01*
G75*
G02*
X69751500Y-67265500I0J275500D01*
G01*
X69751500Y-66514500D01*
G75*
G02*
X70027000Y-66239000I275500J0D01*
G01*
X70578000Y-66239000D01*
G75*
G02*
X70853500Y-66514500I0J-275500D01*
G01*
G37*
G36*
G01*
X67553500Y-66514500D02*
X67553500Y-67265500D01*
G75*
G02*
X67278000Y-67541000I-275500J0D01*
G01*
X66727000Y-67541000D01*
G75*
G02*
X66451500Y-67265500I0J275500D01*
G01*
X66451500Y-66514500D01*
G75*
G02*
X66727000Y-66239000I275500J0D01*
G01*
X67278000Y-66239000D01*
G75*
G02*
X67553500Y-66514500I0J-275500D01*
G01*
G37*
D10*
X70702500Y-63343000D03*
D11*
X70702500Y-59143000D03*
D12*
X72112500Y-62792000D03*
X77892500Y-62792000D03*
D11*
X79302500Y-59143000D03*
G36*
G01*
X78603500Y-63517500D02*
X78603500Y-64718500D01*
G75*
G02*
X78428000Y-64894000I-175500J0D01*
G01*
X78077000Y-64894000D01*
G75*
G02*
X77901500Y-64718500I0J175500D01*
G01*
X77901500Y-63517500D01*
G75*
G02*
X78077000Y-63342000I175500J0D01*
G01*
X78428000Y-63342000D01*
G75*
G02*
X78603500Y-63517500I0J-175500D01*
G01*
G37*
G36*
G01*
X76953500Y-63442500D02*
X76953500Y-64793500D01*
G75*
G02*
X76853000Y-64894000I-100500J0D01*
G01*
X76652000Y-64894000D01*
G75*
G02*
X76551500Y-64793500I0J100500D01*
G01*
X76551500Y-63442500D01*
G75*
G02*
X76652000Y-63342000I100500J0D01*
G01*
X76853000Y-63342000D01*
G75*
G02*
X76953500Y-63442500I0J-100500D01*
G01*
G37*
G36*
G01*
X76453500Y-63442500D02*
X76453500Y-64793500D01*
G75*
G02*
X76353000Y-64894000I-100500J0D01*
G01*
X76152000Y-64894000D01*
G75*
G02*
X76051500Y-64793500I0J100500D01*
G01*
X76051500Y-63442500D01*
G75*
G02*
X76152000Y-63342000I100500J0D01*
G01*
X76353000Y-63342000D01*
G75*
G02*
X76453500Y-63442500I0J-100500D01*
G01*
G37*
G36*
G01*
X75953500Y-63442500D02*
X75953500Y-64793500D01*
G75*
G02*
X75853000Y-64894000I-100500J0D01*
G01*
X75652000Y-64894000D01*
G75*
G02*
X75551500Y-64793500I0J100500D01*
G01*
X75551500Y-63442500D01*
G75*
G02*
X75652000Y-63342000I100500J0D01*
G01*
X75853000Y-63342000D01*
G75*
G02*
X75953500Y-63442500I0J-100500D01*
G01*
G37*
G36*
G01*
X75457500Y-63442500D02*
X75457500Y-64793500D01*
G75*
G02*
X75357000Y-64894000I-100500J0D01*
G01*
X75156000Y-64894000D01*
G75*
G02*
X75055500Y-64793500I0J100500D01*
G01*
X75055500Y-63442500D01*
G75*
G02*
X75156000Y-63342000I100500J0D01*
G01*
X75357000Y-63342000D01*
G75*
G02*
X75457500Y-63442500I0J-100500D01*
G01*
G37*
G36*
G01*
X73453500Y-63442500D02*
X73453500Y-64793500D01*
G75*
G02*
X73353000Y-64894000I-100500J0D01*
G01*
X73152000Y-64894000D01*
G75*
G02*
X73051500Y-64793500I0J100500D01*
G01*
X73051500Y-63442500D01*
G75*
G02*
X73152000Y-63342000I100500J0D01*
G01*
X73353000Y-63342000D01*
G75*
G02*
X73453500Y-63442500I0J-100500D01*
G01*
G37*
G36*
G01*
X73953500Y-63442500D02*
X73953500Y-64793500D01*
G75*
G02*
X73853000Y-64894000I-100500J0D01*
G01*
X73652000Y-64894000D01*
G75*
G02*
X73551500Y-64793500I0J100500D01*
G01*
X73551500Y-63442500D01*
G75*
G02*
X73652000Y-63342000I100500J0D01*
G01*
X73853000Y-63342000D01*
G75*
G02*
X73953500Y-63442500I0J-100500D01*
G01*
G37*
G36*
G01*
X74453500Y-63442500D02*
X74453500Y-64793500D01*
G75*
G02*
X74353000Y-64894000I-100500J0D01*
G01*
X74152000Y-64894000D01*
G75*
G02*
X74051500Y-64793500I0J100500D01*
G01*
X74051500Y-63442500D01*
G75*
G02*
X74152000Y-63342000I100500J0D01*
G01*
X74353000Y-63342000D01*
G75*
G02*
X74453500Y-63442500I0J-100500D01*
G01*
G37*
G36*
G01*
X74953500Y-63442500D02*
X74953500Y-64793500D01*
G75*
G02*
X74853000Y-64894000I-100500J0D01*
G01*
X74652000Y-64894000D01*
G75*
G02*
X74551500Y-64793500I0J100500D01*
G01*
X74551500Y-63442500D01*
G75*
G02*
X74652000Y-63342000I100500J0D01*
G01*
X74853000Y-63342000D01*
G75*
G02*
X74953500Y-63442500I0J-100500D01*
G01*
G37*
D10*
X79302500Y-63343000D03*
G36*
G01*
X77803500Y-63517500D02*
X77803500Y-64718500D01*
G75*
G02*
X77628000Y-64894000I-175500J0D01*
G01*
X77277000Y-64894000D01*
G75*
G02*
X77101500Y-64718500I0J175500D01*
G01*
X77101500Y-63517500D01*
G75*
G02*
X77277000Y-63342000I175500J0D01*
G01*
X77628000Y-63342000D01*
G75*
G02*
X77803500Y-63517500I0J-175500D01*
G01*
G37*
G36*
G01*
X72103500Y-63517500D02*
X72103500Y-64718500D01*
G75*
G02*
X71928000Y-64894000I-175500J0D01*
G01*
X71577000Y-64894000D01*
G75*
G02*
X71401500Y-64718500I0J175500D01*
G01*
X71401500Y-63517500D01*
G75*
G02*
X71577000Y-63342000I175500J0D01*
G01*
X71928000Y-63342000D01*
G75*
G02*
X72103500Y-63517500I0J-175500D01*
G01*
G37*
G36*
G01*
X72903500Y-63517500D02*
X72903500Y-64718500D01*
G75*
G02*
X72728000Y-64894000I-175500J0D01*
G01*
X72377000Y-64894000D01*
G75*
G02*
X72201500Y-64718500I0J175500D01*
G01*
X72201500Y-63517500D01*
G75*
G02*
X72377000Y-63342000I175500J0D01*
G01*
X72728000Y-63342000D01*
G75*
G02*
X72903500Y-63517500I0J-175500D01*
G01*
G37*
D13*
X68004500Y-58543000D03*
X82004500Y-58543000D03*
X68004500Y-71043000D03*
X82004500Y-71043000D03*
G36*
G01*
X75153500Y-68793000D02*
X75153500Y-67243000D01*
G75*
G02*
X75204500Y-67192000I51000J0D01*
G01*
X75804500Y-67192000D01*
G75*
G02*
X75855500Y-67243000I0J-51000D01*
G01*
X75855500Y-68793000D01*
G75*
G02*
X75804500Y-68844000I-51000J0D01*
G01*
X75204500Y-68844000D01*
G75*
G02*
X75153500Y-68793000I0J51000D01*
G01*
G37*
G36*
G01*
X76153500Y-68793000D02*
X76153500Y-67243000D01*
G75*
G02*
X76204500Y-67192000I51000J0D01*
G01*
X76804500Y-67192000D01*
G75*
G02*
X76855500Y-67243000I0J-51000D01*
G01*
X76855500Y-68793000D01*
G75*
G02*
X76804500Y-68844000I-51000J0D01*
G01*
X76204500Y-68844000D01*
G75*
G02*
X76153500Y-68793000I0J51000D01*
G01*
G37*
G36*
G01*
X74153500Y-68793000D02*
X74153500Y-67243000D01*
G75*
G02*
X74204500Y-67192000I51000J0D01*
G01*
X74804500Y-67192000D01*
G75*
G02*
X74855500Y-67243000I0J-51000D01*
G01*
X74855500Y-68793000D01*
G75*
G02*
X74804500Y-68844000I-51000J0D01*
G01*
X74204500Y-68844000D01*
G75*
G02*
X74153500Y-68793000I0J51000D01*
G01*
G37*
G36*
G01*
X73153500Y-68793000D02*
X73153500Y-67243000D01*
G75*
G02*
X73204500Y-67192000I51000J0D01*
G01*
X73804500Y-67192000D01*
G75*
G02*
X73855500Y-67243000I0J-51000D01*
G01*
X73855500Y-68793000D01*
G75*
G02*
X73804500Y-68844000I-51000J0D01*
G01*
X73204500Y-68844000D01*
G75*
G02*
X73153500Y-68793000I0J51000D01*
G01*
G37*
G36*
G01*
X71553500Y-72793001D02*
X71553500Y-70992999D01*
G75*
G02*
X71604499Y-70942000I50999J0D01*
G01*
X72804501Y-70942000D01*
G75*
G02*
X72855500Y-70992999I0J-50999D01*
G01*
X72855500Y-72793001D01*
G75*
G02*
X72804501Y-72844000I-50999J0D01*
G01*
X71604499Y-72844000D01*
G75*
G02*
X71553500Y-72793001I0J50999D01*
G01*
G37*
G36*
G01*
X77153500Y-72793001D02*
X77153500Y-70992999D01*
G75*
G02*
X77204499Y-70942000I50999J0D01*
G01*
X78404501Y-70942000D01*
G75*
G02*
X78455500Y-70992999I0J-50999D01*
G01*
X78455500Y-72793001D01*
G75*
G02*
X78404501Y-72844000I-50999J0D01*
G01*
X77204499Y-72844000D01*
G75*
G02*
X77153500Y-72793001I0J50999D01*
G01*
G37*
G36*
G01*
X77473500Y-67578000D02*
X78373500Y-67578000D01*
G75*
G02*
X78424500Y-67629000I0J-51000D01*
G01*
X78424500Y-68129000D01*
G75*
G02*
X78373500Y-68180000I-51000J0D01*
G01*
X77473500Y-68180000D01*
G75*
G02*
X77422500Y-68129000I0J51000D01*
G01*
X77422500Y-67629000D01*
G75*
G02*
X77473500Y-67578000I51000J0D01*
G01*
G37*
G36*
G01*
X77473500Y-66078000D02*
X78373500Y-66078000D01*
G75*
G02*
X78424500Y-66129000I0J-51000D01*
G01*
X78424500Y-66629000D01*
G75*
G02*
X78373500Y-66680000I-51000J0D01*
G01*
X77473500Y-66680000D01*
G75*
G02*
X77422500Y-66629000I0J51000D01*
G01*
X77422500Y-66129000D01*
G75*
G02*
X77473500Y-66078000I51000J0D01*
G01*
G37*
G36*
X75668160Y-65333893D02*
G01*
X75681952Y-65343109D01*
X75682486Y-65342310D01*
X75684280Y-65341425D01*
X75685468Y-65341917D01*
X75698139Y-65353028D01*
X75760550Y-65365438D01*
X75820869Y-65344957D01*
X75821911Y-65343915D01*
X75822214Y-65343666D01*
X75836840Y-65333893D01*
X75838836Y-65333762D01*
X75839947Y-65335425D01*
X75839614Y-65336667D01*
X75832267Y-65347662D01*
X75828500Y-65366599D01*
X75828500Y-65916201D01*
X75832267Y-65935138D01*
X75842880Y-65951020D01*
X75858762Y-65961633D01*
X75877699Y-65965400D01*
X76127301Y-65965400D01*
X76146238Y-65961633D01*
X76157233Y-65954286D01*
X76159229Y-65954155D01*
X76160340Y-65955818D01*
X76160007Y-65957060D01*
X76159483Y-65957845D01*
X76138963Y-66018292D01*
X76159520Y-66095011D01*
X76160007Y-66095740D01*
X76160138Y-66097735D01*
X76158475Y-66098847D01*
X76157233Y-66098514D01*
X76146238Y-66091167D01*
X76127301Y-66087400D01*
X75877699Y-66087400D01*
X75858762Y-66091167D01*
X75842880Y-66101780D01*
X75832267Y-66117662D01*
X75828500Y-66136599D01*
X75828500Y-66686201D01*
X75832267Y-66705138D01*
X75839614Y-66716133D01*
X75839745Y-66718129D01*
X75838082Y-66719240D01*
X75836840Y-66718907D01*
X75823048Y-66709691D01*
X75822514Y-66710490D01*
X75820720Y-66711375D01*
X75819532Y-66710883D01*
X75806861Y-66699772D01*
X75744450Y-66687362D01*
X75684131Y-66707843D01*
X75683089Y-66708885D01*
X75682786Y-66709134D01*
X75668160Y-66718907D01*
X75666164Y-66719038D01*
X75665053Y-66717375D01*
X75665386Y-66716133D01*
X75672733Y-66705138D01*
X75676500Y-66686201D01*
X75676500Y-66136599D01*
X75672733Y-66117662D01*
X75662120Y-66101780D01*
X75646238Y-66091167D01*
X75627301Y-66087400D01*
X75377699Y-66087400D01*
X75358762Y-66091167D01*
X75342880Y-66101780D01*
X75332267Y-66117662D01*
X75328500Y-66136599D01*
X75328500Y-66686201D01*
X75332267Y-66705138D01*
X75339614Y-66716133D01*
X75339745Y-66718129D01*
X75338082Y-66719240D01*
X75336840Y-66718907D01*
X75333554Y-66716712D01*
X75273107Y-66696193D01*
X75196390Y-66716749D01*
X75193160Y-66718907D01*
X75191164Y-66719038D01*
X75190053Y-66717375D01*
X75190386Y-66716133D01*
X75197733Y-66705138D01*
X75201500Y-66686201D01*
X75201500Y-66136599D01*
X75197733Y-66117662D01*
X75187120Y-66101780D01*
X75171238Y-66091167D01*
X75152301Y-66087400D01*
X74852699Y-66087400D01*
X74833762Y-66091167D01*
X74817880Y-66101780D01*
X74807267Y-66117662D01*
X74803500Y-66136599D01*
X74803500Y-66686201D01*
X74807267Y-66705138D01*
X74814614Y-66716133D01*
X74814745Y-66718129D01*
X74813082Y-66719240D01*
X74811840Y-66718907D01*
X74808554Y-66716712D01*
X74748107Y-66696193D01*
X74671390Y-66716749D01*
X74668160Y-66718907D01*
X74666164Y-66719038D01*
X74665053Y-66717375D01*
X74665386Y-66716133D01*
X74672733Y-66705138D01*
X74676500Y-66686201D01*
X74676500Y-66136599D01*
X74672733Y-66117662D01*
X74662120Y-66101780D01*
X74646238Y-66091167D01*
X74627301Y-66087400D01*
X74377699Y-66087400D01*
X74358762Y-66091167D01*
X74342880Y-66101780D01*
X74332267Y-66117662D01*
X74328500Y-66136599D01*
X74328500Y-66686201D01*
X74331120Y-66699373D01*
X74330477Y-66701267D01*
X74328515Y-66701657D01*
X74327495Y-66700874D01*
X74325314Y-66697611D01*
X74277267Y-66655473D01*
X74214888Y-66643067D01*
X74148539Y-66667747D01*
X74133967Y-66678752D01*
X74131982Y-66678998D01*
X74130777Y-66677402D01*
X74131099Y-66676045D01*
X74163219Y-66627973D01*
X74176501Y-66561201D01*
X74176501Y-66261599D01*
X74163219Y-66194827D01*
X74125510Y-66138391D01*
X74069074Y-66100682D01*
X74002500Y-66087439D01*
X73935926Y-66100682D01*
X73880063Y-66138008D01*
X73878067Y-66138139D01*
X73876956Y-66136476D01*
X73877252Y-66135292D01*
X73884374Y-66123790D01*
X73902806Y-66062600D01*
X73888233Y-66000641D01*
X73854573Y-65963574D01*
X73854149Y-65961619D01*
X73855630Y-65960274D01*
X73857165Y-65960566D01*
X73858762Y-65961633D01*
X73877699Y-65965400D01*
X74127301Y-65965400D01*
X74146238Y-65961633D01*
X74162120Y-65951020D01*
X74172733Y-65935138D01*
X74176500Y-65916201D01*
X74176500Y-65366599D01*
X74172733Y-65347662D01*
X74165386Y-65336667D01*
X74165255Y-65334671D01*
X74166918Y-65333560D01*
X74168160Y-65333893D01*
X74181952Y-65343109D01*
X74182486Y-65342310D01*
X74184280Y-65341425D01*
X74185468Y-65341917D01*
X74198139Y-65353028D01*
X74260550Y-65365438D01*
X74320869Y-65344957D01*
X74321911Y-65343915D01*
X74322214Y-65343666D01*
X74336840Y-65333893D01*
X74338836Y-65333762D01*
X74339947Y-65335425D01*
X74339614Y-65336667D01*
X74332267Y-65347662D01*
X74328500Y-65366599D01*
X74328500Y-65916201D01*
X74332267Y-65935138D01*
X74342880Y-65951020D01*
X74358762Y-65961633D01*
X74377699Y-65965400D01*
X74627301Y-65965400D01*
X74646238Y-65961633D01*
X74662120Y-65951020D01*
X74672733Y-65935138D01*
X74676500Y-65916201D01*
X74676500Y-65366599D01*
X74672733Y-65347662D01*
X74665386Y-65336667D01*
X74665255Y-65334671D01*
X74666918Y-65333560D01*
X74668160Y-65333893D01*
X74671446Y-65336088D01*
X74731893Y-65356607D01*
X74808610Y-65336051D01*
X74811840Y-65333893D01*
X74813836Y-65333762D01*
X74814947Y-65335425D01*
X74814614Y-65336667D01*
X74807267Y-65347662D01*
X74803500Y-65366599D01*
X74803500Y-65916201D01*
X74807267Y-65935138D01*
X74817880Y-65951020D01*
X74833762Y-65961633D01*
X74852699Y-65965400D01*
X75152301Y-65965400D01*
X75171238Y-65961633D01*
X75187120Y-65951020D01*
X75197733Y-65935138D01*
X75201500Y-65916201D01*
X75201500Y-65366599D01*
X75197733Y-65347662D01*
X75190386Y-65336667D01*
X75190255Y-65334671D01*
X75191918Y-65333560D01*
X75193160Y-65333893D01*
X75196446Y-65336088D01*
X75256893Y-65356607D01*
X75333610Y-65336051D01*
X75336840Y-65333893D01*
X75338836Y-65333762D01*
X75339947Y-65335425D01*
X75339614Y-65336667D01*
X75332267Y-65347662D01*
X75328500Y-65366599D01*
X75328500Y-65916201D01*
X75332267Y-65935138D01*
X75342880Y-65951020D01*
X75358762Y-65961633D01*
X75377699Y-65965400D01*
X75627301Y-65965400D01*
X75646238Y-65961633D01*
X75662120Y-65951020D01*
X75672733Y-65935138D01*
X75676500Y-65916201D01*
X75676500Y-65366599D01*
X75672733Y-65347662D01*
X75665386Y-65336667D01*
X75665255Y-65334671D01*
X75666918Y-65333560D01*
X75668160Y-65333893D01*
G37*
G36*
X75425192Y-63382459D02*
G01*
X75435946Y-63389644D01*
X75496392Y-63410164D01*
X75573110Y-63389607D01*
X75583808Y-63382459D01*
X75585804Y-63382328D01*
X75586915Y-63383991D01*
X75586582Y-63385233D01*
X75562976Y-63420561D01*
X75553500Y-63468199D01*
X75553500Y-64767801D01*
X75562976Y-64815439D01*
X75586582Y-64850767D01*
X75586713Y-64852763D01*
X75585050Y-64853874D01*
X75583808Y-64853541D01*
X75573054Y-64846356D01*
X75512608Y-64825836D01*
X75435890Y-64846393D01*
X75425192Y-64853541D01*
X75423196Y-64853672D01*
X75422085Y-64852009D01*
X75422418Y-64850767D01*
X75446024Y-64815439D01*
X75455500Y-64767801D01*
X75455500Y-63468199D01*
X75446024Y-63420561D01*
X75422418Y-63385233D01*
X75422287Y-63383237D01*
X75423950Y-63382126D01*
X75425192Y-63382459D01*
G37*
G36*
X73421193Y-63382460D02*
G01*
X73433946Y-63390981D01*
X73494392Y-63411500D01*
X73571110Y-63390944D01*
X73583807Y-63382460D01*
X73585803Y-63382329D01*
X73586914Y-63383992D01*
X73586581Y-63385234D01*
X73562976Y-63420561D01*
X73553500Y-63468199D01*
X73553500Y-64767801D01*
X73562976Y-64815439D01*
X73586581Y-64850766D01*
X73586712Y-64852762D01*
X73585049Y-64853873D01*
X73583807Y-64853540D01*
X73571054Y-64845019D01*
X73510608Y-64824500D01*
X73433890Y-64845056D01*
X73421193Y-64853540D01*
X73419197Y-64853671D01*
X73418086Y-64852008D01*
X73418419Y-64850766D01*
X73442024Y-64815439D01*
X73451500Y-64767801D01*
X73451500Y-63468199D01*
X73442024Y-63420561D01*
X73418419Y-63385234D01*
X73418288Y-63383238D01*
X73419951Y-63382127D01*
X73421193Y-63382460D01*
G37*
G36*
X74421193Y-63382460D02*
G01*
X74433946Y-63390981D01*
X74494392Y-63411500D01*
X74571110Y-63390944D01*
X74583807Y-63382460D01*
X74585803Y-63382329D01*
X74586914Y-63383992D01*
X74586581Y-63385234D01*
X74562976Y-63420561D01*
X74553500Y-63468199D01*
X74553500Y-64767801D01*
X74562976Y-64815439D01*
X74586581Y-64850766D01*
X74586712Y-64852762D01*
X74585049Y-64853873D01*
X74583807Y-64853540D01*
X74571054Y-64845019D01*
X74510608Y-64824500D01*
X74433890Y-64845056D01*
X74421193Y-64853540D01*
X74419197Y-64853671D01*
X74418086Y-64852008D01*
X74418419Y-64850766D01*
X74442024Y-64815439D01*
X74451500Y-64767801D01*
X74451500Y-63468199D01*
X74442024Y-63420561D01*
X74418419Y-63385234D01*
X74418288Y-63383238D01*
X74419951Y-63382127D01*
X74421193Y-63382460D01*
G37*
G36*
X75921193Y-63382460D02*
G01*
X75933946Y-63390981D01*
X75994392Y-63411500D01*
X76071110Y-63390944D01*
X76083807Y-63382460D01*
X76085803Y-63382329D01*
X76086914Y-63383992D01*
X76086581Y-63385234D01*
X76062976Y-63420561D01*
X76053500Y-63468199D01*
X76053500Y-64767801D01*
X76062976Y-64815439D01*
X76086581Y-64850766D01*
X76086712Y-64852762D01*
X76085049Y-64853873D01*
X76083807Y-64853540D01*
X76071054Y-64845019D01*
X76010608Y-64824500D01*
X75933890Y-64845056D01*
X75921193Y-64853540D01*
X75919197Y-64853671D01*
X75918086Y-64852008D01*
X75918419Y-64850766D01*
X75942024Y-64815439D01*
X75951500Y-64767801D01*
X75951500Y-63468199D01*
X75942024Y-63420561D01*
X75918419Y-63385234D01*
X75918288Y-63383238D01*
X75919951Y-63382127D01*
X75921193Y-63382460D01*
G37*
G36*
X76421193Y-63382460D02*
G01*
X76433946Y-63390981D01*
X76494392Y-63411500D01*
X76571110Y-63390944D01*
X76583807Y-63382460D01*
X76585803Y-63382329D01*
X76586914Y-63383992D01*
X76586581Y-63385234D01*
X76562976Y-63420561D01*
X76553500Y-63468199D01*
X76553500Y-64767801D01*
X76562976Y-64815439D01*
X76586581Y-64850766D01*
X76586712Y-64852762D01*
X76585049Y-64853873D01*
X76583807Y-64853540D01*
X76571054Y-64845019D01*
X76510608Y-64824500D01*
X76433890Y-64845056D01*
X76421193Y-64853540D01*
X76419197Y-64853671D01*
X76418086Y-64852008D01*
X76418419Y-64850766D01*
X76442024Y-64815439D01*
X76451500Y-64767801D01*
X76451500Y-63468199D01*
X76442024Y-63420561D01*
X76418419Y-63385234D01*
X76418288Y-63383238D01*
X76419951Y-63382127D01*
X76421193Y-63382460D01*
G37*
G36*
X74921192Y-63382460D02*
G01*
X74935946Y-63392317D01*
X74996393Y-63412836D01*
X75073110Y-63392280D01*
X75087808Y-63382460D01*
X75089804Y-63382329D01*
X75090915Y-63383992D01*
X75090582Y-63385234D01*
X75066976Y-63420561D01*
X75057500Y-63468199D01*
X75057500Y-64767801D01*
X75066976Y-64815439D01*
X75090582Y-64850766D01*
X75090713Y-64852762D01*
X75089050Y-64853873D01*
X75087808Y-64853540D01*
X75073054Y-64843683D01*
X75012607Y-64823164D01*
X74935890Y-64843720D01*
X74921192Y-64853540D01*
X74919196Y-64853671D01*
X74918085Y-64852008D01*
X74918418Y-64850766D01*
X74942024Y-64815439D01*
X74951500Y-64767801D01*
X74951500Y-63468199D01*
X74942024Y-63420561D01*
X74918418Y-63385234D01*
X74918287Y-63383238D01*
X74919950Y-63382127D01*
X74921192Y-63382460D01*
G37*
G36*
X73921193Y-63382460D02*
G01*
X73933946Y-63390981D01*
X73994392Y-63411500D01*
X74071110Y-63390944D01*
X74083807Y-63382460D01*
X74085803Y-63382329D01*
X74086914Y-63383992D01*
X74086581Y-63385234D01*
X74062976Y-63420561D01*
X74053500Y-63468199D01*
X74053500Y-64767801D01*
X74062976Y-64815439D01*
X74086581Y-64850766D01*
X74086712Y-64852762D01*
X74085049Y-64853873D01*
X74083807Y-64853540D01*
X74071054Y-64845019D01*
X74010608Y-64824500D01*
X73933890Y-64845056D01*
X73921193Y-64853540D01*
X73919197Y-64853671D01*
X73918086Y-64852008D01*
X73918419Y-64850766D01*
X73942024Y-64815439D01*
X73951500Y-64767801D01*
X73951500Y-63468199D01*
X73942024Y-63420561D01*
X73918419Y-63385234D01*
X73918288Y-63383238D01*
X73919951Y-63382127D01*
X73921193Y-63382460D01*
G37*
G36*
X73062224Y-63424338D02*
G01*
X73053500Y-63468199D01*
X73053500Y-64767801D01*
X73062597Y-64813536D01*
X73061954Y-64815430D01*
X73059316Y-64815430D01*
X73015453Y-64776963D01*
X72953043Y-64764549D01*
X72892754Y-64785014D01*
X72862757Y-64817042D01*
X72862583Y-64817207D01*
X72854228Y-64824218D01*
X72852258Y-64824565D01*
X72850972Y-64823033D01*
X72851279Y-64821575D01*
X72886315Y-64769140D01*
X72901500Y-64692801D01*
X72901500Y-63543199D01*
X72886315Y-63466860D01*
X72863251Y-63432342D01*
X72863120Y-63430346D01*
X72864783Y-63429235D01*
X72866061Y-63429593D01*
X72917951Y-63465928D01*
X72981340Y-63471474D01*
X73039128Y-63444528D01*
X73058773Y-63422613D01*
X73060674Y-63421991D01*
X73062224Y-63424338D01*
G37*
G36*
X77954029Y-63412965D02*
G01*
X77953722Y-63414423D01*
X77918685Y-63466860D01*
X77903500Y-63543199D01*
X77903500Y-64692801D01*
X77918685Y-64769140D01*
X77947972Y-64812970D01*
X77948103Y-64814966D01*
X77946440Y-64816077D01*
X77945162Y-64815719D01*
X77897129Y-64782086D01*
X77833740Y-64776541D01*
X77775984Y-64803472D01*
X77769039Y-64811750D01*
X77768793Y-64811996D01*
X77754228Y-64824217D01*
X77752258Y-64824564D01*
X77750972Y-64823032D01*
X77751279Y-64821574D01*
X77786315Y-64769140D01*
X77801500Y-64692801D01*
X77801500Y-63543199D01*
X77786315Y-63466860D01*
X77757029Y-63423031D01*
X77756898Y-63421035D01*
X77758561Y-63419924D01*
X77759839Y-63420282D01*
X77807868Y-63453913D01*
X77871257Y-63459459D01*
X77929014Y-63432529D01*
X77935962Y-63424248D01*
X77936208Y-63424002D01*
X77950773Y-63411780D01*
X77952743Y-63411433D01*
X77954029Y-63412965D01*
G37*
G36*
X72254030Y-63412965D02*
G01*
X72253723Y-63414423D01*
X72218685Y-63466860D01*
X72203500Y-63543199D01*
X72203500Y-64692801D01*
X72218685Y-64769140D01*
X72247972Y-64812970D01*
X72248103Y-64814966D01*
X72246440Y-64816077D01*
X72245162Y-64815719D01*
X72197129Y-64782086D01*
X72133740Y-64776541D01*
X72075984Y-64803472D01*
X72069039Y-64811750D01*
X72068793Y-64811996D01*
X72054228Y-64824217D01*
X72052258Y-64824564D01*
X72050972Y-64823032D01*
X72051279Y-64821574D01*
X72086315Y-64769140D01*
X72101500Y-64692801D01*
X72101500Y-63543199D01*
X72086315Y-63466860D01*
X72057029Y-63423031D01*
X72056898Y-63421035D01*
X72058561Y-63419924D01*
X72059839Y-63420282D01*
X72107868Y-63453913D01*
X72171257Y-63459459D01*
X72229014Y-63432529D01*
X72235962Y-63424248D01*
X72236208Y-63424002D01*
X72250774Y-63411780D01*
X72252744Y-63411433D01*
X72254030Y-63412965D01*
G37*
G36*
X77154029Y-63412966D02*
G01*
X77153722Y-63414424D01*
X77118685Y-63466860D01*
X77103500Y-63543199D01*
X77103500Y-64692801D01*
X77118685Y-64769140D01*
X77141749Y-64803658D01*
X77141880Y-64805654D01*
X77140217Y-64806765D01*
X77138939Y-64806407D01*
X77087048Y-64770072D01*
X77023659Y-64764527D01*
X76965871Y-64791473D01*
X76946227Y-64813387D01*
X76944326Y-64814009D01*
X76942776Y-64811662D01*
X76951500Y-64767801D01*
X76951500Y-63468199D01*
X76942403Y-63422464D01*
X76943046Y-63420570D01*
X76945684Y-63420570D01*
X76989547Y-63459037D01*
X77051957Y-63471451D01*
X77112246Y-63450986D01*
X77142246Y-63418955D01*
X77142420Y-63418790D01*
X77150773Y-63411781D01*
X77152743Y-63411434D01*
X77154029Y-63412966D01*
G37*
G36*
X78702915Y-63271333D02*
G01*
X78703501Y-63272747D01*
X78703500Y-63892868D01*
X78723928Y-64048027D01*
X78783765Y-64192489D01*
X78857459Y-64288528D01*
X78857720Y-64290511D01*
X78856133Y-64291729D01*
X78854453Y-64291155D01*
X78822026Y-64258501D01*
X78819660Y-64258539D01*
X78786212Y-64227347D01*
X78724212Y-64213033D01*
X78663358Y-64231636D01*
X78619948Y-64278187D01*
X78605441Y-64336370D01*
X78604051Y-64337809D01*
X78602111Y-64337325D01*
X78601500Y-64335886D01*
X78601500Y-63543199D01*
X78586315Y-63466860D01*
X78543186Y-63402314D01*
X78514369Y-63383059D01*
X78513484Y-63381265D01*
X78514595Y-63379602D01*
X78515998Y-63379464D01*
X78576503Y-63395675D01*
X78637968Y-63379205D01*
X78682961Y-63334212D01*
X78699569Y-63272229D01*
X78700983Y-63270815D01*
X78702915Y-63271333D01*
G37*
G36*
X71305432Y-63269391D02*
G01*
X71322041Y-63331375D01*
X71367034Y-63376367D01*
X71428409Y-63392813D01*
X71470611Y-63377452D01*
X71472581Y-63377799D01*
X71473227Y-63378813D01*
X71473268Y-63378967D01*
X71500776Y-63371597D01*
X71502708Y-63372115D01*
X71503226Y-63374047D01*
X71502405Y-63375192D01*
X71461814Y-63402314D01*
X71418685Y-63466860D01*
X71403500Y-63543199D01*
X71403500Y-64334176D01*
X71402500Y-64335908D01*
X71400500Y-64335908D01*
X71399568Y-64334694D01*
X71382959Y-64272711D01*
X71337967Y-64227718D01*
X71276501Y-64211248D01*
X71215011Y-64227724D01*
X71172983Y-64267746D01*
X71169316Y-64273436D01*
X71169034Y-64273782D01*
X71148276Y-64294110D01*
X71146339Y-64294607D01*
X71144940Y-64293178D01*
X71145290Y-64291463D01*
X71221235Y-64192490D01*
X71281072Y-64048028D01*
X71301500Y-63892868D01*
X71301500Y-63269909D01*
X71302500Y-63268177D01*
X71304500Y-63268177D01*
X71305432Y-63269391D01*
G37*
G36*
X71908833Y-63104799D02*
G01*
X72016656Y-63153482D01*
X72118422Y-63163102D01*
X72120052Y-63164260D01*
X72119864Y-63166252D01*
X72118481Y-63167078D01*
X72095049Y-63169997D01*
X72035841Y-63194038D01*
X71996752Y-63244251D01*
X71988008Y-63307279D01*
X72011972Y-63366297D01*
X72018102Y-63371710D01*
X72018634Y-63373297D01*
X72033716Y-63391271D01*
X72034063Y-63393241D01*
X72032531Y-63394527D01*
X72031073Y-63394220D01*
X71978640Y-63359185D01*
X71902301Y-63344000D01*
X71851555Y-63344000D01*
X71849823Y-63343000D01*
X71849823Y-63341000D01*
X71851037Y-63340068D01*
X71913021Y-63323459D01*
X71958013Y-63278467D01*
X71974483Y-63217001D01*
X71958025Y-63155579D01*
X71916759Y-63117433D01*
X71916750Y-63117252D01*
X71911074Y-63112177D01*
X71911049Y-63112155D01*
X71906652Y-63108091D01*
X71906059Y-63106181D01*
X71907417Y-63104712D01*
X71908833Y-63104799D01*
G37*
G36*
X78113495Y-63092218D02*
G01*
X78112775Y-63093841D01*
X78078617Y-63122199D01*
X78041689Y-63174353D01*
X78035812Y-63237712D01*
X78062402Y-63295524D01*
X78114407Y-63332346D01*
X78157335Y-63340031D01*
X78158864Y-63341321D01*
X78158512Y-63343290D01*
X78156983Y-63344000D01*
X78102699Y-63344000D01*
X78026360Y-63359185D01*
X77987396Y-63385220D01*
X77985400Y-63385351D01*
X77984289Y-63383688D01*
X77984647Y-63382410D01*
X78019692Y-63332362D01*
X78025238Y-63268973D01*
X77998345Y-63211300D01*
X77946200Y-63174787D01*
X77888741Y-63168290D01*
X77885878Y-63168647D01*
X77885311Y-63168636D01*
X77844383Y-63162007D01*
X77842833Y-63160743D01*
X77843153Y-63158769D01*
X77844891Y-63158042D01*
X77918912Y-63165039D01*
X78038322Y-63136371D01*
X78110425Y-63090613D01*
X78112424Y-63090530D01*
X78113495Y-63092218D01*
G37*
G36*
X69796784Y-58591455D02*
G01*
X69797686Y-58592703D01*
X69811491Y-58651558D01*
X69855050Y-58697945D01*
X69915968Y-58716336D01*
X69977790Y-58701836D01*
X70035438Y-58632891D01*
X70037316Y-58632204D01*
X70038850Y-58633487D01*
X70038835Y-58634901D01*
X70025476Y-58669164D01*
X70003500Y-58843124D01*
X70003500Y-58977364D01*
X70002500Y-58979096D01*
X70000500Y-58979096D01*
X69999568Y-58977882D01*
X69982959Y-58915899D01*
X69937967Y-58870906D01*
X69876501Y-58854436D01*
X69815036Y-58870906D01*
X69769966Y-58915976D01*
X69756029Y-58952569D01*
X69754478Y-58953832D01*
X69752609Y-58953120D01*
X69752200Y-58951458D01*
X69789107Y-58770054D01*
X69793740Y-58593108D01*
X69794785Y-58591402D01*
X69796784Y-58591455D01*
G37*
G36*
X80210961Y-58462231D02*
G01*
X80211906Y-58463983D01*
X80207577Y-58629311D01*
X80240073Y-58893969D01*
X80248720Y-58925147D01*
X80248220Y-58927083D01*
X80246292Y-58927617D01*
X80245051Y-58926663D01*
X80216329Y-58875689D01*
X80161558Y-58843298D01*
X80097927Y-58842632D01*
X80042490Y-58873868D01*
X80010031Y-58928754D01*
X80005481Y-58961969D01*
X80004256Y-58963550D01*
X80002274Y-58963278D01*
X80001500Y-58961698D01*
X80001500Y-58843124D01*
X79981308Y-58676267D01*
X79930410Y-58541569D01*
X79930733Y-58539595D01*
X79932604Y-58538888D01*
X79934013Y-58539862D01*
X79943999Y-58557158D01*
X79944169Y-58557540D01*
X79964104Y-58618894D01*
X79998908Y-58672487D01*
X80055606Y-58701377D01*
X80119152Y-58698046D01*
X80172436Y-58663443D01*
X80204113Y-58584642D01*
X80207908Y-58463868D01*
X80208962Y-58462168D01*
X80210961Y-58462231D01*
G37*
M02*
