G04 #@! TF.GenerationSoftware,KiCad,Pcbnew,(5.0.2)-1*
G04 #@! TF.CreationDate,2019-03-19T21:51:34-07:00*
G04 #@! TF.ProjectId,Unified-Daughterboard,556e6966-6965-4642-9d44-617567687465,rev?*
G04 #@! TF.SameCoordinates,Original*
G04 #@! TF.FileFunction,Copper,L1,Top*
G04 #@! TF.FilePolarity,Positive*
%FSLAX46Y46*%
G04 Gerber Fmt 4.6, Leading zero omitted, Abs format (unit mm)*
G04 Created by KiCad (PCBNEW (5.0.2)-1) date 3/19/2019 9:51:34 PM*
%MOMM*%
%LPD*%
G01*
G04 APERTURE LIST*
G04 #@! TA.AperFunction,ComponentPad*
%ADD10C,3.500000*%
G04 #@! TD*
G04 #@! TA.AperFunction,SMDPad,CuDef*
%ADD11R,0.600000X1.550000*%
G04 #@! TD*
G04 #@! TA.AperFunction,SMDPad,CuDef*
%ADD12R,1.200000X1.800000*%
G04 #@! TD*
G04 #@! TA.AperFunction,SMDPad,CuDef*
%ADD13R,0.900000X0.500000*%
G04 #@! TD*
G04 #@! TA.AperFunction,ComponentPad*
%ADD14O,1.000000X1.600000*%
G04 #@! TD*
G04 #@! TA.AperFunction,ComponentPad*
%ADD15O,1.000000X2.100000*%
G04 #@! TD*
G04 #@! TA.AperFunction,SMDPad,CuDef*
%ADD16R,0.300000X1.450000*%
G04 #@! TD*
G04 #@! TA.AperFunction,SMDPad,CuDef*
%ADD17R,0.600000X1.450000*%
G04 #@! TD*
G04 #@! TA.AperFunction,ViaPad*
%ADD18C,0.800000*%
G04 #@! TD*
G04 #@! TA.AperFunction,Conductor*
%ADD19C,0.250000*%
G04 #@! TD*
G04 #@! TA.AperFunction,Conductor*
%ADD20C,0.381000*%
G04 #@! TD*
G04 #@! TA.AperFunction,Conductor*
%ADD21C,0.254000*%
G04 #@! TD*
G04 APERTURE END LIST*
D10*
G04 #@! TO.P,MH1,1*
G04 #@! TO.N,GND*
X32000000Y-32000000D03*
G04 #@! TD*
G04 #@! TO.P,MH2,1*
G04 #@! TO.N,GND*
X46000000Y-32000000D03*
G04 #@! TD*
G04 #@! TO.P,MH3,1*
G04 #@! TO.N,GND*
X32000000Y-44500000D03*
G04 #@! TD*
G04 #@! TO.P,MH4,1*
G04 #@! TO.N,GND*
X46000000Y-44500000D03*
G04 #@! TD*
D11*
G04 #@! TO.P,J2,3*
G04 #@! TO.N,D+*
X39500000Y-41475000D03*
G04 #@! TO.P,J2,4*
G04 #@! TO.N,GND*
X40500000Y-41475000D03*
G04 #@! TO.P,J2,2*
G04 #@! TO.N,D-*
X38500000Y-41475000D03*
G04 #@! TO.P,J2,1*
G04 #@! TO.N,VCC*
X37500000Y-41475000D03*
D12*
G04 #@! TO.P,J2,*
G04 #@! TO.N,*
X36200000Y-45350000D03*
X41800000Y-45350000D03*
G04 #@! TD*
D13*
G04 #@! TO.P,R1,2*
G04 #@! TO.N,GND*
X33500000Y-40750000D03*
G04 #@! TO.P,R1,1*
G04 #@! TO.N,Net-(J1-Pad10)*
X33500000Y-39250000D03*
G04 #@! TD*
G04 #@! TO.P,R2,1*
G04 #@! TO.N,Net-(J1-Pad4)*
X44500000Y-39250000D03*
G04 #@! TO.P,R2,2*
G04 #@! TO.N,GND*
X44500000Y-40750000D03*
G04 #@! TD*
D14*
G04 #@! TO.P,J1,13*
G04 #@! TO.N,GND*
X34680000Y-32600000D03*
X43320000Y-32600000D03*
D15*
X34680000Y-36780000D03*
X43320000Y-36780000D03*
D16*
G04 #@! TO.P,J1,6*
G04 #@! TO.N,D+*
X39250000Y-37695000D03*
G04 #@! TO.P,J1,7*
G04 #@! TO.N,D-*
X38750000Y-37695000D03*
G04 #@! TO.P,J1,8*
G04 #@! TO.N,D+*
X38250000Y-37695000D03*
G04 #@! TO.P,J1,5*
G04 #@! TO.N,D-*
X39750000Y-37695000D03*
G04 #@! TO.P,J1,9*
G04 #@! TO.N,Net-(J1-Pad9)*
X37750000Y-37695000D03*
G04 #@! TO.P,J1,4*
G04 #@! TO.N,Net-(J1-Pad4)*
X40250000Y-37695000D03*
G04 #@! TO.P,J1,10*
G04 #@! TO.N,Net-(J1-Pad10)*
X37250000Y-37695000D03*
G04 #@! TO.P,J1,3*
G04 #@! TO.N,Net-(J1-Pad3)*
X40750000Y-37695000D03*
D17*
G04 #@! TO.P,J1,2*
G04 #@! TO.N,VCC*
X41450000Y-37695000D03*
G04 #@! TO.P,J1,11*
X36550000Y-37695000D03*
G04 #@! TO.P,J1,1*
G04 #@! TO.N,GND*
X42225000Y-37695000D03*
G04 #@! TO.P,J1,12*
X35775000Y-37695000D03*
G04 #@! TD*
D18*
G04 #@! TO.N,D+*
X37973000Y-39370000D03*
X39624000Y-39370000D03*
G04 #@! TO.N,GND*
X35306000Y-39370000D03*
X41783000Y-41529000D03*
X34925000Y-41021000D03*
X42164000Y-39370000D03*
G04 #@! TO.N,VCC*
X36322000Y-39370000D03*
X36322000Y-41021000D03*
G04 #@! TD*
D19*
G04 #@! TO.N,D+*
X38250000Y-37695000D02*
X38250000Y-39093000D01*
X38250000Y-39093000D02*
X37973000Y-39370000D01*
X39624000Y-39370000D02*
X39250000Y-39370000D01*
X39250000Y-37695000D02*
X39250000Y-39370000D01*
X39500000Y-40382000D02*
X39250000Y-40132000D01*
X39500000Y-41475000D02*
X39500000Y-40382000D01*
X39250000Y-39370000D02*
X39250000Y-40132000D01*
D20*
G04 #@! TO.N,GND*
X34860000Y-36780000D02*
X35775000Y-37695000D01*
X34680000Y-36780000D02*
X34860000Y-36780000D01*
X34680000Y-36780000D02*
X34680000Y-32600000D01*
X34680000Y-32600000D02*
X43320000Y-32600000D01*
X43320000Y-32600000D02*
X43320000Y-36780000D01*
X43140000Y-36780000D02*
X42225000Y-37695000D01*
X43320000Y-36780000D02*
X43140000Y-36780000D01*
X35775000Y-37695000D02*
X35775000Y-38520000D01*
X35775000Y-38520000D02*
X35775000Y-38647000D01*
X35775000Y-38647000D02*
X35306000Y-39116000D01*
X35306000Y-39116000D02*
X35306000Y-39370000D01*
X41783000Y-41529000D02*
X42926000Y-41529000D01*
X43705000Y-40750000D02*
X44500000Y-40750000D01*
X42926000Y-41529000D02*
X43705000Y-40750000D01*
X33500000Y-40750000D02*
X34654000Y-40750000D01*
X34654000Y-40750000D02*
X34925000Y-41021000D01*
X40554000Y-41529000D02*
X40500000Y-41475000D01*
X41783000Y-41529000D02*
X40554000Y-41529000D01*
X42225000Y-37695000D02*
X42225000Y-39309000D01*
X42225000Y-39309000D02*
X42164000Y-39370000D01*
D19*
G04 #@! TO.N,D-*
X38500000Y-40382000D02*
X38750000Y-40132000D01*
X38500000Y-41475000D02*
X38500000Y-40382000D01*
X38750000Y-37695000D02*
X38750000Y-40132000D01*
X38750000Y-37695000D02*
X38750000Y-36815000D01*
X38750000Y-36815000D02*
X38989000Y-36576000D01*
X38989000Y-36576000D02*
X39497000Y-36576000D01*
X39750000Y-36829000D02*
X39750000Y-37695000D01*
X39497000Y-36576000D02*
X39750000Y-36829000D01*
D20*
G04 #@! TO.N,VCC*
X41450000Y-36878000D02*
X41450000Y-37695000D01*
X40576500Y-36004500D02*
X41450000Y-36878000D01*
X37401500Y-36004500D02*
X40576500Y-36004500D01*
X36550000Y-36856000D02*
X37401500Y-36004500D01*
X36550000Y-37695000D02*
X36550000Y-36856000D01*
X36550000Y-37695000D02*
X36550000Y-38888000D01*
X36550000Y-38888000D02*
X36322000Y-39116000D01*
X36322000Y-39116000D02*
X36322000Y-39370000D01*
X37046000Y-41021000D02*
X37500000Y-41475000D01*
X36322000Y-41021000D02*
X37046000Y-41021000D01*
D19*
G04 #@! TO.N,Net-(J1-Pad10)*
X37250000Y-39077000D02*
X37250000Y-37695000D01*
X33500000Y-39250000D02*
X34043000Y-39250000D01*
X34043000Y-39250000D02*
X34925000Y-40132000D01*
X34925000Y-40132000D02*
X36739999Y-40132000D01*
X36739999Y-40132000D02*
X37084000Y-39787999D01*
X37084000Y-39787999D02*
X37084000Y-39243000D01*
X37084000Y-39243000D02*
X37250000Y-39077000D01*
G04 #@! TO.N,Net-(J1-Pad4)*
X43808000Y-39250000D02*
X42926000Y-40132000D01*
X44500000Y-39250000D02*
X43808000Y-39250000D01*
X40250000Y-38599000D02*
X41783000Y-40132000D01*
X40250000Y-37695000D02*
X40250000Y-38599000D01*
X42926000Y-40132000D02*
X41783000Y-40132000D01*
G04 #@! TD*
D21*
G04 #@! TO.N,GND*
G36*
X43873000Y-30920913D02*
X43773487Y-31113409D01*
X43735130Y-31246413D01*
X43621874Y-31205881D01*
X43447000Y-31332046D01*
X43447000Y-32473000D01*
X43467000Y-32473000D01*
X43467000Y-32727000D01*
X43447000Y-32727000D01*
X43447000Y-33867954D01*
X43621874Y-33994119D01*
X43844976Y-33914276D01*
X43873000Y-33896084D01*
X43873000Y-35233916D01*
X43844976Y-35215724D01*
X43621874Y-35135881D01*
X43447000Y-35262046D01*
X43447000Y-36653000D01*
X43467000Y-36653000D01*
X43467000Y-36907000D01*
X43447000Y-36907000D01*
X43447000Y-36927000D01*
X43193000Y-36927000D01*
X43193000Y-36907000D01*
X43173000Y-36907000D01*
X43173000Y-36653000D01*
X43193000Y-36653000D01*
X43193000Y-35262046D01*
X43018126Y-35135881D01*
X42795024Y-35215724D01*
X42607236Y-35337631D01*
X42462884Y-35478206D01*
X42344731Y-35399259D01*
X42170022Y-35326892D01*
X41984552Y-35290000D01*
X41795448Y-35290000D01*
X41609978Y-35326892D01*
X41435269Y-35399259D01*
X41278036Y-35504319D01*
X41260894Y-35521461D01*
X41188897Y-35449465D01*
X41163041Y-35417959D01*
X41037342Y-35314801D01*
X40893934Y-35238147D01*
X40738326Y-35190944D01*
X40617053Y-35179000D01*
X40617050Y-35179000D01*
X40576500Y-35175006D01*
X40535950Y-35179000D01*
X37442050Y-35179000D01*
X37401500Y-35175006D01*
X37360949Y-35179000D01*
X37360947Y-35179000D01*
X37239674Y-35190944D01*
X37084066Y-35238147D01*
X36940657Y-35314801D01*
X36846458Y-35392108D01*
X36846457Y-35392109D01*
X36814959Y-35417959D01*
X36789111Y-35449456D01*
X36728106Y-35510461D01*
X36721964Y-35504319D01*
X36564731Y-35399259D01*
X36390022Y-35326892D01*
X36204552Y-35290000D01*
X36015448Y-35290000D01*
X35829978Y-35326892D01*
X35655269Y-35399259D01*
X35537116Y-35478206D01*
X35392764Y-35337631D01*
X35204976Y-35215724D01*
X34981874Y-35135881D01*
X34807000Y-35262046D01*
X34807000Y-36653000D01*
X34827000Y-36653000D01*
X34827000Y-36907000D01*
X34807000Y-36907000D01*
X34807000Y-36927000D01*
X34553000Y-36927000D01*
X34553000Y-36907000D01*
X34533000Y-36907000D01*
X34533000Y-36653000D01*
X34553000Y-36653000D01*
X34553000Y-35262046D01*
X34378126Y-35135881D01*
X34155024Y-35215724D01*
X34127000Y-35233916D01*
X34127000Y-33896084D01*
X34155024Y-33914276D01*
X34378126Y-33994119D01*
X34553000Y-33867954D01*
X34553000Y-32727000D01*
X34807000Y-32727000D01*
X34807000Y-33867954D01*
X34981874Y-33994119D01*
X35204976Y-33914276D01*
X35392764Y-33792369D01*
X35553161Y-33636169D01*
X35680003Y-33451678D01*
X35768415Y-33245987D01*
X35815000Y-33027000D01*
X35815000Y-32727000D01*
X42185000Y-32727000D01*
X42185000Y-33027000D01*
X42231585Y-33245987D01*
X42319997Y-33451678D01*
X42446839Y-33636169D01*
X42607236Y-33792369D01*
X42795024Y-33914276D01*
X43018126Y-33994119D01*
X43193000Y-33867954D01*
X43193000Y-32727000D01*
X42185000Y-32727000D01*
X35815000Y-32727000D01*
X34807000Y-32727000D01*
X34553000Y-32727000D01*
X34533000Y-32727000D01*
X34533000Y-32473000D01*
X34553000Y-32473000D01*
X34553000Y-31332046D01*
X34807000Y-31332046D01*
X34807000Y-32473000D01*
X35815000Y-32473000D01*
X35815000Y-32173000D01*
X42185000Y-32173000D01*
X42185000Y-32473000D01*
X43193000Y-32473000D01*
X43193000Y-31332046D01*
X43018126Y-31205881D01*
X42795024Y-31285724D01*
X42607236Y-31407631D01*
X42446839Y-31563831D01*
X42319997Y-31748322D01*
X42231585Y-31954013D01*
X42185000Y-32173000D01*
X35815000Y-32173000D01*
X35768415Y-31954013D01*
X35680003Y-31748322D01*
X35553161Y-31563831D01*
X35392764Y-31407631D01*
X35204976Y-31285724D01*
X34981874Y-31205881D01*
X34807000Y-31332046D01*
X34553000Y-31332046D01*
X34378126Y-31205881D01*
X34263221Y-31247003D01*
X34201297Y-31052532D01*
X34127000Y-30913532D01*
X34127000Y-30710000D01*
X43873000Y-30710000D01*
X43873000Y-30920913D01*
X43873000Y-30920913D01*
G37*
X43873000Y-30920913D02*
X43773487Y-31113409D01*
X43735130Y-31246413D01*
X43621874Y-31205881D01*
X43447000Y-31332046D01*
X43447000Y-32473000D01*
X43467000Y-32473000D01*
X43467000Y-32727000D01*
X43447000Y-32727000D01*
X43447000Y-33867954D01*
X43621874Y-33994119D01*
X43844976Y-33914276D01*
X43873000Y-33896084D01*
X43873000Y-35233916D01*
X43844976Y-35215724D01*
X43621874Y-35135881D01*
X43447000Y-35262046D01*
X43447000Y-36653000D01*
X43467000Y-36653000D01*
X43467000Y-36907000D01*
X43447000Y-36907000D01*
X43447000Y-36927000D01*
X43193000Y-36927000D01*
X43193000Y-36907000D01*
X43173000Y-36907000D01*
X43173000Y-36653000D01*
X43193000Y-36653000D01*
X43193000Y-35262046D01*
X43018126Y-35135881D01*
X42795024Y-35215724D01*
X42607236Y-35337631D01*
X42462884Y-35478206D01*
X42344731Y-35399259D01*
X42170022Y-35326892D01*
X41984552Y-35290000D01*
X41795448Y-35290000D01*
X41609978Y-35326892D01*
X41435269Y-35399259D01*
X41278036Y-35504319D01*
X41260894Y-35521461D01*
X41188897Y-35449465D01*
X41163041Y-35417959D01*
X41037342Y-35314801D01*
X40893934Y-35238147D01*
X40738326Y-35190944D01*
X40617053Y-35179000D01*
X40617050Y-35179000D01*
X40576500Y-35175006D01*
X40535950Y-35179000D01*
X37442050Y-35179000D01*
X37401500Y-35175006D01*
X37360949Y-35179000D01*
X37360947Y-35179000D01*
X37239674Y-35190944D01*
X37084066Y-35238147D01*
X36940657Y-35314801D01*
X36846458Y-35392108D01*
X36846457Y-35392109D01*
X36814959Y-35417959D01*
X36789111Y-35449456D01*
X36728106Y-35510461D01*
X36721964Y-35504319D01*
X36564731Y-35399259D01*
X36390022Y-35326892D01*
X36204552Y-35290000D01*
X36015448Y-35290000D01*
X35829978Y-35326892D01*
X35655269Y-35399259D01*
X35537116Y-35478206D01*
X35392764Y-35337631D01*
X35204976Y-35215724D01*
X34981874Y-35135881D01*
X34807000Y-35262046D01*
X34807000Y-36653000D01*
X34827000Y-36653000D01*
X34827000Y-36907000D01*
X34807000Y-36907000D01*
X34807000Y-36927000D01*
X34553000Y-36927000D01*
X34553000Y-36907000D01*
X34533000Y-36907000D01*
X34533000Y-36653000D01*
X34553000Y-36653000D01*
X34553000Y-35262046D01*
X34378126Y-35135881D01*
X34155024Y-35215724D01*
X34127000Y-35233916D01*
X34127000Y-33896084D01*
X34155024Y-33914276D01*
X34378126Y-33994119D01*
X34553000Y-33867954D01*
X34553000Y-32727000D01*
X34807000Y-32727000D01*
X34807000Y-33867954D01*
X34981874Y-33994119D01*
X35204976Y-33914276D01*
X35392764Y-33792369D01*
X35553161Y-33636169D01*
X35680003Y-33451678D01*
X35768415Y-33245987D01*
X35815000Y-33027000D01*
X35815000Y-32727000D01*
X42185000Y-32727000D01*
X42185000Y-33027000D01*
X42231585Y-33245987D01*
X42319997Y-33451678D01*
X42446839Y-33636169D01*
X42607236Y-33792369D01*
X42795024Y-33914276D01*
X43018126Y-33994119D01*
X43193000Y-33867954D01*
X43193000Y-32727000D01*
X42185000Y-32727000D01*
X35815000Y-32727000D01*
X34807000Y-32727000D01*
X34553000Y-32727000D01*
X34533000Y-32727000D01*
X34533000Y-32473000D01*
X34553000Y-32473000D01*
X34553000Y-31332046D01*
X34807000Y-31332046D01*
X34807000Y-32473000D01*
X35815000Y-32473000D01*
X35815000Y-32173000D01*
X42185000Y-32173000D01*
X42185000Y-32473000D01*
X43193000Y-32473000D01*
X43193000Y-31332046D01*
X43018126Y-31205881D01*
X42795024Y-31285724D01*
X42607236Y-31407631D01*
X42446839Y-31563831D01*
X42319997Y-31748322D01*
X42231585Y-31954013D01*
X42185000Y-32173000D01*
X35815000Y-32173000D01*
X35768415Y-31954013D01*
X35680003Y-31748322D01*
X35553161Y-31563831D01*
X35392764Y-31407631D01*
X35204976Y-31285724D01*
X34981874Y-31205881D01*
X34807000Y-31332046D01*
X34553000Y-31332046D01*
X34378126Y-31205881D01*
X34263221Y-31247003D01*
X34201297Y-31052532D01*
X34127000Y-30913532D01*
X34127000Y-30710000D01*
X43873000Y-30710000D01*
X43873000Y-30920913D01*
G04 #@! TD*
M02*
