  0
SECTION
  2
HEADER
  9
$ACADVER
  1
AC1014
  9
$HANDSEED
  5
FFFF
  9
$MEASUREMENT
 70
     1
  0
ENDSEC
  0
SECTION
  2
TABLES
  0
TABLE
  2
VPORT
  5
8
330
0
100
AcDbSymbolTable
 70
     4
  0
VPORT
  5
2E
330
8
100
AcDbSymbolTableRecord
100
AcDbViewportTableRecord
  2
*ACTIVE
 70
     0
 10
0.0
 20
0.0
 11
1.0
 21
1.0
 12
210.0
 22
148.5
 13
0.0
 23
0.0
 14
10.0
 24
10.0
 15
10.0
 25
10.0
 16
0.0
 26
0.0
 36
1.0
 17
0.0
 27
0.0
 37
0.0
 40
341.0
 41
1.24
 42
50.0
 43
0.0
 44
0.0
 50
0.0
 51
0.0
 71
     0
 72
   100
 73
     1
 74
     3
 75
     0
 76
     0
 77
     0
 78
     0
  0
ENDTAB
  0
TABLE
  2
LTYPE
  5
5
330
0
100
AcDbSymbolTable
 70
     1
  0
LTYPE
  5
14
330
5
100
AcDbSymbolTableRecord
100
AcDbLinetypeTableRecord
  2
BYBLOCK
 70
     0
  3

 72
    65
 73
     0
 40
0.0
  0
LTYPE
  5
15
330
5
100
AcDbSymbolTableRecord
100
AcDbLinetypeTableRecord
  2
BYLAYER
 70
     0
  3

 72
    65
 73
     0
 40
0.0
  0
LTYPE
  5
16
330
5
100
AcDbSymbolTableRecord
100
AcDbLinetypeTableRecord
  2
CONTINUOUS
 70
     0
  3
Solid line
 72
    65
 73
     0
 40
0.0
  0
ENDTAB
  0
TABLE
  2
LAYER
  5
2
100
AcDbSymbolTable
 70
1
  0
LAYER
  5
50
100
AcDbSymbolTableRecord
100
AcDbLayerTableRecord
  2
0
 70
0
  6
CONTINUOUS
  0
ENDTAB
  0
TABLE
  2
STYLE
  5
3
330
0
100
AcDbSymbolTable
 70
     1
  0
STYLE
  5
11
330
3
100
AcDbSymbolTableRecord
100
AcDbTextStyleTableRecord
  2
STANDARD
 70
     0
 40
0.0
 41
1.0
 50
0.0
 71
     0
 42
2.5
  3
txt
  4

  0
ENDTAB
  0
TABLE
  2
VIEW
  5
6
330
0
100
AcDbSymbolTable
 70
     0
  0
ENDTAB
  0
TABLE
  2
UCS
  5
7
330
0
100
AcDbSymbolTable
 70
     0
  0
ENDTAB
  0
TABLE
  2
APPID
  5
9
330
0
100
AcDbSymbolTable
 70
     2
  0
APPID
  5
12
330
9
100
AcDbSymbolTableRecord
100
AcDbRegAppTableRecord
  2
ACAD
 70
     0
  0
ENDTAB
  0
TABLE
  2
DIMSTYLE
  5
A
330
0
100
AcDbSymbolTable
 70
     1
  0
DIMSTYLE
105
27
330
A
100
AcDbSymbolTableRecord
100
AcDbDimStyleTableRecord
  2
ISO-25
 70
     0
  3

  4

  5

  6

  7

 40
1.0
 41
2.5
 42
0.625
 43
3.75
 44
1.25
 45
0.0
 46
0.0
 47
0.0
 48
0.0
140
2.5
141
2.5
142
0.0
143
0.03937007874016
144
1.0
145
0.0
146
1.0
147
0.625
 71
     0
 72
     0
 73
     0
 74
     0
 75
     0
 76
     0
 77
     1
 78
     8
170
     0
171
     3
172
     1
173
     0
174
     0
175
     0
176
     0
177
     0
178
     0
270
     2
271
     2
272
     2
273
     2
274
     3
340
11
275
     0
280
     0
281
     0
282
     0
283
     0
284
     8
285
     0
286
     0
287
     3
288
     0
  0
ENDTAB
  0
TABLE
  2
BLOCK_RECORD
  5
1
330
0
100
AcDbSymbolTable
 70
     1
  0
BLOCK_RECORD
  5
1F
330
1
100
AcDbSymbolTableRecord
100
AcDbBlockTableRecord
  2
*MODEL_SPACE
  0
BLOCK_RECORD
  5
1B
330
1
100
AcDbSymbolTableRecord
100
AcDbBlockTableRecord
  2
*PAPER_SPACE
  0
ENDTAB
  0
ENDSEC
  0
SECTION
  2
BLOCKS
  0
BLOCK
  5
20
330
1F
100
AcDbEntity
  8
0
100
AcDbBlockBegin
  2
*MODEL_SPACE
 70
     0
 10
0.0
 20
0.0
 30
0.0
  3
*MODEL_SPACE
  1

  0
ENDBLK
  5
21
330
1F
100
AcDbEntity
  8
0
100
AcDbBlockEnd
  0
BLOCK
  5
1C
330
1B
100
AcDbEntity
 67
     1
  8
0
100
AcDbBlockBegin
  2
*PAPER_SPACE
  1

  0
ENDBLK
  5
1D
330
1B
100
AcDbEntity
 67
     1
  8
0
100
AcDbBlockEnd
  0
ENDSEC
  0
SECTION
  2
ENTITIES
  0
LINE
  5
100
100
AcDbEntity
  8
0
 62
1
100
AcDbLine
 10
0.000000
 20
15.764656
 30
0.0
 11
0.000000
 21
15.764656
 31
0.0
  0
LINE
  5
101
100
AcDbEntity
  8
0
 62
1
100
AcDbLine
 10
0.000000
 20
15.764656
 30
0.0
 11
0.000000
 21
15.764656
 31
0.0
  0
LINE
  5
102
100
AcDbEntity
  8
0
 62
1
100
AcDbLine
 10
0.000000
 20
15.764656
 30
0.0
 11
0.000000
 21
15.764656
 31
0.0
  0
LINE
  5
103
100
AcDbEntity
  8
0
 62
1
100
AcDbLine
 10
-36.470623
 20
0.000058
 30
0.0
 11
-48.408622
 21
0.000001
 31
0.0
  0
LINE
  5
104
100
AcDbEntity
  8
0
 62
7
100
AcDbLine
 10
-55.393623
 20
6.985002
 30
0.0
 11
-41.423622
 21
6.985002
 31
0.0
  0
LINE
  5
105
100
AcDbEntity
  8
0
 62
7
100
AcDbLine
 10
-41.423622
 20
6.985002
 30
0.0
 11
-41.423622
 21
-6.984999
 31
0.0
  0
LINE
  5
106
100
AcDbEntity
  8
0
 62
7
100
AcDbLine
 10
-41.423622
 20
-6.984999
 30
0.0
 11
-55.393623
 21
-6.984999
 31
0.0
  0
LINE
  5
107
100
AcDbEntity
  8
0
 62
7
100
AcDbLine
 10
-55.393623
 20
-6.984999
 30
0.0
 11
-55.393623
 21
6.985002
 31
0.0
  0
LINE
  5
108
100
AcDbEntity
  8
0
 62
1
100
AcDbLine
 10
-36.470574
 20
1.736920
 30
0.0
 11
-36.470673
 21
-1.736805
 31
0.0
  0
LINE
  5
109
100
AcDbEntity
  8
0
 62
1
100
AcDbLine
 10
-32.254223
 20
0.000351
 30
0.0
 11
-36.470623
 21
0.000033
 31
0.0
  0
LINE
  5
10a
100
AcDbEntity
  8
0
 62
7
100
AcDbLine
 10
-55.393623
 20
6.985002
 30
0.0
 11
-41.423622
 21
6.985002
 31
0.0
  0
LINE
  5
10b
100
AcDbEntity
  8
0
 62
7
100
AcDbLine
 10
-41.423622
 20
6.985002
 30
0.0
 11
-41.423622
 21
-6.984999
 31
0.0
  0
LINE
  5
10c
100
AcDbEntity
  8
0
 62
7
100
AcDbLine
 10
-41.423622
 20
-6.984999
 30
0.0
 11
-55.393623
 21
-6.984999
 31
0.0
  0
LINE
  5
10d
100
AcDbEntity
  8
0
 62
7
100
AcDbLine
 10
-55.393623
 20
-6.984999
 30
0.0
 11
-55.393623
 21
6.985002
 31
0.0
  0
LINE
  5
10e
100
AcDbEntity
  8
0
 62
1
100
AcDbLine
 10
-32.254223
 20
0.000351
 30
0.0
 11
-32.254223
 21
-6.603649
 31
0.0
  0
LINE
  5
10f
100
AcDbEntity
  8
0
 62
1
100
AcDbLine
 10
-38.909015
 20
5.689947
 30
0.0
 11
-38.909015
 21
0.000347
 31
0.0
  0
LINE
  5
110
100
AcDbEntity
  8
0
 62
1
100
AcDbLine
 10
-38.909015
 20
5.689947
 30
0.0
 11
-32.254216
 21
5.689947
 31
0.0
  0
LINE
  5
111
100
AcDbEntity
  8
0
 62
1
100
AcDbLine
 10
-38.909022
 20
-6.603649
 30
0.0
 11
-32.254223
 21
-6.603649
 31
0.0
  0
LINE
  5
112
100
AcDbEntity
  8
0
 62
1
100
AcDbLine
 10
-35.581623
 20
-6.879165
 30
0.0
 11
-35.581623
 21
-6.328134
 31
0.0
  0
LINE
  5
113
100
AcDbEntity
  8
0
 62
1
100
AcDbLine
 10
-37.105623
 20
-7.772050
 30
0.0
 11
-37.105623
 21
-6.603649
 31
0.0
  0
LINE
  5
114
100
AcDbEntity
  8
0
 62
1
100
AcDbLine
 10
-37.105623
 20
-7.772050
 30
0.0
 11
-34.057623
 21
-7.772050
 31
0.0
  0
LINE
  5
115
100
AcDbEntity
  8
0
 62
1
100
AcDbLine
 10
-34.057623
 20
-7.772050
 30
0.0
 11
-34.057623
 21
-6.603649
 31
0.0
  0
LINE
  5
116
100
AcDbEntity
  8
0
 62
1
100
AcDbLine
 10
-32.254216
 20
5.689947
 30
0.0
 11
-32.254216
 21
0.000347
 31
0.0
  0
LINE
  5
117
100
AcDbEntity
  8
0
 62
1
100
AcDbLine
 10
-38.909022
 20
0.000351
 30
0.0
 11
-38.909022
 21
-6.603649
 31
0.0
  0
LINE
  5
118
100
AcDbEntity
  8
0
 62
3
100
AcDbLine
 10
-32.254124
 20
0.508351
 30
0.0
 11
-32.254223
 21
0.000351
 31
0.0
  0
LINE
  5
119
100
AcDbEntity
  8
0
 62
1
100
AcDbLine
 10
-31.238127
 20
0.508351
 30
0.0
 11
-32.254127
 21
0.508351
 31
0.0
  0
LINE
  5
11a
100
AcDbEntity
  8
0
 62
1
100
AcDbLine
 10
-31.238127
 20
0.508351
 30
0.0
 11
-31.238127
 21
3.302351
 31
0.0
  0
LINE
  5
11b
100
AcDbEntity
  8
0
 62
1
100
AcDbLine
 10
-31.238127
 20
3.302351
 30
0.0
 11
-32.254127
 21
3.302351
 31
0.0
  0
LINE
  5
11c
100
AcDbEntity
  8
0
 62
3
100
AcDbLine
 10
-38.909015
 20
5.689947
 30
0.0
 11
-38.909114
 21
4.877151
 31
0.0
  0
LINE
  5
11d
100
AcDbEntity
  8
0
 62
1
100
AcDbLine
 10
-41.423622
 20
4.877250
 30
0.0
 11
-38.909114
 21
4.877151
 31
0.0
  0
LINE
  5
11e
100
AcDbEntity
  8
0
 62
3
100
AcDbLine
 10
-38.908923
 20
-5.816253
 30
0.0
 11
-38.909022
 21
-6.603649
 31
0.0
  0
LINE
  5
11f
100
AcDbEntity
  8
0
 62
1
100
AcDbLine
 10
-41.423432
 20
-5.816154
 30
0.0
 11
-38.908923
 21
-5.816253
 31
0.0
  0
LINE
  5
120
100
AcDbEntity
  8
0
 62
1
100
AcDbLine
 10
-47.467746
 20
0.000030
 30
0.0
 11
-49.349498
 21
-0.000027
 31
0.0
  0
LINE
  5
121
100
AcDbEntity
  8
0
 62
1
100
AcDbLine
 10
-48.408651
 20
0.940877
 30
0.0
 11
-48.408594
 21
-0.940875
 31
0.0
  0
LINE
  5
122
100
AcDbEntity
  8
0
 62
7
100
AcDbLine
 10
0.940876
 20
0.000030
 30
0.0
 11
-0.940876
 21
-0.000027
 31
0.0
  0
LINE
  5
123
100
AcDbEntity
  8
0
 62
7
100
AcDbLine
 10
-0.000028
 20
0.940877
 30
0.0
 11
0.000028
 21
-0.940875
 31
0.0
  0
LINE
  5
124
100
AcDbEntity
  8
0
 62
7
100
AcDbLine
 10
-16.154499
 20
3.302351
 30
0.0
 11
-16.154407
 21
5.689947
 31
0.0
  0
LINE
  5
125
100
AcDbEntity
  8
0
 62
7
100
AcDbLine
 10
-16.154407
 20
5.689947
 30
0.0
 11
-9.499607
 21
5.689947
 31
0.0
  0
LINE
  5
126
100
AcDbEntity
  8
0
 62
7
100
AcDbLine
 10
-9.499607
 20
5.689947
 30
0.0
 11
-9.499508
 21
4.877151
 31
0.0
  0
LINE
  5
127
100
AcDbEntity
  8
0
 62
7
100
AcDbLine
 10
-9.499508
 20
4.877151
 30
0.0
 11
-6.985000
 21
4.877250
 31
0.0
  0
LINE
  5
128
100
AcDbEntity
  8
0
 62
7
100
AcDbLine
 10
-6.985000
 20
4.877250
 30
0.0
 11
-6.985000
 21
6.985002
 31
0.0
  0
LINE
  5
129
100
AcDbEntity
  8
0
 62
7
100
AcDbLine
 10
-6.985000
 20
6.985002
 30
0.0
 11
6.985000
 21
6.985002
 31
0.0
  0
LINE
  5
12a
100
AcDbEntity
  8
0
 62
7
100
AcDbLine
 10
6.985000
 20
6.985002
 30
0.0
 11
6.985000
 21
4.877250
 31
0.0
  0
LINE
  5
12b
100
AcDbEntity
  8
0
 62
7
100
AcDbLine
 10
6.985000
 20
4.877250
 30
0.0
 11
9.499508
 21
4.877151
 31
0.0
  0
LINE
  5
12c
100
AcDbEntity
  8
0
 62
7
100
AcDbLine
 10
9.499508
 20
4.877151
 30
0.0
 11
9.499607
 21
5.689947
 31
0.0
  0
LINE
  5
12d
100
AcDbEntity
  8
0
 62
7
100
AcDbLine
 10
9.499607
 20
5.689947
 30
0.0
 11
16.154407
 21
5.689947
 31
0.0
  0
LINE
  5
12e
100
AcDbEntity
  8
0
 62
7
100
AcDbLine
 10
16.154407
 20
5.689947
 30
0.0
 11
16.154499
 21
3.302351
 31
0.0
  0
LINE
  5
12f
100
AcDbEntity
  8
0
 62
7
100
AcDbLine
 10
16.154499
 20
3.302351
 30
0.0
 11
17.170499
 21
3.302351
 31
0.0
  0
LINE
  5
130
100
AcDbEntity
  8
0
 62
7
100
AcDbLine
 10
17.170499
 20
3.302351
 30
0.0
 11
17.170499
 21
0.508351
 31
0.0
  0
LINE
  5
131
100
AcDbEntity
  8
0
 62
7
100
AcDbLine
 10
17.170499
 20
0.508351
 30
0.0
 11
16.154499
 21
0.508351
 31
0.0
  0
LINE
  5
132
100
AcDbEntity
  8
0
 62
7
100
AcDbLine
 10
16.154499
 20
0.508351
 30
0.0
 11
16.154400
 21
-6.603649
 31
0.0
  0
LINE
  5
133
100
AcDbEntity
  8
0
 62
7
100
AcDbLine
 10
16.154400
 20
-6.603649
 30
0.0
 11
14.351000
 21
-6.603649
 31
0.0
  0
LINE
  5
134
100
AcDbEntity
  8
0
 62
7
100
AcDbLine
 10
14.351000
 20
-6.603649
 30
0.0
 11
14.351000
 21
-7.772050
 31
0.0
  0
LINE
  5
135
100
AcDbEntity
  8
0
 62
7
100
AcDbLine
 10
14.351000
 20
-7.772050
 30
0.0
 11
11.303000
 21
-7.772050
 31
0.0
  0
LINE
  5
136
100
AcDbEntity
  8
0
 62
7
100
AcDbLine
 10
11.303000
 20
-7.772050
 30
0.0
 11
11.303000
 21
-6.603649
 31
0.0
  0
LINE
  5
137
100
AcDbEntity
  8
0
 62
7
100
AcDbLine
 10
11.303000
 20
-6.603649
 30
0.0
 11
9.499600
 21
-6.603649
 31
0.0
  0
LINE
  5
138
100
AcDbEntity
  8
0
 62
7
100
AcDbLine
 10
9.499600
 20
-6.603649
 30
0.0
 11
9.499699
 21
-5.816253
 31
0.0
  0
LINE
  5
139
100
AcDbEntity
  8
0
 62
7
100
AcDbLine
 10
9.499699
 20
-5.816253
 30
0.0
 11
6.985191
 21
-5.816154
 31
0.0
  0
LINE
  5
13a
100
AcDbEntity
  8
0
 62
7
100
AcDbLine
 10
6.985191
 20
-5.816154
 30
0.0
 11
6.985000
 21
-6.984999
 31
0.0
  0
LINE
  5
13b
100
AcDbEntity
  8
0
 62
7
100
AcDbLine
 10
6.985000
 20
-6.984999
 30
0.0
 11
-6.985000
 21
-6.984999
 31
0.0
  0
LINE
  5
13c
100
AcDbEntity
  8
0
 62
7
100
AcDbLine
 10
-6.985000
 20
-6.984999
 30
0.0
 11
-6.985191
 21
-5.816154
 31
0.0
  0
LINE
  5
13d
100
AcDbEntity
  8
0
 62
7
100
AcDbLine
 10
-6.985191
 20
-5.816154
 30
0.0
 11
-9.499699
 21
-5.816253
 31
0.0
  0
LINE
  5
13e
100
AcDbEntity
  8
0
 62
7
100
AcDbLine
 10
-9.499699
 20
-5.816253
 30
0.0
 11
-9.499600
 21
-6.603649
 31
0.0
  0
LINE
  5
13f
100
AcDbEntity
  8
0
 62
7
100
AcDbLine
 10
-9.499600
 20
-6.603649
 30
0.0
 11
-11.303000
 21
-6.603649
 31
0.0
  0
LINE
  5
140
100
AcDbEntity
  8
0
 62
7
100
AcDbLine
 10
-11.303000
 20
-6.603649
 30
0.0
 11
-11.303000
 21
-7.772050
 31
0.0
  0
LINE
  5
141
100
AcDbEntity
  8
0
 62
7
100
AcDbLine
 10
-11.303000
 20
-7.772050
 30
0.0
 11
-14.351000
 21
-7.772050
 31
0.0
  0
LINE
  5
142
100
AcDbEntity
  8
0
 62
7
100
AcDbLine
 10
-14.351000
 20
-7.772050
 30
0.0
 11
-14.351000
 21
-6.603649
 31
0.0
  0
LINE
  5
143
100
AcDbEntity
  8
0
 62
7
100
AcDbLine
 10
-14.351000
 20
-6.603649
 30
0.0
 11
-16.154400
 21
-6.603649
 31
0.0
  0
LINE
  5
144
100
AcDbEntity
  8
0
 62
7
100
AcDbLine
 10
-16.154400
 20
-6.603649
 30
0.0
 11
-16.154499
 21
0.508351
 31
0.0
  0
LINE
  5
145
100
AcDbEntity
  8
0
 62
7
100
AcDbLine
 10
-16.154499
 20
0.508351
 30
0.0
 11
-17.170499
 21
0.508351
 31
0.0
  0
LINE
  5
146
100
AcDbEntity
  8
0
 62
7
100
AcDbLine
 10
-17.170499
 20
0.508351
 30
0.0
 11
-17.170499
 21
3.302351
 31
0.0
  0
LINE
  5
147
100
AcDbEntity
  8
0
 62
7
100
AcDbLine
 10
-17.170499
 20
3.302351
 30
0.0
 11
-16.154499
 21
3.302351
 31
0.0
  0
ENDSEC
  0
SECTION
  2
OBJECTS
  0
DICTIONARY
  5
C
330
0
100
AcDbDictionary
  3
ACAD_GROUP
350
D
  3
ACAD_MLINESTYLE
350
17
  0
DICTIONARY
  5
D
330
C
100
AcDbDictionary
  0
DICTIONARY
  5
1A
330
C
100
AcDbDictionary
  0
DICTIONARY
  5
17
330
C
100
AcDbDictionary
  3
STANDARD
350
18
  0
DICTIONARY
  5
19
330
C
100
AcDbDictionary
  0
ENDSEC
  0
EOF
